<!--?xml version="1.0" encoding="UTF-8" standalone="no"?-->
<svg viewBox="0 0 16 16" version="1.1" xmlns="http://www.w3.org/2000/svg" xmlns:xlink="http://www.w3.org/1999/xlink" class="si-glyph si-glyph-dice-2">
    <!-- Generator: Sketch 3.0.3 (7891) - http://www.bohemiancoding.com/sketch -->
    <title>1173</title>
    
    <defs></defs>
    <g stroke="none" stroke-width="0" fill="none" fill-rule="evenodd">
        <path d="M0,0 L2.135,0 C0.945,0 0,0.966 0,2.155 L0,13.845 C0,15.034 0.945,15.999 2.135,15.999 L13.72,15.999 C14.901,15.999 15.856,15.034 15.856,13.845 L15.856,2.155 C15.855,0.966 14.9,0 13.72,0 L13.72,0 Z M4.959,10.153 C3.813,10.153 2.884,9.202 2.884,8.03 C2.884,6.858 3.813,5.907 4.959,5.907 C6.105,5.907 7.035,6.858 7.035,8.03 C7.035,9.202 6.105,10.153 4.959,10.153 L4.959,10.153 Z M10.959,10.153 C9.813,10.153 8.884,9.202 8.884,8.03 C8.884,6.858 9.813,5.907 10.959,5.907 C12.105,5.907 13.035,6.858 13.035,8.03 C13.035,9.202 12.105,10.153 10.959,10.153 L10.959,10.153 Z" fill="#434343" class="si-glyph-fill"></path>
    </g>
</svg>