<svg height="32" viewBox="0 0 32 32" width="32" xmlns="http://www.w3.org/2000/svg"><path d="m23.0700914 19.1624446c1.145499 1.030716 1.6772955 2.9538035 1.3490553 4.5881258-.3977836 1.9805824-1.9616861 3.1220244-4.144316 2.6203245-3.2692407-.7514684-4.5234425-.7434205-7.6327375-.0018666-1.987944.4741164-3.60198517-.6419933-4.25708792-2.5262304-.591388-1.7009777-.27495488-3.6610227.95285431-4.7002688 1.70095441-1.4397271 1.89640411-1.654548 3.24678231-3.5369056 1.7650917-2.4604469 5.9199335-2.5128143 7.6017205.0314803.1246196.188531.2413206.3666949.3811108.5813617.1643543.2527164.2445042.3759452.3074783.4722763.2102247.3215793.3438671.5189244.4730461.6960815.0877985.1204075.172061.2290051.2600977.3349594.3018374.3632687.6889254.7450557 1.4619961 1.4406619zm-3.0002832-.1625097c-.1157915-.1393579-.2258312-.2811772-.3378172-.4347557-.1538363-.2109722-.3036793-.4322403-.5310709-.7800796-.0644688-.0986175-.1461842-.2242533-.3094173-.4752483-.1374922-.2111379-.2518138-.3856691-.3735893-.5698974-.8905229-1.3472293-3.3412832-1.31634-4.3081915.0314803-1.4435088 2.0121769-1.7495535 2.348554-3.5797384 3.8976648-.5224027.4421737-.69833976 1.5319601-.3558964 2.5169117.3433496.9875581 1.0124256 1.4502243 1.9040274 1.2375809 3.407424-.8126565 4.9737116-.8227069 8.5447528-.0018665 1.0315581.2371142 1.5499059-.1412111 1.735436-1.0649739.1958514-.9751528-.1365573-2.1772125-.7259743-2.7075678-.8392971-.7551966-1.2845525-1.1943544-1.6625209-1.6492485zm-12.22789797-.8889904c-1.58781866 0-2.84191023-1.7195544-2.84191023-3.3073731 0-1.5878186 1.25409157-2.6961146 2.84191023-2.6961146 1.58781865 0 2.84191027 1.5857914 2.84191027 3.1736101s-1.25409162 2.8298776-2.84191027 2.8298776zm0-2c.48822476 0 .84191022-.3516075.84191022-.8298776 0-.6086308-.48622845-1.1736101-.84191022-1.1736101-.54532317 0-.84191023.2754732-.84191023.6961146 0 .6534141.53285377 1.3073731.84191023 1.3073731zm4.96166117-2.3341588c-1.5878186 0-2.87499997-1.6764215-2.87499997-3.4910714 0-1.81464991 1.28718137-3.2857143 2.87499997-3.2857143 1.5878187 0 2.752267 1.99448445 2.752267 3.8091343 0 1.8146499-1.1644483 2.9676514-2.752267 2.9676514zm0-2c.4941626 0 .752267-.2715435.752267-.9676514 0-.97294334-.5643241-1.8091343-.752267-1.8091343-.4194367 0-.875.52064375-.875 1.2857143 0 .8329226.530109 1.4910714.875 1.4910714zm11.8776245 6.3341588c-1.5878186 0-2.8419102-1.2420589-2.8419102-2.8298776s1.2540916-3.1736101 2.8419102-3.1736101c1.5878187 0 2.8419103 1.108296 2.8419103 2.6961146 0 1.5878187-1.2540916 3.3073731-2.8419103 3.3073731zm0-2c.3090565 0 .8419103-.653959.8419103-1.3073731 0-.4206414-.2965871-.6961146-.8419103-.6961146-.3556817 0-.8419102.5649793-.8419102 1.1736101 0 .4782701.3536855.8298776.8419102.8298776zm-5.0182146-2.3341588c-1.5878186 0-2.752267-1.1530015-2.752267-2.9676514 0-1.81464985 1.1644484-3.8091343 2.752267-3.8091343 1.5878187 0 2.875 1.47106439 2.875 3.2857143 0 1.8146499-1.2871813 3.4910714-2.875 3.4910714zm0-2c.344891 0 .875-.6581488.875-1.4910714 0-.76507055-.4555633-1.2857143-.875-1.2857143-.1879429 0-.752267.83619096-.752267 1.8091343 0 .6961079.2581044.9676514.752267.9676514z" fill="#212121"/></svg>