<svg height="32" viewBox="0 0 32 32" width="32" xmlns="http://www.w3.org/2000/svg"><path d="m10 10v-4c0-1.1045695.8954305-2 2-2h8c1.1045695 0 2 .8954305 2 2v4c0 3.3137085-2.6862915 6-6 6s-6-2.6862915-6-6zm10 12v-1c0-.5522847-.4477153-1-1-1s-1 .4477153-1 1v1h-1c-.5522847 0-1 .4477153-1 1s.4477153 1 1 1h1v1c0 .5522847.4477153 1 1 1s1-.4477153 1-1v-1h1c.5522847 0 1-.4477153 1-1s-.4477153-1-1-1zm-8.7970976-6.3955552c1.0948509 1.4548077 2.8361126 2.3955552 4.7970976 2.3955552 1.9634044 0 3.7065429-.9430703 4.801147-2.4009422.3351164.0218892.5550645.0476597.6198139.0773237l2.073342.9505084c.8971637.4485819 1.5107786 1.3158636 1.630528 2.2783032l1.5908934 5.7227027c.2055075 1.6440598-.9606696 3.1434304-2.6047294 3.3489378-.1234345.0154293-.2477092.0231664-.3721042.0231664h-15.46887117c-1.65685425 0-3-1.3431458-3-3 0-.1243951.00773706-.2486697.02718697-.4008686l1.64858934-6.1921151c.08294282-.6635426.4920194-1.2417304 1.11622488-1.5533639l2.52131708-1.1706317c.0646073-.0299968.2844782-.0561928.6195646-.0785759zm.7970976-10.6044448c-.5522847 0-1 .44771525-1 1v3h10v-3c0-.55228475-.4477153-1-1-1z" fill="#212121"/></svg>