<svg height="32" viewBox="0 0 32 32" width="32" xmlns="http://www.w3.org/2000/svg"><path d="m10 10v-4c0-1.1045695.8954305-2 2-2h8c1.1045695 0 2 .8954305 2 2v4c0 3.3137085-2.6862915 6-6 6s-6-2.6862915-6-6zm2 0c0 2.209139 1.790861 4 4 4s4-1.790861 4-4zm8 11h1c.5522847 0 1 .4477153 1 1s-.4477153 1-1 1h-1v1c0 .5522847-.4477153 1-1 1s-1-.4477153-1-1v-1h-1c-.5522847 0-1-.4477153-1-1s.4477153-1 1-1h1v-1c0-.5522847.4477153-1 1-1s1 .4477153 1 1zm.5879493-3.5053524c-.5021003-.2300298-.7226571-.8235385-.4926273-1.3256388.2300298-.5021004.8235386-.7226571 1.3256389-.4926273l2.073342.9505084c.8971637.4485819 1.5107786 1.3158636 1.630528 2.2783032l1.5908934 5.7227027c.2055075 1.6440598-.9606696 3.1434304-2.6047294 3.3489378-.1234345.0154293-.2477092.0231664-.3721042.0231664h-15.46887117c-1.65685425 0-3-1.3431458-3-3 0-.1243951.00773706-.2486697.02718697-.4008686l1.64858934-6.1921151c.08294282-.6635426.4920194-1.2417304 1.11622488-1.5533639l2.52131708-1.1706317c.5009257-.2325767 1.0955468-.0150368 1.3281235.4858889.2325766.5009257.0150368 1.0955468-.4858889 1.3281234l-2.49924141 1.1868171-1.64858934 6.1921152c-.0051431.0411448-.00772212.0825697-.00772212.1240347 0 .5522847.44771525 1 1 1h15.46887117c.041465 0 .0828899-.002579.1240347-.0077221.5480199-.0685025.9367456-.5682927.8729079-1.0834385l-1.5908933-5.7227027c-.0414714-.3317712-.2460097-.6208651-.5143565-.7556866zm-8.5879493-12.4946476c-.5522847 0-1 .44771525-1 1v3h10v-3c0-.55228475-.4477153-1-1-1z" fill="#212121"/></svg>