<svg height="32" viewBox="0 0 32 32" width="32" xmlns="http://www.w3.org/2000/svg"><path d="m10.1846175 8.76829809c.9171558-1.08172504 2.2860903-1.76829809 3.8153825-1.76829809h4c1.5374261 0 2.9127841.69389583 3.8299783 1.78559171.3324774-.68807502.8175211-1.13511254 1.465989-1.24945493 1.9247779-.33939027 3.4990861 2.56799162 4.1699605 6.37270972.6708745 3.8047182.1858919 7.0752085-1.738886 7.4145988-1.3541719.2387771-2.5348689-1.1295285-3.3495262-3.2867473l-.427795.427795-.4613038 3.6904302c-.345992 2.7679363-2.6989398 4.8450768-5.4884168 4.8450768s-5.1424248-2.0771405-5.4884168-4.8450768l-.4613038-3.6904302-.41110277-.4111028c-.81443802 2.1475811-1.99253345 3.5082157-3.3432093 3.2700551-1.92477788-.3393903-2.40976048-3.6098806-1.73888602-7.4145988.67087446-3.8047181 2.24518263-6.71209999 4.16996051-6.37270972.64301916.11338163 1.12534888.5538909 1.45757568 1.23216131zm3.8153825.23170191c-1.6568542 0-3 1.3431458-3 3v4.5857864l.464493.464493c.3144869.314487.5151775.7248268.5703422 1.1661441l.4613037 3.6904303c.2208849 1.7670786 1.7230306 3.0931462 3.5038611 3.0931462s3.2829762-1.3260676 3.5038611-3.0931462l.4613037-3.6904303c.0551647-.4413173.2558553-.8516571.5703422-1.1661441l.464493-.464493v-4.5857864c0-1.6568542-1.3431458-3-3-3zm11.6517768 9.2157145c.1559454-1.0516209.1070009-2.4710565-.1554645-3.9595716-.2624653-1.4885151-.7019482-2.8390884-1.2081644-3.7739522-.2205296-.4072671-.4400564-.70810019-.6276327-.87860017-.1179496.22437245-.2213464.58214567-.2892829 1.04027707-.1559453 1.0516209-.1070009 2.4710565.1554645 3.9595716s.7019482 2.8390884 1.2081644 3.7739522c.2205297.4072671.4400564.7081002.6276327.8786002.1179497-.2243725.2213464-.5821457.2892829-1.0402771zm-18.36362886.1616769c.5062162-.9348638.94569901-2.2854371 1.20816439-3.7739522.26246537-1.4885151.31140986-2.9079507.1554645-3.9595716-.06793653-.4581314-.17133324-.81590462-.28928289-1.04027707-.18757632.17049998-.40710309.47133307-.62763273.87860017-.5062162.9348638-.94569902 2.2854371-1.20816439 3.7739522s-.31140987 2.9079507-.15546451 3.9595716c.06793653.4581314.17133324.8159046.2892829 1.0402771.18757631-.1705.40710308-.4713331.62763273-.8786002zm8.71185206 4.6226086c-1.1045695 0-2-.6715729-2-1.5s.8954305-1.5 2-1.5 2 .6715729 2 1.5-.8954305 1.5-2 1.5zm-2.5-6c-.8284271 0-1.5-.6715729-1.5-1.5s.6715729-1.5 1.5-1.5 1.5.6715729 1.5 1.5-.6715729 1.5-1.5 1.5zm5 0c-.8284271 0-1.5-.6715729-1.5-1.5s.6715729-1.5 1.5-1.5 1.5.6715729 1.5 1.5-.6715729 1.5-1.5 1.5z" fill="#212121"/></svg>