<svg height="32" viewBox="0 0 32 32" width="32" xmlns="http://www.w3.org/2000/svg"><path d="m27.4557072 16h-2.3413173c1.5085074-1.9472072 1.3690466-4.7585523-.4183824-6.54598122-1.9386917-1.93869171-5.081932-1.93869171-7.0206237 0l-1.6803572 1.68035722-1.6803572-1.68035722c-1.9386918-1.93869171-5.08193206-1.93869171-7.02062376 0-1.78742894 1.78742892-1.92688972 4.59877402-.41838233 6.54598122h-2.3413173c-1.25626202-2.5944889-.80776667-5.8069421 1.34548606-7.96019478 2.71974029-2.71974029 7.12931053-2.71974029 9.84905083 0l.2661437.26614367.2661437-.26614367c2.7197403-2.71974029 7.1293105-2.71974029 9.8490508 0 2.1532527 2.15325268 2.6017481 5.36570588 1.3454861 7.96019478zm-2.45663 3-7.6481102 7.6481102c-.3638884.3638884-.8515638.5616489-1.3559404.5616489s-.992052-.1977605-1.3559404-.5616489l-7.64811019-7.6481102h2.82842713l6.17562346 6.1756234 6.1756234-6.1756234zm-10.0762898.708652-2.8698989-4.8898398-2.14753001 2.9739069c-.09399998.1301715-.24479506.2072809-.40535849.2072809h-5.5v-1h5.24432402l2.44650888-3.387934c.2113757-.2927138.6538192-.2717526.836575.0396336l2.8143632 4.7952159 1.262017-2.2749179c.1663014-.2997759.5780984-.3470884.8080533-.0928395l1.0587593 1.1706137 2.547381-6.7572032c.1702639-.4516433.8183311-.4237401.9491449.0408664l1.8207148 6.466565h6.0817875v1h-6.4604492c-.2239534 0-.4205908-.1489181-.4812868-.3644897l-1.5109504-5.3663864-2.2996703 6.1001239c-.1319928.3501253-.5876902.4365263-.8386839.159016l-1.1394701-1.2598514-1.3478867 2.4297072c-.1877942.3385188-.6724953.3443972-.8684441.0105324z" fill="#212121"/></svg>