<svg height="32" viewBox="0 0 32 32" width="32" xmlns="http://www.w3.org/2000/svg"><path d="m17.0295697 19h-7.0295697c-.55228475 0-1-.4477153-1-1s.44771525-1 1-1h7.8757235l.4401536-1.040363c.4644187-1.097717 1.5057436-1.7750772 2.6216803-1.8284478-.3734139-2.5744448-2.3814803-4.61940227-4.9375574-5.04823076v3.91704156h-1v2h-4v-2h-1v-10h6v1.04484302c5.6065.50522877 10 5.21711442 10 10.95515698 0 1.5049536-.1790892 2.4970748-.6064447 3.5546424-.1303004.3224519-.2004017.4764282-.5168718 1.1407786l1.0010353 3.7181311c.676255.4474426 1.1222812 1.2148577 1.1222812 2.0864479 0 1.3807119-1.1192881 2.5-2.5 2.5h-17c-1.38071187 0-2.5-1.1192881-2.5-2.5s1.11928813-2.5 2.5-2.5h7.837262zm6.8948268-2.8214507c.0057076.013575.011351.0271966.0169301.0408665.0401673-.3548679.0586734-.7511542.0586734-1.2194158 0-4.6325537-3.5000495-8.44762693-8-8.94507122v1.00696497c3.8616418.48153992 6.8685528 3.71535705 6.9958042 7.67652285.1006582.1224612.1873293.2297398.267625.3340976.2950387.3135094.5220755.6898932.6609673 1.1060351zm-9.9243965-3.1785493h-2v1h2zm7 7c.8284271 0 1.5-.6715729 1.5-1.5s-.6715729-1.5-1.5-1.5-1.5.6715729-1.5 1.5.6715729 1.5 1.5 1.5z" fill="#212121"/></svg>