<svg height="32" viewBox="0 0 32 32" width="32" xmlns="http://www.w3.org/2000/svg"><path d="m17.0295697 19h-7.0295697c-.55228475 0-1-.4477153-1-1s.44771525-1 1-1h7.8757235l.4401536-1.040363c.5343401-1.2629856 1.8323771-1.969511 3.1290748-1.8094263-.3734277-2.8599323-2.6059465-5.13538794-5.4449519-5.57376252v4.42355182h-1v2h-4v-2h-1v-10h6v1.54699995c5.3299323.50355976 9.5 4.99129415 9.5 10.45300005 0 1.4428615-.1676337 2.3715209-.5700259 3.3673126-.0811814.2008978-.1385617.3348492-.2539508.5827992l1.2016955 4.4634403c.676255.4474426 1.1222812 1.2148577 1.1222812 2.0864479 0 1.3807119-1.1192881 2.5-2.5 2.5h-17c-1.38071187 0-2.5-1.1192881-2.5-2.5s1.11928813-2.5 2.5-2.5h7.837262zm5.4524766-4.523034c.732602.3876299 1.2761025 1.0638974 1.4935798 1.8716705l.260795.9686672c.1842453-.648008.2635789-1.3409679.2635789-2.3173037 0-4.9089655-3.7233353-8.94829951-8.5-9.44799612v2.01408179c3.4997181.46628977 6.2364757 3.34599203 6.4820463 6.91088033zm-8.4820463-1.476966h-2v1h2zm-2-8v6h2v-6zm-4.5 20c-.27614237 0-.5.2238576-.5.5s.22385763.5.5.5h17c.2761424 0 .5-.2238576.5-.5s-.2238576-.5-.5-.5zm14.5443946-8.1314165c-.0800252-.2972365-.292483-.5410546-.5759757-.6609938-.5086362-.2151922-1.0954151.0226911-1.3106073.5313272l-2.6489197 6.2610831h6.1862687z" fill="#212121"/></svg>