<svg height="32" viewBox="0 0 32 32" width="32" xmlns="http://www.w3.org/2000/svg"><path d="m21.4141662 15.4533201c-.3146869.1595059-.6703697.3035305-1.0616813.4309541-.262572.0855019-.5447416-.0580418-.6302435-.3206138-.0781605-.2400269.0350805-.4964306.255681-.6040065-.8491113-.2163129-1.8662998-.3729527-2.9779224-.4328511v1.9914127c1.8858971.0694395 3.5809719.3351089 4.8805132.7573858.4060656-.2650777.6194868-.5373806.6194868-.7756013 0-.3579636-.3994112-.7257157-1.0858338-1.0466799zm-4.4141662-3.9222519v1.9928873c1.6880556.0818043 3.2011818.3701261 4.3418834.8187945.4313536-.282776.6581166-.5793736.6581166-.84275 0-.874452-2.1493476-1.7906009-5-1.9689318zm0-1.0032057c3.3786224.1905225 6 1.3424769 6 2.9721375 0 .4963549-.2352074.944393-.6618479 1.3349828.7354499.4615385 1.1618479 1.0256887 1.1618479 1.6650172 0 .4427496-.1952012.8445111-.5541348 1.2008437.9793443.4828137 1.5541348 1.0935157 1.5541348 1.7991563 0 1.0643281-1.2152277 1.8655693-3.2057492 2.3922137-.2669569.0706304-.5406254-.0885236-.6112558-.3554804-.0706304-.2669569.0885236-.5406254.3554805-.6112558 1.5787034-.4176872 2.4615245-.9997614 2.4615245-1.4254775 0-.387097-.5615043-.7915801-1.5074031-1.1346899-.3814044.1963669-.8270234.3708608-1.3273138.522135-.2643231.0799241-.5433907-.0695609-.6233148-.3338841-.0799242-.2643232.0695608-.5433907.333884-.6233149.0063004-.001905.0125878-.0038133.0188621-.0057249-.9805356-.2054172-2.1391184-.3520723-3.3947144-.4039302v2.479409c0 .5522847-.4477153 1-1 1s-1-.4477153-1-1v-2.479409c-1.2555865.0518575-2.4141613.1985108-3.3946922.4039256.0574544.0175101.1159911.0347471.1755985.0516906.2656198.0755032.4197398.3520381.3442366.6176579s-.352038.4197397-.6176578.3442365c-.5710808-.1623313-1.0756326-.3538706-1.5004761-.5726486-.94566065.3430793-1.507009.7475038-1.507009 1.134547 0 .4458388.95768253 1.0528574 2.6426217 1.4719376.2679779.0666518.4311849.3379227.3645331.6059006s-.3379227.4311849-.6059006.3645331c-2.10639201-.5239044-3.4012542-1.3446413-3.4012542-2.4423713 0-.7056139.57474697-1.3162964 1.55402349-1.7991014-.35887219-.3564467-.55402349-.7583116-.55402349-1.2008986 0-.6392821.4263361-1.2033968 1.1616878-1.6649167-.42654081-.3906442-.6616878-.8387865-.6616878-1.3350833 0-1.6296606 2.6213776-2.781615 6-2.9721375v-.5278625c0-.55228475.4477153-1 1-1s1 .44771525 1 1zm-2 1.0032057c-2.8506524.1783309-5 1.0944798-5 1.9689318 0 .2644084.2276528.5607715.6579981.8427966 1.1407153-.4486951 2.6538879-.737034 4.3420019-.8188411zm-4.4144643 3.9223913c-.68624011.3209313-1.0855357.6886287-1.0855357 1.0465405 0 .2393562.2141559.5113764.6192681.7756724 1.2995698-.4223182 2.994729-.6880135 4.8807319-.7574569v-1.9914127c-1.1075056.0596766-2.1212752.2153792-2.9684811.4304501.0232036.0073183.0465909.0145858.0701611.021801.2640476.0808299.412575.3604083.3317451.6244559-.0808299.2640477-.3604083.412575-.6244559.3317452-.4554886-.1394335-.8659233-.3005923-1.2234335-.4817955zm-4.5855357-9.4534595h20c1.6568542 0 3 1.34314575 3 3v14c0 1.6568542-1.3431458 3-3 3h-20c-1.65685425 0-3-1.3431458-3-3v-14c0-1.65685425 1.34314575-3 3-3zm0 2c-.55228475 0-1 .44771525-1 1v14c0 .5522847.44771525 1 1 1h20c.5522847 0 1-.4477153 1-1v-14c0-.55228475-.4477153-1-1-1z" fill="#212121"/></svg>