<svg height="32" viewBox="0 0 32 32" width="32" xmlns="http://www.w3.org/2000/svg"><path d="m22.8907479 22.4765344 4.3163589 4.3163588c.3905243.3905243.3905243 1.0236893 0 1.4142136s-1.0236893.3905243-1.4142136 0l-4.3163588-4.3163589c-.9808189.6984611-2.180704 1.1092521-3.4765344 1.1092521-3.3137085 0-6-2.6862915-6-6s2.6862915-6 6-6 6 2.6862915 6 6c0 1.2958304-.410791 2.4957155-1.1092521 3.4765344zm-1.8698258-.854604c.6098945-.7021013.9790779-1.6189022.9790779-2.6219304 0-2.209139-1.790861-4-4-4s-4 1.790861-4 4 1.790861 4 4 4c1.0030282 0 1.9198291-.3691834 2.6219304-.9790779.0446982-.0818392.1016858-.1587519.1709628-.2280289s.1461897-.1262646.2280289-.1709628zm-9.6298853-.3092882c-.4484414.2772704-.8545605.3431556-1.2313766.1657624-1.91242759-.9003104-3.1596602-2.8267776-3.1596602-4.9784046 0-1.2505338.63670404-2.7480392 1.92408872-5.0003841.15319114-.2680157.31604936-.5476817.50747918-.872389 1.7944523-3.04378808 1.9168081-3.26312902 2.1099447-3.91236196.2882045-.96880522 1.6676775-.9472183 1.9254272.03013038.1681485.63759389.371199 1.00373975 2.1116802 3.94251878.1814224.3063293.3353325.5690942.4804038.8209704.1178959.2046938.2280654.398983.3324727.5866384.0147731.0265523.0287648.0534967.0419825.0808318-3.111806.7113993-5.433479 3.4965944-5.433479 6.8240453 0 .810423.1377214 1.5886795.3910368 2.3126422zm4.7307517-.6734003-1.317496-1.5047274c.7553764-.6613858 1.1957075-1.6111771 1.1957075-2.6345145h2c0 1.6059906-.69356 3.1019951-1.8782115 4.1392419z" fill="#212121"/></svg>