<svg height="32" viewBox="0 0 32 32" width="32" xmlns="http://www.w3.org/2000/svg"><path d="m21.4141662 15.4533201c.6864226.3209642 1.0858338.6887163 1.0858338 1.0466799 0 .2382207-.2134212.5105236-.6194868.7756013-1.2995413-.4222769-2.9946161-.6879463-4.8805132-.7573858v-1.9914127c1.1116226.0598984 2.1288111.2165382 2.9779224.4328511-.2206005.1075759-.3338415.3639796-.255681.6040065.0855019.262572.3676715.4061157.6302435.3206138.3913116-.1274236.7469944-.2714482 1.0616813-.4309541zm-4.4141662-3.9222519c2.8506524.1783309 5 1.0944798 5 1.9689318 0 .2633764-.226763.559974-.6581166.84275-1.1407016-.4486684-2.6538278-.7369902-4.3418834-.8187945zm0-1.0032057v-.5278625c0-.55228475-.4477153-1-1-1s-1 .44771525-1 1v.5278625c-3.3786224.1905225-6 1.3424769-6 2.9721375 0 .4962968.23514699.9444391.6616878 1.3350833-.7353517.4615199-1.1616878 1.0256346-1.1616878 1.6649167 0 .442587.1951513.8444519.55402349 1.2008986-.97927652.482805-1.55402349 1.0934875-1.55402349 1.7991014 0 1.09773 1.29486219 1.9184669 3.4012542 2.4423713.2679779.0666518.5392488-.0965552.6059006-.3645331s-.0965552-.5392488-.3645331-.6059006c-1.68493917-.4190802-2.6426217-1.0260988-2.6426217-1.4719376 0-.3870432.56134835-.7914677 1.507009-1.134547.4248435.218778.9293953.4103173 1.5004761.5726486.2656198.0755032.5421546-.0786167.6176578-.3442365s-.0786168-.5421547-.3442366-.6176579c-.0596074-.0169435-.1181441-.0341805-.1755985-.0516906.9805309-.2054148 2.1391057-.3520681 3.3946922-.4039256v2.479409c0 .5522847.4477153 1 1 1s1-.4477153 1-1v-2.479409c1.255596.0518579 2.4141788.198513 3.3947144.4039302-.0062743.0019116-.0125617.0038199-.0188621.0057249-.2643232.0799242-.4138082.3589917-.333884.6233149.0799241.2643232.3589917.4138082.6233148.3338841.5002904-.1512742.9459094-.3257681 1.3273138-.522135.9458988.3431098 1.5074031.7475929 1.5074031 1.1346899 0 .4257161-.8828211 1.0077903-2.4615245 1.4254775-.2669569.0706304-.4261109.3442989-.3554805.6112558.0706304.2669568.3442989.4261108.6112558.3554804 1.9905215-.5266444 3.2057492-1.3278856 3.2057492-2.3922137 0-.7056406-.5747905-1.3163426-1.5541348-1.7991563.3589336-.3563326.5541348-.7580941.5541348-1.2008437 0-.6393285-.426398-1.2034787-1.1618479-1.6650172.4266405-.3905898.6618479-.8386279.6618479-1.3349828 0-1.6296606-2.6213776-2.781615-6-2.9721375zm-2 1.0032057v1.9928873c-1.688114.0818071-3.2012866.370146-4.3420019.8188411-.4303453-.2820251-.6579981-.5783882-.6579981-.8427966 0-.874452 2.1493476-1.7906009 5-1.9689318zm-4.4144643 3.9223913c.3575102.1812032.7679449.342362 1.2234335.4817955.2640476.0808298.543626-.0676975.6244559-.3317452.0808299-.2640476-.0676975-.543626-.3317451-.6244559-.0235702-.0072152-.0469575-.0144827-.0701611-.021801.8472059-.2150709 1.8609755-.3707735 2.9684811-.4304501v1.9914127c-1.8860029.0694434-3.5811621.3351387-4.8807319.7574569-.4051122-.264296-.6192681-.5363162-.6192681-.7756724 0-.3579118.39929559-.7256092 1.0855357-1.0465405zm-4.5855357-9.4534595h20c1.6568542 0 3 1.34314575 3 3v14c0 1.6568542-1.3431458 3-3 3h-20c-1.65685425 0-3-1.3431458-3-3v-14c0-1.65685425 1.34314575-3 3-3z" fill="#212121"/></svg>