<svg height="32" viewBox="0 0 32 32" width="32" xmlns="http://www.w3.org/2000/svg"><path d="m19 21h-1c-.5522847 0-1 .4477153-1 1s.4477153 1 1 1h1v1c0 .5522847.4477153 1 1 1s1-.4477153 1-1v-1h1c.5522847 0 1-.4477153 1-1s-.4477153-1-1-1h-1v-1c0-.5522847-.4477153-1-1-1s-1 .4477153-1 1zm7-15v20c0 1.1045695-.8954305 2-2 2h-16c-1.1045695 0-2-.8954305-2-2v-20c0-1.1045695.8954305-2 2-2h16c1.1045695 0 2 .8954305 2 2zm-13 3v1h9v-1zm-3 0v1h2v-1zm0 3v1h2v-1zm0 3v1h2v-1zm3-3v1h9v-1zm0 3v1h9v-1z" fill="#212121"/></svg>