<svg height="32" viewBox="0 0 32 32" width="32" xmlns="http://www.w3.org/2000/svg"><path d="m19 21v-1c0-.5522847.4477153-1 1-1s1 .4477153 1 1v1h1c.5522847 0 1 .4477153 1 1s-.4477153 1-1 1h-1v1c0 .5522847-.4477153 1-1 1s-1-.4477153-1-1v-1h-1c-.5522847 0-1-.4477153-1-1s.4477153-1 1-1zm-10-17h14c1.6568542 0 3 1.34314575 3 3v18c0 1.6568542-1.3431458 3-3 3h-14c-1.65685425 0-3-1.3431458-3-3v-18c0-1.65685425 1.34314575-3 3-3zm0 2c-.55228475 0-1 .44771525-1 1v18c0 .5522847.44771525 1 1 1h14c.5522847 0 1-.4477153 1-1v-18c0-.55228475-.4477153-1-1-1zm4 3h9v1h-9zm-3 0h2v1h-2zm0 3h2v1h-2zm0 3h2v1h-2zm3-3h9v1h-9zm0 3h9v1h-9z" fill="#212121"/></svg>