<svg height="32" viewBox="0 0 32 32" width="32" xmlns="http://www.w3.org/2000/svg"><path d="m5.84007129 16.5471781c-.52653049.6773418-.84007129 1.5284662-.84007129 2.4528219 0 2.209139 1.790861 4 4 4 .92435573 0 1.7754801-.3135408 2.4528219-.8400713zm.70710678-.7071068 5.61275063 5.6127506c.5265305-.6773418.8400713-1.5284662.8400713-2.4528219 0-2.209139-1.790861-4-4-4-.92435573 0-1.77548007.3135408-2.45282193.8400713zm18.17065913-.8539009-1.3900111-5.18759202c-.5002963-1.86713136-2.4194757-2.97517007-4.286607-2.47487373-1.8671314.50029634-2.9751701 2.41947569-2.4748738 4.28660705l1.3900111 5.187592zm.2588191.9659259-6.7614808 1.8117333 1.4569984 5.437592c.5002963 1.8671314 2.4194757 2.9751701 4.286607 2.4748737 1.8671314-.5002963 2.9751701-2.4194756 2.4748738-4.286607zm-6.4530753-10.5602433c2.9340635-.78617997 5.9499168.95502373 6.7360968 3.88908729l3.1058285 11.59110991c.78618 2.9340636-.9550237 5.9499168-3.8890873 6.7360968-2.9340635.78618-5.9499168-.9550237-6.7360968-3.8890873l-3.1058285-11.5911099c-.78618-2.93406358.9550237-5.94991684 3.8890873-6.7360968zm-9.523581 19.608147c-3.3137085 0-6-2.6862915-6-6s2.6862915-6 6-6 6 2.6862915 6 6-2.6862915 6-6 6z" fill="#212121" fill-rule="evenodd"/></svg>