<svg height="32" viewBox="0 0 32 32" width="32" xmlns="http://www.w3.org/2000/svg"><path d="m19.4040613 14.7663309c.2962743.2454809.5607473.5355948.7823011.8707729.1246196.188531.2413206.3666949.3811108.5813617.1643543.2527164.2445042.3759452.3074783.4722763.2102247.3215793.3438671.5189244.4730461.6960815.0877985.1204075.172061.2290051.2600977.3349594.3018374.3632687.6889254.7450557 1.4619961 1.4406619 1.1508307 1.0355135 1.6697274 3.1813846 1.3548283 5.0568066-.3788887 2.2565198-1.9056086 3.6675605-4.150089 3.1516437-3.2692407-.7514684-4.5234425-.7434205-7.6327375-.0018666-2.0519365.4893784-3.63932772-.8954959-4.27282594-3.0755823-.56631964-1.9489017-.26169824-4.1095705.96859233-5.1509169 1.70095441-1.4397271 1.89640411-1.654548 3.24678231-3.5369056.2499598-.3484311.5478442-.6485701.8798431-.8998813-.2099261.046865-.4309808.0710435-.6609136.0710435-1.5878186 0-2.87499997-1.6764215-2.87499997-3.4910714 0-1.81464991 1.28718137-3.2857143 2.87499997-3.2857143 1.5878187 0 2.752267 1.99448445 2.752267 3.8091343 0 .9457138-.316267 1.7117223-.8439038 2.2284758.9242839-.3286825 1.9508332-.3822541 2.8983612-.1536842-.4404562-.5099738-.6995815-1.2187642-.6995815-2.0747916 0-1.81464985 1.1644484-3.8091343 2.752267-3.8091343 1.5878187 0 2.875 1.47106439 2.875 3.2857143 0 1.8146499-1.2871813 3.4910714-2.875 3.4910714-.087638 0-.1739862-.0035125-.25892-.0104548zm-2.4040613 5.2336691v-1c0-.5522847-.4477153-1-1-1s-1 .4477153-1 1v1h-1c-.5522847 0-1 .4477153-1 1s.4477153 1 1 1h1v1c0 .5522847.4477153 1 1 1s1-.4477153 1-1v-1h1c.5522847 0 1-.4477153 1-1s-.4477153-1-1-1zm-9.15808977-.8890555c-1.58781866 0-2.84191023-1.7195544-2.84191023-3.3073731 0-1.5878186 1.25409157-2.6961146 2.84191023-2.6961146 1.58781865 0 2.84191027 1.5857914 2.84191027 3.1736101s-1.25409162 2.8298776-2.84191027 2.8298776zm16.83928567 0c-1.5878186 0-2.8419102-1.2420589-2.8419102-2.8298776s1.2540916-3.1736101 2.8419102-3.1736101c1.5878187 0 2.8419103 1.108296 2.8419103 2.6961146 0 1.5878187-1.2540916 3.3073731-2.8419103 3.3073731z" fill="#212121"/></svg>