<svg height="32" viewBox="0 0 32 32" width="32" xmlns="http://www.w3.org/2000/svg"><path d="m17 20h1c.5522847 0 1 .4477153 1 1s-.4477153 1-1 1h-1v1c0 .5522847-.4477153 1-1 1s-1-.4477153-1-1v-1h-1c-.5522847 0-1-.4477153-1-1s.4477153-1 1-1h1v-1c0-.5522847.4477153-1 1-1s1 .4477153 1 1zm2.4040613-5.2336691c.2962743.2454809.5607473.5355948.7823011.8707729.1246196.188531.2413206.3666949.3811108.5813617.1643543.2527164.2445042.3759452.3074783.4722763.2102247.3215793.3438671.5189244.4730461.6960815.0877985.1204075.172061.2290051.2600977.3349594.3018374.3632687.6889254.7450557 1.4619961 1.4406619 1.1508307 1.0355135 1.6697274 3.1813846 1.3548283 5.0568066-.3788887 2.2565198-1.9056086 3.6675605-4.150089 3.1516437-3.2692407-.7514684-4.5234425-.7434205-7.6327375-.0018666-2.0519365.4893784-3.63932772-.8954959-4.27282594-3.0755823-.56631964-1.9489017-.26169824-4.1095705.96859233-5.1509169 1.70095441-1.4397271 1.89640411-1.654548 3.24678231-3.5369056.2499598-.3484311.5478442-.6485701.8798431-.8998813-.2099261.046865-.4309808.0710435-.6609136.0710435-1.5878186 0-2.87499997-1.6764215-2.87499997-3.4910714 0-1.81464991 1.28718137-3.2857143 2.87499997-3.2857143 1.5878187 0 2.752267 1.99448445 2.752267 3.8091343 0 .9457138-.316267 1.7117223-.8439038 2.2284758.9242839-.3286825 1.9508332-.3822541 2.8983612-.1536842-.4404562-.5099738-.6995815-1.2187642-.6995815-2.0747916 0-1.81464985 1.1644484-3.8091343 2.752267-3.8091343 1.5878187 0 2.875 1.47106439 2.875 3.2857143 0 1.8146499-1.2871813 3.4910714-2.875 3.4910714-.087638 0-.1739862-.0035125-.25892-.0104548zm.6657469 4.233604c-.1157915-.1393579-.2258312-.2811772-.3378172-.4347557-.1538363-.2109722-.3036793-.4322403-.5310709-.7800796-.0644688-.0986175-.1461842-.2242533-.3094173-.4752483-.1374922-.2111379-.2518138-.3856691-.3735893-.5698974-.8905229-1.3472293-3.3412832-1.31634-4.3081915.0314803-1.4435088 2.0121769-1.7495535 2.348554-3.5797384 3.8976648-.5177769.4382583-.70922355 1.7961827-.3401584 3.0662636.3702779 1.2742541 1.0688126 1.8836709 1.8882894 1.688229 3.407424-.8126565 4.9737116-.8227069 8.5447528-.0018665.9610219.2209007 1.5221354-.2976973 1.729663-1.5336547.2112355-1.2580396-.1419371-2.7185669-.7202013-3.238887-.8392971-.7551966-1.2845525-1.1943544-1.6625209-1.6492485zm-12.22789797.1110096c-1.58781866 0-2.84191023-1.7195544-2.84191023-3.3073731 0-1.5878186 1.25409157-2.6961146 2.84191023-2.6961146 1.58781865 0 2.84191027 1.5857914 2.84191027 3.1736101s-1.25409162 2.8298776-2.84191027 2.8298776zm0-2c.48822476 0 .84191022-.3516075.84191022-.8298776 0-.6086308-.48622845-1.1736101-.84191022-1.1736101-.54532317 0-.84191023.2754732-.84191023.6961146 0 .6534141.53285377 1.3073731.84191023 1.3073731zm4.96166117-4.3341588c.4941626 0 .752267-.2715435.752267-.9676514 0-.9729433-.5643241-1.8091343-.752267-1.8091343-.4194367 0-.875.5206438-.875 1.2857143 0 .8329226.530109 1.4910714.875 1.4910714zm11.8776245 6.3341588c-1.5878186 0-2.8419102-1.2420589-2.8419102-2.8298776s1.2540916-3.1736101 2.8419102-3.1736101c1.5878187 0 2.8419103 1.108296 2.8419103 2.6961146 0 1.5878187-1.2540916 3.3073731-2.8419103 3.3073731zm0-2c.3090565 0 .8419103-.653959.8419103-1.3073731 0-.4206414-.2965871-.6961146-.8419103-.6961146-.3556817 0-.8419102.5649793-.8419102 1.1736101 0 .4782701.3536855.8298776.8419102.8298776zm-5.0182146-4.3341588c.344891 0 .875-.6581488.875-1.4910714 0-.7650705-.4555633-1.2857143-.875-1.2857143-.1879429 0-.752267.836191-.752267 1.8091343 0 .6961079.2581044.9676514.752267.9676514z" fill="#212121"/></svg>