<svg height="32" viewBox="0 0 32 32" width="32" xmlns="http://www.w3.org/2000/svg"><path d="m20 7v2c0 1.1045695.8954305 2 2 2s2-.8954305 2-2v-2c1.6568542 0 3 1.34314575 3 3v13c0 1.6568542-1.3431458 3-3 3h-16c-1.65685425 0-3-1.3431458-3-3v-13c0-1.65685425 1.34314575-3 3-3v2c0 1.1045695.8954305 2 2 2s2-.8954305 2-2v-2zm-8 13h-5v1h5v3h1v-3h6v3h1v-3h5v-1h-5v-3h5v-1h-5v-3h-1v3h-6v-3h-1v3h-5v1h5zm1 0v-3h6v3zm-6-8v1h18v-1zm3-7c.5522847 0 1 .44771525 1 1v3c0 .55228475-.4477153 1-1 1-.55228475 0-1-.44771525-1-1v-3c0-.55228475.44771525-1 1-1zm12 0c.5522847 0 1 .44771525 1 1v3c0 .55228475-.4477153 1-1 1s-1-.44771525-1-1v-3c0-.55228475.4477153-1 1-1z" fill="#212121"/></svg>