<svg height="32" viewBox="0 0 32 32" width="32" xmlns="http://www.w3.org/2000/svg"><path d="m23 7h1c1.6568542 0 3 1.34314575 3 3v13c0 1.6568542-1.3431458 3-3 3h-16c-1.65685425 0-3-1.3431458-3-3v-13c0-1.65685425 1.34314575-3 3-3h1v-1c0-.55228475.44771525-1 1-1 .5522847 0 1 .44771525 1 1v1h10v-1c0-.55228475.4477153-1 1-1s1 .44771525 1 1zm0 2c0 .55228475-.4477153 1-1 1s-1-.44771525-1-1h-10c0 .55228475-.4477153 1-1 1-.55228475 0-1-.44771525-1-1h-1c-.55228475 0-1 .44771525-1 1v13c0 .5522847.44771525 1 1 1h16c.5522847 0 1-.4477153 1-1v-13c0-.55228475-.4477153-1-1-1zm-9 3c.5522847 0 1 .4477153 1 1s-.4477153 1-1 1-1-.4477153-1-1 .4477153-1 1-1zm4 0c.5522847 0 1 .4477153 1 1s-.4477153 1-1 1-1-.4477153-1-1 .4477153-1 1-1zm4 0c.5522847 0 1 .4477153 1 1s-.4477153 1-1 1-1-.4477153-1-1 .4477153-1 1-1zm-12 4c.5522847 0 1 .4477153 1 1s-.4477153 1-1 1c-.55228475 0-1-.4477153-1-1s.44771525-1 1-1zm4 0c.5522847 0 1 .4477153 1 1s-.4477153 1-1 1-1-.4477153-1-1 .4477153-1 1-1zm4 0c.5522847 0 1 .4477153 1 1s-.4477153 1-1 1-1-.4477153-1-1 .4477153-1 1-1zm4 0c.5522847 0 1 .4477153 1 1s-.4477153 1-1 1-1-.4477153-1-1 .4477153-1 1-1zm-12 4c.5522847 0 1 .4477153 1 1s-.4477153 1-1 1c-.55228475 0-1-.4477153-1-1s.44771525-1 1-1zm4 0c.5522847 0 1 .4477153 1 1s-.4477153 1-1 1-1-.4477153-1-1 .4477153-1 1-1zm4 0c.5522847 0 1 .4477153 1 1s-.4477153 1-1 1-1-.4477153-1-1 .4477153-1 1-1z" fill="#212121"/></svg>