<svg height="32" viewBox="0 0 32 32" width="32" xmlns="http://www.w3.org/2000/svg"><path d="m26 26.5659275v-.9442397c-.3167929.0997124-.65136.1826811-1 .2452629v.9818577c.3489363-.0713626.6844887-.16663 1-.2828809zm1-.4806109c.6571463-.4058858 1-.8447741 1-1.0853166v-.3951055c-.283885.2246994-.62057.434709-1 .6201303zm-3 .8980248v-.9979803c-.164681.0096535-.3314552.0146389-.5.0146389s-.335319-.0049854-.5-.0146389v.9979803c.1654116.0110173.3322798.0166586.5.0166586s.3345884-.0056413.5-.0166586zm-2-.134533v-.9818577c-.34864-.0625818-.6832071-.1455505-1-.2452629v.9442397c.3155113.1162509.6510637.2115183 1 .2828809zm-2-.7634918v-.8602918c-.37943-.1854213-.716115-.3954309-1-.6201303v.3951055c0 .2405425.3428537.6794308 1 1.0853166zm6 2.5712617v-1.0348905c-.3167929.0997124-.65136.1826811-1 .2452629v1.0287678c.3664227-.0566914.6993074-.1364465 1-.2391402zm1-.5073779c.4643768-.3397526.7935153-.7806118 1-1.3214086v-.2228973c-.283885.2246994-.62057.434709-1 .6201303zm-3 .8406875v-1.0045268c-.164681.0096535-.3314552.0146389-.5.0146389s-.335319-.0049854-.5-.0146389v1.0045268c.1616043.0067391.3282462.0101121.5.0101121s.3383957-.003373.5-.0101121zm-2-.0941694v-1.0287678c-.34864-.0625818-.6832071-.1455505-1-.2452629v1.0348905c.3006926.1026937.6335773.1824488 1 .2391402zm-2-.7465181v-.9241756c-.37943-.1854213-.716115-.3954309-1-.6201303v.2228973c.2064847.5407968.5356232.981656 1 1.3214086zm7.9790264-5.0344442c-.554556-1.4021907-1.968895-2.1147562-4.4758526-2.1147562-2.5069369 0-3.9237385.7127977-4.4819557 2.1154881.0894386.2670062.4604884.6712263 1.0915002 1.0372984.9084128.5270023 2.1236637.8472135 3.3872817.8472135s2.4788689-.3202112 3.3872817-.8472135c.6315885-.3664067 1.0027397-.7710312 1.0917447-1.0380303zm-3.1003662-4.0593126c-.4325122-.0369624-.8908153-.0554436-1.3749093-.0554436-3.560939 0-5.728856 1-6.5037509 3v4h-8c-1.65685425 0-3-1.3431458-3-3 0-.1243951.00773706-.2486697.02718697-.4008686l.64858934-4.1921151c.08294282-.6635426.4920194-1.2417304 1.11622488-1.5533639l2.49522081-1.1580527c.5954095-.2977048.9394499-.1524495 1.6055164.2969037.0984653.0664283.4649207.3236834.489844.3409508.2050328.1420515.3771713.2553989.5549625.3631943.8925347.5411465 1.7725703.8344025 2.796996.8344025 1.1021406 0 2.124514-.3119853 3.0727003-.8448362.3345573-.1880106.6275562-.3844678.9232849-.6070597.0746881-.056217.2751666-.211291.2810943-.2158009.0607217-.046054.0983185-.0733347.1448785-.1032752.0557506-.0356014.0557506-.0356014.1706633-.0914197.172979-.0967059.172979-.0967059.854487.0224281l2.0426341.9358025c.8971638.4485819 1.5107787 1.3158636 1.6305281 2.2783032zm-9.1442246-3.0554436c-3.3137085 0-6.00000004-2.6862915-6.00000004-6s2.68629154-6 6.00000004-6 6 2.6862915 6 6-2.6862915 6-6 6zm2.2655644 7c.6556803-2 2.4900716-3 5.5031738-3s4.8453776 1 5.4968262 3v4c-.6640625 2-2.4973958 3-5.5 3s-4.8359375-1-5.5-3z" fill="#212121"/></svg>