<svg height="32" viewBox="0 0 32 32" width="32" xmlns="http://www.w3.org/2000/svg"><path d="m17.4472136 18.6910874 2.0426342.9358025c.8971637.4485819 1.5107786 1.3158636 1.630528 2.2783032l.5908934 3.7227027c.2055075 1.6440598-.9606696 3.1434304-2.6047294 3.3489378-.1234345.0154293-.2477092.0231664-.3721042.0231664h-13.46887116c-1.65685425 0-3-1.3431458-3-3 0-.1243951.00773706-.2486697.02718697-.4008686l.64858934-4.1921151c.08294282-.6635426.49201939-1.2417304 1.11622488-1.5533639l2.49522077-1.1580527c.59540958-.2977048.93944993-.1524495 1.60551642.2969037.09846527.0664283.46492076.3236834.48984401.3409508.20503283.1420515.37717135.2553989.55496251.3631943.89253476.5411465 1.77257026.8344025 2.79699596.8344025 1.1021406 0 2.124514-.3119853 3.0727003-.8448362.3345573-.1880106.6275563-.3844678.9232849-.6070597.0746881-.056217.2751666-.211291.2810944-.2158009.0607217-.046054.0983184-.0733347.1448784-.1032752.0557507-.0356014.0557507-.0356014.1706633-.0914197.1729791-.0967059.1729791-.0967059.854487.0224281zm-5.4472136.3089126c-3.3137085 0-6-2.6862915-6-6s2.6862915-6 6-6 6 2.6862915 6 6-2.6862915 6-6 6zm6.7121366-4.006784c.1873072-.6317158.2878634-1.3007228.2878634-1.993216 0-3.28354239-2.2608045-6.03904561-5.3107066-6.79480293 1.0050997-1.90595701 3.0061762-3.20519707 5.3107066-3.20519707 3.3137085 0 6 2.6862915 6 6s-2.6862915 6-6 6c-.0965035 0-.192475-.0022783-.2878634-.006784zm4.0226125 10.006784c-.0001543-.1228607-.0078499-.247064-.0234799-.3721042l-.5908934-3.7227027c-.1197494-.9624396-.7333643-1.8297213-1.630528-2.2783032l-2.0426342-.9358025c-.3573468-.0624676-.8022599-.0921805-1.1695973-.092372.3083941-.3536256.5818268-.738534.8149103-1.1493373.2919363.0540105.5929474.0816729.9075787.0816729 1.1021406 0 2.124514-.3119853 3.0727003-.8448362.3345573-.1880106.6275563-.3844678.9232849-.6070597.0746881-.056217.2751666-.211291.2810944-.2158009.0607217-.046054.0983184-.0733347.1448784-.1032752.0557507-.0356014.0557507-.0356014.1706633-.0914197.1729791-.0967059.1729791-.0967059.854487.0224281l2.0426342.9358025c.8971637.4485819 1.5107786 1.3158636 1.630528 2.2783032l.5908934 3.7227027c.2055075 1.6440598-.9606696 3.1434304-2.6047294 3.3489378-.1234345.0154293-.2477092.0231664-.3721042.0231664z" fill="#212121"/></svg>