<svg height="32" viewBox="0 0 32 32" width="32" xmlns="http://www.w3.org/2000/svg"><path d="m22.3749117 24.9926523-.25-1.9985889h3.6068892c.0414358 0 .0828314-.0025772.1239472-.0077167.5476333-.0684542.9360848-.5678918.8722921-1.0826741l-.5904765-3.7200763c-.0414421-.3315372-.2458361-.6204271-.5139936-.7551534l-2.0411931-.9351423c-.5017461-.2298676-.7221472-.8229576-.4922797-1.3247037.2298676-.5017461.8229576-.7221472 1.3247037-.4922797l2.0718792.9498378c.8965308.4482654 1.5097127 1.3149352 1.6293777 2.2766959l.5904765 3.7200763c.2053624 1.6428999-.9599919 3.1412126-2.6028918 3.3465751-.1233474.0154184-.2475344.02315-.3718417.02315zm-3.6627751-9.9994363c.1873072-.6317158.2878634-1.3007228.2878634-1.993216 2.209139 0 4-1.790861 4-4s-1.790861-4-4-4c-1.4672985 0-2.7500717.79004663-3.4461355 1.96795579-.5739993-.33890992-1.200585-.59822479-1.8645711-.76275872 1.0050997-1.90595701 3.0061762-3.20519707 5.3107066-3.20519707 3.3137085 0 6 2.6862915 6 6s-2.6862915 6-6 6c-.0965035 0-.192475-.0022783-.2878634-.006784zm-2.1286424 5.5014316c-.5021003-.2300298-.7226571-.8235385-.4926273-1.3256388.2300299-.5021004.8235386-.7226571 1.3256389-.4926273l2.073342.9505084c.8971637.4485819 1.5107786 1.3158636 1.630528 2.2783032l.5908934 3.7227027c.2055075 1.6440598-.9606696 3.1434304-2.6047294 3.3489378-.1234345.0154293-.2477092.0231664-.3721042.0231664h-13.46887116c-1.65685425 0-3-1.3431458-3-3 0-.1243951.00773706-.2486697.02718697-.4008686l.64858934-4.1921151c.08294282-.6635426.49201939-1.2417304 1.11622488-1.5533639l2.52131709-1.1706317c.50092569-.2325767 1.09554682-.0150368 1.32812347.4858889.23257666.5009257.01503678 1.0955468-.48588891 1.3281234l-2.49924138 1.1868171-.64858934 4.1921152c-.0051431.0411448-.00772212.0825697-.00772212.1240347 0 .5522847.44771525 1 1 1h13.46887116c.041465 0 .0828899-.002579.1240347-.0077221.5480199-.0685025.9367456-.5682927.8729079-1.0834385l-.5908933-3.7227027c-.0414714-.3317712-.2460097-.6208651-.5143565-.7556866zm-4.5834942-1.4946476c-3.3137085 0-6-2.6862915-6-6s2.6862915-6 6-6 6 2.6862915 6 6-2.6862915 6-6 6zm0-2c2.209139 0 4-1.790861 4-4s-1.790861-4-4-4-4 1.790861-4 4 1.790861 4 4 4z" fill="#212121"/></svg>