<svg height="32" viewBox="0 0 32 32" width="32" xmlns="http://www.w3.org/2000/svg"><path d="m18.9847625 17.980099c-.6186882-.8322248-.9847625-1.8634113-.9847625-2.980099 0-2.7614237 2.2385763-5 5-5s5 2.2385763 5 5c0 1.1166877-.3660743 2.1478742-.9847625 2.980099 1.2202648 1.3677553 1.9847625 3.2568054 1.9847625 5.019901v2h-12v-2c0-1.7630956.7644977-3.6521457 1.9847625-5.019901zm-14.00000003 0c-.61868815-.8322248-.98476247-1.8634113-.98476247-2.980099 0-2.7614237 2.23857625-5 5-5 2.7614237 0 5 2.2385763 5 5 0 1.1166877-.3660743 2.1478742-.9847625 2.980099 1.2202648 1.3677553 1.9847625 3.2568054 1.9847625 5.019901v2h-12v-2c0-1.7630956.76449768-3.6521457 1.98476247-5.019901zm4.01523753.019901c1.6568542 0 3-1.3431458 3-3s-1.3431458-3-3-3c-1.65685425 0-3 1.3431458-3 3s1.34314575 3 3 3zm14 0c1.6568542 0 3-1.3431458 3-3s-1.3431458-3-3-3-3 1.3431458-3 3 1.3431458 3 3 3zm-3.888682 5h7.777364c-.2088195-.968015-.6987916-2.9395286-1.3621136-3.6844437-.7558581.4433478-1.6232739.6844437-2.5265684.6844437s-1.7707103-.2410959-2.5265684-.6844437c-.663322.7449151-1.1532941 2.7164287-1.3621136 3.6844437z" fill="#212121"/></svg>