<svg height="32" viewBox="0 0 32 32" width="32" xmlns="http://www.w3.org/2000/svg"><path d="m20.6209598 10.0353009.7213084-1.7853009 4.4392834 5.0291911-6.6869229.533912.776954-1.9230287-12.765502-5.47092937c-.50762978-.21755562-.74278135-.80543455-.52522573-1.31306433s.80543455-.74278135 1.31306433-.52522573zm4.3790402 11.5863869v.9442397c-.3155113.1162509-.6510637.2115183-1 .2828809v-.9818577c.34864-.0625818.6832071-.1455505 1-.2452629zm1-.396663c.373593-.1825689.7057462-.3889754.9868612-.6097709.0087592-.4039844.0131388-.9424023.0131388-1.6152539 0 .2539394-.3821074.7289334-1.1127183 1.1527865-.9084128.5270023-2.1236637.8472135-3.3872817.8472135s-2.4788689-.3202112-3.3872817-.8472135c-.7306109-.4238531-1.1127183-.8988471-1.1127183-1.1527865 0 .7685243.0023292 1.3053289.0069875 1.6104138.2824167.2226193.6166909.4307087.9930125.614611v.8602918c-.6571463-.4058858-1-.8447741-1-1.0853166 0 .7685243.0023292 1.3053289.0069875 1.6104138.2824167.2226193.6166909.4307087.9930125.614611v.8602918c.0365995.0226057.0741739.045109.1127183.0674699.2707794.1570887.5688218.2958036.8872817.413141v-.9442397c.3167929.0997124.65136.1826811 1 .2452629v.9818577c.3235928.0661794.6586959.1118004 1 .134533v-.9979803c.164681.0096535.3314552.0146389.5.0146389s.335319-.0049854.5-.0146389v.9979803c.3413041-.0227326.6764072-.0683536 1-.134533v-.9818577c.34864-.0625818.6832071-.1455505 1-.2452629v.9442397c.3184599-.1173374.6165023-.2560523.8872817-.413141.0385444-.0223609.0761188-.0448642.1127183-.0674699v-.8602918c.373593-.1825689.7057462-.3889754.9868612-.6097709.0087592-.4039844.0131388-.9424023.0131388-1.6152539 0 .2405425-.3428537.6794308-1 1.0853166zm-3 .7603363v.9979803c-.1654116.0110173-.3322798.0166586-.5.0166586s-.3345884-.0056413-.5-.0166586v-.9979803c.164681.0096535.3314552.0146389.5.0146389s.335319-.0049854.5-.0146389zm-2 .8634473c-.3489363-.0713626-.6844887-.16663-1-.2828809v-.9442397c.3167929.0997124.65136.1826811 1 .2452629zm-9-5.2271206v.9442397c-.3155113.1162509-.6510637.2115183-1 .2828809v-.9818577c.34864-.0625818.6832071-.1455505 1-.2452629zm1-.396663c.373593-.1825689.7057462-.3889754.9868612-.6097709.0087592-.4039844.0131388-.9424023.0131388-1.6152539 0 .2539394-.3821074.7289334-1.1127183 1.1527865-.9084128.5270023-2.1236637.8472135-3.3872817.8472135s-2.47886891-.3202112-3.38728171-.8472135c-.73061088-.4238531-1.11271829-.8988471-1.11271829-1.1527865 0 .7685243.00232915 1.3053289.00698745 1.6104138.28241671.2226193.61669092.4307087.99301255.614611v.8602918c-.65714629-.4058858-1-.8447741-1-1.0853166 0 .7685243.00232915 1.3053289.00698745 1.6104138.28241671.2226193.61669092.4307087.99301255.614611v.8602918c-.65714629-.4058858-1-.8447741-1-1.0853166 0 .7685243.00232915 1.3053289.00698745 1.6104138.28241671.2226193.61669092.4307087.99301255.614611v.8602918c-.65714629-.4058858-1-.8447741-1-1.0853166 0 .7685243.00232915 1.3053289.00698745 1.6104138.28241671.2226193.61669092.4307087.99301255.614611v.8602918c.03659951.0226057.07417392.045109.11271829.0674699.2707794.1570887.56882182.2958036.88728171.413141v-.9442397c.31679294.0997124.65136.1826811 1 .2452629v.9818577c.32359276.0661794.6586959.1118004 1 .134533v-.9979803c.16468102.0096535.33145515.0146389.5.0146389s.33531898-.0049854.5-.0146389v.9979803c.3413041-.0227326.6764072-.0683536 1-.134533v-.9818577c.34864-.0625818.6832071-.1455505 1-.2452629v.9442397c.3184599-.1173374.6165023-.2560523.8872817-.413141.0385444-.0223609.0761188-.0448642.1127183-.0674699v-.8602918c.373593-.1825689.7057462-.3889754.9868612-.6097709.0087592-.4039844.0131388-.9424023.0131388-1.6152539 0 .2405425-.3428537.6794308-1 1.0853166v-.8602918c.373593-.1825689.7057462-.3889754.9868612-.6097709.0087592-.4039844.0131388-.9424023.0131388-1.6152539 0 .2405425-.3428537.6794308-1 1.0853166v-.8602918c.373593-.1825689.7057462-.3889754.9868612-.6097709.0087592-.4039844.0131388-.9424023.0131388-1.6152539 0 .2405425-.3428537.6794308-1 1.0853166zm-1 5.3409027c-.3155113.1162509-.6510637.2115183-1 .2828809v-.9818577c.34864-.0625818.6832071-.1455505 1-.2452629zm0-2c-.3155113.1162509-.6510637.2115183-1 .2828809v-.9818577c.34864-.0625818.6832071-.1455505 1-.2452629zm-2-2.5805664v.9979803c-.16541164.0110173-.33227977.0166586-.5.0166586s-.33458836-.0056413-.5-.0166586v-.9979803c.16468102.0096535.33145515.0146389.5.0146389s.33531898-.0049854.5-.0146389zm0 2v.9979803c-.16541164.0110173-.33227977.0166586-.5.0166586s-.33458836-.0056413-.5-.0166586v-.9979803c.16468102.0096535.33145515.0146389.5.0146389s.33531898-.0049854.5-.0146389zm0 2v.9979803c-.16541164.0110173-.33227977.0166586-.5.0166586s-.33458836-.0056413-.5-.0166586v-.9979803c.16468102.0096535.33145515.0146389.5.0146389s.33531898-.0049854.5-.0146389zm-2 .8634473c-.34893635-.0713626-.68448874-.16663-1-.2828809v-.9442397c.31679294.0997124.65136.1826811 1 .2452629zm0-2c-.34893635-.0713626-.68448874-.16663-1-.2828809v-.9442397c.31679294.0997124.65136.1826811 1 .2452629zm0-2c-.34893635-.0713626-.68448874-.16663-1-.2828809v-.9442397c.31679294.0997124.65136.1826811 1 .2452629zm-4-3.8488084c.65568034-2 2.49007161-3 5.50317383-3 3.01310217 0 4.84537757 1 5.49682617 3v8c-.6640625 2-2.4973958 3-5.5 3-3.00260417 0-4.8359375-1-5.5-3zm13 4c.6556803-2 2.4900716-3 5.5031738-3s4.8453776 1 5.4968262 3v4c-.6640625 2-2.4973958 3-5.5 3s-4.8359375-1-5.5-3z" fill="#212121"/></svg>