<svg height="32" viewBox="0 0 32 32" width="32" xmlns="http://www.w3.org/2000/svg"><path d="m9 3h14c1.6568542 0 3 1.34314575 3 3v20c0 1.6568542-1.3431458 3-3 3h-14c-1.65685425 0-3-1.3431458-3-3v-20c0-1.65685425 1.34314575-3 3-3zm0 2c-.55228475 0-1 .44771525-1 1v20c0 .5522847.44771525 1 1 1h14c.5522847 0 1-.4477153 1-1v-20c0-.55228475-.4477153-1-1-1zm1 1h12c.5522847 0 1 .44771525 1 1v3c0 .5522847-.4477153 1-1 1h-12c-.55228475 0-1-.4477153-1-1v-3c0-.55228475.44771525-1 1-1zm0 6h2c.5522847 0 1 .4477153 1 1v2c0 .5522847-.4477153 1-1 1h-2c-.55228475 0-1-.4477153-1-1v-2c0-.5522847.44771525-1 1-1zm5 0h2c.5522847 0 1 .4477153 1 1v2c0 .5522847-.4477153 1-1 1h-2c-.5522847 0-1-.4477153-1-1v-2c0-.5522847.4477153-1 1-1zm5 0h2c.5522847 0 1 .4477153 1 1v2c0 .5522847-.4477153 1-1 1h-2c-.5522847 0-1-.4477153-1-1v-2c0-.5522847.4477153-1 1-1zm-10 5h2c.5522847 0 1 .4477153 1 1v2c0 .5522847-.4477153 1-1 1h-2c-.55228475 0-1-.4477153-1-1v-2c0-.5522847.44771525-1 1-1zm5 0h2c.5522847 0 1 .4477153 1 1v2c0 .5522847-.4477153 1-1 1h-2c-.5522847 0-1-.4477153-1-1v-2c0-.5522847.4477153-1 1-1zm5 0h2c.5522847 0 1 .4477153 1 1v7c0 .5522847-.4477153 1-1 1h-2c-.5522847 0-1-.4477153-1-1v-7c0-.5522847.4477153-1 1-1zm-10 5h2c.5522847 0 1 .4477153 1 1v2c0 .5522847-.4477153 1-1 1h-2c-.55228475 0-1-.4477153-1-1v-2c0-.5522847.44771525-1 1-1zm5 0h2c.5522847 0 1 .4477153 1 1v2c0 .5522847-.4477153 1-1 1h-2c-.5522847 0-1-.4477153-1-1v-2c0-.5522847.4477153-1 1-1zm-4-13h10v-1h-10zm-1 4v2h2v-2zm5 0v2h2v-2zm5 0v2h2v-2zm-10 5v2h2v-2zm5 0v2h2v-2zm5 0v7h2v-7zm-10 5v2h2v-2zm5 0v2h2v-2z" fill="#212121"/></svg>