<svg height="32" viewBox="0 0 32 32" width="32" xmlns="http://www.w3.org/2000/svg"><path d="m25 22.5659275v-.9442397c-.3167929.0997124-.65136.1826811-1 .2452629v.9818577c.3489363-.0713626.6844887-.16663 1-.2828809zm1-.4806109c.6571463-.4058858 1-.8447741 1-1.0853166v-.3951055c-.283885.2246994-.62057.434709-1 .6201303zm-3 .8980248v-.9979803c-.164681.0096535-.3314552.0146389-.5.0146389s-.335319-.0049854-.5-.0146389v.9979803c.1654116.0110173.3322798.0166586.5.0166586s.3345884-.0056413.5-.0166586zm-2-.134533v-.9818577c-.34864-.0625818-.6832071-.1455505-1-.2452629v.9442397c.3155113.1162509.6510637.2115183 1 .2828809zm-2-.7634918v-.8602918c-.37943-.1854213-.716115-.3954309-1-.6201303v.3951055c0 .2405425.3428537.6794308 1 1.0853166zm6 2.5712617v-1.0348905c-.3167929.0997124-.65136.1826811-1 .2452629v1.0287678c.3664227-.0566914.6993074-.1364465 1-.2391402zm1-.5073779c.4643768-.3397526.7935153-.7806118 1-1.3214086v-.2228973c-.283885.2246994-.62057.434709-1 .6201303zm-3 .8406875v-1.0045268c-.164681.0096535-.3314552.0146389-.5.0146389s-.335319-.0049854-.5-.0146389v1.0045268c.1616043.0067391.3282462.0101121.5.0101121s.3383957-.003373.5-.0101121zm-2-.0941694v-1.0287678c-.34864-.0625818-.6832071-.1455505-1-.2452629v1.0348905c.3006926.1026937.6335773.1824488 1 .2391402zm-2-.7465181v-.9241756c-.37943-.1854213-.716115-.3954309-1-.6201303v.2228973c.2064847.5407968.5356232.981656 1 1.3214086zm7.9790264-5.0344442c-.554556-1.4021907-1.968895-2.1147562-4.4758526-2.1147562-2.5069369 0-3.9237385.7127977-4.4819557 2.1154881.0894386.2670062.4604884.6712263 1.0915002 1.0372984.9084128.5270023 2.1236637.8472135 3.3872817.8472135s2.4788689-.3202112 3.3872817-.8472135c.6315885-.3664067 1.0027397-.7710312 1.0917447-1.0380303zm-6.3580666-9.0794553.7213084-1.7853009 4.4392834 5.0291911-6.6869229.533912.776954-1.9230287-12.765502-5.47092937c-.50762978-.21755562-.74278135-.80543455-.52522573-1.31306433s.80543455-.74278135 1.31306433-.52522573zm-8.6209598 8.5306266v-.9442397c-.3167929.0997124-.65136.1826811-1 .2452629v.9818577c.3489363-.0713626.6844887-.16663 1-.2828809zm1-.4806109c.6571463-.4058858 1-.8447741 1-1.0853166v-.3951055c-.283885.2246994-.62057.434709-1 .6201303zm-3 .8980248v-.9979803c-.16468102.0096535-.33145515.0146389-.5.0146389s-.33531898-.0049854-.5-.0146389v.9979803c.16541164.0110173.33227977.0166586.5.0166586s.33458836-.0056413.5-.0166586zm-2-.134533v-.9818577c-.34864-.0625818-.68320706-.1455505-1-.2452629v.9442397c.31551126.1162509.65106365.2115183 1 .2828809zm-2-.7634918v-.8602918c-.37942995-.1854213-.71611502-.3954309-1-.6201303v.3951055c.00000001.2405425.34285372.6794308 1 1.0853166zm6 2.4806109v-.9442397c-.3167929.0997124-.65136.1826811-1 .2452629v.9818577c.3489363-.0713626.6844887-.16663 1-.2828809zm1-.4806109c.6571463-.4058858 1-.8447741 1-1.0853166v-.3951055c-.283885.2246994-.62057.434709-1 .6201303zm-3 .8980248v-.9979803c-.16468102.0096535-.33145515.0146389-.5.0146389s-.33531898-.0049854-.5-.0146389v.9979803c.16541164.0110173.33227977.0166586.5.0166586s.33458836-.0056413.5-.0166586zm-2-.134533v-.9818577c-.34864-.0625818-.68320706-.1455505-1-.2452629v.9442397c.31551126.1162509.65106365.2115183 1 .2828809zm-2-.7634918v-.8602918c-.37942995-.1854213-.71611502-.3954309-1-.6201303v.3951058c.00000001.2405422.34285372.6794305 1 1.0853163zm6 2.4806109v-.9442397c-.3167929.0997124-.65136.1826811-1 .2452629v.9818577c.3489363-.0713626.6844887-.16663 1-.2828809zm1-.4806109c.6571463-.4058858 1-.8447741 1-1.0853166v-.3951055c-.283885.2246994-.62057.434709-1 .6201303zm-3 .8980248v-.9979803c-.16468102.0096535-.33145515.0146389-.5.0146389s-.33531898-.0049854-.5-.0146389v.9979803c.16541164.0110173.33227977.0166586.5.0166586s.33458836-.0056413.5-.0166586zm-2-.134533v-.9818577c-.34864-.0625818-.68320706-.1455505-1-.2452629v.9442397c.31551126.1162509.65106365.2115183 1 .2828809zm-2-.7634918v-.8602918c-.37942995-.1854213-.71611502-.3954309-1-.6201303v.3951055c0 .2405425.34285371.6794308 1 1.0853166zm6 2.5712617v-1.0348905c-.3167929.0997124-.65136.1826811-1 .2452629v1.0287678c.3664227-.0566914.6993074-.1364465 1-.2391402zm1-.5073779c.4643768-.3397526.7935153-.7806118 1-1.3214086v-.2228973c-.283885.2246994-.62057.434709-1 .6201303zm-3 .8406875v-1.0045268c-.16468102.0096535-.33145515.0146389-.5.0146389s-.33531898-.0049854-.5-.0146389v1.0045268c.16160434.0067391.32824617.0101121.5.0101121s.33839566-.003373.5-.0101121zm-2-.0941694v-1.0287678c-.34864-.0625818-.68320706-.1455505-1-.2452629v1.0348905c.30069257.1026937.63357734.1824488 1 .2391402zm-2-.7465181v-.9241756c-.37942995-.1854213-.71611502-.3954309-1-.6201303v.2228973c.20648466.5407968.53562319.981656 1 1.3214086zm7.9790264-9.0344442c-.554556-1.4021907-1.968895-2.1147562-4.47585257-2.1147562-2.5069369 0-3.92373854.7127977-4.48195573 2.1154881.08943861.2670062.46048845.6712263 1.09150019 1.0372984.9084128.5270023 2.12366371.8472135 3.38728171.8472135s2.4788689-.3202112 3.3872817-.8472135c.6315885-.3664067 1.0027397-.7710312 1.0917447-1.0380303zm-9.9790264-.1147562c.65568034-2 2.49007161-3 5.50317383-3 3.01310217 0 4.84537757 1 5.49682617 3v8c-.6640625 2-2.4973958 3-5.5 3-3.00260417 0-4.8359375-1-5.5-3zm13 4c.6556803-2 2.4900716-3 5.5031738-3s4.8453776 1 5.4968262 3v4c-.6640625 2-2.4973958 3-5.5 3s-4.8359375-1-5.5-3z" fill="#212121"/></svg>