<svg height="32" viewBox="0 0 32 32" width="32" xmlns="http://www.w3.org/2000/svg"><path d="m23 27h1c.5522847 0 1 .4477153 1 1s-.4477153 1-1 1h-16c-.55228475 0-1-.4477153-1-1s.44771525-1 1-1h1v-9c0-3.8659932 3.1340068-7 7-7s7 3.1340068 7 7zm-7-1h4v-8c0-2.209139-1.790861-4-4-4zm-11.36469274-8 .03824125-.0383984-3.29928269-3.3460506 4.43218767-1.5611-1.52075405-4.44619257 4.67059903.51655165.55897858-4.6657115 3.98394095 2.49189392 2.5279987-3.96112909 2.5082145 3.97368605 3.9963176-2.47199649.5357054 4.66844092 4.6731168-.49325466-1.5429067 4.43855377 4.424348 1.5831823-3.297969 3.3115247h-1.411322l2.8889393-2.9008137-3.8739268-1.3862229 1.3509578-3.88636542-4.091747.43189022-.4690598-4.0876529-3.4991466 2.16446212-2.1961744-3.47933056-2.2134972 3.46833578-3.4883096-2.18188417-.48943763 4.08526303-4.08954249-.45228888 1.33156117 3.89305378-3.88079125 1.3668878 2.8888279 2.9297775-.03474544.0348883z" fill="#212121"/></svg>