<svg height="32" viewBox="0 0 32 32" width="32" xmlns="http://www.w3.org/2000/svg"><path d="m19.3742387 10.3859398-4.9152229-2.83780526c-.9382969.74469345-1.6820823 1.5965583-2.2372239 2.55809176-.5681855.984126-.9811061 2.1564713-1.2346589 3.5203195l4.8836666 2.8195862c.5756508-.470032 1.0818754-.9762732 1.5197314-1.5188601l.5886156-.7294066 7.2847239 5.1377467c.0247.0174203.0501771.0337119.0763528.0488244.4782927.2761424 1.0898831.1122673 1.3660255-.3660254l.3099343-.536822c.0151126-.0261758.0290306-.0530232.0417113-.0804597.2317057-.5013291.0131328-1.0955713-.4881963-1.327277l-8.0889886-3.7385919.3402171-.8757177c.2532753-.6519295.4378308-1.3427582.5533121-2.0736029zm.1638523-1.06010039.5392741-.47820209c.0804184-.07131114.1488144-.1551207.2025555-.24820293.2761423-.47829262.1122672-1.08988303-.3660254-1.3660254l-2.9880444-1.72514823c-.0930822-.05374105-.1942197-.09212426-.2995196-.11367231-.5410721-.11072225-1.0694559.23814524-1.1801781.77921735l-.1444981.70612616zm-4.5 7.79422859-4.236436-2.4459074-.5392742.4782021c-.0804184.0713111-.1488144.1551207-.2025554.2482029-.27614239.4782926-.11226723 1.089883.3660254 1.3660254l2.9880444 1.7251482c.0930822.0537411.1942196.0921243.2995196.1136724.5410721.1107222 1.0694558-.2381453 1.1801781-.7792174zm-9.038091 6.879932h11c1.1045695 0 2 .8954305 2 2v1c0 1.1045695-.8954305 2-2 2h-11c-1.1045695 0-2-.8954305-2-2v-1c0-1.1045695.8954305-2 2-2zm0 2v1h11v-1h-1.960022-.039978zm21.4087788-10.7416211c1.5039873.6951172 2.1597062 2.4778437 1.464589 3.9818311-.038042.0823094-.0797962.1628518-.1251339.241379l-.3099343.536822c-.8284272 1.4348779-2.6631984 1.9265034-4.0980763 1.0980762-.0785272-.0453377-.1549585-.0942123-.2290585-.1464733l-5.7836573-4.0790793c-.4458052.4704625-.9368899.9130569-1.4727801 1.3277221-.3339058 1.6317146-1.919057 2.678317-3.5422733 2.3461503-.3158999-.0646442-.6193123-.1797938-.8985589-.341017l-2.98804441-1.7251482c-1.43487787-.8284271-1.92650333-2.6631983-1.09807621-4.0980762.16122314-.2792467.3664111-.5306754.60766635-.7446088.30298572-1.7533056.81285633-3.2655122 1.55430017-4.54973055.7373434-1.27711623 1.7388606-2.38948597 2.9971334-3.33395222.3324217-1.62289075 1.9173914-2.66920882 3.5404174-2.33708102.3158999.06464415.6193122.1797938.8985589.34101694l2.9880444 1.72514823c1.4348778.82842713 1.9265033 2.66319834 1.0980762 4.09807621-.1612232.27924668-.3664111.53067541-.6076664.74460881-.0918108.6755823-.2284217 1.3238308-.4140192 1.9478182z" fill="#212121"/></svg>