<svg height="32" viewBox="0 0 32 32" width="32" xmlns="http://www.w3.org/2000/svg"><path d="m6 24h11c1.1045695 0 2 .8954305 2 2v1c0 1.1045695-.8954305 2-2 2h-11c-1.1045695 0-2-.8954305-2-2v-1c0-1.1045695.8954305-2 2-2zm3.14974766-11.3991638c.3090574-1.3128127.75160925-2.4754987 1.33999344-3.49460995.562449-.97419025 1.278613-1.85251928 2.1451996-2.63358587l8.5938731 4.88181902c-.0680215.3185634-.1473655.6309093-.238528.937402l6.418493 2.9665175c1.5039873.6951172 2.1597062 2.4778437 1.464589 3.9818311-.038042.0823094-.0797962.1628518-.1251339.241379l-.3099343.536822c-.8284272 1.4348779-2.6631984 1.9265034-4.0980763 1.0980762-.0785272-.0453377-.1549585-.0942123-.2290585-.1464733l-5.7836573-4.0790793c-.1926085.2032616-.3936692.4013213-.6031436.5941741zm-.2101458 1.0311321 7.97305994 4.5416141c-.0192529.0150612-.0385644.030086-.0579344.0450743-.3339058 1.6317146-1.919057 2.678317-3.5422733 2.3461503-.3158999-.0646442-.6193123-.1797938-.8985589-.341017l-2.98804441-1.7251482c-1.43487787-.8284271-1.92650333-2.6631983-1.09807621-4.0980762.16122314-.2792467.3664111-.5306754.60766635-.7446088.00138267-.0080012.00276965-.0159973.00416094-.0239885zm4.52133084-7.84017093c.0086351-.00651573.0172824-.01302351.0259418-.01952334.3324217-1.62289075 1.9173914-2.66920882 3.5404174-2.33708102.3158999.06464415.6193122.1797938.8985589.34101694l2.9880444 1.72514823c1.4348778.82842713 1.9265033 2.66319834 1.0980762 4.09807621-.1551174.26867116-.3509326.51159141-.5804118.72014201z" fill="#212121"/></svg>