<svg height="32" viewBox="0 0 32 32" width="32" xmlns="http://www.w3.org/2000/svg"><path d="m22 20.2511265v8.7488735c0 .5522847-.4477153 1-1 1h-.1c-.248766 0-.4886008-.0927218-.6726728-.2600599l-3.7273272-3.3884793-3.7273272 3.3884793c-.184072.1673381-.4239068.2600599-.6726728.2600599h-.1c-.5522847 0-1-.4477153-1-1v-8.74863c-.441424.0620498-.8857117-.1787111-1.06323196-.609915-.05952059-.1445778-.08431095-.301098-.07238053-.4569926l.06046446-.790088c.04214245-.5506745-.37010427-1.0312477-.92077882-1.0733901-.01596742-.001222-.0319619-.0020602-.04796958-.002514l-.79208002-.0224534c-.55206298-.0156496-.98691196-.4758716-.97126238-1.0279346.00443035-.1562876.04544572-.3093591.11975276-.4469234l.37659475-.6971881c.26247856-.4859254.08133914-1.0926266-.40458622-1.3551052-.01408994-.0076108-.02836068-.0148821-.04279986-.0218076l-.71446846-.3426802c-.49796938-.2388408-.70803455-.8361435-.46919371-1.3341129.06761526-.1409739.16734443-.2641292.29117972-.359577l.62760839-.4837382c.43742974-.3371553.51871828-.9650805.18156302-1.4025102-.00977619-.01268377-.01985565-.02513086-.03022966-.03733053l-.51331882-.60365446c-.35777233-.42073436-.30673152-1.05183873.11400284-1.40961106.11910887-.10128448.26030775-.1732289.41225905-.21005648l.77010284-.18664549c.53674535-.13008794.86640631-.67066314.73631836-1.20740849-.00377204-.01556353-.0079174-.0310342-.01243248-.04639864l-.22341168-.76025136c-.15571321-.52987908.14760816-1.08566145.67748724-1.24137466.15000747-.04408203.30826151-.05237577.46205505-.02421528l.7794395.14271991c.5432528.09947275 1.0642848-.26028207 1.1637576-.80353488.0028843-.01575222.0053898-.03157146.0075144-.04744402l.1051253-.7853939c.0732702-.54740289.5764251-.93176343 1.123828-.85849329.1549684.0207426.302914.07753361.4319575.16581297l.654004.44740773c.455827.3118337 1.0781388.19510413 1.3899726-.26072279.0090419-.01321722.0177651-.02664972.0261619-.04028589l.4154853-.67473469c.2895844-.47027578.9055728-.61675506 1.3758486-.32717064.1331339.08198064.24519.19403671.3271706.32717064l.4154853.67473469c.2895844.47027578.9055728.61675506 1.3758486.32717064.0136362-.00839683.0270687-.01712.0402859-.02616196l.654004-.44740773c.4558269-.31183371 1.0781388-.19510414 1.3899725.26072279.0882794.12904349.1450704.27698911.165813.43195753l.1051253.7853939c.0732702.5474029.5764251.93176344 1.123828.85849329.0158725-.00212455.0316918-.00463007.047444-.00751439l.7794395-.14271991c.5432528-.09947275 1.0642848.26028207 1.1637576.80353488.0281605.15379355.0198667.31204758-.0242153.46205506l-.2234117.76025136c-.1557132.52987908.1476082 1.08566145.6774873 1.24137466.0153644.00451507.0308351.00866043.0463986.01243247l.7701028.18664549c.5367454.13008795.8664063.67066314.7363184 1.20740849-.0368276.1519513-.108772.29315018-.2100565.41225905l-.5133188.60365446c-.3577723.42073433-.3067315 1.05183873.1140028 1.40961103.0121997.010374.0246468.0204535.0373306.0302297l.6276083.4837382c.4374298.3371552.5187183.9650804.1815631 1.4025102-.0954479.1238353-.2186031.2235644-.359577.2911797l-.7144685.3426802c-.4979694.2388409-.7080345.8361436-.4691937 1.3341129.0069255.0144392.0141968.0287099.0218076.0427999l.3765948.6971881c.2624785.4859254.0813391 1.0926266-.4045862 1.3551052-.1375643.074307-.2906358.1153224-.4469234.1197528l-.7920801.0224534c-.552063.0156496-.9869119.4758716-.9712624 1.0279345.0004538.0160077.0012921.0320022.002514.0479696l.0604645.790088c.0421424.5506745-.3701043 1.0312476-.9207788 1.0733901-.071889.0055016-.1439111.0031945-.2148337-.006726zm-5.5-1.2511265c4.1421356 0 7.5-3.3578644 7.5-7.5 0-4.14213562-3.3578644-7.5-7.5-7.5s-7.5 3.35786438-7.5 7.5c0 4.1421356 3.3578644 7.5 7.5 7.5zm0-1c-3.5898509 0-6.5-2.9101491-6.5-6.5 0-3.58985087 2.9101491-6.5 6.5-6.5s6.5 2.91014913 6.5 6.5c0 3.5898509-2.9101491 6.5-6.5 6.5z" fill="#212121" fill-rule="evenodd"/></svg>