<svg height="32" viewBox="0 0 32 32" width="32" xmlns="http://www.w3.org/2000/svg">
<path d="m24.1374425 21.9906324-5.5372063-4.7461768-1.372355 1.0673873c-.7222209.5617274-1.7335415.5617274-2.4557624 0l-1.372355-1.0673873-5.53720625 4.7461768c.04493109.0061762.09081408.0093676.13744245.0093676h16c.0466284 0 .0925114-.0031914.1374425-.0093676zm.7970501-.633892c.0423238-.110803.0655074-.2310643.0655074-.3567404v-8.7331384l-5.5941725 4.3510231zm-17.86898515 0 5.52866505-4.7388557-5.5941725-4.3510231v8.7331384c0 .1256761.02318362.2459374.06550745.3567404zm1.56331459-10.3567404 7.37117796 5.7331384 7.371178-5.7331384zm-1.62882204-2h18c1.1045695 0 2 .8954305 2 2v11c0 1.1045695-.8954305 2-2 2h-18c-1.1045695 0-2-.8954305-2-2v-11c0-1.1045695.8954305-2 2-2z" fill="#212121"/></svg>