<svg height="32" viewBox="0 0 32 32" width="32" xmlns="http://www.w3.org/2000/svg"><path d="m26.1397734 23.6436641c-.3233675.2246565-.7161928.3563359-1.1397734.3563359h-18c-.41071009 0-.79250542-.1237988-1.11010541-.3361159l7.52150201-6.4303178 1.3607222 1.0782766c.7222209.5617274 1.7335415.5617274 2.4557624 0l1.3835108-1.0612937zm.6534406-.7570068-7.3701491-6.2587438 7.5690913-5.8062635c.0051923.058757.0078438.1182439.0078438.17835v11c0 .3184114-.0744086.6194437-.206786.8866573zm-21.57030895.0318184c-.14244108-.2750406-.22290505-.5873615-.22290505-.9184757v-11c0-.1370383.01378256-.2708576.04003713-.4001472l7.57272487 6.0008517zm20.58873565-13.74692778-9.8116407 7.56159048-9.61803504-7.63581879c.19463048-.06317642.40234547-.09731961.61803504-.09731961h18c.2889546 0 .5635969.06127805.8116407.17154792z" fill="#212121"/></svg>