<svg height="32" viewBox="0 0 32 32" width="32" xmlns="http://www.w3.org/2000/svg"><path d="m14.1531142 19.3240254c-.23709.259026-.3304329.6354382-.2115115.9922024l.4032422 1.2097266c.0994794.2984383.3335932.5326691.6319818.6322975l1.0516919.3511475 1.0081868-.3483384c.2938712-.1015354.5237957-.3339842.6221164-.6289463l.4052957-1.2158869c.0339888-.1019665.0513167-.2087457.0513167-.3162278 0-.3128769-.1436888-.5921935-.368677-.7755605.3634172-.1307611.7168233-.2948741 1.060484-.4880005.3345573-.1880107.6275562-.3844679.9232849-.6070598.0746881-.056217.2751666-.211291.2810943-.2158009.0607217-.046054.0983185-.0733347.1448785-.1032752.0557506-.0356014.0557506-.0356014.1706633-.0914197.172979-.0967058.172979-.0967058.854487.0224281l2.0426341.9358025c.8971638.4485819 1.5107787 1.3158636 1.6305281 2.2783032l.5908934 3.7227027c.2055074 1.6440598-.9606697 3.1434304-2.6047295 3.3489379-.1234344.0154293-.2477091.0231663-.3721042.0231663h-13.4688711c-1.65685425 0-3-1.3431457-3-3 0-.124395.00773706-.2486697.02718697-.4008685l.64858934-4.1921152c.08294282-.6635425.4920194-1.2417303 1.11622488-1.5533639l2.49522081-1.1580527c.5954095-.2977048.9394499-.1524495 1.6055164.2969037.0984653.0664284.4649207.3236834.489844.3409508.2050328.1420515.3771713.255399.5549625.3631943.4029257.2442951.803304.4380706 1.2155693.5771528zm.8468858 3.6759746-2 2 1 2h4l1-2-2-2-.9605811 1zm.7344356-5c-3.3137085 0-6.00000004-2.6862915-6.00000004-6s2.68629154-6 6.00000004-6 6 2.6862915 6 6-2.6862915 6-6 6z" fill="#212121"/></svg>