<svg height="32" viewBox="0 0 32 32" width="32" xmlns="http://www.w3.org/2000/svg"><path d="m3 11c0-1.65685425 1.34314575-3 3-3h20c1.6568542 0 3 1.34314575 3 3v3h-1c-1.1045695 0-2 .8954305-2 2s.8954305 2 2 2h1v3c0 1.6568542-1.3431458 3-3 3h-20c-1.65685425 0-3-1.3431458-3-3v-3h1c1.1045695 0 2-.8954305 2-2s-.8954305-2-2-2h-1zm6 0v10h14v-10zm1 9v-8h12v8zm4.2071068-4.6867973c-.3905243-.3905243-1.0236893-.3905243-1.4142136 0s-.3905243 1.0236892 0 1.4142135l2 2c.4321531.4321531 1.1474477.3789929 1.5109713-.1122943l3.1967773-4.3203125c.3285059-.4439621.2349101-1.0701711-.209052-1.3986769-.4439621-.3285059-1.0701711-.2349101-1.3986769.209052l-2.5064546 3.3873697z" fill="#212121"/></svg>