
<svg width="96px" height="84px" viewBox="0 0 96 84" version="1.1" xmlns="http://www.w3.org/2000/svg" xmlns:xlink="http://www.w3.org/1999/xlink">
    <g id="Page-1" stroke="none" stroke-width="1" fill="none" fill-rule="evenodd">
        <g id="3994425---camera-interface-lens-photo-photography" fill="#434343">
            <path d="M90,12 L69.709,12 L65.3672,3.3164 C64.3502255,1.28400826 62.2726314,0.000260081437 60,0 L36,0 C33.7273686,0.000260081437 31.6497745,1.28400826 30.6328,3.3164 L26.291,12 L6,12 C4.40842451,11.9990973 2.88177651,12.6309485 1.75636251,13.7563625 C0.630948509,14.8817765 -0.000902660256,16.4084245 -6.66133815e-16,18 L-6.66133815e-16,78 C-0.000902660256,79.5915755 0.630948509,81.1182235 1.75636251,82.2436375 C2.88177651,83.3690515 4.40842451,84.0009027 6,84 L90,84 C91.5915755,84.0009027 93.1182235,83.3690515 94.2436375,82.2436375 C95.3690515,81.1182235 96.0009027,79.5915755 96,78 L96,18 C96.0009027,16.4084245 95.3690515,14.8817765 94.2436375,13.7563625 C93.1182235,12.6309485 91.5915755,11.9990973 90,12 Z M84,72 L12,72 L12,24 L30,24 C32.2726314,23.9997399 34.3502255,22.7159917 35.3672,20.6836 L39.709,12 L56.291,12 L60.6328,20.6836 C61.6497745,22.7159917 63.7273686,23.9997399 66,24 L84,24 L84,72 Z" id="Shape" fill-rule="nonzero"></path>
            <path d="M48,33 C41.372583,33 36,38.372583 36,45 C36,51.627417 41.372583,57 48,57 C54.627417,57 60,51.627417 60,45 C59.9913508,38.3761689 54.6238311,33.0086492 48,33 Z" id="Path"></path>
        </g>
    </g>
</svg>