<svg height="32" viewBox="0 0 32 32" width="32" xmlns="http://www.w3.org/2000/svg"><path d="m18.5 18.6565783v-1.0348905c-.3167929.0997124-.65136.1826811-1 .2452629v1.0287678c.3664227-.0566914.6993074-.1364465 1-.2391402zm1-.5073779c.4643768-.3397526.7935153-.7806118 1-1.3214086v-.2228973c-.283885.2246994-.62057.434709-1 .6201303zm-3 .8406875v-1.0045268c-.164681.0096535-.3314552.0146389-.5.0146389s-.335319-.0049854-.5-.0146389v1.0045268c.1616043.0067391.3282462.0101121.5.0101121s.3383957-.003373.5-.0101121zm-2-.0941694v-1.0287678c-.34864-.0625818-.6832071-.1455505-1-.2452629v1.0348905c.3006926.1026937.6335773.1824488 1 .2391402zm-2-.7465181v-.9241756c-.37943-.1854213-.716115-.3954309-1-.6201303v.2228973c.2064847.5407968.5356232.981656 1 1.3214086zm-.9787819-3.0337123c.0894386.2670062.4604884.6712263 1.0915002 1.0372984.9084128.5270023 2.1236637.8472135 3.3872817.8472135s2.4788689-.3202112 3.3872817-.8472135c.6315885-.3664067 1.0027397-.7710312 1.0917447-1.0380303-.554556-1.4021907-1.968895-2.1147562-4.4758526-2.1147562-2.5069369 0-3.9237385.7127977-4.4819557 2.1154881zm-1.0212181-.1154881c.6556803-2 2.4900716-3 5.5031738-3s4.8453776 1 5.4968262 3v2c-.6640625 2-2.4973958 3-5.5 3s-4.8359375-1-5.5-3zm-5.09712124 3h-3.04746406l4-4 4 4h-2.94122803c.46823529 3.9536862 3.67657823 7 7.54550453 7 1.7515308 0 3.4111515-.6239102 4.7511382-1.7536671l1.2891706 1.5290648c-1.6957778 1.4297281-3.810168 2.2246023-6.0403088 2.2246023-4.98930799 0-9.07531233-3.9544952-9.55681244-9zm21.61697264-3.7573593h3.2654178l-4.2426407 4.2426407-4.2426407-4.2426407h3.2189493c-.135656-4.022974-3.4396648-7.2426407-7.4956672-7.2426407-1.8162307 0-3.529867.64655004-4.8799209 1.80450358l-1.3020783-1.51808836c1.7092721-1.4660582 3.8835718-2.28641522 6.1819992-2.28641522 5.1606466 0 9.3602043 4.11491078 9.4965815 9.2426407z" fill="#212121"/></svg>