<svg height="32" viewBox="0 0 32 32" width="32" xmlns="http://www.w3.org/2000/svg"><path d="m2 0h14c1.1045695 0 2 .8954305 2 2v19c0 1.1045695-.8954305 2-2 2h-14c-1.1045695 0-2-.8954305-2-2v-19c0-1.1045695.8954305-2 2-2zm0 2v19h14v-19zm0 2h14v1h-14zm2.5 4h6c.2761424 0 .5.22385763.5.5s-.2238576.5-.5.5h-6c-.27614237 0-.5-.22385763-.5-.5s.22385763-.5.5-.5zm8 0h1c.2761424 0 .5.22385763.5.5s-.2238576.5-.5.5h-1c-.2761424 0-.5-.22385763-.5-.5s.2238576-.5.5-.5zm-8 3h6c.2761424 0 .5.2238576.5.5s-.2238576.5-.5.5h-6c-.27614237 0-.5-.2238576-.5-.5s.22385763-.5.5-.5zm8 0h1c.2761424 0 .5.2238576.5.5s-.2238576.5-.5.5h-1c-.2761424 0-.5-.2238576-.5-.5s.2238576-.5.5-.5zm-8 3h6c.2761424 0 .5.2238576.5.5s-.2238576.5-.5.5h-6c-.27614237 0-.5-.2238576-.5-.5s.22385763-.5.5-.5zm8 0h1c.2761424 0 .5.2238576.5.5s-.2238576.5-.5.5h-1c-.2761424 0-.5-.2238576-.5-.5s.2238576-.5.5-.5zm-2 3h3c.2761424 0 .5.2238576.5.5s-.2238576.5-.5.5h-3c-.2761424 0-.5-.2238576-.5-.5s.2238576-.5.5-.5z" fill="#212121" fill-rule="evenodd" transform="translate(7 4)"/></svg>