<svg height="32" viewBox="0 0 32 32" width="32" xmlns="http://www.w3.org/2000/svg"><path d="m25.4161873 10h-4.5270862l.0353542-.26364638c.0024272-.01864368.0024272-.01864368.0047483-.03757174.0016844-.01459807.0016844-.01459807.0031153-.02760412.1454392-1.37774607-.8501713-2.60834418-2.223255-2.75328018l-3.8722556-.40913002c.2022819-.29797152.5118759-.52446631.8895955-.61543475.0259694-.00609172.0259694-.00609172.0520759-.01156606l6.9851656-1.42156447c.8117868-.16520827 1.6037977.35894714 1.7693746 1.17255067zm-12.6862119 0 .0723007-.68871905.0522798-.49725931c.0866201-.8238862.8247312-1.42155852 1.6492859-1.33486806l4.1002502.43321918c.8238502.0869616 1.4212165.82532047 1.3342549 1.64917069-.0023136.02097501-.0023136.02097501-.0050201.04190294l-.0531766.39655361zm-.5838216 18.5024185c-1.3807118 0-2.49999995-1.1192882-2.49999995-2.5 0-1.3807119 1.11928815-2.5 2.49999995-2.5 1.3807119 0 2.5 1.1192881 2.5 2.5 0 1.3807118-1.1192881 2.5-2.5 2.5zm0-1c.8284272 0 1.5-.6715729 1.5-1.5 0-.8284272-.6715728-1.5-1.5-1.5-.8284271 0-1.5.6715728-1.5 1.5 0 .8284271.6715729 1.5 1.5 1.5zm11.4461539 1c-1.3807119 0-2.5-1.1192882-2.5-2.5 0-1.3807119 1.1192881-2.5 2.5-2.5s2.5 1.1192881 2.5 2.5c0 1.3807118-1.1192881 2.5-2.5 2.5zm0-1c.8284271 0 1.5-.6715729 1.5-1.5 0-.8284272-.6715729-1.5-1.5-1.5s-1.5.6715728-1.5 1.5c0 .8284271.6715729 1.5 1.5 1.5zm-10.4384615-14.5024185c-.5522848 0-1-.4477153-1-1s.4477152-1 1-1h11.6296724c.8511638 0 1.6693535.3291517 2.2833903.9185909.6429789.6172221.965597 1.4963431.8744932 2.3829575l-.574058 5.5866807c-.0900184.8760514-.5164203 1.6830066-1.1894437 2.2509934-.6586564.555862-1.4927312.8607775-2.3545959.8607775h-11.3573298c-.9721704 0-1.8984292-.4136124-2.5473551-1.1374981-.60771575-.6779153-.9899864-1.5277754-1.09403314-2.432243l-1.22729341-10.66873585c-.0564907-.49106786-.23339641-.96058103-.51500126-1.36682916-.1713635-.24721199-.4530457-.39469389-.75384334-.39469389h-2.28824412c-.55228475 0-1-.44771525-1-1s.44771525-1 1-1h2.28824412c.95666864 0 1.85254183.46905724 2.39755303 1.2553.46926086.67696399.76405309 1.45935161.8581881 2.27765754l1.22729342 10.66873576c.0567154.4930211.2650893.9562758.5963523 1.3258042.2695557.3006931.654312.4725025 1.0581394.4725025h11.3573298c.3897141 0 .7668622-.1378753 1.0646905-.3892225.2771577-.2339026.4527543-.5662148.4898248-.9269815l.574058-5.5866807c.0281271-.2737308-.0714771-.5451481-.2699886-.7357075-.2415849-.2319073-.5634911-.3614078-.8983706-.3614078zm-.8303992 1h11.5715657c.5522848 0 1 .4477153 1 1 0 .0332297-.0016563.0664387-.0049628.0995035l-.3999989 4c-.0511201.5112019-.4812857.9004965-.9950373.9004965h-10.704897c-.5074549 0-.9344584-.3800824-.993263-.8841186l-.4666697-4c-.0639996-.548564.3288175-1.0451449.8773816-1.1091445.0384641-.0044875.0771564-.0067369.1158814-.0067369z" fill="#212121"/></svg>