<svg height="32" viewBox="0 0 32 32" width="32" xmlns="http://www.w3.org/2000/svg"><path d="m15 25h-4c0 1.3807119-1.11928813 2.5-2.5 2.5s-2.5-1.1192881-2.5-2.5c-.55228475 0-1-.4477153-1-1v-7c0-.5522847.44771525-1 1-1h3.93638428c.02123421 0 .04244196.000338.06361572.0010116v-7.0010116h-1c-.55228475 0-1-.44771525-1-1s.44771525-1 1-1h9c.5522847 0 1 .44771525 1 1 0 .1804051-.047772.34965245-.1313559.49578193l2.1451601 9.27897397c.0170764.0738645.0256977.1494314.0256977.2252441v3c0 .1361041-.0135953.2690328-.0395019.3975022v2.6024978c0 .5522847-.4477153 1-1 1 0 1.3807119-1.1192881 2.5-2.5 2.5s-2.5-1.1192881-2.5-2.5zm.9997563-2c.417872-.3139553.9373313-.5 1.5002437-.5.562803 0 1.0821697.1859724 1.5.4998169v-2.9998169h-5.2477686c-.6125234 0-1.2103698-.187494-1.7131934-.5372844l-2.10265372-1.4627156h-2.93638428v4.9998169c.41783027-.3138445.93719704-.4998169 1.5-.4998169.5629124 0 1.08237171.1860447 1.5002437.5zm8.0002437 0v-19c0-.55228475-.4477153-1-1-1s-1 .44771525-1 1v20c0 .2761424.1119288.5261424.2928932.7071068s.4309644.2928932.7071068.2928932h4c.5522847 0 1-.4477153 1-1s-.4477153-1-1-1zm-12-6.0007762 1.1811669.8216814c.1676079.1165968.3668901.1790948.5710645.1790948h5.2608951l-2.0806656-9h-4.9324609zm-3.5 9.5007762c.82842712 0 1.5-.6715729 1.5-1.5s-.67157288-1.5-1.5-1.5-1.5.6715729-1.5 1.5.67157288 1.5 1.5 1.5zm9 0c.8284271 0 1.5-.6715729 1.5-1.5s-.6715729-1.5-1.5-1.5-1.5.6715729-1.5 1.5.6715729 1.5 1.5 1.5z" fill="#212121"/></svg>