<svg height="32" viewBox="0 0 32 32" width="32" xmlns="http://www.w3.org/2000/svg"><path d="m21 22v-14c0-.55228475-.4477153-1-1-1h-8c-.5522847 0-1 .44771525-1 1v14zm0 1h-10v3c0 .5522847.4477153 1 1 1h8c.5522847 0 1-.4477153 1-1zm-9-18h8c1.6568542 0 3 1.34314575 3 3v18c0 1.6568542-1.3431458 3-3 3h-8c-1.6568542 0-3-1.3431458-3-3v-18c0-1.65685425 1.3431458-3 3-3zm1.5 3h5c.2761424 0 .5.22385763.5.5s-.2238576.5-.5.5h-5c-.2761424 0-.5-.22385763-.5-.5s.2238576-.5.5-.5zm2.5 18c-.5522847 0-1-.4477153-1-1s.4477153-1 1-1 1 .4477153 1 1-.4477153 1-1 1z" fill="#212121"/></svg>