<svg height="32" viewBox="0 0 32 32" width="32" xmlns="http://www.w3.org/2000/svg"><path d="m12 5h8c1.6568542 0 3 1.34314575 3 3v18c0 1.6568542-1.3431458 3-3 3h-8c-1.6568542 0-3-1.3431458-3-3v-18c0-1.65685425 1.3431458-3 3-3zm0 1c-1.1045695 0-2 .8954305-2 2v18c0 1.1045695.8954305 2 2 2h8c1.1045695 0 2-.8954305 2-2v-18c0-1.1045695-.8954305-2-2-2zm0 1h8c.5522847 0 1 .44771525 1 1v18c0 .5522847-.4477153 1-1 1h-8c-.5522847 0-1-.4477153-1-1v-18c0-.55228475.4477153-1 1-1zm-.5 15c-.2761424 0-.5.2238576-.5.5s.2238576.5.5.5h9c.2761424 0 .5-.2238576.5-.5s-.2238576-.5-.5-.5zm2-14c-.2761424 0-.5.22385763-.5.5s.2238576.5.5.5h5c.2761424 0 .5-.22385763.5-.5s-.2238576-.5-.5-.5zm2.5 18c.5522847 0 1-.4477153 1-1s-.4477153-1-1-1-1 .4477153-1 1 .4477153 1 1 1z" fill="#212121"/></svg>