<svg height="32" viewBox="0 0 32 32" width="32" xmlns="http://www.w3.org/2000/svg"><g fill="#212121" fill-rule="evenodd"><path d="m25 13.0094755c-.1618791-.006317-.3274878-.0094755-.4968262-.0094755-.5387403 0-1.0397983.0319692-1.5031738.0959075v-2.0959075h-18v8h14v2h-16v-12h22zm-4.151784.7511274c-.8205927-.6405321-1.348216-1.638951-1.348216-2.7606029h1c0 1.0292594.6219929 1.9132445 1.5106061 2.2965828-.4296128.1189144-.8170762.2735878-1.1623901.4640201zm-15.848216.7393971v-1c1.38071187 0 2.5-1.1192881 2.5-2.5h1c0 1.9329966-1.56700338 3.5-3.5 3.5zm0 1c1.93299662 0 3.5 1.5670034 3.5 3.5h-1c0-1.3807119-1.11928813-2.5-2.5-2.5zm9 2.5c-1.6568542 0-3-1.3431458-3-3s1.3431458-3 3-3 3 1.3431458 3 3-1.3431458 3-3 3zm0-1c1.1045695 0 2-.8954305 2-2s-.8954305-2-2-2-2 .8954305-2 2 .8954305 2 2 2z" fill-rule="nonzero"/><path d="m19 16c.6556803-2 2.4900716-3 5.5031738-3s4.8453776 1 5.4968262 3v10c-.6640625 2-2.4973958 3-5.5 3s-4.8359375-1-5.5-3zm2 9.6241319c.4308832.9047152 1.4626422 1.3758681 3.5 1.3758681s3.0691168-.4711529 3.5-1.3758681v-9.2543357c-.4220948-.8996611-1.4503139-1.3697962-3.4968262-1.3697962-2.0468342 0-3.0779774.4708209-3.5031738 1.3719311z"/><path d="m19 23h2c0 .2901649 1.1303102 1 3.5 1s3.5-.7098351 3.5-1h2c0 1.6404057-2.1649582 3-5.5 3s-5.5-1.3595943-5.5-3zm0-3h2c0 .2901649 1.1303102 1 3.5 1s3.5-.7098351 3.5-1h2c0 1.6404057-2.1649582 3-5.5 3s-5.5-1.3595943-5.5-3zm0-3h2c0 .2901649 1.1303102 1 3.5 1s3.5-.7098351 3.5-1h2c0 1.6404057-2.1649582 3-5.5 3s-5.5-1.3595943-5.5-3z"/></g></svg>