<svg height="32" viewBox="0 0 32 32" width="32" xmlns="http://www.w3.org/2000/svg"><g fill="#212121" fill-rule="evenodd"><path d="m25 13.0094755c2.7184966.1060844 4.3851633 1.1029259 5 2.9905245v10c-.6640625 2-2.4973958 3-5.5 3s-4.8359375-1-5.5-3v-5h-16v-12h22zm-4.151784.7511274c.3453139-.1904323.7327773-.3451057 1.1623901-.4640201-.8886132-.3833383-1.5106061-1.2673234-1.5106061-2.2965828h-1c0 1.1216519.5276233 2.1200708 1.348216 2.7606029zm-15.848216.7393971c1.93299662 0 3.5-1.5670034 3.5-3.5h-1c0 1.3807119-1.11928813 2.5-2.5 2.5zm0 2c1.38071187 0 2.5 1.1192881 2.5 2.5h1c0-1.9329966-1.56700338-3.5-3.5-3.5zm9 1.5c1.6568542 0 3-1.3431458 3-3s-1.3431458-3-3-3-3 1.3431458-3 3 1.3431458 3 3 3zm0-1c-1.1045695 0-2-.8954305-2-2s.8954305-2 2-2 2 .8954305 2 2-.8954305 2-2 2zm7 8.6241319c.4308832.9047152 1.4626422 1.3758681 3.5 1.3758681s3.0691168-.4711529 3.5-1.3758681v-9.2543357c-.4220948-.8996611-1.4503139-1.3697962-3.4968262-1.3697962-2.0468342 0-3.0779774.4708209-3.5031738 1.3719311z" fill-rule="nonzero"/><path d="m19 23h2c0 .2901649 1.1303102 1 3.5 1s3.5-.7098351 3.5-1h2c0 1.6404057-2.1649582 3-5.5 3s-5.5-1.3595943-5.5-3zm0-3h2c0 .2901649 1.1303102 1 3.5 1s3.5-.7098351 3.5-1h2c0 1.6404057-2.1649582 3-5.5 3s-5.5-1.3595943-5.5-3zm2-3c0 .2901649 1.1303102 1 3.5 1s3.5-.7098351 3.5-1h2c0 1.6404057-2.1649582 3-5.5 3s-5.5-1.3595943-5.5-3z"/></g></svg>