<svg height="32" viewBox="0 0 32 32" width="32" xmlns="http://www.w3.org/2000/svg"><path d="m13.3949696 10.9187389c.5334173 1.9831135 1.6882327 3.5537902 3.1831076 4.1894377.2952477.7360202 1.015401 1.2557844 1.8569516 1.2557844 1.1045695 0 2-.8954305 2-2s-.8954305-2-2-2c-.1487471 0-.2937016.0162384-.4331875.0470392-.7717513-.0711814-1.6286098-1.318034-1.8665136-3.04860987l2.6905802-.89686007c.3593347-.11977824.7555022-.02625577 1.0233345.24157652l.3167153.31671532c.1369029.42809093.4156428.80073727.7948868 1.0540702l.7806598.5214764 2.3503788 2.3503788c.2677452.2677451.361301.6637512.2416846 1.02301l-1.4117967 4.2402238c-.0490789.1474049-.131828.281347-.2416846.3912035l-8.4876982 8.4876983c-1.1715729 1.1715729-3.0710679 1.1715729-4.24264073 0l-4.24264069-4.2426407c-1.17157287-1.1715729-1.17157287-3.0710678 0-4.2426407zm4.6760982 2.4954747c.2052284 0 .3960173.0618231.5547589.1678616l-.5547589.8321384c-2.209139 0-4-2.6862915-4-6.00000004 0-3.3137085 1.790861-6 4-6s4 2.6862915 4 6l-.5547589.83213837c-.2684437-.17931894-.4452411-.48508204-.4452411-.83213837 0-2.82667431-1.4488838-5-3-5s-3 2.17332569-3 5c0 2.82667434 1.4488838 5.00000004 3 5.00000004z" fill="#212121"/></svg>