<svg height="32" viewBox="0 0 32 32" width="32" xmlns="http://www.w3.org/2000/svg"><path d="m8.95073728 12h12.04926272c1.6568542 0 3 1.3431458 3 3v5.3641135l.2274401.057035c.021691.0054395.0435583.0101498.0655652.014123.5434977.0981259 1.0636364-.2629193 1.1617623-.806417l1.3983239-7.7450359c.0963463-.543816-.2663995-1.0627701-.8102155-1.1591164l-15.2909425-2.70905361c-.535357-.0948477-1.04840399.25541393-1.15503116.78854981l-.61632166 3.0816083c-.00781798.0390899-.01781639.077188-.0298434.1141933zm-1.90155855 0c-.05179371-.1582083-.06473477-.3315487-.02975941-.5064256l.61632167-3.08160827c.31988152-1.59940764 1.85902252-2.65019254 3.46509361-2.36564942l15.2909425 2.70905358c1.6314479.28903908 2.7196853 1.84590141 2.4289173 3.48701591l-1.3977475 7.7418137c-.2906238 1.6097009-1.8152025 2.6859151-3.4229469 2.4298424v1.5859577c0 1.6568542-1.3431458 3-3 3h-15c-1.65685425 0-3-1.3431458-3-3v-9c0-1.6568542 1.34314575-3 3-3zm-1.04917873 2c-.55228475 0-1 .4477153-1 1v9c0 .5522847.44771525 1 1 1h15c.5522847 0 1-.4477153 1-1v-9c0-.5522847-.4477153-1-1-1zm2 1h1c1.1045695 0 2 .8954305 2 2s-.8954305 2-2 2h-1c-1.1045695 0-2-.8954305-2-2s.8954305-2 2-2zm0 1c-.55228475 0-1 .4477153-1 1s.44771525 1 1 1h1c.55228475 0 1-.4477153 1-1s-.44771525-1-1-1zm-1.5 5h2c.27614237 0 .5.2238576.5.5s-.22385763.5-.5.5h-2c-.27614237 0-.5-.2238576-.5-.5s.22385763-.5.5-.5zm4 0h2c.2761424 0 .5.2238576.5.5s-.2238576.5-.5.5h-2c-.2761424 0-.5-.2238576-.5-.5s.2238576-.5.5-.5zm4 0h2c.2761424 0 .5.2238576.5.5s-.2238576.5-.5.5h-2c-.2761424 0-.5-.2238576-.5-.5s.2238576-.5.5-.5zm4 0h2c.2761424 0 .5.2238576.5.5s-.2238576.5-.5.5h-2c-.2761424 0-.5-.2238576-.5-.5s.2238576-.5.5-.5z" fill="#212121"/></svg>