<svg height="32" viewBox="0 0 32 32" width="32" xmlns="http://www.w3.org/2000/svg"><path d="m8.6 12 .51632166-2.5816083c.21325435-1.06627176 1.23934834-1.76679503 2.31006234-1.57709962l15.2909425 2.70905362c1.087632.1926927 1.8131236 1.2306009 1.6204309 2.3182329-.0003807.0021487-.0007649.0042968-.0011526.0064443l-1.3977475 7.7418138c-.1962519 1.0869954-1.2365293 1.8090857-2.3235247 1.6128339-.0440137-.0079465-.0877484-.0173671-.1311305-.028246l-.4842021-.1214231v-7.0800015c0-1.6568542-1.3431458-3-3-3zm-2.6 1h15c1.1045695 0 2 .8954305 2 2v9c0 1.1045695-.8954305 2-2 2h-15c-1.1045695 0-2-.8954305-2-2v-9c0-1.1045695.8954305-2 2-2zm2 2c-1.1045695 0-2 .8954305-2 2s.8954305 2 2 2h1c1.1045695 0 2-.8954305 2-2s-.8954305-2-2-2zm-1.5 6c-.27614237 0-.5.2238576-.5.5s.22385763.5.5.5h2c.27614237 0 .5-.2238576.5-.5s-.22385763-.5-.5-.5zm4 0c-.2761424 0-.5.2238576-.5.5s.2238576.5.5.5h2c.2761424 0 .5-.2238576.5-.5s-.2238576-.5-.5-.5zm4 0c-.2761424 0-.5.2238576-.5.5s.2238576.5.5.5h2c.2761424 0 .5-.2238576.5-.5s-.2238576-.5-.5-.5zm4 0c-.2761424 0-.5.2238576-.5.5s.2238576.5.5.5h2c.2761424 0 .5-.2238576.5-.5s-.2238576-.5-.5-.5z" fill="#212121" fill-rule="evenodd"/></svg>