<svg height="32" viewBox="0 0 32 32" width="32" xmlns="http://www.w3.org/2000/svg"><path d="m24.8723282 21.8621873-2.5488286 2.6044701c-.1220769.136156-.2650054.2404127-.4587361.3345548-.1834944.0941422-.3669889.1466595-.5406262.1781699-.0200934 0-.0508021 0-.1220768.0105035-.0610385.0101144-.1425494.0101144-.2441538.0101144-.244912 0-.6426096-.0420139-1.1824775-.1252635-.5508624-.0941422-1.2135655-.3030444-1.9983453-.6383773-.7847799-.3345547-1.6817796-.8363869-2.6807627-1.5062745-.9989831-.6694986-2.06962-1.5899133-3.19068-2.760855-.8969996-.9103003-1.6412136-1.7789757-2.2322628-2.6052482-.59142832-.8262725-1.06040066-1.5899133-1.41715326-2.2901442-.36698886-.7115125-.63199424-1.3495007-.81548867-1.9139646-.17325817-.5757455-.29571417-1.0666852-.3567526-1.4856567-.0712747-.40769-.09174722-.7317413-.08151096-.972932.01023626-.2404126.0200934-.3660651.0200934-.3975755.02085164-.1770029.08189008-.36606522.17363729-.55434954.09174722-.19878779.19373069-.34505825.32604382-.47032179 6.08564588-6.24450399 6.44239848 2.24851943 5.76945918 2.93902493l-.9478018.972932c-.0204725.0206179-.0508022.0626317-.0610385.1252635-.0204725.0525173-.0307087.1046456-.0307087.1466595.0511813.271923.1630219.5963633.3465163.9414216.1527857.3240513.3874614.70062.7036481 1.1608273.3260438.4500929.7847799.972543 1.3659719 1.5689063.580813.5967524 1.0907303 1.0674632 1.538851 1.401629.4484999.3345548.825725.5858599 1.12106.7426338.3063296.157163.540247.2516941.6937909.2828155l.2445329.0521283c.0200934 0 .0614176-.0108925.1220769-.0315104.0610384-.0206179.1023626-.0420138.122456-.0626317 2.487411-3.7450686 6.1671568-.2302982 6.422305 1.6105311.0303297.3034335.1630219.5123357-.0610384.7325194z" fill="#221f20" fill-rule="evenodd"/></svg>