<svg height="32" viewBox="0 0 32 32" width="32" xmlns="http://www.w3.org/2000/svg"><path d="m14.1921421 14.5665248c.1088196.2308014.2930803.5327033.5698951.9361537.2686019.3707962.6655081.8257031 1.1968529 1.3709183.5344309.5490975.9734776.9503359 1.3346629 1.2196735.3922846.2926216.7072636.5015737.9173424.6132012.0657687.0337428.1255319.0628711.1780547.087277 1.3162964-1.6139064 3.0773292-1.9326181 4.7584078-1.0797186 1.4090196.7148697 2.6042672 2.2237571 2.7847522 3.5311972.0015022.0150285.0051968.0371176.0144203.0833706.0440567.2209308.0524124.271938.0534355.4231284.0018873.2788934-.0747512.5492183-.2444526.7917749-.0494486.0706775-.1051759.1364727-.166664.1978242l-2.372102 2.4225255c-.2057081.2294324-.4456898.404458-.7213244.5381391-.2524968.129544-.5125267.2123832-.7885148.2624674l-.1785562.0160703c-.0779324.0173651-.145787.0194725-.3458844.0194725-.2950591 0-.7134846-.0442945-1.2852416-.1325955-.6124476-.104667-1.3129454-.327706-2.1110253-.6687222-.8096006-.3451359-1.7114879-.8513423-2.6963941-1.5117904-1.0187397-.6827391-2.0846919-1.6035947-3.1689923-2.7362911-.8818514-.8949274-1.6185064-1.7546967-2.20911566-2.5803542-.57723454-.8064427-1.04951605-1.5711034-1.4140082-2.286553-.35710776-.6923551-.63389048-1.3460713-.83902048-1.9778726-.18495547-.6146162-.30547351-1.1117181-.36441137-1.5190699-.07474536-.4275422-.10477592-.8094583-.09101776-1.1336333.00716928-.1683803.0180719-.3588462.0180719-.3329487l.00686749-.116995c.03334748-.2830759.12311243-.5674357.24916217-.8256117.13748086-.29787846.30628874-.54105369.49973388-.7230771 2.93933623-3.01606387 5.44246113-3.2186648 6.71570883-.84267288.8153827 1.52157548.9307333 4.22912808.1656793 5.01415288l-.4729669.4855072c-.0624015.0640561-.1010856.1037659-.1395999.1432977.038144.0945757.086399.1981641.1462446.3117546zm9.7543958 6.9154541c-.0803968-.5800426-.8492792-1.550684-1.704083-1.9843709-.9462439-.4800793-1.7662659-.2824803-2.5378928.8792883l-.1168464.1446716c-.1563425.1604236-.3168726.2427838-.5099952.308016-.1676938.0569986-.2677267.0829573-.4371101.0829573l-.2084904-.0219756-.2211051-.0471857c-.2566657-.0520229-.5516427-.1720052-.9254679-.3639067-.3278355-.1740263-.72082-.434726-1.1877042-.7829945-.4589669-.3422538-.9703892-.8096352-1.5717227-1.4274717-.593057-.608538-1.0499016-1.1321422-1.3981411-1.6134051-.3470217-.5050874-.5806057-.887803-.723265-1.1930965-.2109513-.3966905-.3565054-.7986727-.4270868-1.1736674l-.0172562-.1849719c0-.140267.02359-.2803019.0661531-.4137687.0563904-.2169341.1667841-.4025063.3042001-.540843l.4221792-.433373c.1574269-.1616009.1801123-.1848877.3646941-.3743636.0065633-.0303541.0133132-.067271.0196334-.1095602.0316455-.2117413.0438158-.4943849.0308209-.7994049-.0303185-.7116474-.1872588-1.4079692-.4381047-1.87606979-.5091253-.9500725-1.4043006-.87761773-3.54921683 1.32212869-.02904514.0274976-.05248034.0612571-.09647264.1560478-.03642083.0747431-.05830201.1387614-.06685846.183639-.00479702.0985945-.0126912.242918-.01596303.3197611-.0072408.1706107.01165303.4108946.06743569.7323134.04698237.3224898.14597355.7307997.29839173 1.2381321.16402118.5045605.39880862 1.0590906.71019474 1.6628285.3190143.6261585.7391044 1.3063173 1.2607345 2.0350762.5259837.7353125 1.1952431 1.5164226 2.0172376 2.3507532.9997561 1.0442405 1.9577036 1.8717929 2.8480375 2.468477.8877462.5952955 1.6828723 1.0415795 2.3678168 1.3335745.665273.2842681 1.221321.4613141 1.6468009.5341626.4623598.0712977.7960583.106623.9643819.106623.0688044 0 .0956891-.000835.0847982.0011321.0516509-.0076116.0962769-.0127329.1379694-.0159659.0686628-.0160568.1294486-.0380759.1966375-.0723374.0708352-.0344219.1008506-.056313.1556215-.1159724l2.1974701-2.2454414c-.0038469-.0260352-.0066526-.0490536-.0084263-.0694361z" fill="#212121"/></svg>