<svg height="32" viewBox="0 0 32 32" width="32" xmlns="http://www.w3.org/2000/svg"><path d="m25 15v12h-19v-12h-2.15300969l1.28571429-9h20.7345908l1.2857143 9zm-17 0v10h15v-10zm1 1h13v8h-13zm1 1v6h11v-6zm0 0h11v5h-11zm-.63141133-10.03309087-.73169924 6.96165327.9945219.1045285.73169927-6.9616533zm3.81527243.01171952-.3663517 6.99040675.9986295.0523359.3663517-6.99040669zm3.6336483.05233596.3663517 6.99040669.9986295-.0523359-.3663517-6.99040675zm3.81938.04047299.7316993 6.9616533.9945219-.1045285-.7316993-6.96165327z" fill="#212121"/></svg>