<svg xmlns="http://www.w3.org/2000/svg" width="32" height="32" viewBox="0 0 32 32">
  <path fill="#212121" d="M23.399232,22.8742242 C23.7737576,23.311335 24,23.8792466 24,24.5 C24,25.8807119 22.8807119,27 21.5,27 C20.1192881,27 19,25.8807119 19,24.5 C19,23.937197 19.1859724,23.4178303 19.4998169,23 L14.5001831,23 C14.8140276,23.4178303 15,23.937197 15,24.5 C15,25.8807119 13.8807119,27 12.5,27 C11.1192881,27 10,25.8807119 10,24.5 C10,23.937197 10.1859724,23.4178303 10.4998169,23 L10.0402832,23 C9.70808035,23 9.46824635,22.6820235 9.55953009,22.3626084 L10.2347259,20 L10,20 C9.52331898,20 9.11290416,19.6635403 9.01941932,19.1961161 L7.10915587,9.64479884 L3.8689148,7.81040887 C3.38830374,7.53832166 3.21926174,6.92813915 3.49134895,6.44752809 C3.76343615,5.96691702 4.37361866,5.79787502 4.85422973,6.06996223 L8.49265746,8.12977668 C8.74550895,8.27292289 8.92359731,8.51896702 8.98058068,8.80388386 L10.8198039,18 L22.2192236,18 L23.7372415,11.9279282 L13.4001702,11.3239812 C12.8488257,11.2917687 12.427986,10.8187022 12.4601985,10.2673577 C12.492411,9.71601317 12.9654774,9.2951735 13.516822,9.327386 L25.0583259,10.0017024 C25.6839145,10.0382526 26.1221288,10.6345905 25.9701425,11.2425356 L23.9701425,19.2425356 C23.8588507,19.6877026 23.4588676,20 23,20 L11.2747607,20 L10.7031927,22 L23.067627,22 C23.3437693,22 23.567627,22.2238576 23.567627,22.5 C23.567627,22.6489156 23.5025262,22.7826261 23.399232,22.8742242 Z M12.5,26 C13.3284271,26 14,25.3284271 14,24.5 C14,23.6715729 13.3284271,23 12.5,23 C11.6715729,23 11,23.6715729 11,24.5 C11,25.3284271 11.6715729,26 12.5,26 Z M21.5,26 C22.3284271,26 23,25.3284271 23,24.5 C23,23.6715729 22.3284271,23 21.5,23 C20.6715729,23 20,23.6715729 20,24.5 C20,25.3284271 20.6715729,26 21.5,26 Z"/>
</svg>
