<svg xmlns="http://www.w3.org/2000/svg" width="32" height="32" viewBox="0 0 32 32">
  <path fill="#212121" d="M9.89998188,10 C9.50229941,11.9591304 7.95913038,13.5022994 6,13.8999819 L6,15.1000181 C7.95913038,15.4977006 9.50229941,17.0408696 9.89998188,19 L20.0698151,19 C20.045112,19.0555974 20.0218456,19.1123416 20,19.1702311 L20,21 L4,21 L4,8 L27,8 L27,17.3398965 C26.4460325,17.1523024 25.7821942,17.0420241 25,17.0098976 L25,13.8999819 C23.0408696,13.5022994 21.4977006,11.9591304 21.1000181,10 L9.89998188,10 Z M8.87398251,10 L6,10 L6,12.8739825 C7.40560729,12.5122042 8.5122042,11.4056073 8.87398251,10 Z M25,12.8739825 L25,10 L22.1260175,10 C22.4877958,11.4056073 23.5943927,12.5122042 25,12.8739825 Z M6,16.1260175 L6,19 L8.87398251,19 C8.5122042,17.5943927 7.40560729,16.4877958 6,16.1260175 Z M15.5,17 C14.1192881,17 13,15.8807119 13,14.5 C13,13.1192881 14.1192881,12 15.5,12 C16.8807119,12 18,13.1192881 18,14.5 C18,15.8807119 16.8807119,17 15.5,17 Z M15.5,16 C16.3284271,16 17,15.3284271 17,14.5 C17,13.6715729 16.3284271,13 15.5,13 C14.6715729,13 14,13.6715729 14,14.5 C14,15.3284271 14.6715729,16 15.5,16 Z M10,14 L12,14 L12,15 L10,15 L10,14 Z M19,14 L21,14 L21,15 L19,15 L19,14 Z M27,22.5659275 L27,21.6216878 C26.6832071,21.7214002 26.34864,21.8043689 26,21.8669507 L26,22.8488084 C26.3489363,22.7774458 26.6844887,22.6821784 27,22.5659275 Z M28,22.0853166 C28.6571463,21.6794308 29,21.2405425 29,21 L29,20.6048945 C28.716115,20.8295939 28.37943,21.0396035 28,21.2250248 L28,22.0853166 Z M25,22.9833414 L25,21.9853611 C24.835319,21.9950146 24.6685448,22 24.5,22 C24.3314552,22 24.164681,21.9950146 24,21.9853611 L24,22.9833414 C24.1654116,22.9943587 24.3322798,23 24.5,23 C24.6677202,23 24.8345884,22.9943587 25,22.9833414 Z M23,22.8488084 L23,21.8669507 C22.65136,21.8043689 22.3167929,21.7214002 22,21.6216878 L22,22.5659275 C22.3155113,22.6821784 22.6510637,22.7774458 23,22.8488084 Z M21,22.0853166 L21,21.2250248 C20.62057,21.0396035 20.283885,20.8295939 20,20.6048945 L20,21 C20,21.2405425 20.3428537,21.6794308 21,22.0853166 Z M27,24.6565783 L27,23.6216878 C26.6832071,23.7214002 26.34864,23.8043689 26,23.8669507 L26,24.8957185 C26.3664227,24.8390271 26.6993074,24.759272 27,24.6565783 Z M28,24.1492004 C28.4643768,23.8094478 28.7935153,23.3685886 29,22.8277918 L29,22.6048945 C28.716115,22.8295939 28.37943,23.0396035 28,23.2250248 L28,24.1492004 Z M25,24.9898879 L25,23.9853611 C24.835319,23.9950146 24.6685448,24 24.5,24 C24.3314552,24 24.164681,23.9950146 24,23.9853611 L24,24.9898879 C24.1616043,24.996627 24.3282462,25 24.5,25 C24.6717538,25 24.8383957,24.996627 25,24.9898879 Z M23,24.8957185 L23,23.8669507 C22.65136,23.8043689 22.3167929,23.7214002 22,23.6216878 L22,24.6565783 C22.3006926,24.759272 22.6335773,24.8390271 23,24.8957185 Z M21,24.1492004 L21,23.2250248 C20.62057,23.0396035 20.283885,22.8295939 20,22.6048945 L20,22.8277918 C20.2064847,23.3685886 20.5356232,23.8094478 21,24.1492004 Z M28.9790264,19.1147562 C28.4244704,17.7125655 27.0101314,17 24.5031738,17 C21.9962369,17 20.5794353,17.7127977 20.0212181,19.1154881 C20.1106567,19.3824943 20.4817065,19.7867144 21.1127183,20.1527865 C22.0211311,20.6797888 23.236382,21 24.5,21 C25.763618,21 26.9788689,20.6797888 27.8872817,20.1527865 C28.5188702,19.7863798 28.8900214,19.3817553 28.9790264,19.1147562 Z M19,19 C19.6556803,17 21.4900716,16 24.5031738,16 C27.516276,16 29.3485514,17 30,19 L30,23 C29.3359375,25 27.5026042,26 24.5,26 C21.4973958,26 19.6640625,25 19,23 L19,19 Z"/>
</svg>
