<svg xmlns="http://www.w3.org/2000/svg" width="32" height="32" viewBox="0 0 32 32">
  <path fill="#212121" d="M3.70553318,13.0616194 L3.66770913,13.0717544 L3.15007104,11.1399027 L3.18964979,11.1292976 C2.89266024,9.82560975 3.67800669,8.50983977 4.9805589,8.16082196 L23.3331496,3.2432601 C24.6668149,2.88590557 26.0376572,3.6773618 26.3950118,5.01102705 L27.9173844,10.692599 C28.5788872,11.2428947 29,12.0722693 29,13 L29,24 C29,25.6568542 27.6568542,27 26,27 L7,27 C5.34314575,27 4,25.6568542 4,24 L4,14.1605846 L3.70553318,13.0616194 Z M7.66755088,12 L6.20636401,12.3915238 C6.07693596,12.560084 6,12.7710573 6,13 L6,24 C6,24.5522847 6.44771525,25 7,25 L26,25 C26.5522847,25 27,24.5522847 27,24 L27,13 C27,12.4477153 26.5522847,12 26,12 L7.66755088,12 Z M25.9218272,7.10878141 L16.9976779,9.5 L26,9.5 C26.1943443,9.5 26.3865659,9.51589736 26.5751752,9.54710941 L25.9218272,7.10878141 Z M9.27027129,9.5 L25.4012577,5.17771521 C25.1505421,4.43364994 24.3609553,4.00313656 23.5919686,4.20918593 L5.23937794,9.12674778 C4.47039126,9.33279715 4.00184575,10.100426 4.15675227,10.8701633 L4.23894452,10.8481399 C4.88363031,10.022508 5.88772713,9.5 7,9.5 L9.27027129,9.5 Z M8,14 L10,14 C10.5522847,14 11,14.4477153 11,15 L11,16 C11,16.5522847 10.5522847,17 10,17 L8,17 C7.44771525,17 7,16.5522847 7,16 L7,15 C7,14.4477153 7.44771525,14 8,14 Z M7.5,22 L10.5,22 C10.7761424,22 11,22.2238576 11,22.5 C11,22.7761424 10.7761424,23 10.5,23 L7.5,23 C7.22385763,23 7,22.7761424 7,22.5 C7,22.2238576 7.22385763,22 7.5,22 Z M12.5,22 L15.5,22 C15.7761424,22 16,22.2238576 16,22.5 C16,22.7761424 15.7761424,23 15.5,23 L12.5,23 C12.2238576,23 12,22.7761424 12,22.5 C12,22.2238576 12.2238576,22 12.5,22 Z M17.5,22 L20.5,22 C20.7761424,22 21,22.2238576 21,22.5 C21,22.7761424 20.7761424,23 20.5,23 L17.5,23 C17.2238576,23 17,22.7761424 17,22.5 C17,22.2238576 17.2238576,22 17.5,22 Z M22.5,22 L25.5,22 C25.7761424,22 26,22.2238576 26,22.5 C26,22.7761424 25.7761424,23 25.5,23 L22.5,23 C22.2238576,23 22,22.7761424 22,22.5 C22,22.2238576 22.2238576,22 22.5,22 Z"/>
</svg>
