<svg xmlns="http://www.w3.org/2000/svg" width="32" height="32" viewBox="0 0 32 32">
  <path fill="#212121" d="M15,11 L24,11 L24,12 L20.2361065,12 C20.7111464,12.5307565 21,13.2316456 21,14 L21,16 L22.4142136,16 L24,17.5857864 L24,16 L25,16 C25.5522847,16 26,15.5522847 26,15 L26,8 C26,7.44771525 25.5522847,7 25,7 L14,7 C13.4477153,7 13,7.44771525 13,8 L13,11 L15,11 Z M11,11 L11,8 C11,6.34314575 12.3431458,5 14,5 L25,5 C26.6568542,5 28,6.34314575 28,8 L28,15 C28,16.3062188 27.1651924,17.4174579 26,17.8292943 L26,22.4142136 L21.5857864,18 L21,18 L21,21 C21,22.6568542 19.6568542,24 18,24 L10.4142136,24 L6,28.4142136 L6,23.8292943 C4.83480763,23.4174579 4,22.3062188 4,21 L4,14 C4,12.3431458 5.34314575,11 7,11 L11,11 Z M8,23.5857864 L9.58578644,22 L18,22 C18.5522847,22 19,21.5522847 19,21 L19,14 C19,13.4477153 18.5522847,13 18,13 L7,13 C6.44771525,13 6,13.4477153 6,14 L6,21 C6,21.5522847 6.44771525,22 7,22 L8,22 L8,23.5857864 Z M8,15 L17,15 L17,16 L8,16 L8,15 Z M8,17 L17,17 L17,18 L8,18 L8,17 Z M8,19 L14,19 L14,20 L8,20 L8,19 Z M15,9 L24,9 L24,10 L15,10 L15,9 Z"/>
</svg>
