<svg xmlns="http://www.w3.org/2000/svg" width="32" height="32" viewBox="0 0 32 32">
  <path fill="#212121" d="M13.1207407,21.1934984 C14.5236869,20.4789957 16.9568754,18.6960107 18.2673492,17.4739741 L18.2873155,17.4953854 C19.3583476,16.506639 20.368129,15.4110068 21.2809989,14.2440579 C23.7650273,11.0686505 25.6071418,7.3720906 25.8605992,5.19820224 C23.7622781,5.38768445 20.3308455,7.10930482 16.8412035,9.81124994 C15.6168183,10.7592617 14.5126903,11.7426033 13.5461141,12.7440518 C13.5042478,12.7874286 13.4592406,12.8263087 13.4117442,12.860614 C12.1140618,14.333219 10.3892781,16.7492901 9.85149171,17.9761286 C9.83894125,18.0443016 9.8193249,18.1110466 9.79292282,18.1752743 C9.66495738,18.4865727 9.55428659,18.7946476 9.46106812,19.098917 C9.3141465,20.5465147 10.4008999,21.6520271 11.9881174,21.6190727 C12.2495321,21.5169614 12.5135743,21.4045703 12.7796872,21.2821433 C12.8825643,21.234814 12.9927331,21.2053026 13.1054934,21.1948682 C13.1105865,21.194397 13.115669,21.1939403 13.1207407,21.1934984 L13.1207407,21.1934984 Z M14.4612261,21.5810328 C15.0802116,22.1413482 15.3390433,23.2719435 15.4414048,24.8322727 C15.4642897,25.1811136 15.4784093,25.5535813 15.4863061,25.9717649 C15.4910216,26.221478 15.493409,26.4740857 15.4947399,26.7972282 C15.4946846,26.7838123 15.4954353,27.0290076 15.4962675,27.2480786 C17.9173578,25.6581591 19.7602055,20.4696249 18.242565,18.9519844 C18.2204474,18.9298668 18.1995877,18.9069807 18.1799841,18.8834134 C17.0750954,19.8125226 15.6427708,20.859856 14.4612261,21.5810328 L14.4612261,21.5810328 Z M9.45691298,16.584727 C10.1379922,15.425943 11.1885266,13.9652592 12.1439467,12.8071604 C10.1359744,11.6995439 6.63179592,12.8654219 4.60153106,15.9273971 C4.83609729,15.9095013 5.0371652,15.8940044 5.06120169,15.8922264 C5.37043308,15.8693527 5.62715678,15.8524842 5.87150548,15.8396864 C6.90698605,15.7854529 7.66177148,15.8084902 8.27181595,15.9532753 C8.76215542,16.0696502 9.17361632,16.2813516 9.45691298,16.584727 L9.45691298,16.584727 Z M15.6167758,8.22986544 C20.0322707,4.81105492 24.3769587,2.80936986 27.0214909,3.2424621 C27.4565193,3.31370623 27.7935816,3.66140975 27.851274,4.09844176 C28.1978385,6.72374216 26.004161,11.4522979 22.8562673,15.4763443 C22.0543153,16.5015034 21.1828572,17.4751229 20.2618773,18.377249 C22.03952,21.8526944 18.77729,29.0703328 14.6890665,29.6718433 C14.1342737,29.7534714 13.6208196,29.3630215 13.5512309,28.8065904 C13.5148136,28.5153974 13.5018319,28.1535326 13.4976683,27.556158 C13.496551,27.3958588 13.4946555,26.7808665 13.4947568,26.8054653 C13.493463,26.4913236 13.4911609,26.2477354 13.4866626,26.0095255 C13.4793108,25.6202022 13.4663274,25.2777066 13.4456947,24.9631963 C13.396871,24.2189617 13.3048954,23.6584355 13.17294,23.3136741 C13.1708818,23.3082966 13.1688369,23.3030297 13.1668072,23.2978732 C12.9595082,23.3861318 12.7529226,23.4691152 12.5472222,23.5467202 C12.454114,23.5818474 12.356284,23.6028798 12.2569659,23.6091224 C9.34015195,23.7924558 7.12154355,21.5738474 7.48643811,18.7660799 L7.51945329,18.6103527 C7.59069122,18.3703972 7.67064189,18.1295233 7.75919122,17.8878951 C7.38244001,17.8089925 6.7950455,17.7940571 5.97611249,17.8369489 C5.74808915,17.8488917 5.50483459,17.8648751 5.20873785,17.8867773 C5.16403021,17.8900843 4.25466966,17.9603672 4.00027815,17.9777312 C3.54276295,18.0089599 3.19066019,18.0244089 2.88124257,18.0234217 C2.16686756,18.0211423 1.68522104,17.2921774 1.96331298,16.6341487 C4.05907472,11.6751006 9.21469585,9.39847062 12.6317281,10.8255346 C13.5341578,9.93769849 14.5326695,9.06926265 15.6167758,8.22986544 Z M17.1356223,13.7609073 C16.1593116,12.7845965 16.1593116,11.2016841 17.1356223,10.2253734 C18.111933,9.24906264 19.6948455,9.24906264 20.6711562,10.2253734 C21.6474669,11.2016841 21.6474669,12.7845965 20.6711562,13.7609073 C19.6948455,14.737218 18.111933,14.737218 17.1356223,13.7609073 Z M17.8427291,13.0538005 C18.4285155,13.6395869 19.378263,13.6395869 19.9640494,13.0538005 C20.5498358,12.4680141 20.5498358,11.5182666 19.9640494,10.9324801 C19.378263,10.3466937 18.4285155,10.3466937 17.8427291,10.9324801 C17.2569426,11.5182666 17.2569426,12.4680141 17.8427291,13.0538005 Z"/>
</svg>
