<svg xmlns="http://www.w3.org/2000/svg" width="32" height="32" viewBox="0 0 32 32">
  <path fill="#212121" d="M21.5395923,12.1588398 L22.6047175,10.438253 C25.7690789,12.0061876 27.8595912,14.5515525 28,16.5 C28,18.5595703 21.9628906,24 16.5,24 C15.7909199,24 15.0721653,23.914181 14.3581944,23.7595595 L15.4911023,21.9294775 C15.8355269,21.9759959 16.1728041,22 16.5,22 C18.5121127,22 20.9452983,21.0111479 23.1110949,19.4130317 C24.0507659,18.7196593 24.8628713,17.9624884 25.4206422,17.2776949 C25.6628459,16.9803335 25.8415652,16.7148903 25.9469058,16.5075805 C25.9618157,16.478238 25.9725994,16.4562295 25.9803773,16.4431115 C25.7328583,15.0169657 23.9558708,13.2809116 21.5395923,12.1588398 Z M11.6049023,20.6077458 L10.5507786,22.310561 C7.40403764,20.6070641 5,18.0184373 5,16.5 C5,14.09375 10.1487254,9 16.5,9 C17.2486294,9 17.9775188,9.06212055 18.681278,9.17667734 L16.5084163,12.6866847 C16.1417628,12.2659167 15.6019355,12 15,12 C13.8954305,12 13,12.8954305 13,14 C13,14.9307773 13.6358247,15.7130499 14.4968288,15.9361723 L12.4578938,19.2298365 C11.5528976,18.2495598 11,16.939348 11,15.5 C11,14.0902188 11.5304159,12.8043229 12.4025705,11.8309894 C11.3998449,12.2387888 10.4444782,12.7848806 9.57483535,13.4427127 C7.99811917,14.6354027 7,16.0348512 7,16.5 C7,16.542651 7.1827813,16.9270111 7.5916989,17.439255 C8.13248133,18.1166836 8.92985884,18.8541207 9.86801325,19.5278282 C10.4284889,19.930317 11.0119077,20.2925519 11.6049023,20.6077458 Z M16.0764394,20.983933 L21.2200401,12.6750396 C21.7152789,13.5007239 22,14.4671119 22,15.5 C22,18.5375661 19.5375661,21 16.5,21 C16.3574821,21 16.2162303,20.9945793 16.0764394,20.983933 Z M19.7574697,9.3380737 L21.7030716,9.9948981 L13.3211788,23.5348787 L11.4292094,22.7914172 L19.7574697,9.3380737 Z"/>
</svg>
