<svg xmlns="http://www.w3.org/2000/svg" width="32" height="32" viewBox="0 0 32 32">
  <path fill="#212121" d="M17.687323,27.073751 L16,29.7252585 L14.312677,27.073751 C9.39777904,19.3503399 7,14.5547818 7,12 C7,7.02943725 11.0294373,3 16,3 C20.9705627,3 25,7.02943725 25,12 C25,14.5547818 22.602221,19.3503399 17.687323,27.073751 Z M16,26 C20.6666667,18.6666667 23,14 23,12 C23,8.13400675 19.8659932,5 16,5 C12.1340068,5 9,8.13400675 9,12 C9,14 11.3333333,18.6666667 16,26 Z M16,16 C13.790861,16 12,14.209139 12,12 C12,9.790861 13.790861,8 16,8 C18.209139,8 20,9.790861 20,12 C20,14.209139 18.209139,16 16,16 Z M16,14 C17.1045695,14 18,13.1045695 18,12 C18,10.8954305 17.1045695,10 16,10 C14.8954305,10 14,10.8954305 14,12 C14,13.1045695 14.8954305,14 16,14 Z"/>
</svg>
