<svg xmlns="http://www.w3.org/2000/svg" width="32" height="32" viewBox="0 0 32 32">
  <path fill="#212121" d="M11,13 L11,15 L8.79551262,15 L6.25705108,26 L25.7429489,26 L23.2044874,15 L21,15 L21,13 L23.2044874,13 C24.1357993,13 24.9438554,13.6428188 25.1532698,14.550281 L27.6917313,25.550281 C27.9401043,26.6265638 27.2689507,27.7004094 26.1926679,27.9487824 C26.0451826,27.9828175 25.8943104,28 25.7429489,28 L6.25705108,28 C5.15248158,28 4.25705108,27.1045695 4.25705108,26 C4.25705108,25.8486385 4.27423363,25.6977663 4.30826869,25.550281 L6.84673023,14.550281 C7.05614458,13.6428188 7.86420066,13 8.79551262,13 L11,13 Z M10.5,20 L15,20 L15,21 L10.5,21 C10.2238576,21 10,20.7761424 10,20.5 C10,20.2238576 10.2238576,20 10.5,20 Z M16.8291796,21.7236068 L17.2763932,20.8291796 L21.7236068,23.0527864 C21.970596,23.176281 22.0707082,23.4766175 21.9472136,23.7236068 C21.823719,23.970596 21.5233825,24.0707082 21.2763932,23.9472136 L16.8291796,21.7236068 Z M16,2 C19.3137085,2 22,4.6862915 22,8 C22,8.41351787 21.9580175,8.8222417 21.8728114,9.23348293 C21.6603204,10.2000809 20.0469712,13.4341248 16.8802239,19.3078919 L16.0054653,20.9304176 L15.1222615,19.3124734 C11.9083266,13.4248538 10.2980844,10.1977267 10.1255202,9.22578669 C10.0422854,8.82518182 10,8.41500647 10,8 C10,4.6862915 12.6862915,2 16,2 Z M19.9168937,8.81606794 C19.9719703,8.55000447 20,8.27711907 20,8 C20,5.790861 18.209139,4 16,4 C13.790861,4 12,5.790861 12,8 C12,8.27811385 12.0282314,8.55196292 12.0891387,8.84713457 C12.195829,9.44659497 13.5390794,12.1780938 15.9948622,16.7280345 C18.4394133,12.1494527 19.7841998,9.41936272 19.9168937,8.81606794 Z M16,10 C14.8954305,10 14,9.1045695 14,8 C14,6.8954305 14.8954305,6 16,6 C17.1045695,6 18,6.8954305 18,8 C18,9.1045695 17.1045695,10 16,10 Z M16,9 C16.5522847,9 17,8.55228475 17,8 C17,7.44771525 16.5522847,7 16,7 C15.4477153,7 15,7.44771525 15,8 C15,8.55228475 15.4477153,9 16,9 Z"/>
</svg>
