<svg xmlns="http://www.w3.org/2000/svg" width="32" height="32" viewBox="0 0 32 32">
  <path fill="#212121" d="M21,15 L21,13 L23,13 L23,15 L21,15 Z M21,18 L23,18 L23,21 L21,21 L21,18 Z M14,18 L14,21 L9,21 L9,18 L10,18 L10,20 L13,20 L13,18 L14,18 Z M20,18 L18,18 L20,18 Z M5,11 L5,9 C5,6.790861 6.790861,5 9,5 L11,5 L11,7 L9,7 C7.8954305,7 7,7.8954305 7,9 L7,11 L5,11 Z M5,21 L7,21 L7,23 C7,24.1045695 7.8954305,25 9,25 L11,25 L11,27 L9,27 C6.790861,27 5,25.209139 5,23 L5,21 Z M27,11 L25,11 L25,9 C25,7.8954305 24.1045695,7 23,7 L21,7 L21,5 L23,5 C25.209139,5 27,6.790861 27,9 L27,11 Z M27,21 L27,23 C27,25.209139 25.209139,27 23,27 L21,27 L21,25 L23,25 C24.1045695,25 25,24.1045695 25,23 L25,21 L27,21 Z M9,10 L14,10 L14,15 L9,15 L9,10 Z M10,11 L10,14 L13,14 L13,11 L10,11 Z M15,10 L17,10 L17,12 L15,12 L15,10 Z M18,13 L20,13 L20,15 L18,15 L18,13 Z M23,10 L23,12 L18,12 L18,10 L23,10 Z M15,21 L15,19 L20,19 L20,21 L15,21 Z M15,13 L17,13 L17,15 L15,15 L15,13 Z M3.5,16 L28.5,16 C28.7761424,16 29,16.2238576 29,16.5 C29,16.7761424 28.7761424,17 28.5,17 L3.5,17 C3.22385763,17 3,16.7761424 3,16.5 C3,16.2238576 3.22385763,16 3.5,16 Z"/>
</svg>
