<svg xmlns="http://www.w3.org/2000/svg" width="32" height="32" viewBox="0 0 32 32">
  <path fill="#212121" d="M9,18 L9,10 L10,10 L10,18 L11,18 L11,10 L13,10 L13,18 L14,18 L14,10 L15,10 L15,18 L16,18 L16,10 L18,10 L18,18 L19,18 L19,10 L21,10 L21,18 L22,18 L22,10 L23,10 L23,18 L28.5,18 C28.7761424,18 29,18.2238576 29,18.5 C29,18.7761424 28.7761424,19 28.5,19 L3.5,19 C3.22385763,19 3,18.7761424 3,18.5 C3,18.2238576 3.22385763,18 3.5,18 L9,18 Z M10,20 L10,22 L9,22 L9,20 L10,20 Z M13,20 L13,22 L11,22 L11,20 L13,20 Z M15,20 L15,22 L14,22 L14,20 L15,20 Z M18,20 L18,22 L16,22 L16,20 L18,20 Z M21,20 L21,22 L19,22 L19,20 L21,20 Z M23,20 L23,22 L22,22 L22,20 L23,20 Z M5,11 L5,9 C5,6.790861 6.790861,5 9,5 L11,5 L11,7 L9,7 C7.8954305,7 7,7.8954305 7,9 L7,11 L5,11 Z M5,21 L7,21 L7,23 C7,24.1045695 7.8954305,25 9,25 L11,25 L11,27 L9,27 C6.790861,27 5,25.209139 5,23 L5,21 Z M27,11 L25,11 L25,9 C25,7.8954305 24.1045695,7 23,7 L21,7 L21,5 L23,5 C25.209139,5 27,6.790861 27,9 L27,11 Z M27,21 L27,23 C27,25.209139 25.209139,27 23,27 L21,27 L21,25 L23,25 C24.1045695,25 25,24.1045695 25,23 L25,21 L27,21 Z"/>
</svg>
