<svg xmlns="http://www.w3.org/2000/svg" width="32" height="32" viewBox="0 0 32 32">
  <path fill="#212121" d="M20.5070274,11.7325195 C21.4327946,12.7167727 22,14.0421474 22,15.5 C22,18.5375661 19.5375661,21 16.5,21 C13.4624339,21 11,18.5375661 11,15.5 C11,14.0902188 11.5304159,12.8043229 12.4025705,11.8309894 C11.3998449,12.2387888 10.4444782,12.7848806 9.57483535,13.4427127 C7.99811917,14.6354027 7,16.0348512 7,16.5 C7,16.542651 7.1827813,16.9270111 7.5916989,17.439255 C8.13248133,18.1166836 8.92985884,18.8541207 9.86801325,19.5278282 C11.9916741,21.0528716 14.4447254,22 16.5,22 C18.5121127,22 20.9452983,21.0111479 23.1110949,19.4130317 C24.0507659,18.7196593 24.8628713,17.9624884 25.4206422,17.2776949 C25.6628459,16.9803335 25.8415652,16.7148903 25.9469058,16.5075805 C25.9618157,16.478238 25.9725994,16.4562295 25.9803773,16.4431115 C25.6987634,14.8205191 23.437303,12.7967607 20.5070274,11.7325195 Z M16.5,24 C11.0371094,24 5,18.90625 5,16.5 C5,14.09375 10.1487254,9 16.5,9 C22.8512746,9 27.7817383,13.4711914 28,16.5 C28,18.5595703 21.9628906,24 16.5,24 Z M15,16 C16.1045695,16 17,15.1045695 17,14 C17,12.8954305 16.1045695,12 15,12 C13.8954305,12 13,12.8954305 13,14 C13,15.1045695 13.8954305,16 15,16 Z"/>
</svg>
