<svg xmlns="http://www.w3.org/2000/svg" width="32" height="32" viewBox="0 0 32 32">
  <path fill="#212121" d="M17.687323,27.073751 L16,29.7252585 L14.312677,27.073751 C9.39777904,19.3503399 7,14.5547818 7,12 C7,7.02943725 11.0294373,3 16,3 C20.9705627,3 25,7.02943725 25,12 C25,14.5547818 22.602221,19.3503399 17.687323,27.073751 Z M16,16 C18.209139,16 20,14.209139 20,12 C20,9.790861 18.209139,8 16,8 C13.790861,8 12,9.790861 12,12 C12,14.209139 13.790861,16 16,16 Z M16,14 C14.8954305,14 14,13.1045695 14,12 C14,10.8954305 14.8954305,10 16,10 C17.1045695,10 18,10.8954305 18,12 C18,13.1045695 17.1045695,14 16,14 Z"/>
</svg>
