<svg xmlns="http://www.w3.org/2000/svg" width="32" height="32" viewBox="0 0 32 32">
  <path fill="#212121" d="M13.3949696,10.9187389 C13.9283869,12.9018524 15.0832023,14.4725291 16.5780772,15.1081766 C16.8733249,15.8441968 17.5934782,16.363961 18.4350288,16.363961 C19.5395983,16.363961 20.4350288,15.4685305 20.4350288,14.363961 C20.4350288,13.2593915 19.5395983,12.363961 18.4350288,12.363961 C18.2862817,12.363961 18.1413272,12.3801994 18.0018413,12.4110002 C17.23009,12.3398188 16.3732315,11.0929662 16.1353277,9.36239033 L18.8259079,8.46553026 C19.1852426,8.34575202 19.5814101,8.43927449 19.8492424,8.70710678 L20.1659577,9.0238221 C20.3028606,9.45191303 20.5816005,9.82455937 20.9608445,10.0778923 L21.7415043,10.5993687 L24.0918831,12.9497475 C24.3596283,13.2174926 24.4531841,13.6134987 24.3335677,13.9727575 L22.921771,18.2129813 C22.8726921,18.3603862 22.789943,18.4943283 22.6800864,18.6041848 L14.1923882,27.0918831 C13.0208153,28.263456 11.1213203,28.263456 9.94974747,27.0918831 L5.70710678,22.8492424 C4.53553391,21.6776695 4.53553391,19.7781746 5.70710678,18.6066017 L13.3949696,10.9187389 Z M18.0710678,13.4142136 C18.2762962,13.4142136 18.4670851,13.4760367 18.6258267,13.5820752 L18.0710678,14.4142136 C15.8619288,14.4142136 14.0710678,11.7279221 14.0710678,8.41421356 C14.0710678,5.10050506 15.8619288,2.41421356 18.0710678,2.41421356 C20.2802068,2.41421356 22.0710678,5.10050506 22.0710678,8.41421356 L21.5163089,9.24635193 C21.2478652,9.06703299 21.0710678,8.76126989 21.0710678,8.41421356 C21.0710678,5.58753925 19.622184,3.41421356 18.0710678,3.41421356 C16.5199516,3.41421356 15.0710678,5.58753925 15.0710678,8.41421356 C15.0710678,11.2408879 16.5199516,13.4142136 18.0710678,13.4142136 Z"/>
</svg>
