<svg xmlns="http://www.w3.org/2000/svg" width="32" height="32" viewBox="0 0 32 32">
  <path fill="#212121" d="M20,9 L20,10 L21,10 L21,9 L29,9 L29,13.8778819 L28.3332461,14.1135456 C27.5408964,14.393601 27,15.1454758 27,16 C27,16.8545242 27.5408964,17.606399 28.3332461,17.8864544 L29,18.1221181 L29,23 L3,23 L3,18.1221181 L3.66675392,17.8864544 C4.45910355,17.606399 5,16.8545242 5,16 C5,15.1454758 4.45910355,14.393601 3.66675392,14.1135456 L3,13.8778819 L3,9 L20,9 Z M20,11 L20,13 L21,13 L21,11 L20,11 Z M20,14 L20,16 L21,16 L21,14 L20,14 Z M20,17 L20,19 L21,19 L21,17 L20,17 Z M20,20 L20,22 L21,22 L21,20 L20,20 Z M12.8531695,17.59 L14.6165253,18.427051 L14.3653494,16.491337 L15.7063391,15.072949 L13.7877481,14.713663 L12.8531695,13 L11.918591,14.713663 L10,15.072949 L11.3409897,16.491337 L11.0898138,18.427051 L12.8531695,17.59 Z"/>
</svg>
