<svg xmlns="http://www.w3.org/2000/svg" width="32" height="32" viewBox="0 0 32 32">
  <path fill="#212121" d="M27,21.6216878 L27,22.5659275 C26.6844887,22.6821784 26.3489363,22.7774458 26,22.8488084 L26,21.8669507 C26.34864,21.8043689 26.6832071,21.7214002 27,21.6216878 Z M28,21.2250248 C28.373593,21.0424559 28.7057462,20.8360494 28.9868612,20.6152539 C28.9956204,20.2112695 29,19.6728516 29,19 C29,19.2539394 28.6178926,19.7289334 27.8872817,20.1527865 C26.9788689,20.6797888 25.763618,21 24.5,21 C23.236382,21 22.0211311,20.6797888 21.1127183,20.1527865 C20.3821074,19.7289334 20,19.2539394 20,19 C20,19.7685243 20.0023292,20.3053289 20.0069875,20.6104138 C20.2894042,20.8330331 20.6236784,21.0411225 21,21.2250248 L21,22.0853166 C20.3428537,21.6794308 20,21.2405425 20,21 C20,21.7685243 20.0023292,22.3053289 20.0069875,22.6104138 C20.2894042,22.8330331 20.6236784,23.0411225 21,23.2250248 L21,24.0853166 C21.0365995,24.1079223 21.0741739,24.1304256 21.1127183,24.1527865 C21.3834977,24.3098752 21.6815401,24.4485901 22,24.5659275 L22,23.6216878 C22.3167929,23.7214002 22.65136,23.8043689 23,23.8669507 L23,24.8488084 C23.3235928,24.9149878 23.6586959,24.9606088 24,24.9833414 L24,23.9853611 C24.164681,23.9950146 24.3314552,24 24.5,24 C24.6685448,24 24.835319,23.9950146 25,23.9853611 L25,24.9833414 C25.3413041,24.9606088 25.6764072,24.9149878 26,24.8488084 L26,23.8669507 C26.34864,23.8043689 26.6832071,23.7214002 27,23.6216878 L27,24.5659275 C27.3184599,24.4485901 27.6165023,24.3098752 27.8872817,24.1527865 C27.9258261,24.1304256 27.9634005,24.1079223 28,24.0853166 L28,23.2250248 C28.373593,23.0424559 28.7057462,22.8360494 28.9868612,22.6152539 C28.9956204,22.2112695 29,21.6728516 29,21 C29,21.2405425 28.6571463,21.6794308 28,22.0853166 L28,21.2250248 Z M25,21.9853611 L25,22.9833414 C24.8345884,22.9943587 24.6677202,23 24.5,23 C24.3322798,23 24.1654116,22.9943587 24,22.9833414 L24,21.9853611 C24.164681,21.9950146 24.3314552,22 24.5,22 C24.6685448,22 24.835319,21.9950146 25,21.9853611 Z M23,22.8488084 C22.6510637,22.7774458 22.3155113,22.6821784 22,22.5659275 L22,21.6216878 C22.3167929,21.7214002 22.65136,21.8043689 23,21.8669507 L23,22.8488084 Z M27,15.2675873 C26.27319,15.098329 25.4429619,15 24.5031738,15 C20.5600586,15 18.5429878,16.7313453 18,18.1702311 L18,21 L4,21 L4,8 L27,8 L27,15.2675873 Z M5,12.8999819 C6.95913038,12.5022994 8.50229941,10.9591304 8.89998188,9 L7.87398251,9 C7.5122042,10.4056073 6.40560729,11.5122042 5,11.8739825 L5,12.8999819 Z M26,12.8999819 L26,11.8739825 C24.5943927,11.5122042 23.4877958,10.4056073 23.1260175,9 L22.1000181,9 C22.4977006,10.9591304 24.0408696,12.5022994 26,12.8999819 Z M8.89998188,20 C8.50229941,18.0408696 6.95913038,16.4977006 5,16.1000181 L5,17.1260175 C6.40560729,17.4877958 7.5122042,18.5943927 7.87398251,20 L8.89998188,20 Z M15.5,17 C16.8807119,17 18,15.8807119 18,14.5 C18,13.1192881 16.8807119,12 15.5,12 C14.1192881,12 13,13.1192881 13,14.5 C13,15.8807119 14.1192881,17 15.5,17 Z M15.5,16 C14.6715729,16 14,15.3284271 14,14.5 C14,13.6715729 14.6715729,13 15.5,13 C16.3284271,13 17,13.6715729 17,14.5 C17,15.3284271 16.3284271,16 15.5,16 Z M10,14 L10,15 L12,15 L12,14 L10,14 Z M19,14 L19,15 L21,15 L21,14 L19,14 Z M19,19 C19.6556803,17 21.4900716,16 24.5031738,16 C27.516276,16 29.3485514,17 30,19 L30,23 C29.3359375,25 27.5026042,26 24.5,26 C21.4973958,26 19.6640625,25 19,23 L19,19 Z"/>
</svg>
