<svg xmlns="http://www.w3.org/2000/svg" width="32" height="32" viewBox="0 0 32 32">
  <path fill="#212121" d="M14.9090909,21 L16,23 L21.4545455,13 L23.2044874,13 C24.1357993,13 24.9438554,13.6428188 25.1532698,14.550281 L27.6917313,25.550281 C27.9401043,26.6265638 27.2689507,27.7004094 26.1926679,27.9487824 C26.0451826,27.9828175 25.8943104,28 25.7429489,28 L6.25705108,28 C5.15248158,28 4.25705108,27.1045695 4.25705108,26 C4.25705108,25.8486385 4.27423363,25.6977663 4.30826869,25.550281 L6.84673023,14.550281 C7.05614458,13.6428188 7.86420066,13 8.79551262,13 L10.5454545,13 L14.3636364,20 L10.5,20 C10.2238576,20 10,20.2238576 10,20.5 C10,20.7761424 10.2238576,21 10.5,21 L14.9090909,21 Z M16.8291796,21.7236068 L21.2763932,23.9472136 C21.5233825,24.0707082 21.823719,23.970596 21.9472136,23.7236068 C22.0707082,23.4766175 21.970596,23.176281 21.7236068,23.0527864 L17.2763932,20.8291796 L16.8291796,21.7236068 Z M16,2 C19.3137085,2 22,4.6862915 22,8 C22,8.41351787 21.9580175,8.8222417 21.8728114,9.23348293 C21.6603204,10.2000809 20.0469712,13.4341248 16.8802239,19.3078919 L16.0054653,20.9304176 L15.1222615,19.3124734 C11.9083266,13.4248538 10.2980844,10.1977267 10.1255202,9.22578669 C10.0422854,8.82518182 10,8.41500647 10,8 C10,4.6862915 12.6862915,2 16,2 Z M16,10 C17.1045695,10 18,9.1045695 18,8 C18,6.8954305 17.1045695,6 16,6 C14.8954305,6 14,6.8954305 14,8 C14,9.1045695 14.8954305,10 16,10 Z"/>
</svg>
