<svg xmlns="http://www.w3.org/2000/svg" width="32" height="32" viewBox="0 0 32 32">
  <path fill="#212121" d="M22,3 L23,3 C24.1045695,3 25,3.8954305 25,5 L25,6 L22,6 L22,11 L17,11 L17,4.14285714 C17,3.51167457 17.4477153,3 18,3 L22,3 Z M27,20 C27.5522847,20 28,20.4477153 28,21 L28,26 C28,26.5522847 27.5522847,27 27,27 L5,27 C4.44771525,27 4,26.5522847 4,26 L4,21 C4,20.4477153 4.44771525,20 5,20 L5,11 C5,8.790861 6.790861,7 9,7 L16,7 L16,11 L15.5,11 C15.2238576,11 15,11.2238576 15,11.5 C15,11.7761424 15.2238576,12 15.5,12 L16,12 L23,12 L23.5,12 C23.7761424,12 24,11.7761424 24,11.5 C24,11.2238576 23.7761424,11 23.5,11 L23,11 L23,7 C25.209139,7 27,8.790861 27,11 L27,20 Z M8,10 L8,13 L14,13 L14,10 L8,10 Z M9,11 L13,11 L13,12 L9,12 L9,11 Z M16,16 C16.5522847,16 17,15.5522847 17,15 C17,14.4477153 16.5522847,14 16,14 C15.4477153,14 15,14.4477153 15,15 C15,15.5522847 15.4477153,16 16,16 Z M19,16 C19.5522847,16 20,15.5522847 20,15 C20,14.4477153 19.5522847,14 19,14 C18.4477153,14 18,14.4477153 18,15 C18,15.5522847 18.4477153,16 19,16 Z M22,16 C22.5522847,16 23,15.5522847 23,15 C23,14.4477153 22.5522847,14 22,14 C21.4477153,14 21,14.4477153 21,15 C21,15.5522847 21.4477153,16 22,16 Z M16,19 C16.5522847,19 17,18.5522847 17,18 C17,17.4477153 16.5522847,17 16,17 C15.4477153,17 15,17.4477153 15,18 C15,18.5522847 15.4477153,19 16,19 Z M19,19 C19.5522847,19 20,18.5522847 20,18 C20,17.4477153 19.5522847,17 19,17 C18.4477153,17 18,17.4477153 18,18 C18,18.5522847 18.4477153,19 19,19 Z M22,19 C22.5522847,19 23,18.5522847 23,18 C23,17.4477153 22.5522847,17 22,17 C21.4477153,17 21,17.4477153 21,18 C21,18.5522847 21.4477153,19 22,19 Z M18,5 L18,6 L21,6 L21,5 L18,5 Z M18,7 L18,8 L21,8 L21,7 L18,7 Z M18,9 L18,10 L21,10 L21,9 L18,9 Z M6,22 L6,25 L26,25 L26,22 L6,22 Z M14.5,23 L17.5,23 C17.7761424,23 18,23.2238576 18,23.5 C18,23.7761424 17.7761424,24 17.5,24 L14.5,24 C14.2238576,24 14,23.7761424 14,23.5 C14,23.2238576 14.2238576,23 14.5,23 Z M22,4 L22,5 L24,5 C24,4.44771525 23.5522847,4 23,4 L22,4 Z"/>
</svg>
