<svg xmlns="http://www.w3.org/2000/svg" width="32" height="32" viewBox="0 0 32 32">
  <path fill="#212121" fill-rule="evenodd" d="M21,24 L12,24 C12,24.5522847 11.5522847,25 11,25 L9,25 C8.44771525,25 8,24.5522847 8,24 L7,24 C5.8954305,24 5,23.1045695 5,22 L5,11 C5,9.8954305 5.8954305,9 7,9 L26,9 C27.1045695,9 28,9.8954305 28,11 L28,22 C28,23.1045695 27.1045695,24 26,24 L25,24 C25,24.5522847 24.5522847,25 24,25 L22,25 C21.4477153,25 21,24.5522847 21,24 Z M9,10 L11,10 L11,23 L9,23 L9,10 Z M22,10 L24,10 L24,23 L22,23 L22,10 Z M19,6 C19.5522847,6 20,6.44771525 20,7 L20,9 L19,9 L19,8 L14,8 L14,9 L13,9 L13,7 C13,6.44771525 13.4477153,6 14,6 L19,6 Z"/>
</svg>
