<svg xmlns="http://www.w3.org/2000/svg" width="32" height="32" viewBox="0 0 32 32">
  <path fill="#212121" d="M16.5,24 C11.0371094,24 5,18.90625 5,16.5 C5,14.09375 10.1487254,9 16.5,9 C22.8512746,9 27.7817383,13.4711914 28,16.5 C28,18.5595703 21.9628906,24 16.5,24 Z M12.4025705,11.8309894 C11.5304159,12.8043229 11,14.0902188 11,15.5 C11,18.5375661 13.4624339,21 16.5,21 C19.5375661,21 22,18.5375661 22,15.5 C22,14.0421474 21.4327946,12.7167727 20.5070274,11.7325195 C19.2589193,11.2792215 17.8894742,11 16.5,11 C15.1104136,11 13.7158723,11.2968815 12.4025705,11.8309894 Z M16.5,20 C14.0147186,20 12,17.9852814 12,15.5 C12,13.0147186 14.0147186,11 16.5,11 C18.9852814,11 21,13.0147186 21,15.5 C21,17.9852814 18.9852814,20 16.5,20 Z M15.5,15 C16.3284271,15 17,14.3284271 17,13.5 C17,12.6715729 16.3284271,12 15.5,12 C14.6715729,12 14,12.6715729 14,13.5 C14,14.3284271 14.6715729,15 15.5,15 Z"/>
</svg>
