<svg xmlns="http://www.w3.org/2000/svg" width="32" height="32" viewBox="0 0 32 32">
  <path fill="#212121" d="M14.3581944,23.7595595 L16.0764394,20.983933 C16.2162303,20.9945793 16.3574821,21 16.5,21 C19.5375661,21 22,18.5375661 22,15.5 C22,14.4671119 21.7152789,13.5007239 21.2200401,12.6750396 L22.6047175,10.438253 C25.7690789,12.0061876 27.8595912,14.5515525 28,16.5 C28,18.5595703 21.9628906,24 16.5,24 C15.7909199,24 15.0721653,23.914181 14.3581944,23.7595595 Z M10.5507786,22.310561 C7.40403764,20.6070641 5,18.0184373 5,16.5 C5,14.09375 10.1487254,9 16.5,9 C17.2486294,9 17.9775188,9.06212055 18.681278,9.17667734 L17.5220391,11.049294 C17.1835863,11.0169558 16.8424013,11 16.5,11 C15.1104136,11 13.7158723,11.2968815 12.4025705,11.8309894 C11.5304159,12.8043229 11,14.0902188 11,15.5 C11,16.939348 11.5528976,18.2495598 12.4578938,19.2298365 L10.5507786,22.310561 Z M13.0089418,18.339682 C12.3781724,17.5651651 12,16.576746 12,15.5 C12,13.0147186 14.0147186,11 16.5,11 C16.8385465,11 17.1683613,11.0373852 17.485541,11.1082525 L16.6215535,12.5039246 C16.3467899,12.1947728 15.9461407,12 15.5,12 C14.6715729,12 14,12.6715729 14,13.5 C14,14.1929255 14.4698483,14.7761121 15.1083368,14.9483517 L13.0089418,18.339682 Z M20.6088805,13.6622974 C20.8602206,14.2234054 21,14.8453791 21,15.5 C21,17.9223291 19.0860545,19.8976323 16.6879259,19.9961471 L20.6088805,13.6622974 Z M19.7574697,9.3380737 L21.7030716,9.9948981 L13.3211788,23.5348787 L11.4292094,22.7914172 L19.7574697,9.3380737 Z"/>
</svg>
