<svg xmlns="http://www.w3.org/2000/svg" width="32" height="32" viewBox="0 0 32 32">
  <path fill="#212121" d="M16,28 C9.372583,28 4,22.627417 4,16 C4,9.372583 9.372583,4 16,4 C22.627417,4 28,9.372583 28,16 C28,22.627417 22.627417,28 16,28 Z M16,16.2113249 L16,10.5 C16,10.2238576 15.7761424,10 15.5,10 C15.2238576,10 15,10.2238576 15,10.5 L15,16.4904026 C14.9999415,16.4936031 14.9999137,16.4968024 15,16.5 C15,16.688481 15.1042896,16.8526039 15.2583116,16.9378114 L22.1782032,20.9330127 C22.4173495,21.0710839 22.7231447,20.9891463 22.8612159,20.75 C22.9992871,20.5108537 22.9173495,20.2050585 22.6782032,20.0669873 L16,16.2113249 Z"/>
</svg>
