<svg xmlns="http://www.w3.org/2000/svg" width="32" height="32" viewBox="0 0 32 32">
  <path fill="#212121" d="M21.6825063,10 L6,10 L6,11 L20.6821494,11 L14,17.6797656 L14,21.2185229 L17.5,21.2185229 L26.5710678,12.182989 L23.0355339,8.64745511 L21.6825063,10 Z M24.2838678,6.01999073 L24.7390151,5.57302281 C25.5251296,4.80103539 26.7875463,4.81023403 27.5623277,5.59359497 L29.6595798,7.7140711 C30.4354108,8.49849327 30.4294902,9.76301233 29.6463479,10.5401352 L27.2761141,12.8921509 L26,14.1632661 L26,25 C26,26.1045695 25.1045695,27 24,27 L6,27 C4.8954305,27 4,26.1045695 4,25 L4,8 C4,6.8954305 4.8954305,6 6,6 L9,6 L9,5 C9,4.44771525 9.44771525,4 10,4 C10.5522847,4 11,4.44771525 11,5 L11,6 L19,6 L19,5 C19,4.44771525 19.4477153,4 20,4 C20.5522847,4 21,4.44771525 21,5 L21,6 L24,6 C24.0963664,6 24.1911409,6.00681548 24.2838678,6.01999073 Z M12,13 L12,15 L14,15 L14,13 L12,13 Z M8,17 L8,19 L10,19 L10,17 L8,17 Z M8,21 L8,23 L10,23 L10,21 L8,21 Z M12,21 L12,23 L14,23 L14,21 L12,21 Z M23.0352816,11.47563 L23.7398626,12.1802109 L16.6738711,19.2185229 L16,19.2185229 L16,18.5084017 L23.0352816,11.47563 Z M27.2297663,11.5293534 L28.9419744,9.83030576 C29.3335455,9.44174431 29.3365058,8.80948478 28.9485903,8.4172737 L26.8513381,6.29679757 C26.4639475,5.9051171 25.8327391,5.90051778 25.4396819,6.28651149 L23.6573562,8.03680744 L27.2297663,11.5293534 Z"/>
</svg>
