<svg xmlns="http://www.w3.org/2000/svg" width="32" height="32" viewBox="0 0 32 32">
  <path fill="#212121" fill-rule="evenodd" d="M13.1109127,15.8535534 L7.45405845,10.1966991 L9.5753788,8.0753788 L17.3535534,11.6109127 L21.2426407,7.72182541 C22.2189514,6.74551468 23.8018639,6.74551468 24.7781746,7.72182541 C25.7544853,8.69813614 25.7544853,10.2810486 24.7781746,11.2573593 L20.8890873,15.1464466 L24.4246212,22.9246212 L22.3033009,25.0459415 L16.6464466,19.3890873 L13.8180195,22.2175144 L13.3937554,25.1873629 C13.3156506,25.7340969 12.8091186,26.1139959 12.2623846,26.035891 C12.048189,26.0052917 11.849696,25.9060452 11.6966991,25.7530483 L6.74695167,20.8033009 C6.35642738,20.4127766 6.35642738,19.7796116 6.74695167,19.3890873 C6.89994852,19.2360905 7.09844151,19.136844 7.3126371,19.1062446 L10.2824856,18.6819805 L13.1109127,15.8535534 Z"/>
</svg>
