<svg xmlns="http://www.w3.org/2000/svg" width="32" height="32" viewBox="0 0 32 32">
  <path fill="#212121" d="M14.2285693,10.0869023 C14.1260281,9.55597376 14.0710678,8.99472116 14.0710678,8.41421356 C14.0710678,5.10050506 15.8619288,2.41421356 18.0710678,2.41421356 C20.2802068,2.41421356 22.0710678,5.10050506 22.0710678,8.41421356 L21.5163089,9.24635193 C21.2478652,9.06703299 21.0710678,8.76126989 21.0710678,8.41421356 C21.0710678,5.58753925 19.622184,3.41421356 18.0710678,3.41421356 C16.5199516,3.41421356 15.0710678,5.58753925 15.0710678,8.41421356 C15.0710678,8.85516118 15.1063257,9.28020988 15.1717294,9.68358974 L18.8259079,8.46553026 C19.1852426,8.34575202 19.5814101,8.43927449 19.8492424,8.70710678 L24.0918831,12.9497475 C24.3596283,13.2174926 24.4531841,13.6134987 24.3335677,13.9727575 L22.921771,18.2129813 C22.8726921,18.3603862 22.789943,18.4943283 22.6800864,18.6041848 L14.1923882,27.0918831 C13.0208153,28.263456 11.1213203,28.263456 9.94974747,27.0918831 L5.70710678,22.8492424 C4.53553391,21.6776695 4.53553391,19.7781746 5.70710678,18.6066017 L14.1923882,10.1213203 C14.2041756,10.1095329 14.2162404,10.0980575 14.2285693,10.0869023 Z M15.774499,11.5908517 C16.0920352,12.2182588 16.4967946,12.7138007 16.9457891,13.028956 C17.3119553,12.6207602 17.8435027,12.363961 18.4350288,12.363961 C19.5395983,12.363961 20.4350288,13.2593915 20.4350288,14.363961 C20.4350288,15.4685305 19.5395983,16.363961 18.4350288,16.363961 C17.3304593,16.363961 16.4350288,15.4685305 16.4350288,14.363961 C16.4350288,14.2125314 16.4518582,14.0650324 16.4837486,13.9232325 C15.8855473,13.5348948 15.3630553,12.9337497 14.9586988,12.1834368 L7.12132034,20.0208153 C6.73079605,20.4113396 6.73079605,21.0445046 7.12132034,21.4350288 L11.363961,25.6776695 C11.7544853,26.0681938 12.3876503,26.0681938 12.7781746,25.6776695 L21.0988199,17.3570242 L22.2408206,13.9271121 L18.8720449,10.5583364 L15.774499,11.5908517 Z M17.4353379,14.3388531 C17.4351323,14.3471974 17.4350288,14.3555671 17.4350288,14.363961 C17.4350288,14.9162458 17.8827441,15.363961 18.4350288,15.363961 C18.9873136,15.363961 19.4350288,14.9162458 19.4350288,14.363961 C19.4350288,13.8116763 18.9873136,13.363961 18.4350288,13.363961 C18.3241836,13.363961 18.2175507,13.3819958 18.1179042,13.415291 C18.305298,13.4239308 18.4792283,13.4841482 18.6258267,13.5820752 L18.0710678,14.4142136 C17.8547163,14.4142136 17.6423765,14.3884487 17.4353379,14.3388531 Z"/>
</svg>
