<svg xmlns="http://www.w3.org/2000/svg" width="32" height="32" viewBox="0 0 32 32">
  <path fill="#212121" d="M16,28 C9.372583,28 4,22.627417 4,16 C4,9.372583 9.372583,4 16,4 C22.627417,4 28,9.372583 28,16 C28,22.627417 22.627417,28 16,28 Z M16,26 C21.5228475,26 26,21.5228475 26,16 C26,10.4771525 21.5228475,6 16,6 C10.4771525,6 6,10.4771525 6,16 C6,21.5228475 10.4771525,26 16,26 Z M15.5,10 L15.5,10 C15.7761424,10 16,10.2238576 16,10.5 L16,16.5 C16,16.7761424 15.7761424,17 15.5,17 L15.5,17 C15.2238576,17 15,16.7761424 15,16.5 L15,10.5 C15,10.2238576 15.2238576,10 15.5,10 Z M22.8612159,20.75 L22.8612159,20.75 C22.7231447,20.9891463 22.4173495,21.0710839 22.1782032,20.9330127 L15.25,16.9330127 C15.0108537,16.7949415 14.9289161,16.4891463 15.0669873,16.25 L15.0669873,16.25 C15.2050585,16.0108537 15.5108537,15.9289161 15.75,16.0669873 L22.6782032,20.0669873 C22.9173495,20.2050585 22.9992871,20.5108537 22.8612159,20.75 Z"/>
</svg>
