<svg xmlns="http://www.w3.org/2000/svg" width="32" height="32" viewBox="0 0 32 32">
  <path fill="#212121" d="M13,8 L13,6 C13,5.44771525 13.4477153,5 14,5 L19,5 C19.5522847,5 20,5.44771525 20,6 L20,8 L26,8 C27.6568542,8 29,9.34314575 29,11 L29,22 C29,23.6568542 27.6568542,25 26,25 L25.7324356,25 C25.3866262,25.5978014 24.7402824,26 24,26 L22,26 C21.2597176,26 20.6133738,25.5978014 20.2675644,25 L12.7324356,25 C12.3866262,25.5978014 11.7402824,26 11,26 L9,26 C8.25971764,26 7.61337381,25.5978014 7.26756439,25 L7,25 C5.34314575,25 4,23.6568542 4,22 L4,11 C4,9.34314575 5.34314575,8 7,8 L13,8 Z M14,8 L19,8 L19,7 L14,7 L14,8 Z M22,23 L22,24 L24,24 L24,23 L26,23 C26.5522847,23 27,22.5522847 27,22 L27,11 C27,10.4477153 26.5522847,10 26,10 L7,10 C6.44771525,10 6,10.4477153 6,11 L6,22 C6,22.5522847 6.44771525,23 7,23 L9,23 L9,24 L11,24 L11,23 L22,23 Z M9,10 L11,10 L11,23 L9,23 L9,10 Z M22,10 L24,10 L24,23 L22,23 L22,10 Z"/>
</svg>
