<svg xmlns="http://www.w3.org/2000/svg" width="32" height="32" viewBox="0 0 32 32">
  <path fill="#212121" d="M13.1109127,21.5104076 L24.0710678,10.5502525 C24.6568542,9.96446609 24.6568542,9.01471863 24.0710678,8.42893219 C23.4852814,7.84314575 22.5355339,7.84314575 21.9497475,8.42893219 L10.9895924,19.3890873 C10.8365955,19.5420841 10.6381025,19.6413306 10.4239069,19.67193 L7.45405845,20.0961941 L12.4038059,25.0459415 L12.82807,22.0760931 C12.8586694,21.8618975 12.9579159,21.6634045 13.1109127,21.5104076 Z M20.1338969,15.901637 L17.3535534,18.6819805 L22.3033009,23.631728 L23.2274891,22.7075398 L20.1338969,15.901637 L20.1338969,15.901637 Z M16.598363,12.3661031 L9.79246025,9.27251091 L8.86827202,10.1966991 L13.8180195,15.1464466 L16.598363,12.3661031 L16.598363,12.3661031 Z M11.6966991,15.8535534 L6.74695167,10.9038059 C6.35642738,10.5132816 6.35642738,9.88011665 6.74695167,9.48959236 L8.86827202,7.36827202 C9.16302563,7.0735184 9.60970043,6.99252081 9.98918174,7.16501232 L17.1364719,10.4137806 L20.5355339,7.01471863 C21.9023689,5.6478836 24.1184464,5.6478836 25.4852814,7.01471863 C26.8521164,8.38155365 26.8521164,10.5976311 25.4852814,11.9644661 L22.0862194,15.3635281 L25.3349877,22.5108183 C25.5074792,22.8902996 25.4264816,23.3369744 25.131728,23.631728 L23.0104076,25.7530483 C22.6198833,26.1435726 21.9867184,26.1435726 21.5961941,25.7530483 L16.6464466,20.8033009 L14.7608285,22.6889189 L14.3837049,25.3287843 C14.2274952,26.4222523 13.2144312,27.1820503 12.1209632,27.0258405 C11.692572,26.9646418 11.2955861,26.7661488 10.9895924,26.4601551 L6.03984489,21.5104076 C5.25879631,20.7293591 5.25879631,19.4630291 6.03984489,18.6819805 C6.34583858,18.3759868 6.74282457,18.1774938 7.17121574,18.1162951 L9.81108106,17.7391715 L11.6966991,15.8535534 Z"/>
</svg>
