
<svg width="96px" height="96px" viewBox="0 0 96 96" version="1.1" xmlns="http://www.w3.org/2000/svg" xmlns:xlink="http://www.w3.org/1999/xlink">
    <g id="Page-1" stroke="none" stroke-width="1" fill="none" fill-rule="evenodd">
        <g id="3994401---find-magnifier-magnifying-glass-search-zoom" transform="translate(-1.000000, 0.000000)" fill="#434343" fill-rule="nonzero">
            <path d="M55,0 C31.8156904,0.0281012226 13.0281012,18.8156904 13,42 C13.0296248,51.0452036 16.006642,59.834285 21.48,67.0356 L2.7578,85.7578 C1.235171,87.2719789 0.637930167,89.4844866 1.19178264,91.5591876 C1.7456351,93.6338885 3.36611145,95.2543649 5.44081242,95.8082174 C7.51551339,96.3620698 9.72802115,95.764829 11.2422,94.2422 L29.9644,75.52 C37.165715,80.993358 45.9547964,83.9703752 55,84 C78.1959595,84 97,65.1959595 97,42 C97,18.8040405 78.1959595,-3.73019478e-15 55,0 Z M55,72 C38.4314575,72 25,58.5685425 25,42 C25,25.4314575 38.4314575,12 55,12 C71.5685425,12 85,25.4314575 85,42 C84.9805481,58.5604786 71.5604786,71.9805481 55,72 Z" id="Shape"></path>
        </g>
    </g>
</svg>