
<svg width="85px" height="96px" viewBox="0 0 85 96" version="1.1" xmlns="http://www.w3.org/2000/svg" xmlns:xlink="http://www.w3.org/1999/xlink">
    <g id="Page-1" stroke="none" stroke-width="1" fill="none" fill-rule="evenodd">
        <g id="3994432---book-guidebook-literature-notebook-textbook" fill="#434343" fill-rule="nonzero">
            <path d="M78.5,-8.8817842e-16 L18.5,-8.8817842e-16 C8.56344365,0.0110222579 0.511022258,8.06344365 0.5,18 L0.5,78 C0.511022258,87.9365563 8.56344365,95.9889777 18.5,96 L78.5,96 C80.0915755,96.0009027 81.6182235,95.3690515 82.7436375,94.2436375 C83.8690515,93.1182235 84.5009027,91.5915755 84.5,90 L84.5,6 C84.5009027,4.40842451 83.8690515,2.88177651 82.7436375,1.75636251 C81.6182235,0.630948509 80.0915755,-0.000902660256 78.5,-8.8817842e-16 Z M18.5,12 L72.5,12 L72.5,60 L18.5,60 C16.4512836,60.0201869 14.421447,60.3940828 12.5,61.1052 L12.5,18 C12.5042971,14.6880731 15.1880731,12.0042971 18.5,12 Z M72.5,84 L18.5,84 C15.1862915,84 12.5,81.3137085 12.5,78 C12.5,74.6862915 15.1862915,72 18.5,72 L72.5,72 L72.5,84 Z" id="Shape"></path>
        </g>
    </g>
</svg>