
<svg width="96px" height="84px" viewBox="0 0 96 84" version="1.1" xmlns="http://www.w3.org/2000/svg" xmlns:xlink="http://www.w3.org/1999/xlink">
    <g id="Page-1" stroke="none" stroke-width="1" fill="none" fill-rule="evenodd">
        <g id="3994387---bubble-chat-message-sms-text" fill="#434343" fill-rule="nonzero">
            <path d="M48,0 C21.5332,0 0,16.1484 0,36 C0,49.1074 9.0879,60.7441 24,67.125 L24,78 C23.9989574,80.0880641 25.0840935,82.0263487 26.8647012,83.1169673 C28.6453088,84.2075859 30.8650126,84.2935092 32.7246,83.3438 L56.2446,71.3613 C79.3477,68.3965 96,53.6543 96,36 C96,16.1484 74.4668,0 48,0 Z M53.8066,59.5664 C53.0874925,59.6484424 52.3889312,59.8588067 51.7441,60.1875 L36,68.209 L36,63 C35.9998272,60.4320437 34.3647999,58.1491412 31.9336,57.3223 C19.8223,53.1914 12,44.8242 12,36 C12,22.9922 28.4883,12 48,12 C67.5117,12 84,22.9922 84,36 C84,47.5254 71.0215,57.6563 53.8066,59.5664 Z" id="Shape"></path>
        </g>
    </g>
</svg>