
<svg width="96px" height="72px" viewBox="0 0 96 72" version="1.1" xmlns="http://www.w3.org/2000/svg" xmlns:xlink="http://www.w3.org/1999/xlink">
    <g id="Page-1" stroke="none" stroke-width="1" fill="none" fill-rule="evenodd">
        <g id="3994406---eye-on-show-view-visible" transform="translate(0.000000, -1.000000)" fill="#434343">
            <path d="M94.9936,33.6718 C83.6788,16.7025 70.155,0.9989 48,0.9989 C25.845,0.9989 12.3212,16.7025 1.0064,33.6718 C-0.335503409,35.6877083 -0.335503409,38.3122917 1.0064,40.3282 C12.3212,57.2975 25.845,73.0011 48,73.0011 C70.155,73.0011 83.6788,57.2975 94.9936,40.3282 C96.3355034,38.3122917 96.3355034,35.6877083 94.9936,33.6718 Z M48,61.0007 C35.2672,61.0007 25.3294,54.21 13.2646,37 C25.3294,19.7905 35.2672,12.9993 48,12.9993 C60.7328,12.9993 70.6706,19.7905 82.7354,37 C70.6706,54.21 60.7328,61.0007 48,61.0007 Z" id="Shape" fill-rule="nonzero"></path>
            <path d="M48,25 C41.372583,25 36,30.372583 36,37 C36,43.627417 41.372583,49 48,49 C54.627417,49 60,43.627417 60,37 C59.991131,30.3762601 54.6237399,25.008869 48,25 Z" id="Path"></path>
        </g>
    </g>
</svg>