
<svg width="48px" height="84px" viewBox="0 0 48 84" version="1.1" xmlns="http://www.w3.org/2000/svg" xmlns:xlink="http://www.w3.org/1999/xlink">
    <g id="Page-1" stroke="none" stroke-width="1" fill="none" fill-rule="evenodd">
        <g id="3994353---banking-currency-dollar-finance-money" fill="#434343">
            <path d="M30,36 L18,36 C14.6862915,36 12,33.3137085 12,30 C12,26.6862915 14.6862915,24 18,24 L42,24 C45.3137085,24 48,21.3137085 48,18 C48,14.6862915 45.3137085,12 42,12 L30,12 L30,6 C30,2.6862915 27.3137085,0 24,0 C20.6862915,0 18,2.6862915 18,6 L18,12 C8.0588745,12 -7.10542736e-15,20.0588745 -7.10542736e-15,30 C-7.10542736e-15,39.9411255 8.0588745,48 18,48 L30,48 C33.3137085,48 36,50.6862915 36,54 C36,57.3137085 33.3137085,60 30,60 L6,60 C2.6862915,60 -7.88860905e-31,62.6862915 -7.88860905e-31,66 C-7.88860905e-31,69.3137085 2.6862915,72 6,72 L18,72 L18,78 C18,81.3137085 20.6862915,84 24,84 C27.3137085,84 30,81.3137085 30,78 L30,72 C39.9411255,72 48,63.9411255 48,54 C48,44.0588745 39.9411255,36 30,36 Z" id="Path"></path>
        </g>
    </g>
</svg>