
<svg width="96px" height="96px" viewBox="0 0 96 96" version="1.1" xmlns="http://www.w3.org/2000/svg" xmlns:xlink="http://www.w3.org/1999/xlink">
    <g id="Page-1" stroke="none" stroke-width="1" fill="none" fill-rule="evenodd">
        <g id="3994347---computer-desktop-display-monitor-screen" fill="#434343" fill-rule="nonzero">
            <path d="M90,-6.66133815e-16 L6,-6.66133815e-16 C4.40842451,-0.000902660256 2.88177651,0.630948509 1.75636251,1.75636251 C0.630948509,2.88177651 -0.000902660256,4.40842451 -8.39585622e-16,6 L-8.39585622e-16,66 C-0.000902660256,67.5915755 0.630948509,69.1182235 1.75636251,70.2436375 C2.88177651,71.3690515 4.40842451,72.0009027 6,72 L42,72 L42,84 L30,84 C26.6862915,84 24,86.6862915 24,90 C24,93.3137085 26.6862915,96 30,96 L66,96 C69.3137085,96 72,93.3137085 72,90 C72,86.6862915 69.3137085,84 66,84 L54,84 L54,72 L90,72 C91.5915755,72.0009027 93.1182235,71.3690515 94.2436375,70.2436375 C95.3690515,69.1182235 96.0009027,67.5915755 96,66 L96,6 C96.0009027,4.40842451 95.3690515,2.88177651 94.2436375,1.75636251 C93.1182235,0.630948509 91.5915755,-0.000902660256 90,-6.66133815e-16 Z M84,60 L12,60 L12,12 L84,12 L84,60 Z" id="Shape"></path>
        </g>
    </g>
</svg>