
<svg width="96px" height="96px" viewBox="0 0 96 96" version="1.1" xmlns="http://www.w3.org/2000/svg" xmlns:xlink="http://www.w3.org/1999/xlink">
    <g id="Page-1" stroke="none" stroke-width="1" fill="none" fill-rule="evenodd">
        <g id="3994429---bag-briefcase-business-portfolio-suitcase" fill="#434343" fill-rule="nonzero">
            <path d="M90,24 L72,24 L72,18 C71.9889777,8.06344365 63.9365563,0.0110222579 54,0 L42,0 C32.0634437,0.0110222579 24.0110223,8.06344365 24,18 L24,24 L6,24 C4.40842451,23.9990973 2.88177651,24.6309485 1.75636251,25.7563625 C0.630948509,26.8817765 -0.000902660256,28.4084245 -8.39585622e-16,30 L-8.39585622e-16,90 C-0.000902660256,91.5915755 0.630948509,93.1182235 1.75636251,94.2436375 C2.88177651,95.3690515 4.40842451,96.0009027 6,96 L90,96 C91.5915755,96.0009027 93.1182235,95.3690515 94.2436375,94.2436375 C95.3690515,93.1182235 96.0009027,91.5915755 96,90 L96,30 C96.0009027,28.4084245 95.3690515,26.8817765 94.2436375,25.7563625 C93.1182235,24.6309485 91.5915755,23.9990973 90,24 Z M36,18 C36.0042971,14.6880731 38.6880731,12.0042971 42,12 L54,12 C57.3119269,12.0042971 59.9957029,14.6880731 60,18 L60,24 L36,24 L36,18 Z M84,84 L12,84 L12,36 L84,36 L84,84 Z" id="Shape"></path>
        </g>
    </g>
</svg>