
<svg width="94px" height="94px" viewBox="0 0 94 94" version="1.1" xmlns="http://www.w3.org/2000/svg" xmlns:xlink="http://www.w3.org/1999/xlink">
    <g id="Page-1" stroke="none" stroke-width="1" fill="none" fill-rule="evenodd">
        <g id="3994394---label-marker-pin-pushpin-thumbtack" fill="#434343" fill-rule="nonzero">
            <path d="M91.5467,44.8723 L49.1225,2.4481 C47.4065298,0.732243601 44.8259465,0.218957757 42.5839837,1.14756926 C40.3420208,2.07618076 38.8801542,4.26383215 38.88,6.6905 L38.88,21.1757 L25.4259,34.63 L10.9407,34.63 C8.51412002,34.6302351 6.32657843,36.0920701 5.39798507,38.3339454 C4.46939171,40.5758207 4.98258661,43.1563111 6.6983,44.8723 L23.6683,61.8423 L2.4559,83.0541 C0.913208291,84.5642718 0.30073961,86.7867843 0.852076629,88.8740179 C1.40341365,90.9612515 3.03354853,92.5913864 5.12078213,93.1427234 C7.20801573,93.6940604 9.43052819,93.0815917 10.9407,91.5389 L32.1528,70.3268 L49.1228,87.2968 C50.8387514,89.0127994 53.4194276,89.5261762 55.6614781,88.5975466 C57.9035285,87.6689169 59.3654266,85.4811557 59.3655,83.0544 L59.3655,68.5689 L72.8191,55.115 L87.3042,55.115 C89.7309739,55.1149671 91.9187721,53.6530838 92.8474274,51.4110243 C93.7760827,49.1689647 93.2627123,46.5882643 91.5467,44.8723 Z M70.3346,43.1144 C68.7432084,43.1141125 67.2169904,43.746523 66.0922,44.8723 L49.1222,61.8423 C47.996423,62.9670904 47.3640125,64.4933084 47.3643,66.0847 L47.3643,68.5692 L25.4259,46.63 L27.91,46.63 C29.5013872,46.6302655 31.0275971,45.9978583 32.1524,44.8721 L49.1224,27.9021 C50.2479747,26.7773214 50.8802654,25.2512402 50.88,23.66 L50.88,21.1757 L72.8191,43.1144 L70.3346,43.1144 Z" id="Shape"></path>
        </g>
    </g>
</svg>