
<svg width="96px" height="96px" viewBox="0 0 96 96" version="1.1" xmlns="http://www.w3.org/2000/svg" xmlns:xlink="http://www.w3.org/1999/xlink">
    <g id="Page-1" stroke="none" stroke-width="1" fill="none" fill-rule="evenodd">
        <g id="3994397---offset-paper-print-printer-printing" fill="#434343" fill-rule="nonzero">
            <path d="M90,24 L72,24 L72,6 C72.0009027,4.40842451 71.3690515,2.88177651 70.2436375,1.75636251 C69.1182235,0.630948509 67.5915755,-0.000902660256 66,-6.66133815e-16 L30,-6.66133815e-16 C28.4084245,-0.000902660256 26.8817765,0.630948509 25.7563625,1.75636251 C24.6309485,2.88177651 23.9990973,4.40842451 24,6 L24,24 L6,24 C4.40842451,23.9990973 2.88177651,24.6309485 1.75636251,25.7563625 C0.630948509,26.8817765 -0.000902660256,28.4084245 -6.11491508e-16,30 L-6.11491508e-16,78 C-0.000902660256,79.5915755 0.630948509,81.1182235 1.75636251,82.2436375 C2.88177651,83.3690515 4.40842451,84.0009027 6,84 L24,84 L24,90 C23.9990973,91.5915755 24.6309485,93.1182235 25.7563625,94.2436375 C26.8817765,95.3690515 28.4084245,96.0009027 30,96 L66,96 C67.5915755,96.0009027 69.1182235,95.3690515 70.2436375,94.2436375 C71.3690515,93.1182235 72.0009027,91.5915755 72,90 L72,84 L90,84 C91.5915755,84.0009027 93.1182235,83.3690515 94.2436375,82.2436375 C95.3690515,81.1182235 96.0009027,79.5915755 96,78 L96,30 C96.0009027,28.4084245 95.3690515,26.8817765 94.2436375,25.7563625 C93.1182235,24.6309485 91.5915755,23.9990973 90,24 Z M36,12 L60,12 L60,24 L36,24 L36,12 Z M60,84 L36,84 L36,72 L60,72 L60,84 Z M84,72 L72,72 L72,66 C72.0009027,64.4084245 71.3690515,62.8817765 70.2436375,61.7563625 C69.1182235,60.6309485 67.5915755,59.9990973 66,60 L30,60 C28.4084245,59.9990973 26.8817765,60.6309485 25.7563625,61.7563625 C24.6309485,62.8817765 23.9990973,64.4084245 24,66 L24,72 L12,72 L12,36 L84,36 L84,72 Z" id="Shape"></path>
        </g>
    </g>
</svg>