
<svg width="96px" height="96px" viewBox="0 0 96 96" version="1.1" xmlns="http://www.w3.org/2000/svg" xmlns:xlink="http://www.w3.org/1999/xlink">
    <g id="Page-1" stroke="none" stroke-width="1" fill="none" fill-rule="evenodd">
        <g id="3994411---display-screen-technology-television-tv" fill="#434343" fill-rule="nonzero">
            <path d="M90,24.0022 L51.709,24.0022 L59.3672,8.6858 C60.8493113,5.7215773 59.6478226,2.11711142 56.6836,0.63500008 C53.7193773,-0.847111259 50.1149114,0.354377344 48.6328,3.3186 L40.3557,19.8736 L34.2422,13.76 C31.8973997,11.4282126 28.1078907,11.4334849 25.7695878,13.7717878 C23.4312849,16.1100907 23.4260126,19.8995997 25.7578,22.2444 L27.5156,24.0022 L6,24.0022 C4.40842451,24.0012973 2.88177651,24.6331485 1.75636251,25.7585625 C0.630948509,26.8839765 -0.000902660256,28.4106245 -6.05441575e-16,30.0022 L-6.05441575e-16,90.0022 C-0.000902660256,91.5937755 0.630948509,93.1204235 1.75636251,94.2458375 C2.88177651,95.3712515 4.40842451,96.0031027 6,96.0022 L90,96.0022 C91.5915755,96.0031027 93.1182235,95.3712515 94.2436375,94.2458375 C95.3690515,93.1204235 96.0009027,91.5937755 96,90.0022 L96,30.0022 C96.0009027,28.4106245 95.3690515,26.8839765 94.2436375,25.7585625 C93.1182235,24.6331485 91.5915755,24.0012973 90,24.0022 Z M84,84.0022 L12,84.0022 L12,36.0022 L84,36.0022 L84,84.0022 Z" id="Shape"></path>
        </g>
    </g>
</svg>