
<svg width="96px" height="84px" viewBox="0 0 96 84" version="1.1" xmlns="http://www.w3.org/2000/svg" xmlns:xlink="http://www.w3.org/1999/xlink">
    <g id="Page-1" stroke="none" stroke-width="1" fill="none" fill-rule="evenodd">
        <g id="3994343---cloud-cloud-computing-network-server-sharing" fill="#434343" fill-rule="nonzero">
            <path d="M78,24 L77.3965,24 C74.7830008,11.1832062 64.1644,1.53851259 51.1560394,0.166238215 C38.1476788,-1.20603616 25.7503403,6.01066631 20.52,18 C9.01909266,18.2656237 -0.127944949,27.7339938 0.00352045802,39.2372169 C0.134985865,50.74044 9.49602598,59.9972893 21,60 L42,60 L42,72 L30,72 C26.6862915,72 24,74.6862915 24,78 C24,81.3137085 26.6862915,84 30,84 L66,84 C69.3137085,84 72,81.3137085 72,78 C72,74.6862915 69.3137085,72 66,72 L54,72 L54,60 L78,60 C87.9411255,60 96,51.9411255 96,42 C96,32.0588745 87.9411255,24 78,24 Z M78,48 L21,48 C16.0294373,48 12,43.9705627 12,39 C12,34.0294373 16.0294373,30 21,30 C21.7207605,30.1383035 22.4328903,30.3183059 23.1328,30.5391 C24.7038091,30.9455029 26.372527,30.6959405 27.7559,29.8477 C29.1367738,28.9947254 30.1165347,27.6221879 30.4746,26.0391 C32.4845917,17.0954053 40.9006849,11.0953696 50.011008,12.1111239 C59.121331,13.1268782 66.0092321,20.8332308 66,30 C65.9990973,31.5915755 66.6309485,33.1182235 67.7563625,34.2436375 C68.8817765,35.3690515 70.4084245,36.0009027 72,36 L78,36 C81.3137085,36 84,38.6862915 84,42 C84,45.3137085 81.3137085,48 78,48 Z" id="Shape"></path>
        </g>
    </g>
</svg>