
<svg width="96px" height="84px" viewBox="0 0 96 84" version="1.1" xmlns="http://www.w3.org/2000/svg" xmlns:xlink="http://www.w3.org/1999/xlink">
    <g id="Page-1" stroke="none" stroke-width="1" fill="none" fill-rule="evenodd">
        <g id="3994354---arrow-download-downloading-interface-save" fill="#434343">
            <path d="M90,48 C88.4084245,47.9990973 86.8817765,48.6309485 85.7563625,49.7563625 C84.6309485,50.8817765 83.9990973,52.4084245 84,54 L84,72 L12,72 L12,54 C12,50.6862915 9.3137085,48 6,48 C2.6862915,48 -4.33773407e-16,50.6862915 -8.39585622e-16,54 L-8.39585622e-16,78 C-0.000902660256,79.5915755 0.630948509,81.1182235 1.75636251,82.2436375 C2.88177651,83.3690515 4.40842451,84.0009027 6,84 L90,84 C91.5915755,84.0009027 93.1182235,83.3690515 94.2436375,82.2436375 C95.3690515,81.1182235 96.0009027,79.5915755 96,78 L96,54 C96.0009027,52.4084245 95.3690515,50.8817765 94.2436375,49.7563625 C93.1182235,48.6309485 91.5915755,47.9990973 90,48 Z" id="Path"></path>
            <path d="M43.7578,58.2422 C44.8827092,59.3676634 46.4087462,59.9999887 48,59.9999887 C49.5912538,59.9999887 51.1172908,59.3676634 52.2422,58.2422 L70.2422,40.2422 C72.5739874,37.8973997 72.5687151,34.1078907 70.2304122,31.7695878 C67.8921093,29.4312849 64.1026003,29.4260126 61.7578,31.7578 L54,39.5156 L54,6 C54,2.6862915 51.3137085,0 48,0 C44.6862915,0 42,2.6862915 42,6 L42,39.5156 L34.2422,31.7578 C31.8973997,29.4260126 28.1078907,29.4312849 25.7695878,31.7695878 C23.4312849,34.1078907 23.4260126,37.8973997 25.7578,40.2422 L43.7578,58.2422 Z" id="Path"></path>
        </g>
    </g>
</svg>