
<svg width="96px" height="96px" viewBox="0 0 96 96" version="1.1" xmlns="http://www.w3.org/2000/svg" xmlns:xlink="http://www.w3.org/1999/xlink">
    <g id="Page-1" stroke="none" stroke-width="1" fill="none" fill-rule="evenodd">
        <g id="3994351---close-delete-minus-negative-remove" fill="#434343">
            <path d="M48,-1.7706725e-15 C21.490332,-3.3939215e-15 3.24649801e-15,21.490332 0,48 C-3.24649801e-15,74.509668 21.490332,96 48,96 C74.509668,96 96,74.509668 96,48 C95.9717806,21.5020297 74.4979703,0.0282193747 48,-1.7706725e-15 Z M48,84 C28.117749,84 12,67.882251 12,48 C12,28.117749 28.117749,12 48,12 C67.882251,12 84,28.117749 84,48 C83.9783405,67.8732724 67.8732724,83.9783405 48,84 Z" id="Shape" fill-rule="nonzero"></path>
            <path d="M60,42 L36,42 C32.6862915,42 30,44.6862915 30,48 C30,51.3137085 32.6862915,54 36,54 L60,54 C63.3137085,54 66,51.3137085 66,48 C66,44.6862915 63.3137085,42 60,42 Z" id="Path"></path>
        </g>
    </g>
</svg>