
<svg width="96px" height="96px" viewBox="0 0 96 96" version="1.1" xmlns="http://www.w3.org/2000/svg" xmlns:xlink="http://www.w3.org/1999/xlink">
    <g id="Page-1" stroke="none" stroke-width="1" fill="none" fill-rule="evenodd">
        <g id="3994419---global-internet-web-world-www" fill="#434343" fill-rule="nonzero">
            <path d="M48,0 C21.490332,-1.623249e-15 3.24649801e-15,21.490332 0,48 C-3.24649801e-15,74.509668 21.490332,96 48,96 C74.509668,96 96,74.509668 96,48 C95.9738711,21.5011625 74.4988375,0.0261289176 48,0 Z M48.1384,83.9861 C48.1184,83.9861 48.0989,83.9919 48.0784,83.9919 C46.4729,83.4727 43.2546,78.323 41.1108,68.7539 C43.4077,68.8839 45.7108,69 48,69 C50.2917,69 52.5989,68.8843 54.8994,68.7539 C52.7761,78.3091 49.6135,83.4543 48.1384,83.9861 Z M48,57 C44.9077,57 42.0461,56.8667 39.3457,56.6558 C39.134,53.9553 39,51.0923 39,48 C39,44.9077 39.1333,42.0461 39.3442,39.3457 C42.0447,39.134 44.9077,39 48,39 C51.0923,39 53.9539,39.1333 56.6543,39.3442 C56.866,42.0447 57,44.9077 57,48 C57,51.0923 56.8667,53.9539 56.6558,56.6543 C53.9553,56.866 51.0923,57 48,57 Z M12.0139,48.1384 C12.0139,48.1184 12.0081,48.0989 12.0081,48.0784 C12.5273,46.4729 17.677,43.2546 27.2461,41.1108 C27.1165,43.4077 27,45.7112 27,48 C27,50.2917 27.1157,52.5989 27.2461,54.8994 C17.6909,52.7761 12.5457,49.6135 12.0139,48.1384 Z M47.8616,12.0139 C47.8816,12.0139 47.9011,12.0081 47.9216,12.0081 C49.5271,12.5273 52.7454,17.677 54.8892,27.2461 C52.5923,27.1165 50.2888,27 48,27 C45.7083,27 43.4011,27.1157 41.1006,27.2461 C43.2239,17.6909 46.3865,12.5457 47.8616,12.0139 Z M68.7539,41.1006 C78.3091,43.2239 83.4539,46.3865 83.9861,47.8616 C83.9861,47.8816 83.9919,47.9011 83.9919,47.9216 C83.4727,49.5271 78.323,52.7454 68.7539,54.8892 C68.8839,52.5923 69,50.2892 69,48 C69,45.7083 68.8843,43.4011 68.7539,41.1006 Z M80.0208,31.8911 C75.8961425,30.4454695 71.6525592,29.3646556 67.3389,28.6611 C66.6353444,24.3474408 65.5545305,20.1038575 64.1089,15.9792 C70.9759323,19.4479365 76.5520635,25.0240677 80.0208,31.8911 Z M31.89,15.9792 C30.4445649,20.1038666 29.3639843,24.3474532 28.6607,28.6611 C24.347459,29.3642617 20.1042718,30.4447089 15.98,31.89 C19.4482943,25.0235694 25.0237438,19.4478395 31.89,15.9792 Z M15.98,64.11 C20.1043637,65.5555335 24.3476934,66.6361167 28.6611,67.3393 C29.3641759,71.6525589 30.444625,75.8957535 31.89,80.02 C25.023646,76.5518735 19.4481265,70.976354 15.98,64.11 Z M64.11,80.02 C65.5554496,75.895611 66.636031,71.6522887 67.3393,67.3389 C71.6527991,66.635723 75.8962506,65.5552767 80.0208,64.11 C76.5521605,70.9762562 70.9764306,76.5517057 64.11,80.02 Z" id="Shape"></path>
        </g>
    </g>
</svg>