
<svg width="96px" height="96px" viewBox="0 0 96 96" version="1.1" xmlns="http://www.w3.org/2000/svg" xmlns:xlink="http://www.w3.org/1999/xlink">
    <g id="Page-1" stroke="none" stroke-width="1" fill="none" fill-rule="evenodd">
        <g id="3994384---local-location-map-travel-world" fill="#434343" fill-rule="nonzero">
            <path d="M93.3047,0.9934 C91.6175764,-0.111337818 89.4915008,-0.304644682 87.6328,0.4777 L62.0028,11.4633 L36.3633,0.4777 C36.4033,0.4997 36.3772,0.6418 36.408,0.6821 C34.9136722,-0.0514623555 33.1804045,-0.125593448 31.6289,0.4777 L3.6328,12.4777 C1.4283255,13.4270832 0.000109833155,15.5970841 0,17.9973 L0,89.9973 C0.00479158235,93.3090217 2.68827827,95.9925084 6,95.9973 C6.81292366,95.9942273 7.61728802,95.8311253 8.3672,95.5173 L33.9972,84.5317 L59.6372,95.5173 C60.387112,95.8311253 61.1914763,95.9942273 62.0044,95.9973 C62.8248602,95.9256413 63.621725,95.6855402 64.3452,95.292 C64.3504,95.3396 64.3716,95.5168 64.3716,95.5168 L92.3677,83.5168 C94.5719454,82.5672787 95.9999362,80.39736 96,77.9973 L96,5.9973 C96.00402,3.98125115 94.990342,2.09932955 93.3047,0.9934 Z M12,21.9582 L27.9961,15.1027 L27.9961,74.0363 L12,80.8918 L12,21.9582 Z M39.9961,15.091 L56.0039,21.9582 L56.0039,80.9035 L39.9961,74.0363 L39.9961,15.091 Z M84,74.0363 L68.0039,80.8918 L68.0039,21.9582 L84,15.1027 L84,74.0363 Z" id="Shape"></path>
        </g>
    </g>
</svg>