
<svg width="96px" height="96px" viewBox="0 0 96 96" version="1.1" xmlns="http://www.w3.org/2000/svg" xmlns:xlink="http://www.w3.org/1999/xlink">
    <g id="Page-1" stroke="none" stroke-width="1" fill="none" fill-rule="evenodd">
        <g id="3994424---cancel-close-delete-reject-remove" fill="#434343">
            <path d="M48,-1.7706725e-15 C21.490332,-3.3939215e-15 3.24649801e-15,21.490332 0,48 C-3.24649801e-15,74.509668 21.490332,96 48,96 C74.509668,96 96,74.509668 96,48 C95.9717806,21.5020297 74.4979703,0.0282193747 48,-1.7706725e-15 Z M48,84 C28.117749,84 12,67.882251 12,48 C12,28.117749 28.117749,12 48,12 C67.882251,12 84,28.117749 84,48 C83.9783405,67.8732724 67.8732724,83.9783405 48,84 Z" id="Shape" fill-rule="nonzero"></path>
            <path d="M64.2422,31.7578 C63.1172908,30.6323366 61.5912538,30.0000113 60,30.0000113 C58.4087462,30.0000113 56.8827092,30.6323366 55.7578,31.7578 L48,39.5156 L40.2422,31.7578 C37.8973997,29.4260126 34.1078907,29.4312849 31.7695878,31.7695878 C29.4312849,34.1078907 29.4260126,37.8973997 31.7578,40.2422 L39.5156,48 L31.7578,55.7578 C30.235171,57.2719789 29.6379302,59.4844866 30.1917826,61.5591876 C30.7456351,63.6338885 32.3661115,65.2543649 34.4408124,65.8082174 C36.5155134,66.3620698 38.7280211,65.764829 40.2422,64.2422 L48,56.4844 L55.7578,64.2422 C58.1026003,66.5739874 61.8921093,66.5687151 64.2304122,64.2304122 C66.5687151,61.8921093 66.5739874,58.1026003 64.2422,55.7578 L56.4844,48 L64.2422,40.2422 C65.3676634,39.1172908 65.9999887,37.5912538 65.9999887,36 C65.9999887,34.4087462 65.3676634,32.8827092 64.2422,31.7578 Z" id="Path"></path>
        </g>
    </g>
</svg>