
<svg width="96px" height="96px" viewBox="0 0 96 96" version="1.1" xmlns="http://www.w3.org/2000/svg" xmlns:xlink="http://www.w3.org/1999/xlink">
    <g id="Page-1" stroke="none" stroke-width="1" fill="none" fill-rule="evenodd">
        <g id="3994357---archive-documents-drawer-files-office" fill="#434343">
            <path d="M90,-6.66133815e-16 L6,-6.66133815e-16 C4.40842451,-0.000902660256 2.88177651,0.630948509 1.75636251,1.75636251 C0.630948509,2.88177651 -0.000902660256,4.40842451 -8.39585622e-16,6 L-8.39585622e-16,90 C-0.000902660256,91.5915755 0.630948509,93.1182235 1.75636251,94.2436375 C2.88177651,95.3690515 4.40842451,96.0009027 6,96 L90,96 C91.5915755,96.0009027 93.1182235,95.3690515 94.2436375,94.2436375 C95.3690515,93.1182235 96.0009027,91.5915755 96,90 L96,6 C96.0009027,4.40842451 95.3690515,2.88177651 94.2436375,1.75636251 C93.1182235,0.630948509 91.5915755,-0.000902660256 90,-6.66133815e-16 Z M12,12 L84,12 L84,42 L12,42 L12,12 Z M84,84 L12,84 L12,54 L84,54 L84,84 Z" id="Shape" fill-rule="nonzero"></path>
            <path d="M54,21 L42,21 C38.6862915,21 36,23.6862915 36,27 C36,30.3137085 38.6862915,33 42,33 L54,33 C57.3137085,33 60,30.3137085 60,27 C60,23.6862915 57.3137085,21 54,21 Z" id="Path"></path>
            <path d="M42,75 L54,75 C57.3137085,75 60,72.3137085 60,69 C60,65.6862915 57.3137085,63 54,63 L42,63 C38.6862915,63 36,65.6862915 36,69 C36,72.3137085 38.6862915,75 42,75 Z" id="Path"></path>
        </g>
    </g>
</svg>