
<svg width="72px" height="72px" viewBox="0 0 72 72" version="1.1" xmlns="http://www.w3.org/2000/svg" xmlns:xlink="http://www.w3.org/1999/xlink">
    <g id="Page-1" stroke="none" stroke-width="1" fill="none" fill-rule="evenodd">
        <g id="3994385---memo-message-note-reminder-sticky-notes" fill="#434343" fill-rule="nonzero">
            <path d="M66,1.11022302e-15 L6,1.11022302e-15 C4.40842451,-0.000902660256 2.88177651,0.630948509 1.75636251,1.75636251 C0.630948509,2.88177651 -0.000902660256,4.40842451 -8.35029432e-16,6 L-8.35029432e-16,66 C-0.000902660256,67.5915755 0.630948509,69.1182235 1.75636251,70.2436375 C2.88177651,71.3690515 4.40842451,72.0009027 6,72 L54,72 C55.5913057,72.00025 57.1174359,71.3678819 58.2422,70.2422 L70.2422,58.2422 C71.3678819,57.1174359 72.00025,55.5913057 72,54 L72,6 C72.0009027,4.40842451 71.3690515,2.88177651 70.2436375,1.75636251 C69.1182235,0.630948509 67.5915755,-0.000902660256 66,1.11022302e-15 Z M12,12 L60,12 L60,48 L54,48 C52.4084245,47.9990973 50.8817765,48.6309485 49.7563625,49.7563625 C48.6309485,50.8817765 47.9990973,52.4084245 48,54 L48,60 L12,60 L12,12 Z" id="Shape"></path>
        </g>
    </g>
</svg>