
<svg width="96px" height="96px" viewBox="0 0 96 96" version="1.1" xmlns="http://www.w3.org/2000/svg" xmlns:xlink="http://www.w3.org/1999/xlink">
    <g id="Page-1" stroke="none" stroke-width="1" fill="none" fill-rule="evenodd">
        <g id="3994342---alarm-clock-hour-time-watch" fill="#434343">
            <path d="M48,-1.77025061e-15 C21.490332,-3.39349962e-15 3.24649801e-15,21.490332 0,48 C-3.24649801e-15,74.509668 21.490332,96 48,96 C74.509668,96 96,74.509668 96,48 C95.9696908,21.5028966 74.4971034,0.0303092001 48,-1.77025061e-15 Z M48,84 C28.117749,84 12,67.882251 12,48 C12,28.117749 28.117749,12 48,12 C67.882251,12 84,28.117749 84,48 C83.9783405,67.8732724 67.8732724,83.9783405 48,84 Z" id="Shape" fill-rule="nonzero"></path>
            <path d="M66,42 L54,42 L54,30 C54,26.6862915 51.3137085,24 48,24 C44.6862915,24 42,26.6862915 42,30 L42,48 C41.9990973,49.5915755 42.6309485,51.1182235 43.7563625,52.2436375 C44.8817765,53.3690515 46.4084245,54.0009027 48,54 L66,54 C69.3137084,53.9999999 71.9999998,51.3137084 71.9999998,48 C71.9999998,44.6862916 69.3137084,42.0000001 66,42 Z" id="Path"></path>
        </g>
    </g>
</svg>