
<svg width="48px" height="96px" viewBox="0 0 48 96" version="1.1" xmlns="http://www.w3.org/2000/svg" xmlns:xlink="http://www.w3.org/1999/xlink">
    <g id="Page-1" stroke="none" stroke-width="1" fill="none" fill-rule="evenodd">
        <g id="3994396---ask-faq-help-mark-question" fill="#434343">
            <path d="M24,0 C10.7514483,0.0151546001 0.0151546001,10.7514483 0,24 C0,27.3137085 2.6862915,30 6,30 C9.3137085,30 12,27.3137085 12,24 C12,17.372583 17.372583,12 24,12 C30.627417,12 36,17.372583 36,24 C36,29.2031 32.9414,32.3965 27.9141,37.0371 C23.2617,41.32 18,46.1719 18,54 C18,57.3137085 20.6862915,60 24,60 C27.3137085,60 30,57.3137085 30,54 C30,51.5566 32.2969,49.3125 36.0469,45.8555 C41.0859,41.2031 48,34.834 48,24 C47.9848454,10.7514483 37.2485517,0.0151546001 24,0 Z" id="Path"></path>
            <path d="M24,72 C17.372583,72 12,77.372583 12,84 C12,90.627417 17.372583,96 24,96 C30.627417,96 36,90.627417 36,84 C35.9934403,77.375302 30.624698,72.0065597 24,72 Z" id="Path"></path>
        </g>
    </g>
</svg>