
<svg width="96px" height="96px" viewBox="0 0 96 96" version="1.1" xmlns="http://www.w3.org/2000/svg" xmlns:xlink="http://www.w3.org/1999/xlink">
    <g id="Page-1" stroke="none" stroke-width="1" fill="none" fill-rule="evenodd">
        <g id="3994373---home-house-interface-main-menu" fill="#434343" fill-rule="nonzero">
            <path d="M93.4863,31.1178 L51.4863,1.1178 C49.4003565,-0.3704952 46.5996435,-0.3704952 44.5137,1.1178 L2.5137,31.1178 C0.936357522,32.2430232 1.34716899e-05,34.0611406 -8.3495934e-16,35.9987 L-8.3495934e-16,89.9987 C-0.000902660256,91.5902755 0.630948509,93.1169235 1.75636251,94.2423375 C2.88177651,95.3677515 4.40842451,95.9996027 6,95.9987 L90,95.9987 C91.5915755,95.9996027 93.1182235,95.3677515 94.2436375,94.2423375 C95.3690515,93.1169235 96.0009027,91.5902755 96,89.9987 L96,35.9987 C95.9999865,34.0611406 95.0636425,32.2430232 93.4863,31.1178 Z M42,83.9987 L42,59.9987 L54,59.9987 L54,83.9987 L42,83.9987 Z M84,83.9987 L66,83.9987 L66,53.9987 C66.0009027,52.4071245 65.3690515,50.8804765 64.2436375,49.7550625 C63.1182235,48.6296485 61.5915755,47.9977973 60,47.9987 L36,47.9987 C34.4084245,47.9977973 32.8817765,48.6296485 31.7563625,49.7550625 C30.6309485,50.8804765 29.9990973,52.4071245 30,53.9987 L30,83.9987 L12,83.9987 L12,39.0865 L48,13.37 L84,39.0865 L84,83.9987 Z" id="Shape"></path>
        </g>
    </g>
</svg>