
<svg width="84px" height="84px" viewBox="0 0 84 84" version="1.1" xmlns="http://www.w3.org/2000/svg" xmlns:xlink="http://www.w3.org/1999/xlink">
    <g id="Page-1" stroke="none" stroke-width="1" fill="none" fill-rule="evenodd">
        <g id="3994358---color-picker-dropper-eyedropper-pipette-sample" fill="#434343" fill-rule="nonzero">
            <path d="M84,18.0217 C84.0139107,13.2199418 82.1066168,8.61210362 78.7031,5.2249 C71.5398732,-1.61890158 60.2609268,-1.61890158 53.0977,5.2249 L40.23,18.0972 L35.9121,13.78 C34.3979211,12.257371 32.1854134,11.6601302 30.1107124,12.2139826 C28.0360115,12.7678351 26.4155351,14.3883115 25.8616826,16.4630124 C25.3078302,18.5377134 25.905071,20.7502211 27.4277,22.2644 L31.7461,26.5828 L1.7578,56.5647 C0.632118074,57.6894641 -0.000249964395,59.2155943 -8.36931656e-16,60.8069 L-8.36931656e-16,77.9221 C-0.000902660256,79.5136755 0.630948509,81.0403235 1.75636251,82.1657375 C2.88177651,83.2911515 4.40842451,83.9230027 6,83.9221 L23.1152,83.9221 C24.7065057,83.92235 26.2326359,83.2899819 27.3574,82.1643 L57.34,52.176 L61.6584,56.4944 C64.0050958,58.8149228 67.7854084,58.8043009 70.1190268,56.4706274 C72.4526453,54.1369539 72.4631781,50.3566411 70.1426,48.01 L65.825,43.6924 L78.6973,30.8245 C82.1039061,27.4364408 84.0133667,22.8262532 84,18.0217 Z M20.6309,71.9217 L12,71.9217 L12,63.2913 L40.2305,35.0667 L48.8555,43.6917 L20.6309,71.9217 Z" id="Shape"></path>
        </g>
    </g>
</svg>