
<svg width="96px" height="96px" viewBox="0 0 96 96" version="1.1" xmlns="http://www.w3.org/2000/svg" xmlns:xlink="http://www.w3.org/1999/xlink">
    <g id="Page-1" stroke="none" stroke-width="1" fill="none" fill-rule="evenodd">
        <g id="3994403---cog-gear-options-preferences-settings" transform="translate(-1.000000, -1.000000)" fill="#434343">
            <path d="M85.1,62.4707 C91.9661098,61.7581911 97.1398477,55.9015633 97,49 C97.1402988,42.1002716 91.9695174,36.2442839 85.1055,35.5293 C84.5421461,35.4607821 84.0591172,35.0947087 83.8408474,34.570857 C83.6225776,34.0470053 83.7027681,33.446259 84.0508,32.998 C88.403006,27.6405351 87.9188456,19.8406087 82.9375,15.0625 C78.1594779,10.0809677 70.3594021,9.59679803 65.002,13.9492 C64.5566547,14.3014064 63.954533,14.3823285 63.432,14.1602 C62.8981557,13.9571006 62.5257337,13.4687545 62.4711,12.9002 C61.7586758,6.03385462 55.9017848,0.859950865 49,1 C42.1002716,0.859701247 36.2442839,6.03048265 35.5293,12.8945 C35.4764616,13.4650768 35.103786,13.9559659 34.5684,14.1602 C34.048517,14.4008525 33.4362987,14.3185735 32.9984,13.9492 C27.6409508,9.59694501 19.840987,10.0811077 15.0629,15.0625 C10.0814328,19.8405006 9.59709806,27.6404339 13.9492,32.998 C14.2965213,33.4456051 14.3770278,34.0451296 14.1600936,34.5685052 C13.9431593,35.0918807 13.4621314,35.4586545 12.9,35.5293 C6.03389018,36.2418089 0.860152269,42.0984367 1,49 C0.859701247,55.8997284 6.03048265,61.7557161 12.8945,62.4707 C13.4578539,62.5392179 13.9408828,62.9052913 14.1591526,63.429143 C14.3774224,63.9529947 14.2972319,64.553741 13.9492,65.002 C9.596994,70.3594649 10.0811544,78.1593913 15.0625,82.9375 C19.8405221,87.9190323 27.6405979,88.403202 32.998,84.0508 C33.4456051,83.7034787 34.0451296,83.6229722 34.5685052,83.8399064 C35.0918807,84.0568407 35.4586545,84.5378686 35.5293,85.1 C36.2418089,91.9661098 42.0984367,97.1398477 49,97 C55.8997284,97.1402988 61.7557161,91.9695174 62.4707,85.1055 C62.5235384,84.5349232 62.896214,84.0440341 63.4316,83.8398 C63.9540057,83.6167313 64.5566257,83.6977204 65.0016,84.0508 C70.4050342,88.2576657 78.0958764,87.7807582 82.9381798,82.9385565 C87.7804832,78.0963547 88.2575522,70.4055225 84.0508,65.002 C83.7034787,64.5543949 83.6229722,63.9548704 83.8399064,63.4314948 C84.0568407,62.9081193 84.5378686,62.5413455 85.1,62.4707 Z M83.623,50.5645 C78.775535,51.1655689 74.624824,54.3247769 72.7542268,58.83699 C70.8836297,63.3492031 71.5816439,68.5185138 74.582,72.373 C75.0701338,72.9995802 75.0149476,73.891669 74.4533083,74.4533083 C73.891669,75.0149476 72.9995802,75.0701338 72.373,74.582 C68.5185138,71.5816439 63.3492031,70.8836297 58.83699,72.7542268 C54.3247769,74.624824 51.1655689,78.775535 50.5645,83.623 C50.4636036,84.4101489 49.7935889,84.9997631 49,84.9997631 C48.2064111,84.9997631 47.5363964,84.4101489 47.4355,83.623 C46.8649319,78.7628071 43.6948479,74.5981396 39.1621,72.7539 C37.5027575,72.059941 35.7224082,71.7014785 33.9238,71.6992 C30.9137973,71.7062124 27.992859,72.7211194 25.627,74.582 C25.348764,74.8710503 24.9576305,75.0233343 24.5571938,74.9985188 C24.1567571,74.9737033 23.7874186,74.7742919 23.547,74.4531 C23.2285471,74.2108196 23.0312623,73.8419745 23.0065127,73.4426006 C22.981763,73.0432267 23.1319976,72.6528454 23.4181,72.3731 C26.4184561,68.5186138 27.1164703,63.3493031 25.2458732,58.83709 C23.375276,54.3248769 19.224565,51.1656689 14.3771,50.5646 C13.5899511,50.4637036 13.0003369,49.7936889 13.0003369,49.0001 C13.0003369,48.2065111 13.5899511,47.5364964 14.3771,47.4356 C19.2245835,46.8345214 23.375302,43.6752846 25.2458817,39.1630431 C27.1164614,34.6508016 26.418405,29.4814729 23.418,25.627 C23.1318976,25.3472546 22.981663,24.9568733 23.0064127,24.5574994 C23.0311623,24.1581255 23.2284471,23.7892804 23.5469,23.547 C23.7892798,23.2286941 24.1580986,23.0315232 24.5574158,23.006777 C24.956733,22.9820309 25.3470741,23.1321558 25.6269,23.4181 C29.4813862,26.4184561 34.6506969,27.1164703 39.16291,25.2458732 C43.6751231,23.375276 46.8343311,19.224565 47.4354,14.3771 C47.5362964,13.5899511 48.2063111,13.0003369 48.9999,13.0003369 C49.7934889,13.0003369 50.4635036,13.5899511 50.5644,14.3771 C51.1654786,19.2245835 54.3247154,23.375302 58.8369569,25.2458817 C63.3491984,27.1164614 68.5185271,26.418405 72.373,23.418 C72.6526324,23.1316758 73.0430701,22.9812874 73.4425236,23.006042 C73.841977,23.0307965 74.2108591,23.2282409 74.453,23.5469 C74.7714529,23.7891804 74.9687377,24.1580255 74.9934873,24.5573994 C75.018237,24.9567733 74.8680024,25.3471546 74.5819,25.6269 C71.5815439,29.4813862 70.8835297,34.6506969 72.7541268,39.16291 C74.624724,43.6751231 78.775435,46.8343311 83.6229,47.4354 C84.4100489,47.5362964 84.9996631,48.2063111 84.9996631,48.9999 C84.9996631,49.7934889 84.4100489,50.4635036 83.6229,50.5644 L83.623,50.5645 Z" id="Shape" fill-rule="nonzero"></path>
            <path d="M49,37 C42.372583,37 37,42.372583 37,49 C37,55.627417 42.372583,61 49,61 C55.627417,61 61,55.627417 61,49 C60.9913508,42.3761689 55.6238311,37.0086492 49,37 Z" id="Path"></path>
        </g>
    </g>
</svg>