
<svg width="96px" height="49px" viewBox="0 0 96 49" version="1.1" xmlns="http://www.w3.org/2000/svg" xmlns:xlink="http://www.w3.org/1999/xlink">
    <g id="Page-1" stroke="none" stroke-width="1" fill="none" fill-rule="evenodd">
        <g id="3994370---business-growth-progress-statistics-up" fill="#434343">
            <path d="M90,0.75 L66,0.75 C62.6862915,0.75 60,3.4362915 60,6.75 C60,10.0637085 62.6862915,12.75 66,12.75 L75.5156,12.75 L54,34.2656 L34.2422,14.5078 C33.1172908,13.3823366 31.5912538,12.7500113 30,12.7500113 C28.4087462,12.7500113 26.8827092,13.3823366 25.7578,14.5078 L1.7578,38.5078 C-0.573987387,40.8526003 -0.568715103,44.6421093 1.76958781,46.9804122 C4.10789073,49.3187151 7.89739966,49.3239874 10.2422,46.9922 L30,27.2344 L49.7578,46.9922 C50.8827092,48.1176634 52.4087462,48.7499887 54,48.7499887 C55.5912538,48.7499887 57.1172908,48.1176634 58.2422,46.9922 L84,21.2344 L84,30.75 C84,34.0637085 86.6862915,36.75 90,36.75 C93.3137085,36.75 96,34.0637085 96,30.75 L96,6.75 C96.0009027,5.15842451 95.3690515,3.63177651 94.2436375,2.50636251 C93.1182235,1.38094851 91.5915755,0.74909734 90,0.75 Z" id="Path"></path>
        </g>
    </g>
</svg>