
<svg width="70px" height="85px" viewBox="0 0 70 85" version="1.1" xmlns="http://www.w3.org/2000/svg" xmlns:xlink="http://www.w3.org/1999/xlink">
    <g id="Page-1" stroke="none" stroke-width="1" fill="none" fill-rule="evenodd">
        <g id="3994359---currency-euro-european-finance-money" transform="translate(0.000000, -1.000000)" fill="#434343">
            <path d="M61.4935,71.1594 C58.2942335,72.3530464 54.9123639,72.9834338 51.4979,73.0226 C42.1031208,72.9964383 33.2681885,68.5513745 27.6479,61.0231 L42.4979,61.0231 C45.7880366,60.9901974 48.4379008,58.3137011 48.4379008,55.0234 C48.4379008,51.7330989 45.7880366,49.0566026 42.4979,49.0237 L22.1056,49.0237 C21.2970666,45.0647263 21.2970666,40.9831737 22.1056,37.0242 L42.4983,37.0242 C45.8120085,37.0242 48.4983,34.3379085 48.4983,31.0242 C48.4983,27.7104915 45.8120085,25.0242 42.4983,25.0242 L27.6483,25.0242 C33.2685991,17.4959508 42.1035347,13.0509225 51.4983,13.0248 C54.9127687,13.0639179 58.2946465,13.6943068 61.4939,14.888 C63.5160232,15.6038888 65.7664643,15.1866075 67.3975038,13.7933418 C69.0285434,12.400076 69.7923876,10.2424962 69.4013039,8.1333417 C69.0102201,6.0241872 67.5236233,4.28388877 65.5015,3.568 C43.0087,-4.3822 22.07,6.8322 13.5528,25.0247 L6.5,25.0247 C4.35640642,25.0246999 2.37564424,26.1682935 1.30384743,28.0246999 C0.232050619,29.8811064 0.232050619,32.1682936 1.30384743,34.0247001 C2.37564424,35.8811065 4.35640642,37.0247001 6.5,37.0247 L9.9656,37.0247 C9.66904877,39.0112145 9.51339362,41.0162186 9.4998,43.0247 C9.55606623,45.0367653 9.75873519,47.0420651 10.1062,49.0247 L6.5,49.0247 C4.34221727,49.0031214 2.33904584,50.1419149 1.25387722,52.0070961 C0.168708594,53.8722773 0.168708594,56.1765227 1.25387722,58.0417039 C2.33904584,59.9068851 4.34221727,61.0456786 6.5,61.0241 L13.7125,61.0241 C20.6290097,75.6381846 35.3299052,84.9752793 51.498,85.0231 C56.277321,84.9879637 61.0146727,84.1276881 65.5012,82.4802 C68.6271317,81.3735318 70.2640682,77.9423317 69.1574,74.8164 C68.0507318,71.6904683 64.6195317,70.0535318 61.4936,71.1602 L61.4935,71.1594 Z" id="Path"></path>
        </g>
    </g>
</svg>