
<svg width="96px" height="96px" viewBox="0 0 96 96" version="1.1" xmlns="http://www.w3.org/2000/svg" xmlns:xlink="http://www.w3.org/1999/xlink">
    <g id="Page-1" stroke="none" stroke-width="1" fill="none" fill-rule="evenodd">
        <g id="3994410---delete-dustbin-garbage-recycle-bin-trash-can" fill="#434343" fill-rule="nonzero">
            <path d="M90,24 L72,24 L72,18 C71.9889777,8.06344365 63.9365563,0.0110222579 54,0 L42,0 C32.0634437,0.0110222579 24.0110223,8.06344365 24,18 L24,24 L6,24 C2.6862915,24 4.05812251e-16,26.6862915 0,30 C-4.05812251e-16,33.3137085 2.6862915,36 6,36 L12,36 L12,90 C11.9990973,91.5915755 12.6309485,93.1182235 13.7563625,94.2436375 C14.8817765,95.3690515 16.4084245,96.0009027 18,96 L78,96 C79.5915755,96.0009027 81.1182235,95.3690515 82.2436375,94.2436375 C83.3690515,93.1182235 84.0009027,91.5915755 84,90 L84,36 L90,36 C93.3137085,36 96,33.3137085 96,30 C96,26.6862915 93.3137085,24 90,24 Z M36,18 C36.0042971,14.6880731 38.6880731,12.0042971 42,12 L54,12 C57.3119269,12.0042971 59.9957029,14.6880731 60,18 L60,24 L36,24 L36,18 Z M72,84 L24,84 L24,36 L72,36 L72,84 Z" id="Shape"></path>
        </g>
    </g>
</svg>