
<svg width="96px" height="96px" viewBox="0 0 96 96" version="1.1" xmlns="http://www.w3.org/2000/svg" xmlns:xlink="http://www.w3.org/1999/xlink">
    <g id="Page-1" stroke="none" stroke-width="1" fill="none" fill-rule="evenodd">
        <g id="3994434---address-at-contact-email" fill="#434343" fill-rule="nonzero">
            <path d="M48,0 C21.490332,-1.623249e-15 3.24649801e-15,21.490332 0,48 C-3.24649801e-15,74.509668 21.490332,96 48,96 C51.3137085,96 54,93.3137085 54,90 C54,86.6862915 51.3137085,84 48,84 C28.117749,84 12,67.882251 12,48 C12,28.117749 28.117749,12 48,12 C67.882251,12 84,28.117749 84,48 L84,66 C84,69.3137085 81.3137085,72 78,72 C74.6862915,72 72,69.3137085 72,66 L72,48 C72,38.2929061 66.1525877,29.5416352 57.1844024,25.8268912 C48.216217,22.1121472 37.8933892,24.1654853 31.0294373,31.0294373 C24.1654853,37.8933892 22.1121472,48.216217 25.8268912,57.1844024 C29.5416352,66.1525877 38.2929061,72 48,72 C52.3255928,71.9788674 56.5631787,70.7761163 60.2549,68.5217 C61.5590214,77.8751544 69.8847099,84.6204444 79.3052282,83.9558576 C88.7257466,83.2912708 96.021971,75.4439059 96,66 L96,48 C95.9738711,21.5011625 74.4988375,0.0261289176 48,0 Z M48,60 C41.372583,60 36,54.627417 36,48 C36,41.372583 41.372583,36 48,36 C54.627417,36 60,41.372583 60,48 C59.9955323,54.6255655 54.6255655,59.9955323 48,60 Z" id="Shape"></path>
        </g>
    </g>
</svg>