
<svg width="96px" height="60px" viewBox="0 0 96 60" version="1.1" xmlns="http://www.w3.org/2000/svg" xmlns:xlink="http://www.w3.org/1999/xlink">
    <g id="Page-1" stroke="none" stroke-width="1" fill="none" fill-rule="evenodd">
        <g id="3994344---cloud-data-network-server-storage" fill="#000000" fill-rule="nonzero">
            <path d="M78,24 L77.3965,24 C74.7832522,11.1823476 64.1634761,1.53727102 51.1541881,0.166248309 C38.1449001,-1.2047744 25.7478133,6.01460123 20.52,18.0059 C9.02567054,18.2782575 -0.112584688,27.7432205 0.0188258264,39.2400253 C0.150236341,50.73683 9.50244822,59.9904438 21,60 L78,60 C87.9411255,60 96,51.9411255 96,42 C96,32.0588745 87.9411255,24 78,24 Z M78,48 L21,48 C16.0294373,48.0016291 11.9986795,43.9735127 11.9970502,39.00295 C11.995421,34.0323873 16.0235373,30.0016294 20.9941,30 C21.7168215,30.1406391 22.4308916,30.3225706 23.1328,30.5449 C24.7037187,30.9467439 26.3703928,30.6958261 27.7533655,29.8492738 C29.1363381,29.0027216 30.1179087,27.6325824 30.4746,26.0508 C32.4783282,17.1034695 40.8937144,11.0970891 50.0065306,12.1101202 C59.1193467,13.1231512 66.0101772,20.8310553 66,30 C65.9990973,31.5915755 66.6309485,33.1182235 67.7563625,34.2436375 C68.8817765,35.3690515 70.4084245,36.0009027 72,36 L78,36 C81.3137085,36 84,38.6862915 84,42 C84,45.3137085 81.3137085,48 78,48 Z" id="Shape"></path>
        </g>
    </g>
</svg>