
<svg width="84px" height="96px" viewBox="0 0 84 96" version="1.1" xmlns="http://www.w3.org/2000/svg" xmlns:xlink="http://www.w3.org/1999/xlink">
    <g id="Page-1" stroke="none" stroke-width="1" fill="none" fill-rule="evenodd">
        <g id="3994405---antivirus-insurance-protection-security-shield" fill="#434343" fill-rule="nonzero">
            <path d="M80.6836,18.6328 L44.6836,0.6328 C42.9940014,-0.210894332 41.0059986,-0.210894332 39.3164,0.6328 L3.3164,18.6328 C1.28400826,19.6497745 0.000260081437,21.7273686 0,24 L0,54 C-8.8817842e-16,82.4941 33.6855,96 42,96 C50.3145,96 84,82.4941 84,54 L84,24 C83.9997399,21.7273686 82.7159917,19.6497745 80.6836,18.6328 Z M72,54 C72,73.7578 45.7617,83.7656 42,84 C38.2383,83.7656 12,73.7578 12,54 L12,27.709 L42,12.709 L72,27.709 L72,54 Z" id="Shape"></path>
        </g>
    </g>
</svg>