
<svg width="88px" height="72px" viewBox="0 0 88 72" version="1.1" xmlns="http://www.w3.org/2000/svg" xmlns:xlink="http://www.w3.org/1999/xlink">
    <g id="Page-1" stroke="none" stroke-width="1" fill="none" fill-rule="evenodd">
        <g id="3994418---internet-network-signal-wifi-wireless" transform="translate(-1.000000, 0.000000)" fill="#434343">
            <path d="M45,48 C38.372583,48 33,53.372583 33,60 C33,66.627417 38.372583,72 45,72 C51.627417,72 57,66.627417 57,60 C56.9955323,53.3744345 51.6255655,48.0044677 45,48 Z" id="Path"></path>
            <path d="M19.6055,34.6289 C18.0940701,36.1486721 17.50824,38.3593377 18.0686862,40.4281605 C18.6291325,42.4969832 20.25071,44.1096598 22.3225862,44.6587105 C24.3944624,45.2077611 26.6018701,44.6097721 28.1133,43.09 C37.5157023,33.9493881 52.4842977,33.9493881 61.8867,43.09 C63.0094954,44.227231 64.5424955,44.8650951 66.1406,44.86 C68.5638805,44.8594573 70.748942,43.4012651 71.6793699,41.1637234 C72.6097979,38.9261818 72.1029129,36.3486082 70.3945,34.63 C56.7773,20.918 33.2227,20.918 19.6055,34.6289 Z" id="Path"></path>
            <path d="M87.27,17.7773 C76.1443291,6.40804495 60.9077472,-1.59078357e-05 45.0005,-1.59078357e-05 C29.0932528,-1.59078357e-05 13.8566709,6.40804495 2.731,17.7773 C0.401048712,20.1331258 0.422024171,23.9316987 2.77785,26.26165 C5.13367583,28.5916013 8.93224871,28.5706258 11.2622,26.2148 C29.3794,7.8867 60.6216,7.8867 78.7388,26.2148 C81.0687513,28.5706258 84.8673242,28.5916013 87.22315,26.26165 C89.5789758,23.9316987 89.5999513,20.1331258 87.27,17.7773 Z" id="Path"></path>
        </g>
    </g>
</svg>