
<svg width="72px" height="96px" viewBox="0 0 72 96" version="1.1" xmlns="http://www.w3.org/2000/svg" xmlns:xlink="http://www.w3.org/1999/xlink">
    <g id="Page-1" stroke="none" stroke-width="1" fill="none" fill-rule="evenodd">
        <g id="3994407---mic-microphone-radio-record-sound-recorder" fill="#434343">
            <path d="M72,36 C72,32.6862915 69.3137085,30 66,30 C62.6862915,30 60,32.6862915 60,36 C60,49.254834 49.254834,60 36,60 C22.745166,60 12,49.254834 12,36 C12,32.6862915 9.3137085,30 6,30 C2.6862915,30 0,32.6862915 0,36 C0.0407477561,53.5314588 12.7121314,68.4809883 30,71.3936 L30,84 L18,84 C14.6862915,84 12,86.6862915 12,90 C12,93.3137085 14.6862915,96 18,96 L54,96 C57.3137085,96 60,93.3137085 60,90 C60,86.6862915 57.3137085,84 54,84 L42,84 L42,71.3936 C59.2878686,68.4809883 71.9592522,53.5314588 72,36 Z" id="Path"></path>
            <path d="M36,48 C42.6238311,47.9913508 47.9913508,42.6238311 48,36 L48,12 C48,5.372583 42.627417,4.05812251e-16 36,0 C29.372583,-4.05812251e-16 24,5.372583 24,12 L24,36 C24.0086492,42.6238311 29.3761689,47.9913508 36,48 Z" id="Path"></path>
        </g>
    </g>
</svg>