<svg height="32" viewBox="0 0 32 32" width="32" xmlns="http://www.w3.org/2000/svg"><path d="m14.9090909 21 1.0909091 2 5.4545455-10h1.7499419c.9313119 0 1.739368.6428188 1.9487824 1.550281l2.5384615 11c.248373 1.0762828-.4227806 2.1501284-1.4990634 2.3985014-.1474853.0340351-.2983575.0512176-.449719.0512176h-19.48589782c-1.1045695 0-2-.8954305-2-2 0-.1513615.01718255-.3022337.05121761-.449719l2.53846154-11c.20941435-.9074622 1.01747043-1.550281 1.94878239-1.550281h1.74994188l3.8181819 7h-3.8636364c-.2761424 0-.5.2238576-.5.5s.2238576.5.5.5zm1.9200887.7236068 4.4472136 2.2236068c.2469893.1234946.5473258.0233824.6708204-.2236068.1234946-.2469893.0233824-.5473258-.2236068-.6708204l-4.4472136-2.2236068zm-.8291796-19.7236068c3.3137085 0 6 2.6862915 6 6 0 .41351787-.0419825.8222417-.1271886 1.23348293-.212491.96659797-1.8258402 4.20064187-4.9925875 10.07440897l-.8747586 1.6225257-.8832038-1.6179442c-3.2139349-5.8876196-4.8241771-9.1147467-4.9967413-10.08668671-.0832348-.40060487-.1255202-.81078022-.1255202-1.22578669 0-3.3137085 2.6862915-6 6-6zm0 8c1.1045695 0 2-.8954305 2-2s-.8954305-2-2-2-2 .8954305-2 2 .8954305 2 2 2z" fill="#212121"/></svg>