<svg height="32" viewBox="0 0 32 32" width="32" xmlns="http://www.w3.org/2000/svg"><path d="m11 13v2h-2.20448738l-2.53846154 11h19.48589782l-2.5384615-11h-2.2044874v-2h2.2044874c.9313119 0 1.739368.6428188 1.9487824 1.550281l2.5384615 11c.248373 1.0762828-.4227806 2.1501284-1.4990634 2.3985014-.1474853.0340351-.2983575.0512176-.449719.0512176h-19.48589782c-1.1045695 0-2-.8954305-2-2 0-.1513615.01718255-.3022337.05121761-.449719l2.53846154-11c.20941435-.9074622 1.01747043-1.550281 1.94878239-1.550281zm-.5 7h4.5v1h-4.5c-.2761424 0-.5-.2238576-.5-.5s.2238576-.5.5-.5zm6.3291796 1.7236068.4472136-.8944272 4.4472136 2.2236068c.2469892.1234946.3471014.4238311.2236068.6708204-.1234946.2469892-.4238311.3471014-.6708204.2236068zm-.8291796-19.7236068c3.3137085 0 6 2.6862915 6 6 0 .41351787-.0419825.8222417-.1271886 1.23348293-.212491.96659797-1.8258402 4.20064187-4.9925875 10.07440897l-.8747586 1.6225257-.8832038-1.6179442c-3.2139349-5.8876196-4.8241771-9.1147467-4.9967413-10.08668671-.0832348-.40060487-.1255202-.81078022-.1255202-1.22578669 0-3.3137085 2.6862915-6 6-6zm3.9168937 6.81606794c.0550766-.26606347.0831063-.53894887.0831063-.81606794 0-2.209139-1.790861-4-4-4s-4 1.790861-4 4c0 .27811385.0282314.55196292.0891387.84713457.1066903.5994604 1.4499407 3.33095923 3.9057235 7.88089993 2.4445511-4.5785818 3.7893376-7.30867178 3.9220315-7.91196656zm-3.9168937 1.18393206c-1.1045695 0-2-.8954305-2-2s.8954305-2 2-2 2 .8954305 2 2-.8954305 2-2 2zm0-1c.5522847 0 1-.44771525 1-1s-.4477153-1-1-1-1 .44771525-1 1 .4477153 1 1 1z" fill="#212121"/></svg>