<svg height="32" viewBox="0 0 32 32" width="32" xmlns="http://www.w3.org/2000/svg"><path d="m24.1716035 21.7573899 3.5355033 3.5355033c.3905243.3905243.3905243 1.0236893 0 1.4142136s-1.0236893.3905243-1.4142136 0l-3.5355033-3.5355033c-.790433.5235197-1.7383076.8283965-2.7573899.8283965-2.7614237 0-5-2.2385763-5-5s2.2385763-5 5-5 5 2.2385763 5 5c0 1.0190823-.3048768 1.9669569-.8283965 2.7573899zm-3.1716035-8.6744315c-.3252085-.0545596-.6592878-.0829584-1-.0829584s-.6747915.0283988-1 .0829584v-4.0829584c0-.55228475-.4477153-1-1-1h-10c-.55228475 0-1 .44771525-1 1v15c0 .5522847.44771525 1 1 1h10c.208676 0 .4024232-.0639176.5627317-.1732429.4604796.113202.9418623.1732429 1.4372683.1732429.2884349 0 .5721163-.0203526.8496862-.0597001-.394508 1.1962719-1.5212649 2.0597001-2.8496862 2.0597001h-10c-1.65685425 0-3-1.3431458-3-3v-15c0-1.65685425 1.34314575-3 3-3h10c1.6568542 0 3 1.34314575 3 3zm-4.351345.9395114c-.413088.278677-.7896117.6074215-1.120868.9775302h-3.027787c-.2761424 0-.5-.2238576-.5-.5s.2238576-.5.5-.5h4c.0517658 0 .1016942.0078667.148655.0224698zm-2.3072436 2.9775302c-.1136802.3216308-.2007152.6558482-.258453 1h-1.5829584c-.2761424 0-.5-.2238576-.5-.5s.2238576-.5.5-.5zm-.258453 3c.0577378.3441518.1447728.6783692.258453 1h-1.8414114c-.2761424 0-.5-.2238576-.5-.5s.2238576-.5.5-.5zm-4.5829584-9h1c.2761424 0 .5.2238576.5.5s-.2238576.5-.5.5h-1c-.27614237 0-.5-.2238576-.5-.5s.22385763-.5.5-.5zm3 0h4c.2761424 0 .5.2238576.5.5s-.2238576.5-.5.5h-4c-.2761424 0-.5-.2238576-.5-.5s.2238576-.5.5-.5zm-3 3h1c.2761424 0 .5.2238576.5.5s-.2238576.5-.5.5h-1c-.27614237 0-.5-.2238576-.5-.5s.22385763-.5.5-.5zm0 3h1c.2761424 0 .5.2238576.5.5s-.2238576.5-.5.5h-1c-.27614237 0-.5-.2238576-.5-.5s.22385763-.5.5-.5zm0 3h1c.2761424 0 .5.2238576.5.5s-.2238576.5-.5.5h-1c-.27614237 0-.5-.2238576-.5-.5s.22385763-.5.5-.5zm10.5 2c1.6568542 0 3-1.3431458 3-3s-1.3431458-3-3-3-3 1.3431458-3 3 1.3431458 3 3 3z" fill="#212121"/></svg>