<svg height="32" viewBox="0 0 32 32" width="32" xmlns="http://www.w3.org/2000/svg"><path d="m25.2900235 9.77533535 3.1028155 7.36918675c.3601378.219259.5645835.6579183.4495805 1.1047364-.5642281 2.19218-2.547656 3.7507415-4.8424195 3.7507415s-4.2781914-1.5585615-4.8424195-3.7507415c-.115003-.4468181.0894427-.8854774.4495805-1.1047364l3.0082198-7.1445221h-12.2307616l3.0082198 7.1445221c.3601378.219259.5645835.6579183.4495805 1.1047364-.5642281 2.19218-2.547656 3.7507415-4.8424195 3.7507415s-4.27819136-1.5585615-4.84241951-3.7507415c-.11500301-.4468181.08944269-.8854774.44958052-1.1047364l3.10281547-7.36918675c-.42618702-.26456793-.70997648-.73681035-.70997648-1.27533535 0-.82842712.67157288-1.5 1.5-1.5h16c.8284271 0 1.5.67157288 1.5 1.5 0 .538525-.2837895 1.01076742-.7099765 1.27533535zm-.9904321.22466465h-.5991828l-2.9473684 7h6.4939196zm.2437007-1.99815185.34328.81529003c.0708795-.08629686.1134279-.19674866.1134279-.31713818 0-.2615574-.2008352-.47620724-.4567079-.49815185zm-1.085806-.00184815h-13.9149722l.42105263 1h13.07286697zm-14.15789473 2h-.59918274l-2.94736842 7h6.49391959zm-1.18616345-1.18286182.34328001-.81529003c-.25587274.02194461-.45670793.23659445-.45670793.49815185 0 .12038952.04254839.23084132.11342792.31713818zm6.88657208 16.18286182v-15h3v15h6.5c.8284271 0 1.5.6715729 1.5 1.5s-.6715729 1.5-1.5 1.5h-16c-.82842712 0-1.5-.6715729-1.5-1.5s.67157288-1.5 1.5-1.5zm3-18h-3v-.5c0-.82842712.6715729-1.5 1.5-1.5s1.5.67157288 1.5 1.5zm-9 14c1.8638394 0 3.4299397-1.2747728 3.8739825-3h-7.74796501c.44404279 1.7252272 2.01014308 3 3.87398251 3zm15 0c1.8638394 0 3.4299397-1.2747728 3.8739825-3h-7.747965c.4440428 1.7252272 2.0101431 3 3.8739825 3z" fill="#212121"/></svg>