<svg height="32" viewBox="0 0 32 32" width="32" xmlns="http://www.w3.org/2000/svg"><path d="m25.2031993 7.56912792 3.1896397 7.57539418c.3601378.219259.5645835.6579183.4495805 1.1047364-.5642281 2.19218-2.547656 3.7507415-4.8424195 3.7507415s-4.2781914-1.5585615-4.8424195-3.7507415c-.115003-.4468181.0894427-.8854774.4495805-1.1047364l2.8115929-6.67753316-12.1508507 3.25581066 3.1249358 7.4217225c.3601378.219259.5645835.6579183.4495805 1.1047364-.5642281 2.19218-2.547656 3.7507415-4.8424195 3.7507415s-4.27819136-1.5585615-4.84241951-3.7507415c-.11500301-.4468181.08944269-.8854774.44958052-1.1047364l3.14648771-7.4729083c-.20113021-.1857766-.35384102-.4288124-.42994407-.7128329-.21441272-.8001991.26046102-1.62270456 1.06066017-1.83711728l15.45481318-4.14110472c.8001992-.21441272 1.6227046.26046102 1.8371173 1.06066017.154389.57618725-.0486026 1.16393983-.473096 1.52790885zm-.9175999.39764127-.643837.17251561-2.8887222 6.8607152h6.4939196zm-14.99272101 4.01728751-.13205643.0353844c-.16382445.0438966-.32858384.0589024-.48886869.0481404l-2.91891306 6.9324185h6.49391959zm5.70712161 13.0159433v-14.5451619l3-.80384762v15.34900952h6.5c.8284271 0 1.5.6715729 1.5 1.5s-.6715729 1.5-1.5 1.5h-16c-.82842712 0-1.5-.6715729-1.5-1.5s.67157288-1.5 1.5-1.5zm3-18.45483806-3 .80384758v-.84900952c0-.82842712.6715729-1.5 1.5-1.5s1.5.67157288 1.5 1.5z" fill="#212121"/></svg>