<svg height="32" viewBox="0 0 32 32" width="32" xmlns="http://www.w3.org/2000/svg"><g fill="none" fill-rule="evenodd"><path d="m25.2900235 9.77533535 3.1028155 7.36918675c.3601378.219259.5645835.6579183.4495805 1.1047364-.5642281 2.19218-2.547656 3.7507415-4.8424195 3.7507415s-4.2781914-1.5585615-4.8424195-3.7507415c-.115003-.4468181.0894427-.8854774.4495805-1.1047364l3.0082198-7.1445221h-12.2307616l3.0082198 7.1445221c.3601378.219259.5645835.6579183.4495805 1.1047364-.5642281 2.19218-2.547656 3.7507415-4.8424195 3.7507415s-4.27819136-1.5585615-4.84241951-3.7507415c-.11500301-.4468181.08944269-.8854774.44958052-1.1047364l3.10281547-7.36918675c-.42618702-.26456793-.70997648-.73681035-.70997648-1.27533535 0-.82842712.67157288-1.5 1.5-1.5h16c.8284271 0 1.5.67157288 1.5 1.5 0 .538525-.2837895 1.01076742-.7099765 1.27533535zm-.9904321.22466465h-.5991828l-2.9473684 7h6.4939196zm-15.00000003 0h-.59918274l-2.94736842 7h6.49391959zm5.70040863 15v-15h3v15h6.5c.8284271 0 1.5.6715729 1.5 1.5s-.6715729 1.5-1.5 1.5h-16c-.82842712 0-1.5-.6715729-1.5-1.5s.67157288-1.5 1.5-1.5zm3-18h-3v-.5c0-.82842712.6715729-1.5 1.5-1.5s1.5.67157288 1.5 1.5z" fill="#212121"/><path d="m27.9947515 17.4875348-3.331269-7.91176392.3628322-.22523861c.2925317-.1815975.4736853-.50016353.4736853-.85053227 0-.55228475-.4477153-1-1-1h-16c-.55228475 0-1 .44771525-1 1 0 .35036874.18115364.66893477.47368529.85053227l.36283224.22523861-3.33126904 7.91176392-.13807535.084063c-.18711337.1139183-.28122967.3360175-.22537415.5530314.50998842 1.981444 2.30207521 3.3753708 4.35820101 3.3753708s3.8482126-1.3939268 4.358201-3.3753708c.0558555-.2170139-.0382608-.4391131-.2253741-.5530314l-.1380754-.084063-3.36317255-7.9875348h13.73684215l-3.3631726 7.9875348-.1380754.084063c-.1871133.1139183-.2812296.3360175-.2253741.5530314.5099884 1.981444 2.3020752 3.3753708 4.358201 3.3753708s3.8482126-1.3939268 4.358201-3.3753708c.0558555-.2170139-.0382608-.4391131-.2253741-.5530314zm-4.6263304-7.9875348h1.2631578l3.3684211 8h-8zm-15.00000005 0h1.2631579l3.36842105 8h-8zm9.13157895 1h-2v15h-7c-.55228475 0-1 .4477153-1 1s.44771525 1 1 1h16c.5522847 0 1-.4477153 1-1s-.4477153-1-1-1h-7zm0-4c0-.55228475-.4477153-1-1-1s-1 .44771525-1 1z" stroke="#212121"/></g></svg>