<svg height="32" viewBox="0 0 32 32" width="32" xmlns="http://www.w3.org/2000/svg"><path d="m24.3821581 17.647257c2.9258833.633599 5.1178419 3.2371913 5.1178419 6.352743 0 3.5898509-2.9101491 6.5-6.5 6.5-2.8920408 0-5.3429436-1.888736-6.1865006-4.5h-7.8134994c-1.65685425 0-3-1.3431458-3-3 0-.1243951.00773706-.2486697.02718697-.4008686l.64858934-4.1921151c.08294282-.6635426.4920194-1.2417304 1.11622488-1.5533639l2.52131711-1.1706317c.5009257-.2325767 1.0955468-.0150368 1.3281235.4858889.2325766.5009257.0150367 1.0955468-.485889 1.3281234l-2.49924134 1.1868171-.64858934 4.1921152c-.0051431.0411448-.00772212.0825697-.00772212.1240347 0 .5522847.44771525 1 1 1h7.5c0-2.8950538 1.8926735-5.34805 4.5081638-6.1891319l-.690234-.3162205c-.5021004-.2300298-.7226571-.8235385-.4926273-1.3256388.2300298-.5021004.8235386-.7226571 1.3256389-.4926273l2.0733419.9505084c.4764112.2382056.8728669.5944767 1.1578748 1.0203671zm-8.6477225-1.647257c-3.3137085 0-6.00000004-2.6862915-6.00000004-6s2.68629154-6 6.00000004-6 6 2.6862915 6 6-2.6862915 6-6 6zm0-2c2.209139 0 4-1.790861 4-4s-1.790861-4-4-4-4 1.790861-4 4 1.790861 4 4 4zm7.2655644 15.5c3.0375661 0 5.5-2.4624339 5.5-5.5s-2.4624339-5.5-5.5-5.5-5.5 2.4624339-5.5 5.5 2.4624339 5.5 5.5 5.5zm-1.1055728-5.7749928.439035.87807 2.2724595-4.0888621c.2682916-.4827402.8771231-.6565851 1.3598633-.3882935.4827401.2682916.656585.8771232.3882934 1.3598633l-3.1932684 5.7456841c-.390614.7028362-1.4089063.6806271-1.7685055-.0385713l-1.2867317-2.5734633c-.2469892-.4939785-.0467649-1.0946516.4472136-1.3416408.4939785-.2469893 1.0946515-.0467649 1.3416408.4472136z" fill="#212121"/></svg>