<svg height="32" viewBox="0 0 32 32" width="32" xmlns="http://www.w3.org/2000/svg"><path d="m24.3821581 17.647257c2.9258833.633599 5.1178419 3.2371913 5.1178419 6.352743 0 3.5898509-2.9101491 6.5-6.5 6.5-2.8920408 0-5.3429436-1.888736-6.1865006-4.5h-7.8134994c-1.65685425 0-3-1.3431458-3-3 0-.1243951.00773706-.2486697.02718697-.4008686l.64858934-4.1921151c.08294282-.6635426.4920194-1.2417304 1.11622488-1.5533639l2.49522081-1.1580527c.5954095-.2977048.9394499-.1524495 1.6055164.2969037.0984653.0664283.4649207.3236834.489844.3409508.2050328.1420515.3771713.2553989.5549625.3631943.8925347.5411465 1.7725703.8344025 2.796996.8344025 1.1021406 0 2.124514-.3119853 3.0727003-.8448362.3345573-.1880106.6275562-.3844678.9232849-.6070597.0746881-.056217.2751666-.211291.2810943-.2158009.0607217-.046054.0983185-.0733347.1448785-.1032752.0557506-.0356014.0557506-.0356014.1706633-.0914197.172979-.0967059.172979-.0967059.854487.0224281l2.0426341.9358025c.4764112.2382056.8728669.5944767 1.1578748 1.0203671zm-8.6477225-1.647257c-3.3137085 0-6.00000004-2.6862915-6.00000004-6s2.68629154-6 6.00000004-6 6 2.6862915 6 6-2.6862915 6-6 6zm7.2655644 13.5c3.0375661 0 5.5-2.4624339 5.5-5.5s-2.4624339-5.5-5.5-5.5-5.5 2.4624339-5.5 5.5 2.4624339 5.5 5.5 5.5zm-1.1055728-5.7749928.439035.87807 2.2724595-4.0888621c.2682916-.4827402.8771231-.6565851 1.3598633-.3882935.4827401.2682916.656585.8771232.3882934 1.3598633l-3.1932684 5.7456841c-.390614.7028362-1.4089063.6806271-1.7685055-.0385713l-1.2867317-2.5734633c-.2469892-.4939785-.0467649-1.0946516.4472136-1.3416408.4939785-.2469893 1.0946515-.0467649 1.3416408.4472136z" fill="#212121"/></svg>