<svg height="32" viewBox="0 0 32 32" width="32" xmlns="http://www.w3.org/2000/svg"><path d="m26.6875 22-1.23302 3.9456641c-.0978537.3131318-.3430732.5583513-.656205.656205-.5271447.1647327-1.0880222-.1290603-1.252755-.656205l-1.23302-3.9456641h-.3125v-13c0-1.1045695.8954305-2 2-2h1c1.1045695 0 2 .8954305 2 2v13zm-18.6875-16h10c1.6568542 0 3 1.34314575 3 3v15c0 1.6568542-1.3431458 3-3 3h-10c-1.65685425 0-3-1.3431458-3-3v-15c0-1.65685425 1.34314575-3 3-3zm0 2c-.55228475 0-1 .44771525-1 1v15c0 .5522847.44771525 1 1 1h10c.5522847 0 1-.4477153 1-1v-15c0-.55228475-.4477153-1-1-1zm1.5 3h7c.2761424 0 .5.2238576.5.5s-.2238576.5-.5.5h-7c-.27614237 0-.5-.2238576-.5-.5s.22385763-.5.5-.5zm0 3h7c.2761424 0 .5.2238576.5.5s-.2238576.5-.5.5h-7c-.27614237 0-.5-.2238576-.5-.5s.22385763-.5.5-.5zm0 3h7c.2761424 0 .5.2238576.5.5s-.2238576.5-.5.5h-7c-.27614237 0-.5-.2238576-.5-.5s.22385763-.5.5-.5zm3.8816253 4.4137269c.0681162-.2197733.1179485-.3865094.1532031-.5162646-.7090493.3893199-1.3411105 1.0568224-2.051702 2.0383289-.1619372.2236761-.4745384.2737254-.6982145.1117883-.223676-.1619371-.2737254-.4745384-.1117883-.6982144.8992905-1.2421474 1.70342-2.0532045 2.7378847-2.5042294.6540009-.2851432 1.1965763-.004619 1.1965763.6651363 0 .2859644-.0605591.5212165-.2707854 1.1995001-.0066816.021561-.0066816.021561-.0133336.0430512-.0645566.2086505-.1126332.3731404-.1465825.5049945.2583666-.0856433.5614879-.2174023 1.2307517-.5236382l.0253451-.0115961c1.2766514-.5840359 1.7105823-.7457798 2.1478155-.6682799.2719041.0481952.453256.3076869.4050608.579591s-.307687.453256-.5795911.4050608c-.1232676-.0218493-.6093196.1593223-1.5572757.5929884l-.0252727.011563c-.7946711.3636186-1.1000308.4943201-1.4422935.5985237-.6990426.2128271-1.2705834.1325455-1.2705834-.5994524 0-.2947047.0709018-.5828606.2573068-1.1853314.0067484-.0218017.0067484-.0218017.0134787-.0435198zm11.6183747-12.4137269h-1v11h1zm-.5 16.6473891 1.1398091-3.6473891h-2.2796182z" fill="#212121"/></svg>