<svg height="32" viewBox="0 0 32 32" width="32" xmlns="http://www.w3.org/2000/svg"><path d="m18.6400146 17.6565783c-.3006925.1026937-.6335773.1824488-1 .2391402v-1.0287678c.34864-.0625818.6832071-.1455505 1-.2452629zm1-.5073779v-.9241756c.37943-.1854213.7161151-.3954309 1-.6201303v.2228973c-.2064846.5407968-.5356231.981656-1 1.3214086zm-3 .8406875c-.1616043.0067391-.3282461.0101121-.5.0101121-.1717538 0-.3383956-.003373-.5-.0101121v-1.0045268c.1646811.0096535.3314552.0146389.5.0146389.1685449 0 .335319-.0049854.5-.0146389zm-2-.0941694c-.3664226-.0566914-.6993074-.1364465-1-.2391402v-1.0348905c.316793.0997124.6513601.1826811 1 .2452629zm-2-.7465181c-.4643768-.3397526-.7935153-.7806118-1-1.3214086v-.2228973c.283885.2246994.6205701.434709 1 .6201303zm-.9787818-3.0337123c.5582171-1.4026904 1.9750188-2.1154881 4.4819557-2.1154881 2.5069575 0 3.9212965.7125655 4.4758526 2.1147562-.0890051.2669991-.4601562.6716236-1.0917447 1.0380303-.9084128.5270023-2.1236638.8472135-3.3872818.8472135-1.2636179 0-2.4788689-.3202112-3.3872817-.8472135-.6310117-.3660721-1.0020615-.7702922-1.0915001-1.0372984zm-.3104517 8.8845119-3.101391 2.4811128c-.3546261.2837008-.79524711.4382624-1.2493901.4382624-1.1045695 0-2-.8954305-2-2v-12.9193752c0-2.209139 1.790861-4 4-4h14c2.209139 0 4 1.790861 4 4v8c0 2.209139-1.790861 4-4 4zm-.7107665-9v2c.6640625 2 2.4973959 3 5.5 3 3.0026042 0 4.8359375-1 5.5-3v-2c-.6514485-2-2.4837239-3-5.4968261-3s-4.8474935 1-5.5031739 3z" fill="#212121"/></svg>