<svg height="32" viewBox="0 0 32 32" width="32" xmlns="http://www.w3.org/2000/svg"><path d="m11.3507811 23-3.101391 2.4811128c-.3546261.2837008-.79524711.4382624-1.2493901.4382624-1.1045695 0-2-.8954305-2-2v-12.9193752c0-2.209139 1.790861-4 4-4h14c2.209139 0 4 1.790861 4 4v8c0 2.209139-1.790861 4-4 4zm11.6492189-2c1.1045695 0 2-.8954305 2-2v-8c0-1.1045695-.8954305-2-2-2h-14c-1.1045695 0-2 .8954305-2 2v12.9193752l3.6492189-2.9193752zm-9.296-2.341c.1173339-.0953338.2328328-.2144993.3465-.3575s.2144996-.3098324.3025-.5005.1576664-.3996655.209-.627.077-.4693321.077-.726c0-.139334-.0109999-.2933325-.033-.462h-.913c-.0293335-.1760009-.0494999-.3226661-.0605-.44s-.0165-.2309995-.0165-.341c0-.1026672.0054999-.2089995.0165-.319.0110001-.1100006.0311665-.2493325.0605-.418h.671c-.0146667-.1320007-.0256666-.2749992-.033-.429s-.011-.3043326-.011-.451c0-.3080015.0531661-.6104985.1595-.9075s.2694989-.5628322.4895-.7975.498665-.4253326.836-.572.7369977-.22 1.199-.22c.3886686 0 .7314985.0329997 1.0285.099s.5884986.1613327.8745.286c-.0146667.2126677-.0549997.4546653-.121.726s-.1723326.5573318-.319.858c-.1686675-.0806671-.351999-.1576663-.55-.231s-.4363319-.11-.715-.11c-.1833343 0-.3373327.0311664-.462.0935s-.2254996.1411662-.3025.2365-.1319998.1998328-.165.3135-.0495.2254994-.0495.3355c0 .139334.0073333.2768327.022.4125s.0293333.2548328.044.3575h1.595c.0293335.1760009.0494999.3208328.0605.4345s.0165.2291661.0165.3465c0 .1026672-.0054999.2089994-.0165.319-.0110001.1100005-.0311665.2493325-.0605.418h-1.375c.0073334.0220001.011.0458332.011.0715v.0715c0 .1906676-.0146665.3886656-.044.594s-.0843329.3996657-.165.583h2.541c.0366668.1760009.0586666.333666.066.473s.011.2603328.011.363c0 .1173339-.0036666.2438327-.011.3795s-.0293332.2951657-.066.4785h-5.049z" fill="#212121"/></svg>