<svg height="32" viewBox="0 0 32 32" width="32" xmlns="http://www.w3.org/2000/svg"><path d="m11.3507811 23-3.101391 2.4811128c-.3546261.2837008-.79524711.4382624-1.2493901.4382624-1.1045695 0-2-.8954305-2-2v-12.9193752c0-2.209139 1.790861-4 4-4h14c2.209139 0 4 1.790861 4 4v8c0 2.209139-1.790861 4-4 4zm3.8932189-7.388v.682h-1.65c-.0146667.058667-.0274999.1338329-.0385.2255s-.0165.1888328-.0165.2915c0 .2273345.0183331.3959995.055.506h1.65v1.661c.1906676.0366669.3703325.0604999.539.0715s.3153327.0165.44.0165c.1320007 0 .2786659-.0054999.44-.0165s.3373324-.0348331.528-.0715v-1.661h1.826c.0366668-.1100005.055-.2786655.055-.506 0-.1026672-.0054999-.1998329-.0165-.2915s-.0238333-.166833-.0385-.2255h-1.826v-.682h1.826c.0366668-.1100005.055-.2786655.055-.506 0-.1026672-.0054999-.1998329-.0165-.2915s-.0238333-.166833-.0385-.2255h-1.375l1.793-3.366c-.1246673-.0220001-.2841657-.0384999-.4785-.0495s-.3538327-.0165-.4785-.0165c-.1906676 0-.3703325.0036666-.539.011s-.3373325.0256665-.506.055l-1.166 2.64-1.221-2.64c-.1100006-.0146667-.2584991-.0293333-.4455-.044s-.3574992-.022-.5115-.022c-.1906676 0-.390499.0073333-.5995.022s-.3648328.0293333-.4675.044l1.771 3.366h-1.199c-.0146667.058667-.0274999.1338329-.0385.2255s-.0165.1888328-.0165.2915c0 .2273345.0183331.3959995.055.506z" fill="#212121"/></svg>