<svg height="32" viewBox="0 0 32 32" width="32" xmlns="http://www.w3.org/2000/svg"><path d="m11.3507811 23-3.101391 2.4811128c-.3546261.2837008-.79524711.4382624-1.2493901.4382624-1.1045695 0-2-.8954305-2-2v-12.9193752c0-2.209139 1.790861-4 4-4h14c2.209139 0 4 1.790861 4 4v8c0 2.209139-1.790861 4-4 4zm11.6492189-2c1.1045695 0 2-.8954305 2-2v-8c0-1.1045695-.8954305-2-2-2h-14c-1.1045695 0-2 .8954305-2 2v12.9193752l3.6492189-2.9193752zm-11-10h8c1.1045695 0 2 .8954305 2 2v4c0 1.1045695-.8954305 2-2 2h-8c-1.1045695 0-2-.8954305-2-2v-4c0-1.1045695.8954305-2 2-2zm0 1c-.5522847 0-1 .4477153-1 1v4c0 .5522847.4477153 1 1 1h8c.5522847 0 1-.4477153 1-1v-4c0-.5522847-.4477153-1-1-1zm-1 1h10v2h-10zm4 3h2v1h-2zm3 0h2v1h-2z" fill="#212121"/></svg>