<svg height="32" viewBox="0 0 32 32" width="32" xmlns="http://www.w3.org/2000/svg"><path d="m11.3507811 23-3.101391 2.4811128c-.3546261.2837008-.79524711.4382624-1.2493901.4382624-1.1045695 0-2-.8954305-2-2v-12.9193752c0-2.209139 1.790861-4 4-4h14c2.209139 0 4 1.790861 4 4v8c0 2.209139-1.790861 4-4 4zm11.6492189-2c1.1045695 0 2-.8954305 2-2v-8c0-1.1045695-.8954305-2-2-2h-14c-1.1045695 0-2 .8954305-2 2v12.9193752l3.6492189-2.9193752zm-7.382-1.879c-.2126677 0-.4088324-.0091666-.5885-.0275s-.3556658-.0458332-.528-.0825c-.1723342-.0366669-.3428325-.084333-.5115-.143s-.351999-.1283329-.55-.209c.0293335-.2640013.078833-.5316653.1485-.803s.1558328-.5609985.2585-.869c.3446684.1466674.6563319.254833.935.3245s.5463321.1045.803.1045c.3666685 0 .648999-.0604994.847-.1815s.297-.3098321.297-.5665c0-.2273345-.0861658-.4014994-.2585-.5225s-.3831654-.2328328-.6325-.3355l-.583-.242c-.2200011-.0953338-.428999-.2016661-.627-.319s-.3684993-.2584992-.5115-.4235-.2566662-.3593322-.341-.583-.1265-.4894985-.1265-.7975c0-.6453366.1741649-1.1604981.5225-1.5455s.8304969-.6324995 1.4465-.7425v-.99c.1173339-.0366669.2346661-.0604999.352-.0715s.2163329-.0165.297-.0165.1814994.0054999.3025.0165.2364995.0348331.3465.0715v.957c.256668.0293335.5151654.0769997.7755.143s.5371652.1503328.8305.253c-.0513336.4913358-.2016654 1.0119972-.451 1.562-.2493346-.1100006-.4949988-.2016663-.737-.275s-.5536648-.11-.935-.11c-.0953338 0-.1888329.0054999-.2805.0165s-.1759996.0366665-.253.077-.1393331.095333-.187.165-.0715.1631661-.0715.2805c0 .2126677.0751659.3721661.2255.4785s.3134991.1924997.4895.2585l.616.231c.2493346.0953338.4839989.2016661.704.319s.4143325.2639991.583.44.3024995.392332.4015.649c.0990005.2566679.1485.5719981.1485.946 0 .594003-.1594984 1.1036645-.4785 1.529s-.7791637.7223325-1.3805.891v1.298c-.1100005.0366668-.2254994.0604999-.3465.0715s-.2218329.0165-.3025.0165-.1796661-.0054999-.297-.0165-.2346661-.0348332-.352-.0715z" fill="#212121"/></svg>