<svg height="32" viewBox="0 0 32 32" width="32" xmlns="http://www.w3.org/2000/svg"><path d="m11.3507811 23-3.101391 2.4811128c-.3546261.2837008-.79524711.4382624-1.2493901.4382624-1.1045695 0-2-.8954305-2-2v-12.9193752c0-2.209139 1.790861-4 4-4h14c2.209139 0 4 1.790861 4 4v8c0 2.209139-1.790861 4-4 4zm11.6492189-2c1.1045695 0 2-.8954305 2-2v-8c0-1.1045695-.8954305-2-2-2h-14c-1.1045695 0-2 .8954305-2 2v12.9193752l3.6492189-2.9193752zm-7.678-4.453c.1026672.3153349.2658322.5481659.4895.6985s.533498.2255.9295.2255c.2420012 0 .4821655-.0238331.7205-.0715s.4748322-.1118329.7095-.1925c.1246673.2640013.221833.5206654.2915.77s.1228332.5096653.1595.781c-.4180021.1540008-.7846651.2548331-1.1.3025s-.6489982.0715-1.001.0715c-.4840024 0-.9074982-.0604994-1.2705-.1815s-.6764987-.2951655-.9405-.5225-.4784992-.5004984-.6435-.8195-.2878329-.6728314-.3685-1.0615h-.957c-.0366668-.1100006-.055-.2713323-.055-.484 0-.2053344.0183332-.3703327.055-.495h.836c-.0073334-.0660003-.011-.1319997-.011-.198v-.572h-.825c-.0366668-.1100006-.055-.2713323-.055-.484 0-.2053344.0183332-.3703327.055-.495h.957c.0806671-.4033354.2053325-.7718317.374-1.1055s.3849987-.6214988.649-.8635.5756649-.4289993.935-.561.7736643-.198 1.243-.198c.1760009 0 .3428325.0054999.5005.0165s.3171659.0311665.4785.0605.3263325.0696664.495.121.3483324.1136663.539.187c-.0146667.3006682-.0659996.5866653-.154.858s-.1833328.5023324-.286.693c-.2933348-.1026672-.5426656-.1741665-.748-.2145s-.4253322-.0605-.66-.0605c-.3813352 0-.6783323.0898324-.891.2695s-.3703328.4454982-.473.7975h2.002c.0366669.1246673.055.2896656.055.495 0 .2126677-.0183331.3739994-.055.484h-2.145v.5775c0 .069667.0036666.133833.011.1925h2.134c.0366669.1246673.055.2896656.055.495 0 .2126677-.0183331.3739994-.055.484z" fill="#212121"/></svg>