<svg height="32" viewBox="0 0 32 32" width="32" xmlns="http://www.w3.org/2000/svg"><path d="m11.3507811 23-3.101391 2.4811128c-.3546261.2837008-.79524711.4382624-1.2493901.4382624-1.1045695 0-2-.8954305-2-2v-12.9193752c0-2.209139 1.790861-4 4-4h14c2.209139 0 4 1.790861 4 4v8c0 2.209139-1.790861 4-4 4zm.6492189-12c-1.1045695 0-2 .8954305-2 2v4c0 1.1045695.8954305 2 2 2h8c1.1045695 0 2-.8954305 2-2v-4c0-1.1045695-.8954305-2-2-2zm0 1h8c.5522847 0 1 .4477153 1 1v4c0 .5522847-.4477153 1-1 1h-8c-.5522847 0-1-.4477153-1-1v-4c0-.5522847.4477153-1 1-1zm-1 1v2h10v-2zm4 3v1h2v-1zm3 0v1h2v-1z" fill="#212121"/></svg>