<svg height="32" viewBox="0 0 32 32" width="32" xmlns="http://www.w3.org/2000/svg"><path d="m11.3507811 23-3.101391 2.4811128c-.3546261.2837008-.79524711.4382624-1.2493901.4382624-1.1045695 0-2-.8954305-2-2v-12.9193752c0-2.209139 1.790861-4 4-4h14c2.209139 0 4 1.790861 4 4v8c0 2.209139-1.790861 4-4 4zm4.2672189-3.879v1.155c.1173339.0366668.2346661.0604999.352.0715s.2163329.0165.297.0165.1814994-.0054999.3025-.0165.2364995-.0348332.3465-.0715v-1.298c.6013363-.1686675 1.0614984-.4656645 1.3805-.891s.4785-.934997.4785-1.529c0-.3740019-.0494995-.6893321-.1485-.946-.0990005-.256668-.2328325-.4729991-.4015-.649s-.3629989-.3226661-.583-.44-.4546654-.2236662-.704-.319l-.616-.231c-.1760009-.0660003-.3391659-.1521661-.4895-.2585s-.2255-.2658323-.2255-.4785c0-.1173339.0238331-.210833.0715-.2805s.1099996-.1246665.187-.165.1613329-.0659999.253-.077.1851662-.0165.2805-.0165c.3813352 0 .6929988.0366663.935.11s.4876654.1649994.737.275c.2493346-.5500028.3996664-1.0706642.451-1.562-.2933348-.1026672-.5701654-.1869997-.8305-.253s-.518832-.1136665-.7755-.143v-.957c-.1100005-.0366669-.2254994-.0604999-.3465-.0715s-.2218329-.0165-.3025-.0165-.1796661.0054999-.297.0165-.2346661.0348331-.352.0715v.99c-.6160031.1100005-1.0981649.3574981-1.4465.7425s-.5225.9001634-.5225 1.5455c0 .3080015.0421662.5738322.1265.7975s.1979993.4179992.341.583.313499.3061661.5115.4235.4069989.2236662.627.319l.583.242c.2493346.1026672.4601658.2144994.6325.3355s.2585.2951655.2585.5225c0 .2566679-.098999.4454994-.297.5665s-.4803315.1815-.847.1815c-.2566679 0-.5243319-.034833-.803-.1045s-.5903316-.1778326-.935-.3245c-.1026672.3080015-.188833.5976653-.2585.869s-.1191665.5389987-.1485.803c.198001.0806671.3813325.150333.55.209s.3391658.1063331.5115.143c.1723342.0366668.3483324.0641666.528.0825s.3758323.0275.5885.0275z" fill="#212121"/></svg>