<svg height="32" viewBox="0 0 32 32" width="32" xmlns="http://www.w3.org/2000/svg"><path d="m16 7c-.5522847 0-1 .44771525-1 1v1c0 .55228475.4477153 1 1 1h1c.5522847 0 1-.44771525 1-1v-1c0-.55228475-.4477153-1-1-1zm0 8v-3c-1.6568542 0-3-1.3431458-3-3v-1c0-1.65685425 1.3431458-3 3-3h1c1.6568542 0 3 1.34314575 3 3v1c0 1.6568542-1.3431458 3-3 3v3h5c1.6568542 0 3 1.3431458 3 3v1c1.6568542 0 3 1.3431458 3 3v1c0 1.6568542-1.3431458 3-3 3h-1c-1.6568542 0-3-1.3431458-3-3v-1c0-1.6568542 1.3431458-3 3-3v-1c0-1.1045695-.8954305-2-2-2h-5v3c1.6568542 0 3 1.3431458 3 3v1c0 1.6568542-1.3431458 3-3 3h-1c-1.6568542 0-3-1.3431458-3-3v-1c0-1.6568542 1.3431458-3 3-3v-3h-5c-1.1045695 0-2 .8954305-2 2v1c1.6568542 0 3 1.3431458 3 3v1c0 1.6568542-1.3431458 3-3 3h-1c-1.65685425 0-3-1.3431458-3-3v-1c0-1.6568542 1.34314575-3 3-3v-1c0-1.6568542 1.34314575-3 3-3zm0 6c-.5522847 0-1 .4477153-1 1v1c0 .5522847.4477153 1 1 1h1c.5522847 0 1-.4477153 1-1v-1c0-.5522847-.4477153-1-1-1zm-8 0c-.55228475 0-1 .4477153-1 1v1c0 .5522847.44771525 1 1 1h1c.55228475 0 1-.4477153 1-1v-1c0-.5522847-.44771525-1-1-1zm16 0c-.5522847 0-1 .4477153-1 1v1c0 .5522847.4477153 1 1 1h1c.5522847 0 1-.4477153 1-1v-1c0-.5522847-.4477153-1-1-1z" fill="#212121"/></svg>