<svg height="32" viewBox="0 0 32 32" width="32" xmlns="http://www.w3.org/2000/svg"><path d="m15 15.5v-6.5h7v6h3v9c.5522847 0 1 .4477153 1 1s-.4477153 1-1 1h-11.5351288c.3403402-.5883467.5351288-1.2714257.5351288-2 0-1.4805647-.8043973-2.7732524-2-3.4648712v-11.5351288c0-.55228475-.4477153-1-1-1h-1v1h-3c-1.1045695 0-2-.8954305-2-2s.8954305-2 2-2h3v1h1c1.6568542 0 3 1.34314575 3 3v15h1zm3 .5h-2v8h8v-8h-3v3h-3zm-9-8v-2h-2c-.55228475 0-1 .44771525-1 1s.44771525 1 1 1zm1 19.5c-1.93299662 0-3.5-1.5670034-3.5-3.5s1.56700338-3.5 3.5-3.5c1.9329966 0 3.5 1.5670034 3.5 3.5s-1.5670034 3.5-3.5 3.5zm0-1c1.3807119 0 2.5-1.1192881 2.5-2.5s-1.1192881-2.5-2.5-2.5c-1.38071187 0-2.5 1.1192881-2.5 2.5s1.11928813 2.5 2.5 2.5zm9-10.5v2h1v-2zm-3-6v5h5v-5z" fill="#212121"/></svg>