<svg height="32" viewBox="0 0 32 32" width="32" xmlns="http://www.w3.org/2000/svg"><path d="m23 7h1c1.6568542 0 3 1.34314575 3 3v13c0 1.6568542-1.3431458 3-3 3h-16c-1.65685425 0-3-1.3431458-3-3v-13c0-1.65685425 1.34314575-3 3-3h1v-1c0-.55228475.44771525-1 1-1 .5522847 0 1 .44771525 1 1v1h10v-1c0-.55228475.4477153-1 1-1s1 .44771525 1 1zm-4 14.5v2.5h1v-3h5v-1h-5v-3h5v-1h-5v-3h-1v3h-6v-3h-1v3h-5v1h5v3h-5v1h5v3h1v-2.5-2-2.5h6v2.5zm-12-9.5v1h18v-1zm8.3944272 8.0527864c-.2469893-.4939785-.8476623-.6942028-1.3416408-.4472136-.4939785.2469893-.6942028.8476623-.4472136 1.3416408l1 2c.3595992.7191984 1.3778916.7414075 1.7685056.0385713l2.4816894-4.465332c.2682916-.4827401.0944467-1.0915717-.3882934-1.3598633-.4827402-.2682916-1.0915717-.0944467-1.3598633.3882934l-1.5608806 2.8085101z" fill="#212121"/></svg>