<svg height="32" viewBox="0 0 32 32" width="32" xmlns="http://www.w3.org/2000/svg"><path d="m21 9h-10c0 .55228475-.4477153 1-1 1-.55228475 0-1-.44771525-1-1h-1c-.55228475 0-1 .44771525-1 1v13c0 .5522847.44771525 1 1 1h4v-3h-5v-1h5v-3h-5v-1h5v-3h1v3h6v-3h1v3h5v1h-5v3h5v1h-5v3h4c.5522847 0 1-.4477153 1-1v-13c0-.55228475-.4477153-1-1-1h-1c0 .55228475-.4477153 1-1 1s-1-.44771525-1-1zm2-2h1c1.6568542 0 3 1.34314575 3 3v13c0 1.6568542-1.3431458 3-3 3h-16c-1.65685425 0-3-1.3431458-3-3v-13c0-1.65685425 1.34314575-3 3-3h1v-1c0-.55228475.44771525-1 1-1 .5522847 0 1 .44771525 1 1v1h10v-1c0-.55228475.4477153-1 1-1s1 .44771525 1 1zm-5.1447948 10h-4.8552052v2.5 2 2.5h6v-2.5-2-.4427941l-2.33919 4.2089311c-.390614.7028361-1.4089063.680627-1.7685055-.0385714l-1.2867317-2.5734633c-.2469892-.4939785-.0467649-1.0946515.4472136-1.3416408.4939785-.2469892 1.0946515-.0467649 1.3416408.4472136l.439035.87807zm-10.8552052-5h18v1h-18z" fill="#212121"/></svg>