<svg height="32" viewBox="0 0 32 32" width="32" xmlns="http://www.w3.org/2000/svg"><path d="m23 22h2.5c.2761424 0 .5.2238576.5.5s-.2238576.5-.5.5h-3c-.1380712 0-.2630712-.0559644-.3535534-.1464466s-.1464466-.2154822-.1464466-.3535534v-4c0-.2761424.2238576-.5.5-.5s.5.2238576.5.5zm2-7.6264018c-.6379371-.1960212-1.3078578-.3189874-2-.3591364v-7.0144618h-14v19h5.7517393c.3288972.7269635.7570955 1.3993974 1.2672931 2h-7.0190324c-1.1045695 0-2-.8954305-2-2v-19c0-1.1045695.8954305-2 2-2h14c1.1045695 0 2 .8954305 2 2zm-5.014939.0046055c-.5192353.1606014-1.0171982.3696256-1.4886125.6217963h-2.9964485c-.2761424 0-.5-.2238576-.5-.5s.2238576-.5.5-.5h4c.2341322 0 .4306779.1609266.485061.3782037zm-3.9660286 2.6217963c-.2577353.303405-.4945449.6251409-.7081982.9629774-.1823565-.0745857-.3108342-.2537777-.3108342-.4629774 0-.2761424.2238576-.5.5-.5zm-3.5190324-6h1c.2761424 0 .5.2238576.5.5s-.2238576.5-.5.5h-1c-.2761424 0-.5-.2238576-.5-.5s.2238576-.5.5-.5zm3 0h4c.2761424 0 .5.2238576.5.5s-.2238576.5-.5.5h-4c-.2761424 0-.5-.2238576-.5-.5s.2238576-.5.5-.5zm-3 3h1c.2761424 0 .5.2238576.5.5s-.2238576.5-.5.5h-1c-.2761424 0-.5-.2238576-.5-.5s.2238576-.5.5-.5zm0 3h1c.2761424 0 .5.2238576.5.5s-.2238576.5-.5.5h-1c-.2761424 0-.5-.2238576-.5-.5s.2238576-.5.5-.5zm0 3h1c.2761424 0 .5.2238576.5.5s-.2238576.5-.5.5h-1c-.2761424 0-.5-.2238576-.5-.5s.2238576-.5.5-.5zm10 9.5c-3.8659932 0-7-3.1340068-7-7s3.1340068-7 7-7 7 3.1340068 7 7-3.1340068 7-7 7zm0-1c3.3137085 0 6-2.6862915 6-6s-2.6862915-6-6-6-6 2.6862915-6 6 2.6862915 6 6 6z" fill="#212121"/></svg>