<svg height="32" viewBox="0 0 32 32" width="32" xmlns="http://www.w3.org/2000/svg"><path d="m17 17v1h5c1.6568542 0 3 1.3431458 3 3v1c1.6568542 0 3 1.3431458 3 3v1c0 1.6568542-1.3431458 3-3 3h-1c-1.6568542 0-3-1.3431458-3-3v-1c0-1.6568542 1.3431458-3 3-3v-1c0-1.1045695-.8954305-2-2-2h-5v3c1.6568542 0 3 1.3431458 3 3v1c0 1.6568542-1.3431458 3-3 3h-1c-1.6568542 0-3-1.3431458-3-3v-1c0-1.6568542 1.3431458-3 3-3v-3h-5c-1.1045695 0-2 .8954305-2 2v1c1.6568542 0 3 1.3431458 3 3v1c0 1.6568542-1.3431458 3-3 3h-1c-1.65685425 0-3-1.3431458-3-3v-1c0-1.6568542 1.34314575-3 3-3v-1c0-1.6568542 1.34314575-3 3-3h5v-1h-6v-2c0-1.4346031.5061602-2.9525984 1.3521594-4.2052961 1.1002834 1.3460436 2.7737174 2.2052961 4.6478406 2.2052961s3.5475572-.8592525 4.6478406-2.2052961c.8459992 1.2526977 1.3521594 2.770693 1.3521594 4.2052961v2zm-1-5c-2.7614237 0-5-2.23857625-5-5s2.2385763-5 5-5 5 2.23857625 5 5-2.2385763 5-5 5z" fill="#212121"/></svg>