<svg height="32" viewBox="0 0 32 32" width="32" xmlns="http://www.w3.org/2000/svg"><path d="m18.1260175 23h-6.252035c-.4440428 1.7252272-2.01014307 3-3.8739825 3-1.91377694 0-3.51364647-1.3439974-3.90724171-3.1396253-1.21339074-.3845081-2.09275829-1.5197477-2.09275829-2.8603747v-4c0-1.1045695.8954305-2 2-2v2h16v-2h5.5c2.4852814 0 4.5 2.0147186 4.5 4.5v1.5c0 1.6568542-1.3431458 3-3 3h-1.1260175c-.4440428 1.7252272-2.0101431 3-3.8739825 3s-3.4299397-1.2747728-3.8739825-3zm-10.1260175 1c1.1045695 0 2-.8954305 2-2s-.8954305-2-2-2-2 .8954305-2 2 .8954305 2 2 2zm14 0c1.1045695 0 2-.8954305 2-2s-.8954305-2-2-2-2 .8954305-2 2 .8954305 2 2 2zm-18-8h-1c-.68255773 0-1.164527-.6686967-.9486833-1.3162278l1.77207592-5.31622773c.2722281-.81668428 1.03650578-1.36754447 1.8973666-1.36754447h9.40574098c1.4838992 0 2.8911373.65911505 3.8411064 1.799078l3.8006147 4.5607376c.5427724.6513269.0796163 1.6401844-.7682213 1.6401844h-2v-1l-.1279907-1h-4.8179167l.3333333 1h4.6125741v1h-11v.5h-2v-.5zm0-.4891357v.4891357zm.00826047-.5108643h2.99173953v-1h-2.61157227zm4.99173953 0h4.2792408l-.3333334-1h-3.9459074zm3.9459074-1-1.3333333-4h-2.6125741v4zm2.1081852 0h4.8108658l-2.4337943-2.9205532c-.5699815-.6839778-1.4143244-1.0794468-2.3046639-1.0794468h-1.405741zm-8.0540926 0v-4h-1.27924078l-1.33333333 4z" fill="#212121"/></svg>