<svg height="32" viewBox="0 0 32 32" width="32" xmlns="http://www.w3.org/2000/svg"><path d="m22 6c0-.55228475.4477153-1 1-1h3c.5522847 0 1 .44771525 1 1v19c0 .5522847-.4477153 1-1 1h-20c-.55228475 0-1-.4477153-1-1v-9.8974739c0-.3497951.18277386-.6741647.48197689-.8553666l6.27587891-3.8007683c.6664461-.40361 1.5180231.0762316 1.5180231.8553666v1.9794385l5.275009-2.8586369c.6663056-.3610848 1.4764559.1213426 1.4764559.8791984v1.9037022l1.9726562-1.0303805zm2 1v5.7809457c0 .372402-.2069356.7139552-.5370213.8863694l-3.9726563 2.0750436c-.6657853.3477606-1.4629786-.135232-1.4629786-.8863694v-1.874911l-5.275009 2.8586369c-.6663056.3610848-1.4764559-.1213427-1.4764559-.8791984v-1.8840543l-4.2758789 2.5895376v8.3339999h18v-17zm-15 11h4v4h-4zm5 0h4v4h-4zm5 0h4v4h-4zm-9 1v2h2v-2zm5 2h2v-2h-2zm5-2v2h2v-2z" fill="#212121"/></svg>