<svg height="32" viewBox="0 0 32 32" width="32" xmlns="http://www.w3.org/2000/svg"><path d="m22 6c0-.55228475.4477153-1 1-1h3c.5522847 0 1 .44771525 1 1v19c0 .5522847-.4477153 1-1 1h-20c-.55228475 0-1-.4477153-1-1v-9.8974739c0-.3497951.18277386-.6741647.48197689-.8553666l6.27587891-3.8007683c.6664461-.40361 1.5180231.0762316 1.5180231.8553666v1.9794385l5.275009-2.8586369c.6663056-.3610848 1.4764559.1213426 1.4764559.8791984v1.9037022l1.9726562-1.0303805zm-13 12v4h4v-4zm5 0v4h4v-4zm5 0v4h4v-4z" fill="#212121"/></svg>