<svg height="32" viewBox="0 0 32 32" width="32" xmlns="http://www.w3.org/2000/svg"><path d="m16.8212184 6.68641786-5.0822261-.67763014c-.2773095-.03697461-.5574276.04390626-.7723481.22300662l-3.65363561 3.04469637 5.81325531.97810329zm1.2649096.16865461-3.7339084 3.60579343 5.3316771.8970758 4.0701732-3.74714363zm7.9941778-.95180908c.0548523.0047472.1091361.01399309.1622712.02748716.1975898.04786377.3622425.14944972.4871568.28321222.1418461.1483712.2400837.34336535.2649803.57214638.0067661.05595318.0089013.11256259.0062003.16917771v13.11781364c0 .7956494-.3160705 1.5587112-.8786797 2.1213203l-5.4065405 5.4065405c-.0082697.0084336-.0166849.0167192-.025241.0248529-.2663778.2547081-.6082322.3228938-.9146676.2504915l-14.16710349-2.8334207c-.93484839-.1869696-1.60776772-1.0077993-1.60776772-1.9611613v-13.1431836c-.01202998-.28305993.09426169-.57410924.34146296-.78959204.00632341-.0055007.01260782-.01086204.01895719-.01614553l5.32494089-4.43745075c.64476127-.53730107 1.48511557-.77994369 2.31704437-.66901986zm-20.07939141 5.18057411v11.9978862l13.00000001 2.6v-12.4105846zm15.00000001 13.4034765 3.7071068-3.7071067c.1875363-.1875364.2928932-.4418903.2928932-.7071068v-10.85524054l-4 3.76923074zm-14.00000001-11.5857864 4.00000001.6660767v2l-4.00000001-.669983z" fill="#212121"/></svg>