<svg height="32" viewBox="0 0 32 32" width="32" xmlns="http://www.w3.org/2000/svg"><path d="m7 22h-1.5c-.27614237 0-.5-.2238576-.5-.5s.22385763-.5.5-.5h1.5v-2h-1.5c-.27614237 0-.5-.2238576-.5-.5s.22385763-.5.5-.5h1.5v-2h-1.5c-.27614237 0-.5-.2238576-.5-.5s.22385763-.5.5-.5h1.5v-2h-1.5c-.27614237 0-.5-.2238576-.5-.5s.22385763-.5.5-.5h1.5v-2h-1.5c-.27614237 0-.5-.22385763-.5-.5s.22385763-.5.5-.5h1.5v-2c0-1.1045695.8954305-2 2-2h13c1.1045695 0 2 .8954305 2 2v17c0 1.1045695-.8954305 2-2 2h-13c-1.1045695 0-2-.8954305-2-2zm2 0v2h13v-17h-13v2h.5c.27614237 0 .5.22385763.5.5s-.22385763.5-.5.5h-.5v2h.5c.27614237 0 .5.2238576.5.5s-.22385763.5-.5.5h-.5v2h.5c.27614237 0 .5.2238576.5.5s-.22385763.5-.5.5h-.5v2h.5c.27614237 0 .5.2238576.5.5s-.22385763.5-.5.5h-.5v2h.5c.27614237 0 .5.2238576.5.5s-.22385763.5-.5.5zm4-13h7v1h-7zm0 2h6v1h-6zm0 2h6v1h-6zm0 2h7v1h-7zm0 2h7v1h-7zm0 2h4v1h-4zm0 2h5v1h-5z" fill="#212121"/></svg>