<svg height="32" viewBox="0 0 32 32" width="32" xmlns="http://www.w3.org/2000/svg"><path d="m12.8198039 24-.6046409 3.0232048c.4488722.0984247.784837.4983756.784837.9767952 0 .5522847-.4477153 1-1 1h-4c-.55228475 0-1-.4477153-1-1 0-.4784196.33596478-.8783705.78483705-.9767952l-.60464095-3.0232048h-.1801961c-1.65685425 0-3-1.3431458-3-3v-2c-1.1045695 0-2-.8954305-2-2v-1c0-1.1045695.8954305-2 2-2h4v-5.22014558h.00000465c0-1.21375618.73136697-2.30792145 1.85288934-2.77202451 1.62363911-.67188661 3.52244651-1.00782991 5.69642241-1.00782991 2.1558188 0 4.0247545.33035513 5.6068071.99106539l-.0000035.00000827c1.1167303.46637838 1.84388 1.55807165 1.84388 2.76827625v5.24065009h4c1.1045695 0 2 .8954305 2 2v1c0 1.1045695-.8954305 2-2 2v2c0 1.6568542-1.3431458 3-3 3h-.1801961l-.6046409 3.0232048c.4488722.0984247.784837.4983756.784837.9767952 0 .5522847-.4477153 1-1 1h-4c-.5522847 0-1-.4477153-1-1 0-.4784196.3359648-.8783705.784837-.9767952l-.6046409-3.0232048h4.8198039c1.1045695 0 2-.8954305 2-2v-.5c0-.1106818-.004888-.220561-.0144964-.3293881.0095306-.0554436.0144964-.1124478.0144964-.1706119v-4h2v-1h-3v2.9573494c-.3612376-.3883456-.8079037-.7026004-1.3191678-.9117366-1.721799-.7043479-4.0732927-1.0456128-7.0704806-1.0456128-3.0984941 0-5.544547.364871-7.35206255 1.1160226-.48573688.2018533-.9113653.5005052-1.25828905.8680899v-2.9841125h-3v1h2v4c0 .0585255.00502766.1158767.01467462.1716452-.00972585.1084721-.01467462.2180095-.01467462.3283548v.5c0 1.1045695.8954305 2 2 2zm1.6801961-14c-.2761424 0-.5.2238576-.5.5v4c0 .2761424.2238576.5.5.5s.5-.2238576.5-.5v-4c0-.2761424-.2238576-.5-.5-.5zm2 0c-.2761424 0-.5.2238576-.5.5v4c0 .2761424.2238576.5.5.5s.5-.2238576.5-.5v-4c0-.2761424-.2238576-.5-.5-.5zm-7.8579723 9.0394457c1.6675381-.6929638 3.9903127-1.0394457 6.9683239-1.0394457 2.8785462 0 5.1091711.3237236 6.6918817.9711535 1.0268677.4200676 1.6977667 1.4193808 1.6977667 2.5288465v.5c0 .5522847-.4477153 1-1 1h-15c-.55228475 0-1-.4477153-1-1v-.5c0-1.0765902.64786892-2.0474021 1.6420277-2.4605543z" fill="#212121" fill-rule="evenodd"/></svg>