<svg height="32" viewBox="0 0 32 32" width="32" xmlns="http://www.w3.org/2000/svg"><path d="m12.8198039 24-.6046409 3.0232048c.4488722.0984247.784837.4983756.784837.9767952 0 .5522847-.4477153 1-1 1h-4c-.55228475 0-1-.4477153-1-1 0-.4784196.33596478-.8783705.78483705-.9767952l-.60464095-3.0232048h-.1801961c-1.65685425 0-3-1.3431458-3-3v-2c-1.1045695 0-2-.8954305-2-2v-1c0-1.1045695.8954305-2 2-2h3v-5.22014941c.0000062-1.61834136.97516279-3.07722671 2.47052472-3.69603028 1.75212608-.72505649 3.77991888-1.08382031 6.07879168-1.08382031 2.2813522 0 4.2801407.35330807 5.9921854 1.06830674 1.4889687.6218487 2.4584982 2.07743959 2.4584982 3.69104317v5.24065009h3c1.1045695 0 2 .8954305 2 2v1c0 1.1045695-.8954305 2-2 2v2c0 1.6568542-1.3431458 3-3 3h-.1801961l-.6046409 3.0232048c.4488722.0984247.784837.4983756.784837.9767952 0 .5522847-.4477153 1-1 1h-4c-.5522847 0-1-.4477153-1-1 0-.4784196.3359648-.8783705.784837-.9767952l-.6046409-3.0232048zm9.1801961-6.2033713v-9.03727879c0-.80680183-.4847664-1.53459981-1.229248-1.84552301-1.4520673-.60642471-3.1911502-.9138269-5.2214356-.9138269-2.049079 0-3.8189011.31312278-5.3140532.93183951-.74768093.30940179-1.2352601 1.03884577-1.2352632 1.84801491v9.06131408c1.7165444-.5654665 3.9169508-.8411685 6.6103516-.8411685 2.6195586 0 4.7458808.2606873 6.3896484.7966287zm-15 1.1874838v-2.9841125h-3v1h2v4c0 .0585255.00502766.1158767.01467462.1716452.074415-.8299475.42848889-1.597534.98532538-2.1875327zm17-.0267631c.5574783.5993125.9114997 1.3750801.9855036 2.2132625.0095306-.0554436.0144964-.1124478.0144964-.1706119v-4h2v-1h-3zm-9.5-8.9573494c.2761424 0 .5.2238576.5.5v4c0 .2761424-.2238576.5-.5.5s-.5-.2238576-.5-.5v-4c0-.2761424.2238576-.5.5-.5zm2 0c.2761424 0 .5.2238576.5.5v4c0 .2761424-.2238576.5-.5.5s-.5-.2238576-.5-.5v-4c0-.2761424.2238576-.5.5-.5zm-7.47422705 9.9628847c-.62104895.2581023-1.02577295.8645689-1.02577295 1.5371153v.5h15v-.5c0-.7034037-.4253497-1.3369628-1.0763954-1.6032777-1.4435923-.59054-3.5533484-.8967223-6.313253-.8967223-2.8575283 0-5.0570246.3280928-6.58457865.9628847z" fill="#212121"/></svg>