<svg height="32" viewBox="0 0 32 32" width="32" xmlns="http://www.w3.org/2000/svg"><path d="m8 27v-17.10505413l2.3187681-5.89494587h11.4019911l2.2792408 6.8377223v16.1622777zm8-14c1.6568542 0 3-.8954305 3-2h4l-2-6h-10l-2 6h4c0 1.1045695 1.3431458 2 3 2zm-2-3h-3.6125741l1.3333333-4h8.5584816l1.3333333 4h-3.6125741v1c0 .4465467-.8301799 1-2 1s-2-.5534533-2-1zm-5 5v1h4c0 1.1045695 1.3431458 2 3 2s3-.8954305 3-2h4v-1zm9 1c0 .4465467-.8301799 1-2 1s-2-.5534533-2-1zm-9 4v1h4c0 1.1045695 1.3431458 2 3 2s3-.8954305 3-2h4v-1zm9 1c0 .4465467-.8301799 1-2 1s-2-.5534533-2-1z" fill="#212121"/></svg>