<svg height="32" viewBox="0 0 32 32" width="32" xmlns="http://www.w3.org/2000/svg"><path d="m11.7626183 11.132947c-.0024954-.0408052-.0037614-.0819426-.0037614-.1233757 0-.3607531.0980442-.7147238.2836502-1.02406706l.0286502-.04775035c-1.7287174-.9298406-3.0711573-2.37370444-3.0711573-3.93775389 0-2.79164364 4.7967415-4.6756273 7.0815513-3.27647771 2.5135475-1.27668393 6.9184487.46639017 6.9184487 3.27647771 0 1.56404945-1.3424399 3.00791329-3.0711573 3.93775389l.0286502.04775035c.2159591.35993176.3048911.76068966.2798384 1.15010436 3.5316314 2.0420264 5.7626687 6.6136931 5.7626687 11.8643914 0 4.0994415-4.3792756 6-10 6s-10-1.9005585-10-6c0-5.2598447 2.22961256-9.8281437 5.7626183-11.867053zm1.1284559 1.6730426c-2.94533039 1.623818-4.8910742 5.5343884-4.8910742 10.1940104 0 2.5384481 3.3677148 4 8 4s8-1.4615519 8-4c0-4.6517736-1.9487609-8.5670677-4.8940086-10.1931221-.266469.1268043-.5585791.1931221-.855277.1931221h-4.5014288c-.3073108 0-.5983553-.0696442-.8582114-.1940104zm.4139582-4.50126311c.3130742-.19594816.6795151-.30472649 1.061158-.30472649h3.2676192c.3816429 0 .7480838.10877833 1.061158.30472649 1.2773237-.61607825 2.3050324-1.53470213 2.3050324-2.30472649 0-1.25484716-3.2667928-2.32986002-4.289172-1.29663416l-.8757874.8850789-.6752299-1.04615147c-.585953-.90783242-4.1598107.25259772-4.1598107 1.45770673 0 .77002436 1.0277087 1.68864824 2.3050324 2.30472649zm.3989676 15.35427351c.1173339-.0953338.2328328-.2144993.3465-.3575s.2144996-.3098324.3025-.5005.1576664-.3996655.209-.627.077-.4693321.077-.726c0-.139334-.0109999-.2933325-.033-.462h-.913c-.0293335-.1760009-.0494999-.3226661-.0605-.44s-.0165-.2309995-.0165-.341c0-.1026672.0054999-.2089995.0165-.319.0110001-.1100006.0311665-.2493325.0605-.418h.671c-.0146667-.1320007-.0256666-.2749992-.033-.429s-.011-.3043326-.011-.451c0-.3080015.0531661-.6104985.1595-.9075s.2694989-.5628322.4895-.7975.498665-.4253326.836-.572.7369977-.22 1.199-.22c.3886686 0 .7314985.0329997 1.0285.099s.5884986.1613327.8745.286c-.0146667.2126677-.0549997.4546653-.121.726s-.1723326.5573318-.319.858c-.1686675-.0806671-.351999-.1576663-.55-.231s-.4363319-.11-.715-.11c-.1833343 0-.3373327.0311664-.462.0935s-.2254996.1411662-.3025.2365-.1319998.1998328-.165.3135-.0495.2254994-.0495.3355c0 .139334.0073333.2768327.022.4125s.0293333.2548328.044.3575h1.595c.0293335.1760009.0494999.3208328.0605.4345s.0165.2291661.0165.3465c0 .1026672-.0054999.2089994-.0165.319-.0110001.1100005-.0311665.2493325-.0605.418h-1.375c.0073334.0220001.011.0458332.011.0715v.0715c0 .1906676-.0146665.3886656-.044.594s-.0843329.3996657-.165.583h2.541c.0366668.1760009.0586666.333666.066.473s.011.2603328.011.363c0 .1173339-.0036666.2438327-.011.3795s-.0293332.2951657-.066.4785h-5.049zm3.9298096-13.659h-3.2676192l-.6 1h4.4676192z" fill="#212121"/></svg>