<svg height="32" viewBox="0 0 32 32" width="32" xmlns="http://www.w3.org/2000/svg"><path d="m19.9288427 9.93775389.0286502.04775035c.2159591.35993176.3048911.76068966.2798384 1.15010436 3.5316314 2.0420264 5.7626687 6.6136931 5.7626687 11.8643914 0 4.0994415-4.3792756 6-10 6s-10-1.9005585-10-6c0-5.2598447 2.22961256-9.8281437 5.7626183-11.867053-.0024954-.0408052-.0037614-.0819426-.0037614-.1233757 0-.3607531.0980442-.7147238.2836502-1.02406706l.0286502-.04775035c-1.7287174-.9298406-3.0711573-2.37370444-3.0711573-3.93775389 0-2.79164364 4.7967415-4.6756273 7.0815513-3.27647771 2.5135475-1.27668393 6.9184487.46639017 6.9184487 3.27647771 0 1.56404945-1.3424399 3.00791329-3.0711573 3.93775389zm-2.2950331.06224611h-3.2676192l-.6 1h4.4676192zm-3.9298096 13.659.099.341h5.049c.0366668-.1833343.0586666-.3428327.066-.4785s.011-.2621661.011-.3795c0-.1026672-.0036666-.223666-.011-.363s-.0293332-.2969991-.066-.473h-2.541c.0806671-.1833343.1356665-.3776656.165-.583s.044-.4033324.044-.594v-.0715c0-.0256668-.0036666-.0494999-.011-.0715h1.375c.0293335-.1686675.0494999-.3079995.0605-.418.0110001-.1100006.0165-.2163328.0165-.319 0-.1173339-.0054999-.2328328-.0165-.3465s-.0311665-.2584991-.0605-.4345h-1.595c-.0146667-.1026672-.0293333-.2218327-.044-.3575s-.022-.273166-.022-.4125c0-.1100006.0164998-.2218328.0495-.3355s.0879996-.2181662.165-.3135.1778327-.1741664.3025-.2365.2786657-.0935.462-.0935c.2786681 0 .516999.0366663.715.11s.3813325.1503329.55.231c.1466674-.3006682.2529997-.5866653.319-.858s.1063333-.5133323.121-.726c-.2860014-.1246673-.5774985-.2199997-.8745-.286s-.6398314-.099-1.0285-.099c-.4620023 0-.861665.0733326-1.199.22s-.6159989.3373322-.836.572-.3831661.5004985-.4895.7975-.1595.5994985-.1595.9075c0 .1466674.0036666.2969992.011.451s.0183333.2969993.033.429h-.671c-.0293335.1686675-.0494999.3079994-.0605.418-.0110001.1100005-.0165.2163328-.0165.319 0 .1100005.0054999.2236661.0165.341s.0311665.2639991.0605.44h.913c.0220001.1686675.033.322666.033.462 0 .2566679-.0256664.4986655-.077.726s-.1209996.4363324-.209.627-.1888328.3574993-.3025.5005-.2291661.2621662-.3465.3575z" fill="#212121"/></svg>