<svg height="32" viewBox="0 0 32 32" width="32" xmlns="http://www.w3.org/2000/svg"><path d="m11.7626183 11.132947c-.0024954-.0408052-.0037614-.0819426-.0037614-.1233757 0-.3607531.0980442-.7147238.2836502-1.02406706l.0286502-.04775035c-1.7287174-.9298406-3.0711573-2.37370444-3.0711573-3.93775389 0-2.79164364 4.7967415-4.6756273 7.0815513-3.27647771 2.5135475-1.27668393 6.9184487.46639017 6.9184487 3.27647771 0 1.56404945-1.3424399 3.00791329-3.0711573 3.93775389l.0286502.04775035c.2159591.35993176.3048911.76068966.2798384 1.15010436 3.5316314 2.0420264 5.7626687 6.6136931 5.7626687 11.8643914 0 4.0994415-4.3792756 6-10 6s-10-1.9005585-10-6c0-5.2598447 2.22961256-9.8281437 5.7626183-11.867053zm1.1284559 1.6730426c-2.94533039 1.623818-4.8910742 5.5343884-4.8910742 10.1940104 0 2.5384481 3.3677148 4 8 4s8-1.4615519 8-4c0-4.6517736-1.9487609-8.5670677-4.8940086-10.1931221-.266469.1268043-.5585791.1931221-.855277.1931221h-4.5014288c-.3073108 0-.5983553-.0696442-.8582114-.1940104zm.4139582-4.50126311c.3130742-.19594816.6795151-.30472649 1.061158-.30472649h3.2676192c.3816429 0 .7480838.10877833 1.061158.30472649 1.2773237-.61607825 2.3050324-1.53470213 2.3050324-2.30472649 0-1.25484716-3.2667928-2.32986002-4.289172-1.29663416l-.8757874.8850789-.6752299-1.04615147c-.585953-.90783242-4.1598107.25259772-4.1598107 1.45770673 0 .77002436 1.0277087 1.68864824 2.3050324 2.30472649zm4.3287772 1.69527351h-3.2676192l-.6 1h4.4676192zm-2.0158096 14.121c-.2126677 0-.4088324-.0091666-.5885-.0275s-.3556658-.0458331-.528-.0825c-.1723342-.0366668-.3428325-.084333-.5115-.143s-.351999-.1283329-.55-.209c.0293335-.2640013.078833-.5316653.1485-.803s.1558328-.5609985.2585-.869c.3446684.1466674.6563319.254833.935.3245s.5463321.1045.803.1045c.3666685 0 .648999-.0604994.847-.1815s.297-.309832.297-.5665c0-.2273345-.0861658-.4014994-.2585-.5225s-.3831654-.2328328-.6325-.3355l-.583-.242c-.2200011-.0953338-.428999-.2016661-.627-.319s-.3684993-.2584992-.5115-.4235-.2566662-.3593322-.341-.583-.1265-.4894985-.1265-.7975c0-.6453366.1741649-1.1604981.5225-1.5455s.8304969-.6324994 1.4465-.7425v-.99c.1173339-.0366668.2346661-.0604999.352-.0715s.2163329-.0165.297-.0165.1814994.0054999.3025.0165.2364995.0348332.3465.0715v.957c.256668.0293335.5151654.0769997.7755.143s.5371652.1503328.8305.253c-.0513336.4913358-.2016654 1.0119973-.451 1.562-.2493346-.1100005-.4949988-.2016663-.737-.275s-.5536648-.11-.935-.11c-.0953338 0-.1888329.0054999-.2805.0165s-.1759996.0366665-.253.077-.1393331.095333-.187.165-.0715.1631661-.0715.2805c0 .2126677.0751659.3721661.2255.4785s.3134991.1924997.4895.2585l.616.231c.2493346.0953338.4839989.2016661.704.319s.4143325.2639991.583.44.3024995.3923321.4015.649c.0990005.256668.1485.5719981.1485.946 0 .594003-.1594984 1.1036645-.4785 1.529s-.7791637.7223325-1.3805.891v1.298c-.1100005.0366669-.2254994.0604999-.3465.0715s-.2218329.0165-.3025.0165-.1796661-.0054999-.297-.0165-.2346661-.0348331-.352-.0715z" fill="#212121"/></svg>