<svg height="32" viewBox="0 0 32 32" width="32" xmlns="http://www.w3.org/2000/svg"><path d="m11.2986033 22.108971c-.0025583.0680885-.0060417.137244-.0104206.2073809.0000967.0021426.0002009.0042771.0003127.0064035l-.0007172.0000377c-.1295083 2.0504819-1.0222529 4.9361471-1.93600862 6.5252874-.275298.4787791-.88659829.6437332-1.36537742.3684352s-.64373318-.8865983-.36843518-1.3653774c.87847175-1.527777 1.81911747-4.8634814 1.68275189-6.2743037-.8419392-.9177794-1.44674317-1.9374699-1.77421884-3.0366776-.90384496-3.0338539.60381684-6.4468688 4.15762147-9.84761231 3.6227313-3.46670161 10.2770227-6.37179209 14.7777252-6.26992537.7651298.01731758 1.2280048.85263239.8370561 1.51057055-.1059698.17833939-.2058582.3594359-.2998323.54323435-.9958858 1.947794-1.2403101 3.71449615-1.2023817 6.21166208.0048403.3186805.0053232.3561418.0053232.4691403 0 .8903731-.0196786 1.5387634-.0997874 2.4039139-.1184723 1.2794646-.3444714 2.5186564-.7096273 3.6916844-.3804544 1.2221733-.8985914 2.3241619-1.5763339 3.2771668-2.1012971 2.9547306-5.754633 3.6838801-9.1663778 2.9373758-.4919686-.1076449-.8194257-.5603727-.783821-1.0484096l-.0102414.0014784c-.1267968-.8783651 1.3134255-5.0010874 2.7186239-8.0886875-2.2506166 2.5028202-4.6898013 6.3190492-4.8758338 7.7772222z" fill="#212121"/></svg>