<svg height="32" viewBox="0 0 32 32" width="32" xmlns="http://www.w3.org/2000/svg"><path d="m27 21.6216878v.9442397c-.3155113.1162509-.6510637.2115183-1 .2828809v-.9818577c.34864-.0625818.6832071-.1455505 1-.2452629zm1-.396663c.373593-.1825689.7057462-.3889754.9868612-.6097709.0087592-.4039844.0131388-.9424023.0131388-1.6152539 0 .2539394-.3821074.7289334-1.1127183 1.1527865-.9084128.5270023-2.1236637.8472135-3.3872817.8472135s-2.4788689-.3202112-3.3872817-.8472135c-.7306109-.4238531-1.1127183-.8988471-1.1127183-1.1527865 0 .7685243.0023292 1.3053289.0069875 1.6104138.2824167.2226193.6166909.4307087.9930125.614611v.8602918c-.6571463-.4058858-1-.8447741-1-1.0853166 0 .7685243.0023292 1.3053289.0069875 1.6104138.2824167.2226193.6166909.4307087.9930125.614611v.8602918c.0365995.0226057.0741739.045109.1127183.0674699.2707794.1570887.5688218.2958036.8872817.413141v-.9442397c.3167929.0997124.65136.1826811 1 .2452629v.9818577c.3235928.0661794.6586959.1118004 1 .134533v-.9979803c.164681.0096535.3314552.0146389.5.0146389s.335319-.0049854.5-.0146389v.9979803c.3413041-.0227326.6764072-.0683536 1-.134533v-.9818577c.34864-.0625818.6832071-.1455505 1-.2452629v.9442397c.3184599-.1173374.6165023-.2560523.8872817-.413141.0385444-.0223609.0761188-.0448642.1127183-.0674699v-.8602918c.373593-.1825689.7057462-.3889754.9868612-.6097709.0087592-.4039844.0131388-.9424023.0131388-1.6152539 0 .2405425-.3428537.6794308-1 1.0853166zm-3 .7603363v.9979803c-.1654116.0110173-.3322798.0166586-.5.0166586s-.3345884-.0056413-.5-.0166586v-.9979803c.164681.0096535.3314552.0146389.5.0146389s.335319-.0049854.5-.0146389zm-2 .8634473c-.3489363-.0713626-.6844887-.16663-1-.2828809v-.9442397c.3167929.0997124.65136.1826811 1 .2452629zm4-7.5812211c-.72681-.1692583-1.5570381-.2675873-2.4968262-.2675873-3.9431152 0-5.960186 1.7313453-6.5031738 3.1702311v2.8297689h-14v-13h23zm-22-2.3676054c1.95913038-.3976825 3.50229941-1.9408515 3.89998188-3.8999819h-1.02599937c-.36177831 1.4056073-1.46837522 2.5122042-2.87398251 2.8739825zm21 0v-1.0259994c-1.4056073-.3617783-2.5122042-1.4683752-2.8739825-2.8739825h-1.0259994c.3976825 1.9591304 1.9408515 3.5022994 3.8999819 3.8999819zm-17.10001812 7.1000181c-.39768247-1.9591304-1.9408515-3.5022994-3.89998188-3.8999819v1.0259994c1.40560729.3617783 2.5122042 1.4683752 2.87398251 2.8739825zm6.60001812-3c1.3807119 0 2.5-1.1192881 2.5-2.5s-1.1192881-2.5-2.5-2.5-2.5 1.1192881-2.5 2.5 1.1192881 2.5 2.5 2.5zm0-1c-.8284271 0-1.5-.6715729-1.5-1.5s.6715729-1.5 1.5-1.5 1.5.6715729 1.5 1.5-.6715729 1.5-1.5 1.5zm-5.5-2v1h2v-1zm9 0v1h2v-1zm0 5c.6556803-2 2.4900716-3 5.5031738-3s4.8453776 1 5.4968262 3v4c-.6640625 2-2.4973958 3-5.5 3s-4.8359375-1-5.5-3z" fill="#212121"/></svg>