<svg height="32" viewBox="0 0 32 32" width="32" xmlns="http://www.w3.org/2000/svg"><path d="m9.89998188 10c-.39768247 1.9591304-1.9408515 3.5022994-3.89998188 3.8999819v1.2000362c1.95913038.3976825 3.50229941 1.9408515 3.89998188 3.8999819h10.16983322c-.0247031.0555974-.0479695.1123416-.0698151.1702311v1.8297689h-16v-13h23v9.3398965c-.5539675-.1875941-1.2178058-.2978724-2-.3299989v-3.1099157c-1.9591304-.3976825-3.5022994-1.9408515-3.8999819-3.8999819zm-1.02599937 0h-2.87398251v2.8739825c1.40560729-.3617783 2.5122042-1.4683752 2.87398251-2.8739825zm16.12601749 2.8739825v-2.8739825h-2.8739825c.3617783 1.4056073 1.4683752 2.5122042 2.8739825 2.8739825zm-19 3.252035v2.8739825h2.87398251c-.36177831-1.4056073-1.46837522-2.5122042-2.87398251-2.8739825zm9.5.8739825c-1.3807119 0-2.5-1.1192881-2.5-2.5s1.1192881-2.5 2.5-2.5 2.5 1.1192881 2.5 2.5-1.1192881 2.5-2.5 2.5zm0-1c.8284271 0 1.5-.6715729 1.5-1.5s-.6715729-1.5-1.5-1.5-1.5.6715729-1.5 1.5.6715729 1.5 1.5 1.5zm-5.5-2h2v1h-2zm9 0h2v1h-2zm8 8.5659275v-.9442397c-.3167929.0997124-.65136.1826811-1 .2452629v.9818577c.3489363-.0713626.6844887-.16663 1-.2828809zm1-.4806109c.6571463-.4058858 1-.8447741 1-1.0853166v-.3951055c-.283885.2246994-.62057.434709-1 .6201303zm-3 .8980248v-.9979803c-.164681.0096535-.3314552.0146389-.5.0146389s-.335319-.0049854-.5-.0146389v.9979803c.1654116.0110173.3322798.0166586.5.0166586s.3345884-.0056413.5-.0166586zm-2-.134533v-.9818577c-.34864-.0625818-.6832071-.1455505-1-.2452629v.9442397c.3155113.1162509.6510637.2115183 1 .2828809zm-2-.7634918v-.8602918c-.37943-.1854213-.716115-.3954309-1-.6201303v.3951055c0 .2405425.3428537.6794308 1 1.0853166zm6 2.5712617v-1.0348905c-.3167929.0997124-.65136.1826811-1 .2452629v1.0287678c.3664227-.0566914.6993074-.1364465 1-.2391402zm1-.5073779c.4643768-.3397526.7935153-.7806118 1-1.3214086v-.2228973c-.283885.2246994-.62057.434709-1 .6201303zm-3 .8406875v-1.0045268c-.164681.0096535-.3314552.0146389-.5.0146389s-.335319-.0049854-.5-.0146389v1.0045268c.1616043.0067391.3282462.0101121.5.0101121s.3383957-.003373.5-.0101121zm-2-.0941694v-1.0287678c-.34864-.0625818-.6832071-.1455505-1-.2452629v1.0348905c.3006926.1026937.6335773.1824488 1 .2391402zm-2-.7465181v-.9241756c-.37943-.1854213-.716115-.3954309-1-.6201303v.2228973c.2064847.5407968.5356232.981656 1 1.3214086zm7.9790264-5.0344442c-.554556-1.4021907-1.968895-2.1147562-4.4758526-2.1147562-2.5069369 0-3.9237385.7127977-4.4819557 2.1154881.0894386.2670062.4604884.6712263 1.0915002 1.0372984.9084128.5270023 2.1236637.8472135 3.3872817.8472135s2.4788689-.3202112 3.3872817-.8472135c.6315885-.3664067 1.0027397-.7710312 1.0917447-1.0380303zm-9.9790264-.1147562c.6556803-2 2.4900716-3 5.5031738-3s4.8453776 1 5.4968262 3v4c-.6640625 2-2.4973958 3-5.5 3s-4.8359375-1-5.5-3z" fill="#212121"/></svg>