<svg height="32" viewBox="0 0 32 32" width="32" xmlns="http://www.w3.org/2000/svg"><path d="m17.2426407 14 5.4142135-5.41421356-3.9018965-3.90189652-.9642365 6.10683128-6.1068313.9642365 2.2450423 2.2450423h-3.4289322c-.2761424 0-.5.2238576-.5.5s.2238576.5.5.5h11c.2761424 0 .5-.2238576.5-.5s-.2238576-.5-.5-.5zm-5.8994949-4 7.0710678-7.07106781 5.6568542 5.65685425-1.4142136 1.41421356h2.1972022l1.1459436 8h-20l1.14706493-8zm14.6418524 8v12h-19.96887511v-12zm-18.4849982 0c-.27614237 0-.5.2238576-.5.5s.22385763.5.5.5h17c.2761424 0 .5-.2238576.5-.5s-.2238576-.5-.5-.5zm4.576834-7.3194747 4.8395516-.76413973.7641397-4.83955155z" fill="#212121"/></svg>