<svg height="32" viewBox="0 0 32 32" width="32" xmlns="http://www.w3.org/2000/svg"><path d="m12.7573593 17h5.0710678 6.0185632l-.7142857-5h-2.4758504l-2 2h-1.4142135l5.4142135-5.41421356-3.9018965-3.90189652-.9642365 6.10683128-6.1068313.9642365 2.2450423 2.2450423h-1.4142136l-2-2h-1.6474232l-.71428571 5zm-1.4142135-7 7.0710678-7.07106781 5.6568542 5.65685425-1.4142136 1.41421356h2.2104412l1.1477298 8h-20.03117342l1.14885282-8zm14.6568542 8v12h-20v-12zm-18 10h16v-9h-16zm4.076834-17.3194747 4.8395516-.76413973.7641397-4.83955155zm-.576834 3.3194747h9c.2761424 0 .5.2238576.5.5s-.2238576.5-.5.5h-9c-.2761424 0-.5-.2238576-.5-.5s.2238576-.5.5-.5z" fill="#212121"/></svg>