<svg height="32" viewBox="0 0 32 32" width="32" xmlns="http://www.w3.org/2000/svg"><path d="m22.1620443 27.4741939-.6620443-.4446133-.6620443.4446133-.8739282 2.4010981c-.377785 1.0379558-1.5254697 1.57313-2.5634255 1.1953449l-1.8793853-.6840402c-1.0379558-.3777851-1.5731299-1.5254698-1.1953449-2.5634256l1.0104472-2.7761809c-.5823-.4034501-.9316198-1.1043809-.850835-1.858357.0220702-.2059851.0760099-.4072906.159889-.5967141l.4242454-.9580693-.7263393-.7551903c-.7656934-.7961076-.7410379-2.0621975.0550697-2.8278909.1493115-.1436073.3200284-.2631445.5060426-.3543349l.9408259-.461224-.0709812-1.0453912c-.0748271-1.1020321.7578871-2.0560649 1.8599191-2.130892.2066882-.014034.414302.0041299.6154131.0538417l1.0171836.2514331.6175897-.846442c.6510517-.8923034 1.9021883-1.0878767 2.7944917-.436825.1673532.122106.3147191.2694719.4368251.436825l.6175897.846442 1.0171836-.2514331c1.0722961-.2650562 2.1564344.3893411 2.4214905 1.4616372.0497118.2011112.0678757.4087249.0538417.6154131l-.0709812 1.0453912.9408259.461224c.9918013.4862139 1.4016609 1.684382.9154471 2.6761833-.0911903.1860142-.2107276.3567311-.3543348.5060425l-.7263393.7551903.4242454.9580693c.3954512.8930437.0845612 1.920036-.6909513 2.4550565l1.0104525 2.7761955c.377785 1.0379558-.1573891 2.1856405-1.1953449 2.5634256l-1.8793853.6840402c-1.0379558.3777851-2.1856405-.1573891-2.5634255-1.1953449zm2.2245917.2644067.5287217 1.4526511 1.8793853-.6840403-1.0939681-3.0056526-.0036414.0003901-.2908443 1.0066234c-.1605655.5557235-.541135.9881778-1.0196532 1.2300283zm-7.0874109-2.2370418-1.0939681 3.0056526 1.8793853.6840403.5286022-1.4523228c-.2966371-.1494922-.560069-.3750682-.7584554-.6704724-.1154979-.1719802-.2035744-.3608609-.2610783-.5598842l-.2908443-1.0066234zm-4.6136327-1.4513347h-5.6855924c-1.65685425 0-3-1.3431457-3-3 0-.124395.00773706-.2486697.02718697-.4008685l.64858934-4.1921152c.08294282-.6635425.4920194-1.2417303 1.11622488-1.5533639l2.49522078-1.1580527c.59540957-.2977048.93944992-.1524495 1.60551641.2969037.09846527.0664284.46492072.3236834.48984402.3409508.2050328.1420515.3771713.255399.5549625.3631943.7873883.477396 1.565049.7618673 2.4406991.822267-.8745451 1.4374064-1.378244 3.1253108-1.378244 4.9308604 0 1.255135.243407 2.4534193.6855924 3.5502241zm1.0488432-10.0502241c-3.3137085 0-6.00000004-2.6862915-6.00000004-6s2.68629154-6 6.00000004-6 6 2.6862915 6 6-2.6862915 6-6 6zm7.7655644 9.5c1.6568542 0 3-1.3431458 3-3s-1.3431458-3-3-3-3 1.3431458-3 3 1.3431458 3 3 3zm0-1c-1.1045695 0-2-.8954305-2-2s.8954305-2 2-2 2 .8954305 2 2-.8954305 2-2 2z" fill="#212121"/></svg>