<svg height="32" viewBox="0 0 32 32" width="32" xmlns="http://www.w3.org/2000/svg"><path d="m9.05000906 13h4.89998184c.032794-.161555.0500091-.3287671.0500091-.5 0-1.3807119-1.1192881-2.5-2.5-2.5s-2.5 1.1192881-2.5 2.5c0 .1712329.01721513.338445.05000906.5zm-.05000906-10h10.1636023c.8027144 0 1.5719473.32169234 2.1356829.89314012l3.8332239 3.88566451c.5538157.56139226.8643171 1.31827053.8643171 2.10685988v17.11433549c0 1.6568542-1.3431458 3-3 3h-13.9968262c-1.65685425 0-3-1.3431458-3-3v-21c0-1.65685425 1.34314575-3 3-3zm15.5857864 6-4.5857864-4.58578644v4.58578644zm-13.0857864 1c.8284271 0 1.5-.67157288 1.5-1.5s-.6715729-1.5-1.5-1.5-1.5.67157288-1.5 1.5.6715729 1.5 1.5 1.5zm4.5 1v2h6v-2zm-7 5v1h2v-1zm3 0v1h8v-1zm-3 3v1h2v-1zm3 0v1h8v-1zm-3 3v1h2v-1zm3 0v1h8v-1zm-3 3v1h2v-1zm3 0v1h8v-1z" fill="#212121"/></svg>