<svg height="32" viewBox="0 0 32 32" width="32" xmlns="http://www.w3.org/2000/svg"><path d="m23.7748781 20.3035439c.0133873-.0453472.0301569-.090296.0504244-.1345351.2300298-.5021004.8235386-.7226571 1.3256389-.4926273l2.0733419.9505084c.8971638.4485819 1.5107787 1.3158636 1.6305281 2.2783032l.5908934 3.7227027c.2055074 1.6440598-.9606697 3.1434304-2.6047295 3.3489378-.1234344.0154293-.2477091.0231664-.3721042.0231664h-11.4688711-12v-24h14v3.65789387c.8200069-.42057393 1.7495067-.65789387 2.7344356-.65789387 3.3137085 0 6 2.6862915 6 6s-2.6862915 6-6 6-6-2.6862915-6-6c0-1.9019454.8849538-3.5971987 2.2655644-4.6964629v-3.3035371h-8v-1h-4v2 21h6.7638935c-.4750399-.5307565-.7638935-1.2316456-.7638935-2 0-.1243951.0077371-.2486697.027187-.4008686l.6485893-4.1921151c.0829428-.6635426.4920194-1.2417304 1.1162249-1.5533639l2.5213171-1.1706317c.4881524-.2266462 1.065283-.0258383 1.3096332.4481248l.0351624-.1054871 2.9230249.9743416h3.0314353c.1824932 0 .3535689.0488843.5008468.1342726zm.2540182.9910249-1.4163259.708163c-.0002911.1065593-.0176121.2123934-.051313.313496l-.3612574 1.0837722.8 1.6-.6 3h4.0688711c.0414651 0 .0828899-.002579.1240348-.0077221.5480199-.0685025.9367456-.5682927.8729079-1.0834385l-.5908934-3.7227027c-.0414714-.3317712-.2460097-.6208651-.5143565-.7556866l-2.0426341-.9358025c-.1106102-.0506744-.2075571-.1189884-.2890335-.2000788zm-8.4144898-.229387c-.0987921.1832993-.2554635.3374185-.4588537.4318512l-2.4992413 1.1868171-.6485894 4.1921152c-.0051431.0411448-.0077221.0825697-.0077221.1240347 0 .5522847.4477153 1 1 1h4.6l-.6-3 .8-1.6-.3612574-1.0837722c-.0723233-.2169698-.0661387-.4412065.0031419-.6418867zm-9.6144065-18.0651818h13v1h-10.76389349c.47503992.53075649.76389349 1.23164556.76389349 2h-1c0-1.1045695-.8954305-2-2-2s-2 .8954305-2 2h-1c0-1.65685425 1.34314575-3 3-3zm13 0c1.6568542 0 3 1.34314575 3 3h-1c0-1.1045695-.8954305-2-2-2zm-2 3h5v1h-5zm-11 4h5v1h-5zm0 2h7v1h-7zm0 2h6v1h-6zm0 2h5v1h-5zm0 2h2v1h-2zm13.7344356 1c2.209139 0 4-1.790861 4-4s-1.790861-4-4-4-4 1.790861-4 4 1.790861 4 4 4zm.3138001 6.1180687-1.5975646-.783343-.4028015.805603.7719343 3.8596713h2.3603922l.7719343-3.8596713-.3957474-.7914948zm1.1315602-1.819734.4327782-1.2983347h-3.2251482l.4278809 1.2836428 1.2359696.5982256z" fill="#212121"/></svg>