<svg height="32" viewBox="0 0 32 32" width="32" xmlns="http://www.w3.org/2000/svg"><path d="m17 9.65789633c.8200074-.42057651 1.749507-.65789633 2.7344356-.65789633 3.3137085 0 6 2.6862915 6 6s-2.6862915 6-6 6c-.9849286 0-1.9144282-.2373198-2.7344356-.6578963v.4422414c.381888.2267064.7621561.4077863 1.1531142.5396803-.23709.259026-.3304329.6354382-.2115115.9922024l.4032422 1.2097266c.0994794.2984383.3335932.5326691.6319818.6322975l1.0516919.3511475 1.0081868-.3483384c.2938712-.1015354.5237957-.3339842.6221164-.6289463l.4052957-1.2158869c.0339888-.1019665.0513167-.2087457.0513167-.3162278 0-.3128769-.1436888-.5921935-.368677-.7755605.3634172-.1307611.7168233-.2948741 1.060484-.4880005.3345573-.1880107.6275562-.3844679.9232849-.6070598.0746881-.056217.2751666-.211291.2810943-.2158009.0607217-.046054.0983185-.0733347.1448785-.1032752.0557506-.0356014.0557506-.0356014.1706633-.0914197.172979-.0967058.172979-.0967058.854487.0224281l2.0426341.9358025c.8971638.4485819 1.5107787 1.3158636 1.6305281 2.2783032l.5908934 3.7227027c.2055074 1.6440598-.9606697 3.1434304-2.6047295 3.3489379-.1234344.0154293-.2477091.0231663-.3721042.0231663h-13.4688711c-.1877138 0-.371401-.0172404-.5495644-.0502241h-9.4504356v-24h14zm-1 .64564077v-3.3035371h-8v-1h-4v2 21h6.7199324c-.4488399-.5243782-.7199324-1.2054185-.7199324-1.9497759 0-.124395.0077371-.2486697.027187-.4008685l.6485893-4.1921152c.0829428-.6635425.4920194-1.2417303 1.1162249-1.5533639l2.4952208-1.1580527c.5954095-.2977048.9394499-.1524495 1.6055164.2969037.023372.0157677.061843.0422868.1072616.0737959v-.4200605c-1.3806106-1.0992642-2.2655644-2.7945175-2.2655644-4.6964629s.8849538-3.5971987 2.2655644-4.6964629zm-10-7.3035371c-1.65685425 0-3 1.34314575-3 3h1c0-1.1045695.8954305-2 2-2s2 .8954305 2 2h1c0-.76835444-.28885357-1.46924351-.76389349-2h10.76389349v-1h-12.99999983zm13 0c1.6568542 0 3 1.34314575 3 3h-1c0-1.1045695-.8954305-2-2-2zm-2 3h5v1h-5zm-11 4h5v1h-5zm0 2h7v1h-7zm0 2h6v1h-6zm0 2h5v1h-5zm0 2h2v1h-2zm13 7-2 2 1 2h4l1-2-2-2-.9605811 1z" fill="#212121"/></svg>