<svg height="32" viewBox="0 0 32 32" width="32" xmlns="http://www.w3.org/2000/svg"><path d="m13.6399056 10.1477787c.549256-.69888689 1.4022531-1.1477787 2.3600944-1.1477787.8148844 0 1.5538848.3248976 2.0945299.85222132.4008357-.51003326.6399057-1.15320841.6399057-1.85222132 0-1.65685425-1.3431458-3-3-3-1.6568543 0-3 1.34314575-3 3 0 .84196989.3468547 1.60292751.90547 2.1477787zm3.3600944 4.6815156c-.3127789.1105515-.6493646.1707057-1 .1707057s-.6872211-.0601542-1-.1707057v2.1707057h2zm5.4224194 2.1707057h.5775806c1.6568542 0 3 1.3431458 3 3v2h-3.2160683l-.8888889 8h-11.7900856l-.88888888-8h-3.21606832v-2c0-1.6568542 1.34314575-3 3-3h.04633342l.39792044-3.0201701c.00958896-.0900878.02554425-.1788213.0476801-.2655442-.06919199-.0665219-.1329776-.14069-.19011069-.2222845l-3.44145862-4.91491222c-.47516627-.67860778-.31024436-1.61392645.36836342-2.08909272.67860777-.47516628 1.61392644-.31024436 2.08909272.36836341l3.44145861 4.91491223c.0095519.0136415.0188451.0273868.0278807.0412299l.186113-.1014784c.0954003-.0520171.1955432-.0868807.2968832-.1056342-.9466042-.9097816-1.5357207-2.18878766-1.5357207-3.6053892 0-2.76142375 2.2385762-5 5-5 2.7614237 0 5 2.23857625 5 5 0 1.41500963-.5877933 2.6927328-1.5325309 3.6023207.0988184.0185221.1965.0523806.2897672.1025602l.3054441.1645108c.0196546-.0332321.040733-.0659641.0632487-.0981198l3.4414586-4.91491223c.4751663-.67860777 1.4104849-.84352969 2.0890927-.36836341.6786078.47516627.8435297 1.41048494.3683634 2.08909272l-3.4414586 4.91491222c-.1007264.1438522-.2221302.2646214-.357383.3611035.0514727.164621.087014.334925.1053451.5079827zm-1.4285733 3h3.0061539c0-.5522847-.4477153-1-1-1h-14c-.55228475 0-1 .4477153-1 1h3.0061539l.8888889 8h8.2099144zm-6.9938461 2h1v5h-1zm3 0h1v5h-1zm-1-8c1.1045695 0 2-.8954305 2-2s-.8954305-2-2-2-2 .8954305-2 2 .8954305 2 2 2z" fill="#212121"/></svg>