<svg height="32" viewBox="0 0 32 32" width="32" xmlns="http://www.w3.org/2000/svg"><path d="m7.13145573 17.3406799c.27866342.2820796.60674332.5627801.97992633.8431135.34271242.2574441 1.00090033.6819885 1.53876128 1.0244941-.2115411-.3808276-.40211639-.6997704-.46924135-.788628-.00680058-.0090024-.42677986-.4002345-.46232288-.4348663-.61136925-.5956955-.94669722-1.1086338-.91319036-1.8115723.02234803-.468838.2430463-.8887951.61948436-1.2200689.99263242-.8735382 1.97910669-.3730223 3.29529409.8637457.1744421.1639163.3546562.3418733.5617866.5529968.1188767.1211685.6552862.6774991.7863278.8097068.2373192.2394311.4002323.388655.4941316.4552023l.2848735.2018924.097296.3353311c.3917672 1.3502274.9133885 4.9056984.9133885 6.3936467 0 .7834681-.1453255 1.290923-.517523 2.1607359-.0168963.0394722-.0168963.0394722-.0334122.0780964-.2460791.5759911-.3228441.8459588-.3228441 1.2328474v1h-6.62058505l-.03899053-.9593927c-.02258633-.5557546.07435921-.9716066.31521799-1.6626897.16615483-.4767391.20483623-.6176417.20635184-.7550207.00124693-.1130256-.03926404-.204339-.21538341-.3736282-.23142826-.2224531-.55315198-.5213632-1.03987878-.9676752-.14008994-.1284578-1.08573859-.9930487-1.37123399-1.2552067-.05803774-.0533048-.05803774-.0533048-.11607063-.1066535-1.56258939-1.4368112-2.41215642-2.2600643-2.76224112-2.7261188l-.20044804-.2668489v-.333748c0-.4892671-.05474105-1.0273048-.23055285-2.4423178-.00824257-.0663532-.00824257-.0663532-.01648871-.132856-.12343236-.9961526-.18186965-1.54279-.21330855-2.1717429.00367552-.1102253.00367552-.1102253.00726522-.2260414.02373592-.7721325.03300151-1.0081741.06160845-1.4116327.16596919-2.34075.70130676-3.71311207 2.34633855-3.72913133 1.52234642-.01482455 2.02236941 1.28821913 2.10637466 3.28572053.02401466.5710276.00859193 1.1554752-.03314799 1.7944872-.00211748.0324172-.00416384.0630371-.00625272.0935332.34097549.670835.78971812 1.8822868.96868949 2.65029zm1.19233577 7.2249939c1.20239258 1.1557617-.05480957 2.1230469 0 3.4716797h4.6604004c0-1.3876953.8737793-2 .8737793-3.4716797s-.5314941-4.9353027-.8737793-6.1149902c-.8942871-.6337891-3.0053711-3.532959-3.89868165-2.7468262-.89331054.7861328.59497071 1.7181054.89331055 2.1130371.236156.3126149 1.8658496 3.1026792 1.6234741 3.7386475-.0638215.1674612-1.2970581-.6499024-1.76379392-1.0490723-.40453407-.3226345-2.36620397-1.2891127-3.6328125-2.6895752-.09643555-.7397461-.83905794-2.6125001-1.06207276-2.8991699.07275391-.9746094.34082032-4.4145508-1.03808593-4.401123-1.37890625.0134277-1.3692627 2.7600097-1.42553711 4.401123.08178711 1.4465332.4609375 3.532959.4609375 4.7126465.62866211.8369141 3.98046875 3.779541 5.18286132 4.9353027zm15.6027903-6.3818804c.373183-.2803334.7012629-.5610339.9799263-.8431135.1789714-.7680032.627714-1.979455.9686895-2.65029-.0020889-.0304961-.0041352-.061116-.0062527-.0935332-.0417399-.639012-.0571626-1.2234596-.033148-1.7944872.0840053-1.9975014.5840283-3.30054508 2.1063747-3.28572053 1.6450318.01601926 2.1803693 1.38838133 2.3463385 3.72913133.028607.4034586.0378726.6395002.0616085 1.4116327.0035897.1158161.0035897.1158161.006258.3167615-.0304317.5382328-.088869 1.0848702-.2123014 2.0810228-.0082461.0665028-.0082461.0665028-.0164887.132856-.1758118 1.415013-.2305528 1.9530507-.2305528 2.4423178v.333748l-.2004481.2668489c-.3500846.4660545-1.1996517 1.2893076-2.7622411 2.7261188-.0580329.0533487-.0580329.0533487-.1160706.1066535-.2854954.262158-1.2311441 1.1267489-1.371234 1.2552067-.4867268.446312-.8084505.7452221-1.0398788.9676752-.1761193.1692892-.2166303.2606026-.2153834.3736282.0015156.137379.040197.2782816.2063519.7550207.2408587.6910831.3378043 1.1069351.3152179 1.6626897l-.0389905.9593927h-6.620585v-1c0-.3868886-.076765-.6568563-.3228441-1.2328474-.0165159-.0386242-.0165159-.0386242-.0334122-.0780964-.3721976-.8698129-.517523-1.3772678-.517523-2.1607359 0-1.4879483.5216213-5.0434193.9133884-6.3936467l.097296-.3353311.2848736-.2018924c.0938993-.0665473.2568123-.2157712.4941315-.4552023.1310417-.1322077.6674512-.6885383.7863279-.8097068.2071304-.2111235.3873444-.3890805.5617866-.5529968 1.3161873-1.236768 2.3026616-1.7372839 3.2952941-.8637457.376438.3312738.5971363.7512309.6194843 1.2200689.0335069.7029385-.3018211 1.2158768-.9131903 1.8115723-.0355431.0346318-.4555223.4258639-.4623229.4348663-.0670476.0887551-.2572609.407065-.4685096.7873107.5340522-.3392038 1.1945165-.7651313 1.5380295-1.0231768zm-.2124094 6.3818804c1.2023925-1.1557617 4.5541992-4.0983886 5.1828613-4.9353027 0-1.1796875.3791504-3.2661133.4609375-4.7126465-.0562744-1.6411133-.0466309-4.3876953-1.4255371-4.401123-1.3789063-.0134278-1.1108399 3.4265136-1.038086 4.401123-.2230148.2866698-.9656372 2.1594238-1.0620727 2.8991699-1.2666085 1.4004625-3.2282784 2.3669407-3.6328125 2.6895752-.4667358.3991699-1.6999724 1.2165335-1.763794 1.0490723-.2423754-.6359683 1.3873182-3.4260326 1.6234742-3.7386475.2983398-.3949317 1.7866211-1.3269043.8933105-2.1130371-.8933105-.7861328-3.0043945 2.1130371-3.8986816 2.7468262-.3422852 1.1796875-.8737793 4.6433105-.8737793 6.1149902s.8737793 2.0839844.8737793 3.4716797h4.6604004c.0548095-1.3486328-1.2023926-2.315918 0-3.4716797zm-2.4108715-19.74765432c1.374175 1.374175 1.68548 3.43754663.8796558 5.12229651v.05224905l-6.1829567 6.49271636-5.3033009-5.3033009c-1.75735927-1.7573593-1.75735927-4.6066017 0-6.36396102 1.4245437-1.42454365 3.5884201-1.70606676 5.3033009-.7879922 1.7148808-.91807456 3.8787572-.63655145 5.3033009.7879922zm-1.1787232 4.67838029c.7402719-.98739531.6466517-2.38202462-.2354904-3.26416672-.8880022-.88800223-2.2943695-.97639917-3.2820653-.2219454l-.607022.46367523-.607022-.46367523c-.9876958-.75445377-2.3940631-.66605683-3.2820653.2219454-.9763107.97631073-.9763107 2.55922317 0 3.5355339l3.8890873 3.88908725 4.0171067-4.01710668z" fill="#212121"/></svg>