<svg height="32" viewBox="0 0 32 32" width="32" xmlns="http://www.w3.org/2000/svg"><path d="m24 18v11h1v-3h1v-3h-1v-1h1v-3h-1v-1h4v-1h-4.3240263l-2.9696749-3.8673351v-.3939564h-1v.733607l2.7088617 3.5276845h-13.84573887l2.63419167-3.5092443v-.7312342h-1v.3976721l-2.88457791 3.8428064h-4.31903539v1h4v1h-1v3h1v1h-1v3h1v3h1v-11zm-8-12.75v-2.25h5v3h-4v1.02242151c2.638569.23777419 4.7398043 2.3390095 4.9775785 4.97757849h-.0314657 3.4681008l3.0554563 3.0554564c.8779612.2112944 1.5303301 1.0017346 1.5303301 1.9445436v10c0 1.6568542-1.3431458 3-3 3h-21c-1.65685425 0-3-1.3431458-3-3v-10c0-.942809.65236893-1.7332492 1.53033009-1.9445436l3.05545635-3.0554564h3.46810076-.0314657c.2377742-2.63856899 2.3390095-4.7398043 4.9775785-4.97757849zm-2.6631844 5.75h6.3263688c-.5617319-1.18247367-1.7669864-2-3.1631844-2s-2.6014525.81752633-3.1631844 2zm.6631844 12v6h1v-6zm4 0v6h1v-6zm-3 0v1h3v-1zm-4-4v3h3v-3zm4 0v3h3v-3zm4 0v3h3v-3z" fill="#212121"/></svg>