<svg height="32" viewBox="0 0 32 32" width="32" xmlns="http://www.w3.org/2000/svg"><path d="m21.0239786 11.2186621-2.8053165 2.8053165c-.070378-.015698-.143553-.0239786-.2186621-.0239786-.1395393 0-.2724034.0285805-.3930575.0802068l-2.6140307-1.960523c.0046803-.039242.0070882-.0791817.0070882-.1196838 0-.5522847-.4477153-1-1-1s-1 .4477153-1 1c0 .0751091.0082806.1482841.0239786.2186621l-2.8053165 2.8053165c-.070378-.015698-.143553-.0239786-.2186621-.0239786-.55228475 0-1 .4477153-1 1s.44771525 1 1 1c.5522847 0 1-.4477153 1-1 0-.1037827-.0158098-.2038729-.0451523-.2979934l2.7471589-2.7471589c.0941205.0293425.1942107.0451523.2979934.0451523.1395393 0 .2724034-.0285805.3930575-.0802068l2.6140307 1.960523c-.0046803.039242-.0070882.0791817-.0070882.1196838 0 .5522847.4477153 1 1 1s1-.4477153 1-1c0-.1037827-.0158098-.2038729-.0451523-.2979934l2.7471589-2.7471589c.0941205.0293425.1942107.0451523.2979934.0451523.5522847 0 1-.4477153 1-1s-.4477153-1-1-1-1 .4477153-1 1c0 .0751091.0082806.1482841.0239786.2186621zm-7.4466283 9.7813379h-5.5773503c-1.65685425 0-3-1.3431458-3-3v-9c0-1.65685425 1.34314575-3 3-3h16c1.6568542 0 3 1.34314575 3 3v9c0 1.6568542-1.3431458 3-3 3h-5.5773503l.5773503 1h7.5c.2761424 0 .5.2238576.5.5s-.2238576.5-.5.5h-6.9226497l2.2886751 3.9641016c.2761424.4782926.1122672 1.089883-.3660254 1.3660254s-1.089883.1122672-1.3660254-.3660254l-2.8660254-4.9641016h-2.5358984l-2.8660254 4.9641016c-.2761424.4782926-.8877328.6421678-1.3660254.3660254s-.64216778-.8877328-.3660254-1.3660254l2.2886751-3.9641016h-6.9226497c-.27614237 0-.5-.2238576-.5-.5s.22385763-.5.5-.5h7.5zm2.309401 0-.5773502 1h1.3811978l-.5773502-1zm-7.8867513-13c-.55228475 0-1 .44771525-1 1v9c0 .5522847.44771525 1 1 1h16c.5522847 0 1-.4477153 1-1v-9c0-.55228475-.4477153-1-1-1zm1 1h14c.5522847 0 1 .44771525 1 1v7c0 .5522847-.4477153 1-1 1h-14c-.55228475 0-1-.4477153-1-1v-7c0-.55228475.44771525-1 1-1zm7-5c.5522847 0 1 .44771525 1 1v1h-2v-1c0-.55228475.4477153-1 1-1z" fill="#212121"/></svg>