<svg height="32" viewBox="0 0 32 32" width="32" xmlns="http://www.w3.org/2000/svg"><path d="m12.1461538 28.5024185c-1.3807118 0-2.49999995-1.1192882-2.49999995-2.5 0-1.3807119 1.11928815-2.5 2.49999995-2.5 1.3807119 0 2.5 1.1192881 2.5 2.5 0 1.3807118-1.1192881 2.5-2.5 2.5zm0-1c.8284272 0 1.5-.6715729 1.5-1.5 0-.8284272-.6715728-1.5-1.5-1.5-.8284271 0-1.5.6715728-1.5 1.5 0 .8284271.6715729 1.5 1.5 1.5zm11.4461539 1c-1.3807119 0-2.5-1.1192882-2.5-2.5 0-1.3807119 1.1192881-2.5 2.5-2.5s2.5 1.1192881 2.5 2.5c0 1.3807118-1.1192881 2.5-2.5 2.5zm0-1c.8284271 0 1.5-.6715729 1.5-1.5 0-.8284272-.6715729-1.5-1.5-1.5s-1.5.6715728-1.5 1.5c0 .8284271.6715729 1.5 1.5 1.5zm-10.4384615-14.5024185c-.5522848 0-1-.4477153-1-1s.4477152-1 1-1h11.6296724c.8511638 0 1.6693535.3291517 2.2833903.9185909.6429789.6172221.965597 1.4963431.8744932 2.3829575l-.574058 5.5866807c-.0900184.8760514-.5164203 1.6830066-1.1894437 2.2509934-.6586564.555862-1.4927312.8607775-2.3545959.8607775h-11.3573298c-.9721704 0-1.8984292-.4136124-2.5473551-1.1374981-.60771575-.6779153-.9899864-1.5277754-1.09403314-2.432243l-1.22729341-10.66873585c-.0564907-.49106786-.23339641-.96058103-.51500126-1.36682916-.1713635-.24721199-.4530457-.39469389-.75384334-.39469389h-2.28824412c-.55228475 0-1-.44771525-1-1s.44771525-1 1-1h2.28824412c.95666864 0 1.85254183.46905724 2.39755303 1.2553.46926086.67696399.76405309 1.45935161.8581881 2.27765754l1.22729342 10.66873576c.0567154.4930211.2650893.9562758.5963523 1.3258042.2695557.3006931.654312.4725025 1.0581394.4725025h11.3573298c.3897141 0 .7668622-.1378753 1.0646905-.3892225.2771577-.2339026.4527543-.5662148.4898248-.9269815l.574058-5.5866807c.0281271-.2737308-.0714771-.5451481-.2699886-.7357075-.2415849-.2319073-.5634911-.3614078-.8983706-.3614078z" fill="#212121"/></svg>