<svg height="32" viewBox="0 0 32 32" width="32" xmlns="http://www.w3.org/2000/svg"><g fill="#212121"><path d="m21.4472136 17.6910874 2.0426342.9358025c.8971637.4485819 1.5107786 1.3158636 1.630528 2.2783032l.5908934 3.7227027c.2055075 1.6440598-.9606696 3.1434304-2.6047294 3.3489378-.1234345.0154293-.2477092.0231664-.3721042.0231664h-13.46887116c-1.65685425 0-3-1.3431458-3-3 0-.1243951.00773706-.2486697.02718697-.4008686l.64858934-4.1921151c.08294282-.6635426.49201939-1.2417304 1.11622488-1.5533639l2.49522077-1.1580527c.5954096-.2977048.9394499-.1524495 1.6055164.2969037.0984653.0664283.4649208.3236834.489844.3409508.2050329.1420515.3771714.2553989.5549625.3631943.8925348.5411465 1.7725703.8344025 2.796996.8344025 1.1021406 0 2.124514-.3119853 3.0727003-.8448362.3345573-.1880106.6275563-.3844678.9232849-.6070597.0746881-.056217.2751666-.211291.2810944-.2158009.0607217-.046054.0983184-.0733347.1448784-.1032752.0557507-.0356014.0557507-.0356014.1706633-.0914197.1729791-.0967059.1729791-.0967059.854487.0224281z"/><path d="m16 18c-3.3137085 0-6-2.6862915-6-6s2.6862915-6 6-6 6 2.6862915 6 6-2.6862915 6-6 6z"/></g></svg>