<svg height="32" viewBox="0 0 32 32" width="32" xmlns="http://www.w3.org/2000/svg"><g fill="#212121"><path d="m20.5834942 19.4946476 2.0426342.9358025c.2683468.1348215.4728851.4239154.5143565.7556866l.5908933 3.7227027c.0638377.5151458-.324888 1.014936-.8729079 1.0834385-.0411448.0051431-.0825697.0077221-.1240347.0077221h-13.46887116c-.55228475 0-1-.4477153-1-1 0-.041465.00257902-.0828899.00772212-.1240347l.64858934-4.1921152 2.4992414-1.1868171c.5009257-.2325766.7184655-.8271977.4858889-1.3281234-.2325767-.5009257-.8271978-.7184656-1.3281235-.4858889l-2.52131707 1.1706317c-.62420549.3116335-1.03328206.8898213-1.11622488 1.5533639l-.64858934 4.1921151c-.01944991.1521989-.02718697.2764735-.02718697.4008686 0 1.6568542 1.34314575 3 3 3h13.46887116c.124395 0 .2486697-.0077371.3721042-.0231664 1.6440598-.2055074 2.8102369-1.704878 2.6047294-3.3489378l-.5908934-3.7227027c-.1197494-.9624396-.7333643-1.8297213-1.630528-2.2783032l-2.073342-.9505084c-.5021003-.2300298-1.095609-.0094731-1.3256389.4926273-.2300298.5021003-.009473 1.095609.4926273 1.3256388z"/><path d="m16 18c-3.3137085 0-6-2.6862915-6-6s2.6862915-6 6-6 6 2.6862915 6 6-2.6862915 6-6 6zm0-2c2.209139 0 4-1.790861 4-4s-1.790861-4-4-4-4 1.790861-4 4 1.790861 4 4 4z"/></g></svg>