<svg height="32" viewBox="0 0 32 32" width="32" xmlns="http://www.w3.org/2000/svg"><path d="m15.4647264 27.9479413-.6117766.3876834c-1.3219985.8377514-3.0728218.4451916-3.9105732-.8768069-.0417028-.0658084-.080674-.1333085-.1168143-.2023283l-.3359725-.641632c-.1794717-.3427507-.54055423-.5512218-.92712097-.5352735l-.72365581.0298552c-1.56375999.0645148-2.88373748-1.1508636-2.94825225-2.7146236-.00321151-.0778431-.00321151-.1557855 0-.2336286l.02985528-.7236558c.01594827-.3865668-.1925228-.7476493-.53527356-.927121l-.64163195-.3359725c-1.38651326-.7260086-1.9219581-2.4385459-1.19594954-3.8250591.03614031-.0690199.07511152-.13652.11681432-.2023284l.38768333-.6117766c.20709498-.3268025.20709498-.7437447 0-1.0705472l-.38768333-.6117766c-.83775142-1.3219985-.4451916-3.0728218.87680689-3.9105732.06580835-.0417028.13330847-.080674.20232833-.1168143l.64163195-.3359725c.34275076-.1794717.55122183-.54055423.53527356-.92712097l-.02985528-.72365581c-.06451476-1.56375999 1.15086363-2.88373748 2.71462362-2.94825225.0778431-.00321151.15578553-.00321151.23362863 0l.72365581.02985528c.38656674.01594827.74764927-.1925228.92712097-.53527356l.3359725-.64163195c.7260086-1.38651326 2.4385459-1.9219581 3.8250591-1.19594954.0690199.03614031.13652.07511152.2023284.11681432l.6117766.38768333c.3268025.20709498.7437447.20709498 1.0705472 0l.6117766-.38768333c1.3219985-.83775142 3.0728218-.4451916 3.9105732.87680689.0417028.06580835.080674.13330847.1168143.20232833l.3359725.64163195c.1794717.34275076.5405542.55122183.927121.53527356l.7236558-.02985528c1.56376-.06451476 2.8837375 1.15086363 2.9482522 2.71462362.0032115.0778431.0032115.15578553 0 .23362863l-.0298552.72365581c-.0159483.38656674.1925228.74764927.5352735.92712097l.641632.3359725c1.3865132.7260086 1.9219581 2.4385459 1.1959495 3.8250591-.0361403.0690199-.0751115.13652-.1168143.2023284l-.3876834.6117766c-.2070949.3268025-.2070949.7437447 0 1.0705472l.3876834.6117766c.8377514 1.3219985.4451916 3.0728218-.8768069 3.9105732-.0658084.0417028-.1333085.080674-.2023283.1168143l-.641632.3359725c-.3427507.1794717-.5512218.5405542-.5352735.927121l.0298552.7236558c.0645148 1.56376-1.1508636 2.8837375-2.7146236 2.9482522-.0778431.0032115-.1557855.0032115-.2336286 0l-.7236558-.0298552c-.3865668-.0159483-.7476493.1925228-.927121.5352735l-.3359725.641632c-.7260086 1.3865132-2.4385459 1.9219581-3.8250591 1.1959495-.0690199-.0361403-.13652-.0751115-.2023284-.1168143l-.6117766-.3876834c-.3268025-.2070949-.7437447-.2070949-1.0705472 0zm-2.4647264-11.9479413c1.1045695 0 2-.8954305 2-2s-.8954305-2-2-2-2 .8954305-2 2 .8954305 2 2 2zm0-1c-.5522847 0-1-.4477153-1-1s.4477153-1 1-1 1 .4477153 1 1-.4477153 1-1 1zm6 6c1.1045695 0 2-.8954305 2-2s-.8954305-2-2-2-2 .8954305-2 2 .8954305 2 2 2zm0-1c-.5522847 0-1-.4477153-1-1s.4477153-1 1-1 1 .4477153 1 1-.4477153 1-1 1zm.1237117-7.8292523-7 8 .7525766.6585046 7-8z" fill="#212121"/></svg>