<svg height="32" viewBox="0 0 32 32" width="32" xmlns="http://www.w3.org/2000/svg"><path d="m15.1970897 27.525602c.4902037-.3106425 1.1156169-.3106425 1.6058206 0l.6117767.3876833c.0541972.0343448.1097877.06644.1666298.0962038 1.1418788.5979126 2.5522583.1569409 3.150171-.9849379l.3359724-.6416319c.2692077-.5141262.8108314-.8268328 1.3906815-.8029104l.7236558.0298553c.0641086.0026449.128299.0026449.1924076 0 1.2878523-.0531319 2.288791-1.1402143 2.2356591-2.4280667l-.0298553-.7236558c-.0239224-.5798501.2887842-1.1214738.8029104-1.3906815l.6416319-.3359724c.0568421-.0297638.1124326-.061859.1666298-.0962038 1.0887469-.6899397 1.412044-2.1318501.7221043-3.220597l-.3876833-.6117767c-.3106425-.4902037-.3106425-1.1156169 0-1.6058206l.3876833-.6117767c.0343448-.0541972.06644-.1097877.0962038-.1666298.5979126-1.1418788.1569409-2.5522583-.9849379-3.150171l-.6416319-.3359724c-.5141262-.2692077-.8268328-.8108314-.8029104-1.39068153l.0298553-.72365581c.0026449-.06410857.0026449-.12829895 0-.19240752-.0531319-1.28785232-1.1402143-2.28879101-2.4280667-2.23565914l-.7236558.02985527c-.5798501.0239224-1.1214738-.2887842-1.3906815-.80291033l-.3359724-.64163196c-.0297638-.05684209-.061859-.11243258-.0962038-.16662979-.6899397-1.08874689-2.1318501-1.41204399-3.220597-.72210429l-.6117767.38768334c-.4902037.31064246-1.1156169.31064246-1.6058206 0l-.6117767-.38768334c-.0541972-.03434481-.1097877-.06644-.1666298-.09620375-1.1418788-.59791262-2.5522583-.15694093-3.150171.98493783l-.3359724.64163196c-.2692077.51412613-.8108314.82683273-1.39068153.80291033l-.72365581-.02985527c-.06410857-.00264488-.12829895-.00264488-.19240752 0-1.28785232.05313187-2.28879101 1.14021434-2.23565914 2.42806666l.02985527.72365581c.0239224.57985013-.2887842 1.12147383-.80291033 1.39068153l-.64163196.3359724c-.05684209.0297638-.11243258.061859-.16662979.0962038-1.08874689.6899397-1.41204399 2.1318501-.72210429 3.220597l.38768334.6117767c.31064246.4902037.31064246 1.1156169 0 1.6058206l-.38768334.6117767c-.03434481.0541972-.06644.1097877-.09620375.1666298-.59791262 1.1418788-.15694093 2.5522583.98493783 3.150171l.64163196.3359724c.51412613.2692077.82683273.8108314.80291033 1.3906815l-.02985527.7236558c-.00264488.0641086-.00264488.128299 0 .1924076.05313187 1.2878523 1.14021434 2.288791 2.42806666 2.2356591l.72365581-.0298553c.57985013-.0239224 1.12147383.2887842 1.39068153.8029104l.3359724.6416319c.0297638.0568421.061859.1124326.0962038.1666298.6899397 1.0887469 2.1318501 1.412044 3.220597.7221043zm2.1410942-.8446788c-.8170062-.5177374-1.8593616-.5177374-2.6763678 0l-.6117767.3876833c-.6222437.3943163-1.4463283.2095446-1.8406446-.412699-.0288004-.0468606-.0288004-.0468606-.0549827-.0952328l-.3359725-.6416319c-.4486794-.8568769-1.3513856-1.3780546-2.31780245-1.3381839l-.72365581.0298553c-.73603698.030366-1.35732942-.5416933-1.38769549-1.2777303-.00151161-.0549826-.00151161-.0549826 0-.1099652l.02985527-.7236559c.03987067-.9664168-.481307-1.869123-1.33818389-2.3178024l-.64163196-.3359725c-.65260976-.3417207-.90463514-1.1477848-.56291444-1.8003946.02618223-.0483722.02618223-.0483722.05498264-.0952327l.38768333-.6117767c.51773745-.8170062.51773745-1.8593616 0-2.6763678l-.38768333-.6117767c-.39431629-.6222437-.20954462-1.4463283.41269907-1.8406446.04686057-.0288004.04686057-.0288004.09523273-.0549827l.64163196-.3359725c.85687689-.4486794 1.37805456-1.3513856 1.33818389-2.31780245l-.02985527-.72365581c-.03036608-.73603698.54169322-1.35732942 1.27773021-1.38769549.05498264-.00151161.05498264-.00151161.10996528 0l.72365581.02985527c.96641685.03987067 1.86912305-.481307 2.31780245-1.33818389l.3359725-.64163196c.3417207-.65260976 1.1477848-.90463514 1.8003946-.56291444.0483722.02618223.0483722.02618223.0952327.05498264l.6117767.38768333c.8170062.51773745 1.8593616.51773745 2.6763678 0l.6117767-.38768333c.6222437-.39431629 1.4463283-.20954462 1.8406446.41269907.0288004.04686057.0288004.04686057.0549827.09523273l.3359725.64163196c.4486794.85687689 1.3513856 1.37805456 2.3178024 1.33818389l.7236559-.02985527c.7360369-.03036608 1.3573294.54169322 1.3876955 1.27773021.0015116.05498264.0015116.05498264 0 .10996528l-.0298553.72365581c-.0398707.96641685.481307 1.86912305 1.3381839 2.31780245l.6416319.3359725c.6526098.3417207.9046352 1.1477848.5629145 1.8003946-.0261823.0483722-.0261823.0483722-.0549827.0952327l-.3876833.6117767c-.5177374.8170062-.5177374 1.8593616 0 2.6763678l.3876833.6117767c.3943163.6222437.2095446 1.4463283-.412699 1.8406446-.0468606.0288004-.0468606.0288004-.0952328.0549827l-.6416319.3359725c-.8568769.4486794-1.3780546 1.3513856-1.3381839 2.3178024l.0298553.7236559c.030366.7360369-.5416933 1.3573294-1.2777303 1.3876955-.0549826.0015116-.0549826.0015116-.1099652 0l-.7236559-.0298553c-.9664168-.0398707-1.869123.481307-2.3178024 1.3381839l-.3359725.6416319c-.3417207.6526098-1.1477848.9046352-1.8003946.5629145-.0483722-.0261823-.0483722-.0261823-.0952327-.0549827zm-4.3381839-11.1809232c.8284271 0 1.5-.6715729 1.5-1.5s-.6715729-1.5-1.5-1.5-1.5.6715729-1.5 1.5.6715729 1.5 1.5 1.5zm6 5c.8284271 0 1.5-.6715729 1.5-1.5s-.6715729-1.5-1.5-1.5-1.5.6715729-1.5 1.5.6715729 1.5 1.5 1.5zm.1707477-7.6237117.3762883.3292524-.047036-.7055407zm-6.3414954 7.2474234-.3292523.3762883.7055407-.047036zm0 0-.3762883-.3292524.047036.7055407zm6.3414954-7.2474234.3292523-.3762883-.7055407.047036zm0 0-6.3414954 7.2474234z" fill="none" stroke="#212121"/></svg>