<svg height="32" viewBox="0 0 32 32" width="32" xmlns="http://www.w3.org/2000/svg"><path d="m14.2285693 10.0869023c-.1025412-.53092854-.1575015-1.09218114-.1575015-1.67268874 0-3.3137085 1.790861-6 4-6s4 2.6862915 4 6l-.5547589.83213837c-.2684437-.17931894-.4452411-.48508204-.4452411-.83213837 0-2.82667431-1.4488838-5-3-5s-3 2.17332569-3 5c0 .44094762.0352579.86599632.1006616 1.26937618l3.6541785-1.21805948c.3593347-.11977824.7555022-.02625577 1.0233345.24157652l4.2426407 4.24264072c.2677452.2677451.361301.6637512.2416846 1.02301l-1.4117967 4.2402238c-.0490789.1474049-.131828.281347-.2416846.3912035l-8.4876982 8.4876983c-1.1715729 1.1715729-3.0710679 1.1715729-4.24264073 0l-4.24264069-4.2426407c-1.17157287-1.1715729-1.17157287-3.0710678 0-4.2426407l8.48528142-8.4852814c.0117874-.0117874.0238522-.0232628.0361811-.034418zm1.5459297 1.5039494c.3175362.6274071.7222956 1.122949 1.1712901 1.4381043.3661662-.4081958.8977136-.664995 1.4892397-.664995 1.1045695 0 2 .8954305 2 2s-.8954305 2-2 2-2-.8954305-2-2c0-.1514296.0168294-.2989286.0487198-.4407285-.5982013-.3883377-1.1206933-.9894828-1.5250498-1.7397957l-7.83737846 7.8373785c-.39052429.3905243-.39052429 1.0236893 0 1.4142135l4.24264066 4.2426407c.3905243.3905243 1.0236893.3905243 1.4142136 0l8.3206453-8.3206453 1.1420007-3.4299121-3.3687757-3.3687757zm1.6608389 2.7480014c-.0002056.0083443-.0003091.016714-.0003091.0251079 0 .5522848.4477153 1 1 1 .5522848 0 1-.4477152 1-1 0-.5522847-.4477152-1-1-1-.1108452 0-.2174781.0180348-.3171246.05133.1873938.0086398.3613241.0688572.5079225.1667842l-.5547589.8321384c-.2163515 0-.4286913-.0257649-.6357299-.0753605z" fill="#212121"/></svg>