<svg height="32" viewBox="0 0 32 32" width="32" xmlns="http://www.w3.org/2000/svg"><path d="m13.820304 2.78489027-5.08222604-.67763015c-.27730959-.03697461-.55742769.04390627-.77234812.22300663l-3.65363564 3.04469636 5.8132553.97810327zm1.2649096.16865461-3.7339084 3.60579341 5.3316771.89707583 4.0701733-3.74714365zm7.9941778-.95180909c.0548523.0047472.1091361.01399309.1622712.02748716.1975898.04786377.3622425.14944972.4871568.28321222.1418461.14837121.2400837.34336536.2649803.57214638.0067661.05595318.0089013.11256259.0062003.16917772v13.11781363c0 .7956494-.3160705 1.5587112-.8786797 2.1213203l-5.4065405 5.4065405c-.0082697.0084336-.0166849.0167192-.025241.0248529-.2663778.2547081-.6082322.3228938-.9146676.2504915l-14.16710347-2.8334207c-.93484839-.1869696-1.60776773-1.0077993-1.60776773-1.9611613v-13.14318359c-.01202997-.28305994.09426169-.57410924.34146296-.78959205.00632342-.0055007.01260783-.01086204.01895719-.01614553l5.32494089-4.43745074c.64476129-.53730108 1.48511559-.7799437 2.31704436-.66901987zm-20.0793914 5.18057409v11.99788622l13 2.6v-12.41058463zm15 13.40347652 3.7071068-3.7071067c.1875364-.1875364.2928932-.4418903.2928932-.7071068v-10.85524054l-4 3.76923077zm-14-11.5857864 4 .66607666v2.00000004l-4-.6699829z" fill="#212121" transform="translate(3 4)"/></svg>