<svg height="32" viewBox="0 0 32 32" width="32" xmlns="http://www.w3.org/2000/svg"><path d="m23 11h-4v-1h4v-.17157288l-3.8284271-3.82842712h-.1715729v5h-1v-5h-9v19h14zm-14-7h11l5 5v16c0 1.1045695-.8954305 2-2 2h-14c-1.1045695 0-2-.8954305-2-2v-19c0-1.1045695.8954305-2 2-2zm2.5 9h6c.2761424 0 .5.2238576.5.5s-.2238576.5-.5.5h-6c-.2761424 0-.5-.2238576-.5-.5s.2238576-.5.5-.5zm8 0h1c.2761424 0 .5.2238576.5.5s-.2238576.5-.5.5h-1c-.2761424 0-.5-.2238576-.5-.5s.2238576-.5.5-.5zm-8 3h6c.2761424 0 .5.2238576.5.5s-.2238576.5-.5.5h-6c-.2761424 0-.5-.2238576-.5-.5s.2238576-.5.5-.5zm8 0h1c.2761424 0 .5.2238576.5.5s-.2238576.5-.5.5h-1c-.2761424 0-.5-.2238576-.5-.5s.2238576-.5.5-.5zm-8 3h6c.2761424 0 .5.2238576.5.5s-.2238576.5-.5.5h-6c-.2761424 0-.5-.2238576-.5-.5s.2238576-.5.5-.5zm8 0h1c.2761424 0 .5.2238576.5.5s-.2238576.5-.5.5h-1c-.2761424 0-.5-.2238576-.5-.5s.2238576-.5.5-.5zm-2 3h3c.2761424 0 .5.2238576.5.5s-.2238576.5-.5.5h-3c-.2761424 0-.5-.2238576-.5-.5s.2238576-.5.5-.5z" fill="#212121"/></svg>