<svg height="32" viewBox="0 0 32 32" width="32" xmlns="http://www.w3.org/2000/svg"><path d="m9 4h11l5 5v16c0 1.1045695-.8954305 2-2 2h-14c-1.1045695 0-2-.8954305-2-2v-19c0-1.1045695.8954305-2 2-2zm2.5 9c-.2761424 0-.5.2238576-.5.5s.2238576.5.5.5h6c.2761424 0 .5-.2238576.5-.5s-.2238576-.5-.5-.5zm8 0c-.2761424 0-.5.2238576-.5.5s.2238576.5.5.5h1c.2761424 0 .5-.2238576.5-.5s-.2238576-.5-.5-.5zm-8 3c-.2761424 0-.5.2238576-.5.5s.2238576.5.5.5h6c.2761424 0 .5-.2238576.5-.5s-.2238576-.5-.5-.5zm8 0c-.2761424 0-.5.2238576-.5.5s.2238576.5.5.5h1c.2761424 0 .5-.2238576.5-.5s-.2238576-.5-.5-.5zm-8 3c-.2761424 0-.5.2238576-.5.5s.2238576.5.5.5h6c.2761424 0 .5-.2238576.5-.5s-.2238576-.5-.5-.5zm8 0c-.2761424 0-.5.2238576-.5.5s.2238576.5.5.5h1c.2761424 0 .5-.2238576.5-.5s-.2238576-.5-.5-.5zm-2 3c-.2761424 0-.5.2238576-.5.5s.2238576.5.5.5h3c.2761424 0 .5-.2238576.5-.5s-.2238576-.5-.5-.5zm.5-17v6h1v-6zm1 5v1h5v-1z" fill="#212121" fill-rule="evenodd"/></svg>