
<svg width="96px" height="84px" viewBox="0 0 96 84" version="1.1" xmlns="http://www.w3.org/2000/svg" xmlns:xlink="http://www.w3.org/1999/xlink">
    <g id="Page-1" stroke="none" stroke-width="1" fill="none" fill-rule="evenodd">
        <g id="3994366---friend-group-members-people-team" transform="translate(0.000000, -1.000000)" fill="#434343" fill-rule="nonzero">
            <path d="M80.8806,53.106 C84.5517072,47.7316807 85.0297152,40.7923501 82.1301934,34.9654205 C79.2306716,29.1384908 73.4069357,25.334953 66.9059662,25.0223316 C60.4049968,24.7097103 54.2431652,27.9368811 50.7979,33.4587 C49.0108394,31.7713351 47.0235701,30.3095219 44.8806,29.106 C49.9848621,21.6062289 48.7102666,11.480028 41.9066591,5.47911288 C35.1030515,-0.521802203 24.8969485,-0.521802203 18.0933409,5.47911288 C11.2897334,11.480028 10.0151379,21.6062289 15.1194,29.106 C5.80247214,34.4032151 0.0339894014,44.2825153 6.27329351e-15,55 C-0.000902660256,56.5915755 0.630948509,58.1182235 1.75636251,59.2436375 C2.88177651,60.3690515 4.40842451,61.0009027 6,61 L42.1494,61 C38.1828074,66.1641869 36.0222783,72.4883039 36,79 C35.9990973,80.5915755 36.6309485,82.1182235 37.7563625,83.2436375 C38.8817765,84.3690515 40.4084245,85.0009027 42,85 L90,85 C91.5915755,85.0009027 93.1182235,84.3690515 94.2436375,83.2436375 C95.3690515,82.1182235 96.0009027,80.5915755 96,79 C95.9660106,68.2825153 90.1975279,58.4032151 80.8806,53.106 Z M66,37 C69.3137085,37 72,39.6862915 72,43 C72,46.3137085 69.3137085,49 66,49 C62.6862915,49 60,46.3137085 60,43 C60.0063829,39.688939 62.688939,37.0063829 66,37 Z M24,19 C24,15.6862915 26.6862915,13 30,13 C33.3137085,13 36,15.6862915 36,19 C36,22.3137085 33.3137085,25 30,25 C26.688939,24.9936171 24.0063829,22.311061 24,19 Z M30,37 C37.625715,37.0061915 44.4217616,41.8122213 46.9688,49 L13.0313,49 C15.5782761,41.812218 22.3743027,37.006174 30,37 Z M49.0313,73 C51.5730995,65.8082693 58.3723548,60.9999269 66.00005,60.9999269 C73.6277452,60.9999269 80.4270005,65.8082693 82.9688,73 L49.0313,73 Z" id="Shape"></path>
        </g>
    </g>
</svg>