
<svg width="96px" height="72px" viewBox="0 0 96 72" version="1.1" xmlns="http://www.w3.org/2000/svg" xmlns:xlink="http://www.w3.org/1999/xlink">
    <g id="Page-1" stroke="none" stroke-width="1" fill="none" fill-rule="evenodd">
        <g id="3994371---eye-hidden-hide-invisible-private" transform="translate(0.000000, -1.000000)" fill="#434343">
            <path d="M82.24,11.2438 C83.7655519,9.73034046 84.3650505,7.51648852 83.811622,5.44005282 C83.2581934,3.36361712 81.6363829,1.74180656 79.5599472,1.18837803 C77.4835115,0.634949508 75.2696595,1.23444811 73.7562,2.76 L69.455,7.0612 C62.9971059,3.10579703 55.5729492,1.00917782 48,1.0022 C25.8412,1.0022 12.3186,16.7044 1.0107,33.6722 C-0.336896115,35.6861647 -0.336896115,38.3140353 1.0107,40.328 C5.5322962,47.3602261 10.8363095,53.8573531 16.8212,59.695 L13.76,62.7562 C12.2344481,64.2696595 11.6349495,66.4835115 12.188378,68.5599472 C12.7418066,70.6363829 14.3636171,72.2581934 16.4400528,72.811622 C18.5164885,73.3650505 20.7303405,72.7655519 22.2438,71.24 L82.24,11.2438 Z M13.2677,37 C25.3256,19.7921 35.2742,13.0015 48,13.0015 C52.3831597,12.9912354 56.7129795,13.9627079 60.6716,15.8446 L51.0789,25.4372 C50.078015,25.1486556 49.0416466,25.0017282 48,25.0007 C41.3756886,25.0072597 36.0072597,30.3756886 36.0007,37 C36.0017847,38.0416426 36.148711,39.0780031 36.4372,40.0789 L25.3014,51.2147 C20.7987187,46.915403 16.7649067,42.1504989 13.2677,37 Z" id="Shape" fill-rule="nonzero"></path>
            <path d="M94.9893,33.6721 C92.5659,30.0358 90.0084,26.497 87.3184,23.1193 L78.7723,31.6654 C80.073,33.3323 81.3854,35.0782 82.7323,37 C71.1761,53.4924 61.5307,60.3423 49.5475,60.89 L38.5714,71.8663 C41.6621977,72.5941173 44.8247575,72.9736473 48,72.9978 C70.1588,72.9978 83.6814,57.2956 94.9893,40.3278 C96.3368515,38.3138581 96.3368515,35.6860419 94.9893,33.6721 Z" id="Path"></path>
        </g>
    </g>
</svg>