<svg xmlns="http://www.w3.org/2000/svg" width="32" height="32" viewBox="0 0 32 32">
  <path fill="#212121" d="M12.9363196,23 L12,23 L12,16 L13,16 L13,22.983031 C13.1294052,22.9985953 13.3490476,23.0043119 13.7339988,23.0013368 C13.8630853,23.0003434 13.9234177,23 14,23 L21.435,23 C22.1966008,23 22.8915138,22.5679365 23.2279627,21.8850451 C23.4760062,21.3815904 23.7663457,18.950371 24,15 C24,14.4482847 23.5517153,14 23,14 L20.6049876,14 C19.5004181,14 18.6049876,13.1045695 18.6049876,12 C18.6049876,11.9335405 18.6083002,11.8671223 18.6149132,11.8009926 L19,8 L18.4755262,8.00000351 C18.065408,8.00000351 17.6968656,8.25041506 17.5458208,8.63170562 C16.744202,10.6552753 15.2507556,12.2097574 13.1093307,13.2718628 C13.1129732,13.2700562 13,13.6788926 13,14.259 L13,16 L9,16 L9,23 L12.9363196,23 Z M12.2206693,11.4801372 C13.9321944,10.6312537 15.0728228,9.44400901 15.6864034,7.89511427 C16.1395388,6.75123993 17.2451685,6.00000351 18.4755196,6.00000351 L19,6 C20.1050942,6 21,6.8955243 20.9950372,8.09950372 L20.6049876,12 L23,12 C24.6562847,12 26,13.3437153 25.9982809,15.0586106 C25.740321,19.4522957 25.4473271,21.9057429 25.0220373,22.7689549 C24.3488323,24.1353611 22.9581829,25 21.435,25 L14,25 C13.9301788,25 13.8756851,25.0003101 13.7494551,25.0012771 C13.4398872,25.0036696 13.2001838,25.0024199 13,24.9918546 L13,25 L7,25 L7,14 L11.0038068,14 C11.0397953,12.8147199 11.3385484,11.9176521 12.2206693,11.4801372 Z"/>
</svg>
