<svg xmlns="http://www.w3.org/2000/svg" width="32" height="32" viewBox="0 0 32 32">
  <g fill="none" fill-rule="evenodd" transform="translate(-225 -406)">
    <path fill="#212121" fill-rule="nonzero" d="M13,16.9625881 L13,19.2 C13,19.6418278 12.5522847,20 12,20 C11.4477153,20 11,19.6418278 11,19.2 L11,12.8 C11,12.3581722 11.4477153,12 12,12 C12.5522847,12 13,12.3581722 13,12.8 L13,15.1507533 L18.8813734,12.0898964 C18.9945502,12.0309956 19.1227928,12 19.2533153,12 C19.6656979,12 20,12.3028569 20,12.6764499 L20,19.3234258 C20,19.4379702 19.9678933,19.5506388 19.9066898,19.6508691 C19.7070714,19.9777756 19.2527229,20.0961844 18.8918741,19.9153425 L13,16.9625881 Z" transform="translate(225 406)"/>
  </g>
</svg>
