<svg xmlns="http://www.w3.org/2000/svg" width="32" height="32" viewBox="0 0 32 32">
  <g fill="none" fill-rule="evenodd" transform="translate(-145 -617)">
    <path fill="#212121" d="M22.1340081,21.9910984 C22.090174,21.9969691 22.045441,22 22,22 L6,22 C5.95451049,22 5.90973039,21.9969626 5.86585145,21.9910796 L12.0252571,16.7309504 C12.2696653,16.9210457 12.5186192,17.1146765 12.7721188,17.3118429 C13.4943397,17.8735703 14.5056603,17.8735703 15.2278812,17.3118429 C15.4812118,17.114808 15.7299695,16.9213297 15.9741544,16.7314082 L22.1340081,21.9910984 Z M22.9336495,21.3589398 L16.7800565,16.1045954 C19.3364082,14.1163219 21.3465735,12.55286 22.8105524,11.4142097 C22.92974,11.5788415 23,11.7812157 23,12 L23,14 L21,14 L21,19 L23,19 L23,21 C23,21.1265081 22.9765084,21.2475295 22.9336495,21.3589398 Z M5.06631611,21.3588503 C5.02347901,21.2474646 5,21.1264742 5,21 L5,12 C5,11.7812157 5.07025998,11.5788415 5.18944764,11.4142097 C6.6613676,12.5590364 8.67134093,14.122349 11.2193676,16.1041475 L5.06631611,21.3588503 Z M21.371178,11 L14,16.7331384 L6.62882204,11 L21.371178,11 Z M25,13 L24,13 L24,11 C24,10.4477153 23.5522847,10 23,10 L5,10 C4.44771525,10 4,10.4477153 4,11 L4,22 C4,22.5522847 4.44771525,23 5,23 L23,23 C23.5522847,23 24,22.5522847 24,22 L24,20 L25,20 L25,22 C25,23.1045695 24.1045695,24 23,24 L5,24 C3.8954305,24 3,23.1045695 3,22 L3,11 C3,9.8954305 3.8954305,9 5,9 L23,9 C24.1045695,9 25,9.8954305 25,11 L25,13 Z M26,15 L26,13 L30,16.5 L26,20 L26,18 L22,18 L22,15 L26,15 Z" transform="translate(145 617)"/>
  </g>
</svg>
