<svg xmlns="http://www.w3.org/2000/svg" width="32" height="32" viewBox="0 0 32 32">
  <g fill="none" fill-rule="evenodd" transform="translate(-225 -169)">
    <path fill="#212121" fill-rule="nonzero" d="M14,12 C13.4477153,12 13,12.3581722 13,12.8 L13,19.2 C13,19.6418278 13.4477153,20 14,20 C14.5522847,20 15,19.6418278 15,19.2 L15,12.8 C15,12.3581722 14.5522847,12 14,12 Z M14,10 C15.5710342,10 17,11.1431726 17,12.8 L17,19.2 C17,20.8568274 15.5710342,22 14,22 C12.4289658,22 11,20.8568274 11,19.2 L11,12.8 C11,11.1431726 12.4289658,10 14,10 Z M18,12 C17.4477153,12 17,12.3581722 17,12.8 L17,19.2 C17,19.6418278 17.4477153,20 18,20 C18.5522847,20 19,19.6418278 19,19.2 L19,12.8 C19,12.3581722 18.5522847,12 18,12 Z M18,10 C19.5710342,10 21,11.1431726 21,12.8 L21,19.2 C21,20.8568274 19.5710342,22 18,22 C16.4289658,22 15,20.8568274 15,19.2 L15,12.8 C15,11.1431726 16.4289658,10 18,10 Z" transform="translate(225 169)"/>
  </g>
</svg>
