<svg xmlns="http://www.w3.org/2000/svg" width="32" height="32" viewBox="0 0 32 32">
  <path fill="#212121" fill-rule="evenodd" d="M7,4 L25,4 C26.1045695,4 27,4.8954305 27,6 L27,26 C27,27.1045695 26.1045695,28 25,28 L7,28 C5.8954305,28 5,27.1045695 5,26 L5,6 C5,4.8954305 5.8954305,4 7,4 Z M8,6 C7.44771525,6 7,6.44771525 7,7 C7,7.55228475 7.44771525,8 8,8 L24,8 C24.5522847,8 25,7.55228475 25,7 C25,6.44771525 24.5522847,6 24,6 L8,6 Z M8,24 C7.44771525,24 7,24.4477153 7,25 C7,25.5522847 7.44771525,26 8,26 L24,26 C24.5522847,26 25,25.5522847 25,25 C25,24.4477153 24.5522847,24 24,24 L8,24 Z M17,19 L17,13 L19,13 L16,9 L13,13 L15,13 L15,19 L13,19 L16,23 L19,19 L17,19 Z"/>
</svg>
