<svg xmlns="http://www.w3.org/2000/svg" width="32" height="32" viewBox="0 0 32 32">
  <path fill="#212121" d="M17.0108643,15.3105267 L26.0217285,11.019639 L26.0217285,21.980361 L17.0108643,17.6894733 L17.0108643,15.3105267 Z M16.0108643,15.3208736 L16.0108643,17.6791264 L7,21.9700141 L7,11.0299859 L16.0108643,15.3208736 Z M17.0108643,26.6547716 L17.0108643,18.7970641 L25.2657233,22.7279494 L17.0108643,26.6547716 Z M16.0108643,26.6547716 L7.74513531,22.7227786 L16.0108643,18.7867172 L16.0108643,26.6547716 Z M16.0108643,6.35647476 L16.0108643,14.2132828 L7.80242917,10.3045042 L16.0108643,6.35647476 Z M17.0108643,6.38665926 L25.2039279,10.301477 L17.0108643,14.2029359 L17.0108643,6.38665926 Z M29.0217285,8.80082399 L29.0217285,24.263362 L16.5108643,30.2147585 L4,24.263362 L4,8.80440199 L16.4734768,2.80500587 L29.0217285,8.80082399 Z M16.4763184,5.02294922 L6,10.0617676 L6,23 L16.5108643,28 L27.0217285,23 L27.0217285,10.0617676 L16.4763184,5.02294922 Z"/>
</svg>
