<svg xmlns="http://www.w3.org/2000/svg" width="32" height="32" viewBox="0 0 32 32">
  <path fill="#212121" fill-rule="evenodd" d="M13.086244,18.2186519 C12.2644381,19.3010385 10.9638446,20 9.5,20 C7.01471863,20 5,17.9852814 5,15.5 C5,13.0147186 7.01471863,11 9.5,11 C10.9638446,11 12.2644381,11.6989615 13.086244,12.7813481 L17.071781,10.3049034 C17.0246224,10.0437439 17,9.77474741 17,9.5 C17,7.01471863 19.0147186,5 21.5,5 C23.9852814,5 26,7.01471863 26,9.5 C26,11.9852814 23.9852814,14 21.5,14 C19.920591,14 18.5312266,13.1863221 17.7282289,11.9552885 L13.8548713,14.3620297 C13.9495864,14.7255037 14,15.1068645 14,15.5 C14,15.8931355 13.9495864,16.2744963 13.8548713,16.6379703 L17.7282289,19.0447115 C18.5312266,17.8136779 19.920591,17 21.5,17 C23.9852814,17 26,19.0147186 26,21.5 C26,23.9852814 23.9852814,26 21.5,26 C19.0147186,26 17,23.9852814 17,21.5 C17,21.2252526 17.0246224,20.9562561 17.071781,20.6950966 L13.086244,18.2186519 Z"/>
</svg>
