<svg xmlns="http://www.w3.org/2000/svg" width="32" height="32" viewBox="0 0 32 32">
  <path fill="none" stroke="#212121" stroke-width="2" d="M7,21 L11,21 C12.1045695,21 13,21.8954305 13,23 C13,24.1045695 12.1045695,25 11,25 L7,25 C5.8954305,25 5,24.1045695 5,23 C5,21.8954305 5.8954305,21 7,21 Z M14,21 L18,21 C19.1045695,21 20,21.8954305 20,23 C20,24.1045695 19.1045695,25 18,25 L14,25 C12.8954305,25 12,24.1045695 12,23 C12,21.8954305 12.8954305,21 14,21 Z M14,17 L18,17 C19.1045695,17 20,17.8954305 20,19 C20,20.1045695 19.1045695,21 18,21 L14,21 C12.8954305,21 12,20.1045695 12,19 C12,17.8954305 12.8954305,17 14,17 Z M21,21 L25,21 C26.1045695,21 27,21.8954305 27,23 C27,24.1045695 26.1045695,25 25,25 L21,25 C19.8954305,25 19,24.1045695 19,23 C19,21.8954305 19.8954305,21 21,21 Z M7,17 L11,17 C12.1045695,17 13,17.8954305 13,19 C13,20.1045695 12.1045695,21 11,21 L7,21 C5.8954305,21 5,20.1045695 5,19 C5,17.8954305 5.8954305,17 7,17 Z M7,13 L11,13 C12.1045695,13 13,13.8954305 13,15 C13,16.1045695 12.1045695,17 11,17 L7,17 C5.8954305,17 5,16.1045695 5,15 C5,13.8954305 5.8954305,13 7,13 Z M7,9 L11,9 C12.1045695,9 13,9.8954305 13,11 C13,12.1045695 12.1045695,13 11,13 L7,13 C5.8954305,13 5,12.1045695 5,11 C5,9.8954305 5.8954305,9 7,9 Z"/>
</svg>
