<svg xmlns="http://www.w3.org/2000/svg" width="32" height="32" viewBox="0 0 32 32">
  <g fill="none" fill-rule="evenodd" transform="translate(-225 -346)">
    <path fill="#212121" fill-rule="nonzero" d="M19,15.1507533 L13.1186266,12.0898964 C13.0054498,12.0309956 12.8772072,12 12.7466847,12 C12.3343021,12 12,12.3028569 12,12.6764499 L12,19.3234258 C12,19.4379702 12.0321067,19.5506388 12.0933102,19.6508691 C12.2929286,19.9777756 12.7472771,20.0961844 13.1081259,19.9153425 L19,16.9625881 L19,19.2 C19,19.6418278 19.4477153,20 20,20 C20.5522847,20 21,19.6418278 21,19.2 L21,12.8 C21,12.3581722 20.5522847,12 20,12 C19.4477153,12 19,12.3581722 19,12.8 L19,15.1507533 Z M20,10 C21.5710342,10 23,11.1431726 23,12.8 L23,19.2 C23,20.8568274 21.5710342,22 20,22 C18.7412502,22 17.5737027,21.2661297 17.1592767,20.1221835 L14.0042078,21.7033685 C12.7319273,22.3409809 11.1391033,21.9258715 10.3863801,20.6931693 C10.1347623,20.2811056 10,19.808199 10,19.3234258 L10,12.6764499 C10,11.1518003 11.2713901,10 12.7466847,10 C13.1967699,10 13.641901,10.1075859 14.0419358,10.3157769 L17.1413882,11.9288321 C17.5391928,10.7557347 18.7226367,10 20,10 Z" transform="translate(225 346)"/>
  </g>
</svg>
