<svg xmlns="http://www.w3.org/2000/svg" width="32" height="32" viewBox="0 0 32 32">
  <g fill="none" fill-rule="evenodd" transform="translate(-225 -81)">
    <path fill="#212121" fill-rule="nonzero" d="M14.1081259,19.9153425 L20.6146304,16.6545618 C20.7338607,16.5948086 20.8327701,16.506638 20.9006436,16.3996014 C21.1060614,16.0756569 20.9827102,15.6621875 20.625131,15.4760917 L14.1186266,12.0898964 C14.0054498,12.0309956 13.8772072,12 13.7466847,12 C13.3343021,12 13,12.3028569 13,12.6764499 L13,19.3234258 C13,19.4379702 13.0321067,19.5506388 13.0933102,19.6508691 C13.2929286,19.9777756 13.7472771,20.0961844 14.1081259,19.9153425 Z M15.0042078,21.7033685 C13.7319273,22.3409809 12.1391033,21.9258715 11.3863801,20.6931693 C11.1347623,20.2811056 11,19.808199 11,19.3234258 L11,12.6764499 C11,11.1518003 12.2713901,10 13.7466847,10 C14.1967699,10 14.641901,10.1075859 15.0419358,10.3157769 L21.5484402,13.7019722 C22.9239334,14.4178233 23.4363552,16.1354458 22.5896852,17.4706468 C22.3247653,17.8884263 21.950172,18.2223495 21.5107122,18.4425879 L15.0042078,21.7033685 Z" transform="translate(225 81)"/>
  </g>
</svg>
