<svg xmlns="http://www.w3.org/2000/svg" width="32" height="32" viewBox="0 0 32 32">
  <g fill="none" fill-rule="evenodd" transform="translate(-185 -346)">
    <path fill="#212121" fill-rule="nonzero" d="M19,15.1507533 L13.1186266,12.0898964 C13.0054498,12.0309956 12.8772072,12 12.7466847,12 C12.3343021,12 12,12.3028569 12,12.6764499 L12,19.3234258 C12,19.4379702 12.0321067,19.5506388 12.0933102,19.6508691 C12.2929286,19.9777756 12.7472771,20.0961844 13.1081259,19.9153425 L19,16.9625881 L19,19.2 C19,19.6418278 19.4477153,20 20,20 C20.5522847,20 21,19.6418278 21,19.2 L21,12.8 C21,12.3581722 20.5522847,12 20,12 C19.4477153,12 19,12.3581722 19,12.8 L19,15.1507533 Z M4,4 L28,4 L28,28 L4,28 L4,4 Z" transform="translate(185 346)"/>
  </g>
</svg>
