<svg xmlns="http://www.w3.org/2000/svg" width="32" height="32" viewBox="0 0 32 32">
  <path fill="none" stroke="#212121" stroke-width="2" d="M7,21 L11,21 C12.1045695,21 13,21.8954305 13,23 C13,24.1045695 12.1045695,25 11,25 L7,25 C5.8954305,25 5,24.1045695 5,23 C5,21.8954305 5.8954305,21 7,21 Z M14,21 L18,21 C19.1045695,21 20,21.8954305 20,23 C20,24.1045695 19.1045695,25 18,25 L14,25 C12.8954305,25 12,24.1045695 12,23 C12,21.8954305 12.8954305,21 14,21 Z M14,17 L18,17 C19.1045695,17 20,17.8954305 20,19 C20,20.1045695 19.1045695,21 18,21 L14,21 C12.8954305,21 12,20.1045695 12,19 C12,17.8954305 12.8954305,17 14,17 Z M21,21 L25,21 C26.1045695,21 27,21.8954305 27,23 C27,24.1045695 26.1045695,25 25,25 L21,25 C19.8954305,25 19,24.1045695 19,23 C19,21.8954305 19.8954305,21 21,21 Z M21,17 L25,17 C26.1045695,17 27,17.8954305 27,19 C27,20.1045695 26.1045695,21 25,21 L21,21 C19.8954305,21 19,20.1045695 19,19 C19,17.8954305 19.8954305,17 21,17 Z M21,13 L25,13 C26.1045695,13 27,13.8954305 27,15 C27,16.1045695 26.1045695,17 25,17 L21,17 C19.8954305,17 19,16.1045695 19,15 C19,13.8954305 19.8954305,13 21,13 Z M21,9 L25,9 C26.1045695,9 27,9.8954305 27,11 C27,12.1045695 26.1045695,13 25,13 L21,13 C19.8954305,13 19,12.1045695 19,11 C19,9.8954305 19.8954305,9 21,9 Z"/>
</svg>
