<svg xmlns="http://www.w3.org/2000/svg" width="32" height="32" viewBox="0 0 32 32">
  <path fill="#212121" d="M12.9363196,10.0023068 L9,10.0023068 L9,17.0023068 L13,17.0023068 L13,18.7433068 C13,19.3234142 13.1129732,19.7322506 13.1093307,19.730444 C15.2507556,20.7925495 16.744202,22.3470315 17.5458208,24.3706012 C17.6968656,24.7518917 18.065408,25.0023033 18.4755262,25.0023033 L19,25.0023068 L18.6149132,21.2013142 C18.6083002,21.1351846 18.6049876,21.0687663 18.6049876,21.0023068 C18.6049876,19.8977373 19.5004181,19.0023068 20.6049876,19.0023068 L23,19.0023068 C23.5517153,19.0023068 24,18.5540221 24,18.0023068 C23.7663457,14.0519359 23.4760062,11.6207164 23.2279627,11.1172617 C22.8915138,10.4343703 22.1966008,10.0023068 21.435,10.0023068 L14,10.0023068 C13.9234177,10.0023068 13.8630853,10.0019635 13.7339988,10.00097 C13.3490476,9.99799493 13.1294052,10.0037115 13,10.0192758 L13,17.0023068 L12,17.0023068 L12,10.0023068 L12.9363196,10.0023068 L12.9363196,10.0023068 Z M12.2206693,21.5221697 C11.3385484,21.0846547 11.0397953,20.1875869 11.0038068,19.0023068 L7,19.0023068 L7,8.00230681 L13,8.00230681 L13,8.01045221 C13.2001838,7.99988691 13.4398872,7.99863725 13.7494551,8.00102971 C13.8756851,8.00199668 13.9301788,8.00230681 14,8.00230681 L21.435,8.00230681 C22.9581829,8.00230681 24.3488323,8.86694574 25.0220373,10.2333519 C25.4473271,11.0965639 25.740321,13.5500111 25.9982809,17.9436962 C26,19.6585916 24.6562847,21.0023068 23,21.0023068 L20.6049876,21.0023068 L20.9950372,24.9028031 C21,26.1067825 20.1050942,27.0023068 19,27.0023068 L18.4755196,27.0023033 C17.2451685,27.0023033 16.1395388,26.2510669 15.6864034,25.1071925 C15.0728228,23.5582978 13.9321944,22.3710531 12.2206693,21.5221697 Z"/>
</svg>
