<!--?xml version="1.0" encoding="UTF-8" standalone="no"?-->
<svg viewBox="0 0 16 16" version="1.1" xmlns="http://www.w3.org/2000/svg" xmlns:xlink="http://www.w3.org/1999/xlink" class="si-glyph si-glyph-dice-1">
    <!-- Generator: Sketch 3.0.3 (7891) - http://www.bohemiancoding.com/sketch -->
    <title>1172</title>
    
    <defs></defs>
    <g stroke="none" stroke-width="0" fill="none" fill-rule="evenodd">
        <path d="M0,0 L2.135,0 C0.945,0 0,0.966 0,2.155 L0,13.845 C0,15.034 0.945,15.999 2.135,15.999 L13.72,15.999 C14.901,15.999 15.856,15.034 15.856,13.845 L15.856,2.155 C15.855,0.966 14.9,0 13.72,0 L13.72,0 Z M7.974,11.155 C6.278,11.155 4.905,9.749 4.905,8.015 C4.905,6.281 6.278,4.875 7.974,4.875 C9.668,4.875 11.043,6.281 11.043,8.015 C11.043,9.749 9.668,11.155 7.974,11.155 L7.974,11.155 Z" fill="#434343" class="si-glyph-fill"></path>
    </g>
</svg>