<svg height="32" viewBox="0 0 32 32" width="32" xmlns="http://www.w3.org/2000/svg"><path d="m16 24c-.5522847 0-1 .4477153-1 1v1c0 .5522847.4477153 1 1 1h1c.5522847 0 1-.4477153 1-1v-1c0-.5522847-.4477153-1-1-1zm0-2h1c1.6568542 0 3 1.3431458 3 3v1c0 1.6568542-1.3431458 3-3 3h-1c-1.6568542 0-3-1.3431458-3-3v-1c0-1.6568542 1.3431458-3 3-3zm-8 2c-.55228475 0-1 .4477153-1 1v1c0 .5522847.44771525 1 1 1h1c.55228475 0 1-.4477153 1-1v-1c0-.5522847-.44771525-1-1-1zm0-2h1c1.6568542 0 3 1.3431458 3 3v1c0 1.6568542-1.3431458 3-3 3h-1c-1.65685425 0-3-1.3431458-3-3v-1c0-1.6568542 1.34314575-3 3-3zm16 2c-.5522847 0-1 .4477153-1 1v1c0 .5522847.4477153 1 1 1h1c.5522847 0 1-.4477153 1-1v-1c0-.5522847-.4477153-1-1-1zm-3.9541476-14.06152835c1.2024232 1.13137215 1.9541476 2.31322375 1.9541476 4.06152835v2h-5v2h5c1.6568542 0 3 1.3431458 3 3v1c1.6568542 0 3 1.3431458 3 3v1c0 1.6568542-1.3431458 3-3 3h-1c-1.6568542 0-3-1.3431458-3-3v-1c0-1.6568542 1.3431458-3 3-3v-1c0-1.1045695-.8954305-2-2-2h-5v5h-1v-5h-5c-1.1045695 0-2 .8954305-2 2v3h-1v-3c0-1.6568542 1.34314575-3 3-3h5v-2h-6v-2c0-1.7483046.7517244-2.9301562 1.9541476-4.06152835-.6001314-.82487162-.9541476-1.84032918-.9541476-2.93847165 0-2.76142375 2.2385763-5 5-5s5 2.23857625 5 5c0 1.09814247-.3540162 2.11360003-.9541476 2.93847165zm-6.5724526 1.37712035c-.6633059.7449105-1.1532657 1.7164085-1.3620818 2.684408h7.777364c-.2088161-.9679995-.6987759-1.9394975-1.3620818-2.684408-.3707078.2175029-.7719296.3886053-1.1956898.5053318-.4365856.1188022-.8792631.1790762-1.3309104.1790762s-.8943248-.060274-1.3185728-.1759664c-.4360978-.1198363-.8373196-.2909387-1.2080274-.5084416zm2.5266002-1.315592c1.6568542 0 3-1.34314575 3-3s-1.3431458-3-3-3-3 1.34314575-3 3 1.3431458 3 3 3z" fill="#212121"/></svg>