<svg height="32" viewBox="0 0 32 32" width="32" xmlns="http://www.w3.org/2000/svg"><path d="m25.8739825 23c-.4440428 1.7252272-2.0101431 3-3.8739825 3s-3.4299397-1.2747728-3.8739825-3h-6.252035c-.4440428 1.7252272-2.01014307 3-3.8739825 3-1.91377694 0-3.51364647-1.3439974-3.90724171-3.1396253-1.21339074-.3845081-2.09275829-1.5197477-2.09275829-2.8603747v-4c0-.2049776.03083604-.4027531.08812233-.5889406-.09896303-.2182585-.12110564-.4743871-.03680563-.7272872l1.77207592-5.31622773c.2722281-.81668428 1.03650578-1.36754447 1.8973666-1.36754447h9.40574098c1.4838992 0 2.8911373.65911505 3.8411064 1.799078l3.5007683 4.200922h3.0316251c2.4852814 0 4.5 2.0147186 4.5 4.5v1.5c0 1.6568542-1.3431458 3-3 3zm0-2h1.1260175c.5522847 0 1-.4477153 1-1v-1.5c0-1.3807119-1.1192881-2.5-2.5-2.5h-4.5-1v-1l-.1279907-1h-5.344963l.3333333 1h5.1396204v1h-16v-.4891357.7391357.25 3.5c0 .2456183.08855178.4705543.23547169.6446242.55529041-1.5420649 2.0311511-2.6446242 3.76452831-2.6446242 1.86383943 0 3.4299397 1.2747728 3.8739825 3h6.252035c.4440428-1.7252272 2.0101431-3 3.8739825-3s3.4299397 1.2747728 3.8739825 3zm-12.4010288-7h-4.4729537v1h4.8062871zm0 0-1.3333333-4h-3.1396204v4zm1.0540926 0h5.3379121l-2.4337943-2.9205532c-.5699815-.6839778-1.4143244-1.0794468-2.3046639-1.0794468h-1.9327873zm-6.5270463 0h-3.61157227l-.38016726 1h3.99173953zm0 0v-4h-2.27924078l-1.33333333 4zm0 10c1.1045695 0 2-.8954305 2-2s-.8954305-2-2-2-2 .8954305-2 2 .8954305 2 2 2zm14 0c1.1045695 0 2-.8954305 2-2s-.8954305-2-2-2-2 .8954305-2 2 .8954305 2 2 2z" fill="#212121"/></svg>