<svg height="32" viewBox="0 0 32 32" width="32" xmlns="http://www.w3.org/2000/svg"><path d="m26.8686937 22h-11.3008303l.2965228-2.6687054c.0122232-.1100085.0183488-.2206091.0183488-.3312946 0-.7683544-.2888536-1.4692435-.7638935-2h.9311676c.1988412-.9795652.9704257-1.7511497 1.9499909-1.9499909v-1.0145647c-1.5070462.2155661-2.7043947 1.3911776-2.9526438 2.8874329-.0156051-.0162583-.0313916-.0323411-.0473562-.0482453v-1.874632c0-.5140436-.1292869-.9978906-.3571176-1.420798.9926757-.9766527 2.3545302-1.579202 3.8571176-1.579202 3.0375661 0 5.5 2.4624339 5.5 5.5 0 1.8601578-.9234484 3.5046326-2.3369209 4.5h2.8374702c.9415335-1.2534908 1.4994507-2.8115911 1.4994507-4.5 0-4.1421356-3.3578644-7.5-7.5-7.5-1.6884089 0-3.2465092.5579172-4.5 1.4994507v-2.36814399c1.3393981-.72173395 2.8718686-1.13130671 4.5-1.13130671 5.2467051 0 9.5 4.2532949 9.5 9.5 0 1.6281314-.4095728 3.1606019-1.1313067 4.5zm1.1313063.8241896c.2402388.3300242.381966.7363662.381966 1.1758104 0 .3104902-.0722902.6167163-.2111456.8944272l-1 2c-.338784.677568-1.0313103 1.1055728-1.7888544 1.1055728h-10.4807693l.5555556-5h12.5432477zm-22-7.8241896h8v2.3409245c.5325393.3593311.882735.968307.882735 1.6590755 0 .0737903-.0040838.1475241-.0122325.2208631l-.9754597 8.7791369h-7.79008559l-.97545966-8.7791369c-.08502712-.7652441.27359209-1.4775371.87050245-1.8801853zm4-10c.8867215-.59114766 2.0847711-.35153773 2.6759188.53518376.2113173.31697594.3240812.68940985.3240812 1.07036752v7.39444872h-6v-4.85926497c0-1.33741275.66840454-2.58633806 1.78119922-3.32820117z" fill="#212121"/></svg>