<svg height="32" viewBox="0 0 32 32" width="32" xmlns="http://www.w3.org/2000/svg"><path d="m13 9.75310415c1.5521303-1.10394427 3.4502554-1.75310415 5.5-1.75310415 5.2467051 0 9.5 4.2532949 9.5 9.5 0 1.6495298-.4204095 3.2008676-1.1599253 4.5527105.8837892.2071119 1.5418913 1.0003467 1.5418913 1.9472895 0 .3104902-.0722902.6167163-.2111456.8944272l-1 2c-.338784.677568-1.0313103 1.1055728-1.7888544 1.1055728h-12.6254276-6.65158119l-.97545966-8.7791369c-.08502712-.7652441.27359209-1.4775371.87050245-1.8801853v-2.3406778c0-.7402824.40219863-1.3866262 1-1.7324356v-4.12682937c0-1.33741275.66840454-2.58633806 1.78119922-3.32820117l1.21880078-.81253386c.8867215-.59114766 2.0847711-.35153773 2.6759188.53518376.2113173.31697594.3240812.68940985.3240812 1.07036752zm0 2.64782735v.8666329c.4434674.256532.7792921.6784519.9231336 1.1814193.9862398-1.4765291 2.6679886-2.4489837 4.5768664-2.4489837 3.0375661 0 5.5 2.4624339 5.5 5.5 0 1.8601578-.9234484 3.5046326-2.3369209 4.5h2.8374702c.9415335-1.2534908 1.4994507-2.8115911 1.4994507-4.5 0-4.1421356-3.3578644-7.5-7.5-7.5-2.1730542 0-4.130255.924178-5.5 2.4009315zm1.6277282 9.0048994-.0660187.5941691h.7752114c-.252914-.178102-.4901392-.376986-.7091927-.5941691zm.1525103-1.3725923c.8101532 1.1873153 2.1739327 1.9667614 3.7197615 1.9667614 2.4852814 0 4.5-2.0147186 4.5-4.5s-2.0147186-4.5-4.5-4.5c-2.4326477 0-4.414453 1.9302863-4.4973038 4.3427469.5310248.3595656.8800388.967651.8800388 1.6572531 0 .0737903-.0040838.1475241-.0122325.2208631zm-.4407513 3.9667614-.2222222 2h11.264701l1-2zm.6959572-7c.2192564-1.5328456 1.43171-2.7452992 2.9645556-2.9645556v1.0145647c-.9795652.1988412-1.7511497.9704257-1.9499909 1.9499909zm-2.1527094 2h-5.76546998l.77777777 7h4.20991441zm-.882735-4h-4v2h4zm-4-2h4v-6.39444872c0-.18353268-.0543259-.36295891-.1561315-.51566733-.2847952-.42719279-.8619755-.54262885-1.2891683-.25783366l-1.21880079.81253386c-.834596.55639734-1.33589941 1.49309132-1.33589941 2.49615088z" fill="#212121"/></svg>