<svg height="32" viewBox="0 0 32 32" width="32" xmlns="http://www.w3.org/2000/svg"><path d="m7 23h.5c.82842712 0 1.5-.6715729 1.5-1.5s-.67157288-1.5-1.5-1.5h-.25.25c.82842712 0 1.5-.6715729 1.5-1.5s-.67157288-1.5-1.5-1.5h-.25.25c.82842712 0 1.5-.6715729 1.5-1.5s-.67157288-1.5-1.5-1.5h-.25.25c.82842712 0 1.5-.6715729 1.5-1.5s-.67157288-1.5-1.5-1.5h-.25.25c.82842712 0 1.5-.6715729 1.5-1.5 0-.82842712-.67157288-1.5-1.5-1.5h-.5v-1c0-1.1045695.8954305-2 2-2h13c1.1045695 0 2 .8954305 2 2v17c0 1.1045695-.8954305 2-2 2h-13c-1.1045695 0-2-.8954305-2-2zm6-14v1h7v-1zm0 2v1h6v-1zm0 2v1h6v-1zm0 2v1h7v-1zm0 2v1h7v-1zm0 2v1h4v-1zm0 2v1h5v-1zm-7.7-12h2.4c.16568542 0 .3.22385763.3.5s-.13431458.5-.3.5h-2.4c-.16568542 0-.3-.22385763-.3-.5s.13431458-.5.3-.5zm0 3h2.4c.16568542 0 .3.2238576.3.5s-.13431458.5-.3.5h-2.4c-.16568542 0-.3-.2238576-.3-.5s.13431458-.5.3-.5zm0 3h2.4c.16568542 0 .3.2238576.3.5s-.13431458.5-.3.5h-2.4c-.16568542 0-.3-.2238576-.3-.5s.13431458-.5.3-.5zm0 3h2.4c.16568542 0 .3.2238576.3.5s-.13431458.5-.3.5h-2.4c-.16568542 0-.3-.2238576-.3-.5s.13431458-.5.3-.5zm0 3h2.4c.16568542 0 .3.2238576.3.5s-.13431458.5-.3.5h-2.4c-.16568542 0-.3-.2238576-.3-.5s.13431458-.5.3-.5z" fill="#212121"/></svg>