<svg height="32" viewBox="0 0 32 32" width="32" xmlns="http://www.w3.org/2000/svg"><path d="m24 8v16h-16v-16zm-14 2v12h12v-12zm2 2h8v8h-8zm1 7h6v-6h-6zm12-8h2c.5522847 0 1 .4477153 1 1s-.4477153 1-1 1h-2zm0 4h2c.5522847 0 1 .4477153 1 1s-.4477153 1-1 1h-2zm0 4h2c.5522847 0 1 .4477153 1 1s-.4477153 1-1 1h-2zm-20-8h2v2h-2c-.55228475 0-1-.4477153-1-1s.44771525-1 1-1zm0 4h2v2h-2c-.55228475 0-1-.4477153-1-1s.44771525-1 1-1zm0 4h2v2h-2c-.55228475 0-1-.4477153-1-1s.44771525-1 1-1zm7-15c.5522847 0 1 .44771525 1 1v2h-2v-2c0-.55228475.4477153-1 1-1zm4 0c.5522847 0 1 .44771525 1 1v2h-2v-2c0-.55228475.4477153-1 1-1zm4 0c.5522847 0 1 .44771525 1 1v2h-2v-2c0-.55228475.4477153-1 1-1zm-9 21h2v2c0 .5522847-.4477153 1-1 1s-1-.4477153-1-1zm4 0h2v2c0 .5522847-.4477153 1-1 1s-1-.4477153-1-1zm4 0h2v2c0 .5522847-.4477153 1-1 1s-1-.4477153-1-1z" fill="#212121"/></svg>