<svg height="32" viewBox="0 0 32 32" width="32" xmlns="http://www.w3.org/2000/svg"><path d="m10.9369913 14h1.0630087v1h-1.0630087c-.2220214.8626136-1.00507159 1.5-1.9369913 1.5-1.1045695 0-2-.8954305-2-2s.8954305-2 2-2c.93191971 0 1.7149699.6373864 1.9369913 1.5zm-4.00000004 3h5.06300874v1h-5.06300874c-.2220214.8626136-1.00507155 1.5-1.93699126 1.5-1.1045695 0-2-.8954305-2-2s.8954305-2 2-2c.93191971 0 1.71496986.6373864 1.93699126 1.5zm4.00000004 5h3.0630087v-2h1v3h-.5-3.5630087c-.2220214.8626136-1.00507159 1.5-1.9369913 1.5-1.1045695 0-2-.8954305-2-2s.8954305-2 2-2c.93191971 0 1.7149699.6373864 1.9369913 1.5zm7.0630087 1.0630087v-3.0630087h-1v3.0630087c-.8626136.2220214-1.5 1.0050716-1.5 1.9369913 0 1.1045695.8954305 2 2 2s2-.8954305 2-2c0-.9319197-.6373864-1.7149699-1.5-1.9369913zm3.0630087-5.0630087h-1.0630087v2h-8v-8h5v-1.0630087c-.8626136-.2220214-1.5-1.00507159-1.5-1.9369913 0-1.1045695.8954305-2 2-2s2 .8954305 2 2c0 .93191971-.6373864 1.7149699-1.5 1.9369913v1.0630087h2v5h1.0630087c.2220214-.8626136 1.0050716-1.5 1.9369913-1.5 1.1045695 0 2 .8954305 2 2s-.8954305 2-2 2c-.9319197 0-1.7149699-.6373864-1.9369913-1.5zm4.9369913-6.0630087v2.0630087h-1v-2.0630087c-.8626136-.2220214-1.5-1.0050716-1.5-1.9369913 0-1.1045695.8954305-2 2-2s2 .8954305 2 2c0 .9319197-.6373864 1.7149699-1.5 1.9369913zm-11-5.00000004v5.06300874h-1v-5.06300874c-.8626136-.2220214-1.5-1.00507155-1.5-1.93699126 0-1.1045695.8954305-2 2-2s2 .8954305 2 2c0 .93191971-.6373864 1.71496986-1.5 1.93699126zm5 7.06300874h6v1h-6z" fill="#212121" fill-rule="evenodd"/></svg>