<svg height="32" viewBox="0 0 32 32" width="32" xmlns="http://www.w3.org/2000/svg"><path d="m10 11v14h12v-13.8377223l-.0540926-.1622777h-2.9459074c0 1.1045695-1.3431458 2-3 2s-3-.8954305-3-2zm-2 16v-17.10505413l2.3187681-5.89494587h11.4019911l2.2792408 6.8377223v16.1622777zm6-17v1c0 .4465467.8301799 1 2 1s2-.5534533 2-1v-1h4.6125741l-1.3333333-4h-10.5584816l-1.33333331 4zm4.5 5h2 3.5v1h-5c0 1.1045695-1.3431458 2-3 2s-3-.8954305-3-2h-5v-1h3.5 2zm-.5 1h-4c0 .4465467.8301799 1 2 1s2-.5534533 2-1zm.5 4h2 3.5v1h-5c0 1.1045695-1.3431458 2-3 2s-3-.8954305-3-2h-5v-1h3.5 2zm-.5 1h-4c0 .4465467.8301799 1 2 1s2-.5534533 2-1z" fill="#212121"/></svg>