<svg height="32" viewBox="0 0 32 32" width="32" xmlns="http://www.w3.org/2000/svg"><path d="m19.9288427 9.93775389.0286502.04775035c.2159591.35993176.3048911.76068966.2798384 1.15010436 3.5316314 2.0420264 5.7626687 6.6136931 5.7626687 11.8643914 0 4.0994415-4.3792756 6-10 6s-10-1.9005585-10-6c0-5.2598447 2.22961256-9.8281437 5.7626183-11.867053-.0024954-.0408052-.0037614-.0819426-.0037614-.1233757 0-.3607531.0980442-.7147238.2836502-1.02406706l.0286502-.04775035c-1.7287174-.9298406-3.0711573-2.37370444-3.0711573-3.93775389 0-2.79164364 4.7967415-4.6756273 7.0815513-3.27647771 2.5135475-1.27668393 6.9184487.46639017 6.9184487 3.27647771 0 1.56404945-1.3424399 3.00791329-3.0711573 3.93775389zm-2.2950331.06224611h-3.2676192l-.6 1h4.4676192zm-2.3898096 10.612v.682h-1.65c-.0146667.058667-.0274999.1338329-.0385.2255s-.0165.1888328-.0165.2915c0 .2273345.0183331.3959995.055.506h1.65v1.661c.1906676.0366669.3703325.0604999.539.0715s.3153327.0165.44.0165c.1320007 0 .2786659-.0054999.44-.0165s.3373324-.0348331.528-.0715v-1.661h1.826c.0366668-.1100005.055-.2786655.055-.506 0-.1026672-.0054999-.1998329-.0165-.2915s-.0238333-.166833-.0385-.2255h-1.826v-.682h1.826c.0366668-.1100005.055-.2786655.055-.506 0-.1026672-.0054999-.1998329-.0165-.2915s-.0238333-.166833-.0385-.2255h-1.375l1.793-3.366c-.1246673-.0220001-.2841657-.0384999-.4785-.0495s-.3538327-.0165-.4785-.0165c-.1906676 0-.3703325.0036666-.539.011s-.3373325.0256665-.506.055l-1.166 2.64-1.221-2.64c-.1100006-.0146667-.2584991-.0293333-.4455-.044s-.3574992-.022-.5115-.022c-.1906676 0-.390499.0073333-.5995.022s-.3648328.0293333-.4675.044l1.771 3.366h-1.199c-.0146667.058667-.0274999.1338329-.0385.2255s-.0165.1888328-.0165.2915c0 .2273345.0183331.3959995.055.506z" fill="#212121"/></svg>