<svg height="32" viewBox="0 0 32 32" width="32" xmlns="http://www.w3.org/2000/svg"><path d="m11.7626183 11.132947c-.0024954-.0408052-.0037614-.0819426-.0037614-.1233757 0-.3607531.0980442-.7147238.2836502-1.02406706l.0286502-.04775035c-1.7287174-.9298406-3.0711573-2.37370444-3.0711573-3.93775389 0-2.79164364 4.7967415-4.6756273 7.0815513-3.27647771 2.5135475-1.27668393 6.9184487.46639017 6.9184487 3.27647771 0 1.56404945-1.3424399 3.00791329-3.0711573 3.93775389l.0286502.04775035c.2159591.35993176.3048911.76068966.2798384 1.15010436 3.5316314 2.0420264 5.7626687 6.6136931 5.7626687 11.8643914 0 4.0994415-4.3792756 6-10 6s-10-1.9005585-10-6c0-5.2598447 2.22961256-9.8281437 5.7626183-11.867053zm1.1284559 1.6730426c-2.94533039 1.623818-4.8910742 5.5343884-4.8910742 10.1940104 0 2.5384481 3.3677148 4 8 4s8-1.4615519 8-4c0-4.6517736-1.9487609-8.5670677-4.8940086-10.1931221-.266469.1268043-.5585791.1931221-.855277.1931221h-4.5014288c-.3073108 0-.5983553-.0696442-.8582114-.1940104zm.4139582-4.50126311c.3130742-.19594816.6795151-.30472649 1.061158-.30472649h3.2676192c.3816429 0 .7480838.10877833 1.061158.30472649 1.2773237-.61607825 2.3050324-1.53470213 2.3050324-2.30472649 0-1.25484716-3.2667928-2.32986002-4.289172-1.29663416l-.8757874.8850789-.6752299-1.04615147c-.585953-.90783242-4.1598107.25259772-4.1598107 1.45770673 0 .77002436 1.0277087 1.68864824 2.3050324 2.30472649zm4.3287772 1.69527351h-3.2676192l-.6 1h4.4676192zm-2.3118096 11.547c.1026672.3153349.2658322.5481659.4895.6985s.533498.2255.9295.2255c.2420012 0 .4821655-.0238331.7205-.0715s.4748322-.1118329.7095-.1925c.1246673.2640013.221833.5206654.2915.77s.1228332.5096653.1595.781c-.4180021.1540008-.7846651.2548331-1.1.3025s-.6489982.0715-1.001.0715c-.4840024 0-.9074982-.0604994-1.2705-.1815s-.6764987-.2951655-.9405-.5225-.4784992-.5004984-.6435-.8195-.2878329-.6728314-.3685-1.0615h-.957c-.0366668-.1100006-.055-.2713323-.055-.484 0-.2053344.0183332-.3703327.055-.495h.836c-.0073334-.0660003-.011-.1319997-.011-.198v-.572h-.825c-.0366668-.1100006-.055-.2713323-.055-.484 0-.2053344.0183332-.3703327.055-.495h.957c.0806671-.4033354.2053325-.7718317.374-1.1055s.3849987-.6214988.649-.8635.5756649-.4289993.935-.561.7736643-.198 1.243-.198c.1760009 0 .3428325.0054999.5005.0165s.3171659.0311665.4785.0605.3263325.0696664.495.121.3483324.1136663.539.187c-.0146667.3006682-.0659996.5866653-.154.858s-.1833328.5023324-.286.693c-.2933348-.1026672-.5426656-.1741665-.748-.2145s-.4253322-.0605-.66-.0605c-.3813352 0-.6783323.0898324-.891.2695s-.3703328.4454982-.473.7975h2.002c.0366669.1246673.055.2896656.055.495 0 .2126677-.0183331.3739994-.055.484h-2.145v.5775c0 .069667.0036666.133833.011.1925h2.134c.0366669.1246673.055.2896656.055.495 0 .2126677-.0183331.3739994-.055.484z" fill="#212121"/></svg>