<svg height="32" viewBox="0 0 32 32" width="32" xmlns="http://www.w3.org/2000/svg"><path d="m11.7626183 11.132947c-.0024954-.0408052-.0037614-.0819426-.0037614-.1233757 0-.3607531.0980442-.7147238.2836502-1.02406706l.0286502-.04775035c-1.7287174-.9298406-3.0711573-2.37370444-3.0711573-3.93775389 0-2.79164364 4.7967415-4.6756273 7.0815513-3.27647771 2.5135475-1.27668393 6.9184487.46639017 6.9184487 3.27647771 0 1.56404945-1.3424399 3.00791329-3.0711573 3.93775389l.0286502.04775035c.2159591.35993176.3048911.76068966.2798384 1.15010436 3.5316314 2.0420264 5.7626687 6.6136931 5.7626687 11.8643914 0 4.0994415-4.3792756 6-10 6s-10-1.9005585-10-6c0-5.2598447 2.22961256-9.8281437 5.7626183-11.867053zm1.1284559 1.6730426c-2.94533039 1.623818-4.8910742 5.5343884-4.8910742 10.1940104 0 2.5384481 3.3677148 4 8 4s8-1.4615519 8-4c0-4.6517736-1.9487609-8.5670677-4.8940086-10.1931221-.266469.1268043-.5585791.1931221-.855277.1931221h-4.5014288c-.3073108 0-.5983553-.0696442-.8582114-.1940104zm.4139582-4.50126311c.3130742-.19594816.6795151-.30472649 1.061158-.30472649h3.2676192c.3816429 0 .7480838.10877833 1.061158.30472649 1.2773237-.61607825 2.3050324-1.53470213 2.3050324-2.30472649 0-1.25484716-3.2667928-2.32986002-4.289172-1.29663416l-.8757874.8850789-.6752299-1.04615147c-.585953-.90783242-4.1598107.25259772-4.1598107 1.45770673 0 .77002436 1.0277087 1.68864824 2.3050324 2.30472649zm4.3287772 1.69527351h-3.2676192l-.6 1h4.4676192zm-2.3898096 10.612h-1.65c-.0366669-.1100005-.055-.2786655-.055-.506 0-.1026672.0054999-.1998329.0165-.2915s.0238333-.166833.0385-.2255h1.199l-1.771-3.366c.1026672-.0146667.258499-.0293333.4675-.044s.4088324-.022.5995-.022c.1540008 0 .3244991.0073333.5115.022s.3354994.0293333.4455.044l1.221 2.64 1.166-2.64c.1686675-.0293335.3373325-.0476666.506-.055s.3483324-.011.539-.011c.1246673 0 .2841657.0054999.4785.0165s.3538327.0274999.4785.0495l-1.793 3.366h1.375c.0146667.058667.0274999.1338329.0385.2255s.0165.1888328.0165.2915c0 .2273345-.0183332.3959995-.055.506h-1.826v.682h1.826c.0146667.058667.0274999.1338329.0385.2255s.0165.1888328.0165.2915c0 .2273345-.0183332.3959995-.055.506h-1.826v1.661c-.1906676.0366669-.3666659.0604999-.528.0715s-.3079993.0165-.44.0165c-.1246673 0-.2713325-.0054999-.44-.0165s-.3483324-.0348331-.539-.0715v-1.661h-1.65c-.0366669-.1100005-.055-.2786655-.055-.506 0-.1026672.0054999-.1998329.0165-.2915s.0238333-.166833.0385-.2255h1.65z" fill="#212121"/></svg>