<svg height="32" viewBox="0 0 32 32" width="32" xmlns="http://www.w3.org/2000/svg"><path d="m12.4688711 22c.5522848 0 1 .4477153 1 1s-.4477152 1-1 1h-5.4688711c-1.65685425 0-3-1.3431458-3-3 0-.1243951.00773706-.2486697.02718697-.4008686l.64858934-4.1921151c.08294282-.6635426.4920194-1.2417304 1.11622488-1.5533639l2.52131709-1.1706317c.50092569-.2325767 1.09554683-.0150368 1.32812348.4858889s.01503677 1.0955468-.48588892 1.3281234l-2.49924138 1.1868171-.64858934 4.1921152c-.0051431.0411448-.00772212.0825697-.00772212.1240347 0 .5522847.44771525 1 1 1zm1.2655645-8c-3.3137085 0-6.00000004-2.6862915-6.00000004-6s2.68629154-6 6.00000004-6 6 2.6862915 6 6-2.6862915 6-6 6zm0-2c2.209139 0 4-1.790861 4-4s-1.790861-4-4-4-4.00000004 1.790861-4.00000004 4 1.79086104 4 4.00000004 4zm8.4276087 15.4741939-.6620443-.4446133-.6620443.4446133-.8739282 2.4010981c-.377785 1.0379558-1.5254697 1.57313-2.5634255 1.1953449l-1.8793853-.6840402c-1.0379558-.3777851-1.5731299-1.5254698-1.1953449-2.5634256l1.0104472-2.7761809c-.5823-.4034501-.9316198-1.1043809-.850835-1.858357.0220702-.2059851.0760099-.4072906.159889-.5967141l.4242454-.9580693-.7263393-.7551903c-.7656934-.7961076-.7410379-2.0621975.0550697-2.8278909.1493115-.1436073.3200284-.2631445.5060426-.3543349l.9408259-.461224-.0709812-1.0453912c-.0748271-1.1020321.7578871-2.0560649 1.8599191-2.130892.2066882-.014034.414302.0041299.6154131.0538417l1.0171836.2514331.6175897-.846442c.6510517-.8923034 1.9021883-1.0878767 2.7944917-.436825.1673532.122106.3147191.2694719.4368251.436825l.6175897.846442 1.0171836-.2514331c1.0722961-.2650562 2.1564344.3893411 2.4214905 1.4616372.0497118.2011112.0678757.4087249.0538417.6154131l-.0709812 1.0453912.9408259.461224c.9918013.4862139 1.4016609 1.684382.9154471 2.6761833-.0911903.1860142-.2107276.3567311-.3543348.5060425l-.7263393.7551903.4242454.9580693c.3954512.8930437.0845612 1.920036-.6909513 2.4550565l1.0104525 2.7761955c.377785 1.0379558-.1573891 2.1856405-1.1953449 2.5634256l-1.8793853.6840402c-1.0379558.3777851-2.1856405-.1573891-2.5634255-1.1953449zm2.2245917.2644067.5287217 1.4526511 1.8793853-.6840403-1.0939681-3.0056526-.0036414.0003901-.2908443 1.0066234c-.1605655.5557235-.541135.9881778-1.0196532 1.2300283zm-7.0874109-2.2370418-1.0939681 3.0056526 1.8793853.6840403.5286022-1.4523228c-.2966371-.1494922-.560069-.3750682-.7584554-.6704724-.1154979-.1719802-.2035744-.3608609-.2610783-.5598842l-.2908443-1.0066234zm5.3158124-.1323069.8698447.5841671.2908443-1.0066233c.2254868-.7804184.9006191-1.3469218 1.7083366-1.4334646l1.0418351-.1116274-.4242454-.9580694c-.3289104-.7427753-.1758703-1.6107087.3872485-2.1961952l.7263392-.7551902-.9408259-.4612241c-.7294067-.3575793-1.1700681-1.1208271-1.1150375-1.9313016l.0709812-1.0453911-1.0171836.2514331c-.7886055.1949319-1.6167779-.1064982-2.095585-.7627306l-.6175897-.8464419-.6175897.8464419c-.4788071.6562324-1.3069795.9576625-2.095585.7627306l-1.0171836-.2514331.0709812 1.0453911c.0550306.8104745-.3856308 1.5737223-1.1150375 1.9313016l-.9408259.4612241.7263392.7551902c.5631188.5854865.7161589 1.4534199.3872485 2.1961952l-.4242454.9580694 1.0418351.1116274c.8077175.0865428 1.4828498.6530462 1.7083366 1.4334646l.2908443 1.0066233.8698447-.5841671c.6743761-.4528951 1.5556989-.4528951 2.230075 0zm-1.1150375-1.8692519c-1.6568542 0-3-1.3431458-3-3s1.3431458-3 3-3 3 1.3431458 3 3-1.3431458 3-3 3zm0-1c1.1045695 0 2-.8954305 2-2s-.8954305-2-2-2-2 .8954305-2 2 .8954305 2 2 2z" fill="#212121"/></svg>