<svg height="32" viewBox="0 0 32 32" width="32" xmlns="http://www.w3.org/2000/svg"><path d="m9.05000906 13c-.03279393-.161555-.05000906-.3287671-.05000906-.5 0-1.3807119 1.1192881-2.5 2.5-2.5s2.5 1.1192881 2.5 2.5c0 .1712329-.0172151.338445-.0500091.5zm10.03954274-8h-10.0895518c-.55228475 0-1 .44771525-1 1v21c0 .5522847.44771525 1 1 1h13.9968262c.5522847 0 1-.4477153 1-1v-17.08838238c-.1279904.05770788-.2679337.08838238-.4110398.08838238h-3.5857864c-.5522847 0-1-.44771525-1-1v-3.58578644c0-.14774441.0320404-.28800538.0895518-.41421356zm-10.0895518-2h10.1636023c.8027144 0 1.5719473.32169234 2.1356829.89314012l3.8332239 3.88566451c.5538157.56139226.8643171 1.31827053.8643171 2.10685988v17.11433549c0 1.6568542-1.3431458 3-3 3h-13.9968262c-1.65685425 0-3-1.3431458-3-3v-21c0-1.65685425 1.34314575-3 3-3zm14.5857864 6-3.5857864-3.58578644v3.58578644zm-12.0857864 1c-.8284271 0-1.5-.67157288-1.5-1.5s.6715729-1.5 1.5-1.5 1.5.67157288 1.5 1.5-.6715729 1.5-1.5 1.5zm4.5 1h6v2h-6zm-7 5h2v1h-2zm3 0h8v1h-8zm-3 3h2v1h-2zm3 0h8v1h-8zm-3 3h2v1h-2zm3 0h8v1h-8zm-3 3h2v1h-2zm3 0h8v1h-8z" fill="#212121"/></svg>