<svg height="32" viewBox="0 0 32 32" width="32" xmlns="http://www.w3.org/2000/svg"><path d="m17 18.6339746 2.0490381 1.1830127-.5.8660254-2.0490381-1.1830127-2.0490381 1.1830127-.5-.8660254 2.0490381-1.1830127v-2.6339746h1zm3.0152375-9.65387564c1.2202648 1.36775534 1.9847625 3.25680544 1.9847625 5.01990104v1h-12v-1c0-1.7630956.7644977-3.6521457 1.9847625-5.01990104-.6186882-.83222474-.9847625-1.86341123-.9847625-2.98009896 0-2.76142375 2.2385763-5 5-5s5 2.23857625 5 5c0 1.11668773-.3660743 2.14787422-.9847625 2.98009896zm8 16.00000004c1.2202648 1.3677553 1.9847625 3.2568054 1.9847625 5.019901v1h-12v-1c0-1.7630956.7644977-3.6521457 1.9847625-5.019901-.6186882-.8322248-.9847625-1.8634113-.9847625-2.980099 0-2.7614237 2.2385763-5 5-5s5 2.2385763 5 5c0 1.1166877-.3660743 2.1478742-.9847625 2.980099zm-16 0c1.2202648 1.3677553 1.9847625 3.2568054 1.9847625 5.019901v1h-12v-1c0-1.7630956.76449768-3.6521457 1.98476247-5.019901-.61868815-.8322248-.98476247-1.8634113-.98476247-2.980099 0-2.7614237 2.23857625-5 5-5 2.7614237 0 5 2.2385763 5 5 0 1.1166877-.3660743 2.1478742-.9847625 2.980099zm-4.0152375.019901c1.65685425 0 3-1.3431458 3-3s-1.34314575-3-3-3-3 1.3431458-3 3 1.34314575 3 3 3zm16 0c1.6568542 0 3-1.3431458 3-3s-1.3431458-3-3-3-3 1.3431458-3 3 1.3431458 3 3 3zm-8-16c1.6568542 0 3-1.34314575 3-3s-1.3431458-3-3-3-3 1.34314575-3 3 1.3431458 3 3 3z" fill="#212121"/></svg>