<svg height="32" viewBox="0 0 32 32" width="32" xmlns="http://www.w3.org/2000/svg"><path d="m17 18.6339746 2.0490381 1.1830127-.5.8660254-2.0490381-1.1830127-2.0490381 1.1830127-.5-.8660254 2.0490381-1.1830127v-2.6339746h1zm2.2898733-10.35809579c1.6351643 1.36568648 2.7101267 3.63345629 2.7101267 5.72412119v1h-12v-1c0-2.0906649 1.0749624-4.35843471 2.7101267-5.72412119-.4477622-.64603657-.7101267-1.43031844-.7101267-2.27587881 0-2.209139 1.790861-4 4-4s4 1.790861 4 4c0 .84556037-.2623645 1.62984224-.7101267 2.27587881zm8 15.99999999c1.6351643 1.3656865 2.7101267 3.6334563 2.7101267 5.7241212v1h-12v-1c0-2.0906649 1.0749624-4.3584347 2.7101267-5.7241212-.4477622-.6460366-.7101267-1.4303184-.7101267-2.2758788 0-2.209139 1.790861-4 4-4s4 1.790861 4 4c0 .8455604-.2623645 1.6298422-.7101267 2.2758788zm-16 0c1.6351643 1.3656865 2.7101267 3.6334563 2.7101267 5.7241212v1h-12v-1c0-2.0906649 1.07496242-4.3584347 2.71012665-5.7241212-.44776217-.6460366-.71012665-1.4303184-.71012665-2.2758788 0-2.209139 1.790861-4 4-4s4 1.790861 4 4c0 .8455604-.2623645 1.6298422-.7101267 2.2758788zm.8214447-11.2758788h7.777364c-.2088195-.968015-.6987916-1.9395286-1.3621136-2.6844437-.7558581.4433478-1.6232739.6844437-2.5265684.6844437s-1.7707103-.2410959-2.5265684-.6844437c-.663322.7449151-1.1532941 1.7164287-1.3621136 2.6844437zm8 16h7.777364c-.2088195-.968015-.6987916-1.9395286-1.3621136-2.6844437-.7558581.4433478-1.6232739.6844437-2.5265684.6844437s-1.7707103-.2410959-2.5265684-.6844437c-.663322.7449151-1.1532941 1.7164287-1.3621136 2.6844437zm-15.99999996 0h7.77736396c-.2088195-.968015-.6987916-1.9395286-1.3621136-2.6844437-.75585813.4433478-1.62327389.6844437-2.5265684.6844437s-1.77071027-.2410959-2.52656839-.6844437c-.66332199.7449151-1.15329415 1.7164287-1.36211357 2.6844437zm3.88868196-4c1.65685425 0 3-1.3431458 3-3s-1.34314575-3-3-3-3 1.3431458-3 3 1.34314575 3 3 3zm16 0c1.6568542 0 3-1.3431458 3-3s-1.3431458-3-3-3-3 1.3431458-3 3 1.3431458 3 3 3zm-8-16c1.6568542 0 3-1.34314575 3-3s-1.3431458-3-3-3-3 1.34314575-3 3 1.3431458 3 3 3z" fill="#212121"/></svg>