<svg height="32" viewBox="0 0 32 32" width="32" xmlns="http://www.w3.org/2000/svg"><path d="m10.3401453 17.6301959c-.3879689-.7942007-.60570974-1.6867703-.60570974-2.6301959 0-3.3137085 2.68629154-6 6.00000004-6s6 2.6862915 6 6c0 .9477468-.2197401 1.8441705-.6110515 2.6411026.0188491.0032918.0382636.0066856.0582651.0101821l.857908.3930378c.4452537-.9204742.6948784-1.9532469.6948784-3.0443225 0-2.68517-1.5118939-5.01721823-3.7308432-6.19130624.1005462-2.67277021 2.2990411-4.80869376 4.9964076-4.80869376 2.7614237 0 5 2.23857625 5 5 0 1.2122163-.431386 2.323677-1.149017 3.1892412 1.2892486 1.626885 2.149017 3.9302424 2.149017 5.8107588v1h-6.1557794c.5547151.4780735.9209679 1.1450814 1.0105908 1.8653904l.5908934 3.7227027c.2055074 1.6440598-.9606697 3.1434303-2.6047295 3.3489378-.1234344.0154293-.2477091.0231664-.3721042.0231664h-13.4688711c-1.65685425 0-3-1.3431458-3-3 0-.1243951.00773706-.2486698.02718697-.4008686l.64858934-4.1921152c.06849541-.5479632.3594043-1.0377171.81021085-1.3672135h-5.48598716v-1c0-1.8805164.85976844-4.1838738 2.14901702-5.8107588-.71763104-.8655642-1.14901702-1.9770249-1.14901702-3.1892412 0-2.76142375 2.23857625-5 5-5 2.6139363 0 4.7593842 2.00583769 4.981104 4.56227358-.8079467.34599843-1.5376269.83964622-2.1551089 1.44701172.1126534-.31539924.1740049-.65517756.1740049-1.0092853 0-1.65685425-1.34314575-3-3-3s-3 1.34314575-3 3c0 1.6568542 1.34314575 3 3 3 .62185126 0 1.19951183-.1892028 1.67855572-.5131824-.60032234 1.0325803-.94412016 2.2327322-.94412016 3.5131824 0 1.0941853.25104959 2.1297349.69869021 3.0521901l.85409623-.3963932c.0178622-.0089311.0354981-.0174635.0529233-.025601zm13.6598547-5.6301959c1.6568542 0 3-1.3431458 3-3 0-1.65685425-1.3431458-3-3-3s-3 1.34314575-3 3c0 1.6568542 1.3431458 3 3 3zm-8.2655644 7c2.209139 0 4-1.790861 4-4s-1.790861-4-4-4-4 1.790861-4 4 1.790861 4 4 4z" fill="#212121"/></svg>