<svg height="32" viewBox="0 0 32 32" width="32" xmlns="http://www.w3.org/2000/svg"><path d="m12.9539042 9.68179188c.831201-.43547209 1.7771007-.68179188 2.7805314-.68179188 1.2507225 0 2.4120631.38268943 3.3733161 1.0373626-.0706123-.33466888-.1077517-.68167856-.1077517-1.0373626 0-2.76142375 2.2385763-5 5-5s5 2.23857625 5 5c0 1.2122163-.431386 2.323677-1.149017 3.1892412 1.2892486 1.626885 2.149017 3.9302424 2.149017 5.8107588v1h-6.202928c.5810876.4804784.9656012 1.1646683 1.0577394 1.9051931l.5908934 3.7227027c.2055074 1.6440598-.9606697 3.1434304-2.6047295 3.3489378-.1234344.0154293-.2477091.0231664-.3721042.0231664h-13.4688711c-1.65685425 0-3-1.3431458-3-3 0-.1243951.00773706-.2486697.02718697-.4008686l.64858934-4.1921151c.07131021-.5704817.38368958-1.0778715.86659397-1.4070163h-5.54237028v-1c0-1.8805164.85976844-4.1838738 2.14901702-5.8107588-.71763104-.8655642-1.14901702-1.9770249-1.14901702-3.1892412 0-2.76142375 2.23857625-5 5-5 2.7614237 0 5 2.23857625 5 5 0 .23126712-.0157012.45886703-.0460958.68179188zm7.0249126 9.55910752c-1.0859237 1.0868097-2.5866415 1.7591006-4.2443812 1.7591006-1.6566752 0-3.1565299-.6714277-4.2422885-1.7570072-.0900295.1045972-.2032753.1921411-.3365943.2540402l-2.49924134 1.1868171-.64858934 4.1921152c-.0051431.0411448-.00772212.0825697-.00772212.1240347 0 .5522847.44771525 1 1 1h13.4688711c.0414651 0 .0828899-.002579.1240348-.0077221.5480199-.0685025.9367456-.5682927.8729079-1.0834385l-.5908934-3.7227027c-.0414714-.3317712-.2460097-.6208651-.5143565-.7556866l-2.0426341-.9358025c-.1342388-.0614995-.2483532-.1489798-.339113-.2537482zm1.5954079-5.6240678c.1047726.4440385.1602109.9071293.1602109 1.3831684 0 .7012708-.1203085 1.3744421-.3414115 2h6.5075351c-.2274397-1.2194435-.8266836-2.567455-1.6067571-3.556162-.69981.3618359-1.4826734.556162-2.2938021.556162s-1.5939921-.1943261-2.2938021-.556162c-.0445939.0565207-.0885969.1142156-.1319732.1729936zm-11.68256915.0127382c-.59230664.2421597-1.23265243.3704302-1.89165555.3704302-.8111287 0-1.59399207-.1943261-2.29380208-.556162-.78007356.988707-1.37931738 2.3367185-1.60675715 3.556162h5.97640623c-.22110299-.6255579-.34141144-1.2987292-.34141144-2 0-.4714889.05438354-.9302759.15721999-1.3704302zm14.10834445-1.6295698c1.6568542 0 3-1.3431458 3-3 0-1.65685425-1.3431458-3-3-3s-3 1.34314575-3 3c0 1.6568542 1.3431458 3 3 3zm-16 0c1.65685425 0 3-1.3431458 3-3 0-1.65685425-1.34314575-3-3-3s-3 1.34314575-3 3c0 1.6568542 1.34314575 3 3 3zm7.7344356 7c2.209139 0 4-1.790861 4-4s-1.790861-4-4-4-4 1.790861-4 4 1.790861 4 4 4z" fill="#212121"/></svg>