<svg height="32" viewBox="0 0 32 32" width="32" xmlns="http://www.w3.org/2000/svg"><path d="m5.9150794 25.0559911c-.13926619-.1277023-1.08526625-.9926145-1.37175018-1.2556803-.05827568-.0535233-.05827568-.0535233-.11656966-.107112-1.63138534-1.5000695-2.47955352-2.3219671-2.88493329-2.8616338l-.40089609-.5336978v-.6674961c0-.4296638-.05345892-.9550999-.22292236-2.3190184-.00825548-.0664571-.00825548-.0664571-.01652975-.1331867-.12616364-1.0181952-.18619061-1.5797029-.21829626-2.1475415l-.00201434-.1814404c.00359312-.1077498.00359312-.1077498.00714998-.2224973.0241881-.7868416.03371826-1.0296234.06364056-1.4516332.07110417-1.0028191.20654674-1.8040573.47994704-2.5049313.48923085-1.25416545 1.44215174-2.13967594 2.85414974-2.15342592 1.35430278-.01318814 2.26861408.83332803 2.71876473 2.00640602.24614649.6414498.36040086 1.3797226.39646428 2.2372491.02365009.5623587.01187494 1.128538-.02413483 1.7370484.03584678.0765642.07192147.1560705.10800138.2379281.13486582-.1929114.29560869-.3714176.47908561-.5328813.94238567-.82932 2.07315862-.7878757 3.08689544-.2735274.5161264.2618714 1.0013558.6401043 1.553814 1.159227.1855993.1744001.3749643.3613934.5908335.5814243.1237033.126088.6576801.6798955.7827348.8060631.1985143.2002808.329071.3198673.3621207.3432899l.5697472.4037848.194592.6706623c.4176352 1.4393818.9529976 5.0885146.9529976 6.6723031 0 .9519867-.1768835 1.5696373-.5981564 2.5541377-.016959.0396189-.016959.0396189-.0331868.0775694-.1972436.461683-.2424361.6206164-.2424361.8399726v2h-8.58076971l-.07798105-1.9187853c-.02915622-.717412.0901332-1.2291089.37010093-2.0324052.0333345-.0956449.05957725-.1722512.08014801-.2329403-.20950728-.19785-.48520758-.4529996-.86061068-.7972316zm2.4087121-.4903173c1.20239258 1.1557617-.05480957 2.1230469 0 3.4716797h4.6604004c0-1.3876953.8737793-2 .8737793-3.4716797s-.5314941-4.9353027-.8737793-6.1149902c-.8942871-.6337891-3.0053711-3.532959-3.89868165-2.7468262-.89331054.7861328.59497071 1.7181054.89331055 2.1130371.236156.3126149 1.8658496 3.1026792 1.6234741 3.7386475-.0638215.1674612-1.2970581-.6499024-1.76379392-1.0490723-.40453407-.3226345-2.36620397-1.2891127-3.6328125-2.6895752-.09643555-.7397461-.83905794-2.6125001-1.06207276-2.8991699.07275391-.9746094.34082032-4.4145508-1.03808593-4.401123-1.37890625.0134277-1.3692627 2.7600097-1.42553711 4.401123.08178711 1.4465332.4609375 3.532959.4609375 4.7126465.62866211.8369141 3.98046875 3.779541 5.18286132 4.9353027zm17.0186303 1.5204892c.2799677.8032963.3992572 1.3149932.3701009 2.0324052l-.077981 1.9187853h-8.5807697v-2c0-.2193562-.0451925-.3782896-.2424361-.8399726-.0162278-.0379505-.0162278-.0379505-.0331868-.0775694-.421273-.9845004-.5981564-1.602151-.5981564-2.5541377 0-1.5837885.5353624-5.2329213.9529976-6.6723031l.194592-.6706623.5697472-.4037848c.0330497-.0234226.1636064-.1430091.3621207-.3432899.1250547-.1261676.6590315-.6799751.7827347-.8060631.2158693-.2200309.4052342-.4070242.5908335-.5814243.5524582-.5191227 1.0376877-.8973556 1.5538141-1.159227 1.0137368-.5143483 2.1445097-.5557926 3.0868954.2735274.1834769.1614637.3442198.3399699.4790856.5328813.0360799-.0818576.0721546-.1613639.1080014-.2379281-.0360098-.6085104-.0477849-1.1746897-.0241348-1.7370484.0360634-.8575265.1503178-1.5957993.3964642-2.2372491.4501507-1.17307799 1.364462-2.01959416 2.7187648-2.00640602 1.411998.01374998 2.3649189.89926047 2.8541497 2.15342592.2734003.700874.4088429 1.5021122.4799471 2.5049313.0299223.4220098.0394524.6647916.0636405 1.4516332.0035569.1147475.0035569.1147475.00715.2224973l-.0020143.1814404c-.0321057.5678386-.0921327 1.1293463-.2182963 2.1475415-.0082743.0667296-.0082743.0667296-.0165297.1331867-.1694635 1.3639185-.2229224 1.8893546-.2229224 2.3190184v.6674961l-.4008961.5336978c-.4053798.5396667-1.253548 1.3615643-2.8849333 2.8616338-.058294.0535887-.058294.0535887-.1165697.107112-.2864839.2630658-1.2324839 1.127978-1.3717501 1.2556803-.3754031.344232-.6511034.5993816-.8606107.7972316.0205707.0606891.0468135.1372954.080148.2329403zm-1.6282494-1.5204892c1.2023925-1.1557617 4.5541992-4.0983886 5.1828613-4.9353027 0-1.1796875.3791504-3.2661133.4609375-4.7126465-.0562744-1.6411133-.0466309-4.3876953-1.4255371-4.401123-1.3789063-.0134278-1.1108399 3.4265136-1.038086 4.401123-.2230148.2866698-.9656372 2.1594238-1.0620727 2.8991699-1.2666085 1.4004625-3.2282784 2.3669407-3.6328125 2.6895752-.4667358.3991699-1.6999724 1.2165335-1.763794 1.0490723-.2423754-.6359683 1.3873182-3.4260326 1.6234742-3.7386475.2983398-.3949317 1.7866211-1.3269043.8933105-2.1130371-.8933105-.7861328-3.0043945 2.1130371-3.8986816 2.7468262-.3422852 1.1796875-.8737793 4.6433105-.8737793 6.1149902s.8737793 2.0839844.8737793 3.4716797h4.6604004c.0548095-1.3486328-1.2023926-2.315918 0-3.4716797zm-7.7141724-19.35007115c1.3720777-1.04806486 3.3417801-.94489032 4.5961941.30952362 1.2467961 1.2467961 1.3562929 3.20021939.3284904 4.57113103l.025063.025063-4.9497475 4.9497475-4.5961941-4.5961941c-1.366835-1.36683499-1.366835-3.58291241 0-4.94974743 1.254414-1.25441394 3.2241164-1.35758848 4.5961941-.30952362z" fill="#212121" fill-rule="evenodd"/></svg>