<svg height="32" viewBox="0 0 32 32" width="32" xmlns="http://www.w3.org/2000/svg"><path d="m21.0615052 13.9348921c-.4551015-.1389024-.8183332-.4883807-.9761523-.9348921h-7.1707058c-.167623.4742492-.5669723.8390352-1.062003.9583134l-2.8526441 3.8002645.56942163-.7585779h13.84573887zm1.3108086.0651079 2.3036599 3h3.3240263v1h-3v1h1v3h-1v1h1v3h-1v2h2c.5522847 0 1-.4477153 1-1v-10h-.4142136l-3-3zm1.6276862 14v-10h-15v10h5v-5h5v5zm-13.4290339-14h-2.15675254l-3 3h-.41421356v10c0 .5522847.44771525 1 1 1h2v-2h-1v-3h1v-1h-1v-3h1v-1h-3v-1h3.31903539l-.31903539.4250158v.5749842zm5.4290339-8.75v-2.25h5v3h-4v1.02242151c2.638569.23777419 4.7398043 2.3390095 4.9775785 4.97757849h-.0314657 3.4681008l3.0554563 3.0554564c.8779612.2112944 1.5303301 1.0017346 1.5303301 1.9445436v10c0 1.6568542-1.3431458 3-3 3h-21c-1.65685425 0-3-1.3431458-3-3v-10c0-.942809.65236893-1.7332492 1.53033009-1.9445436l3.05545635-3.0554564h3.46810076-.0314657c.2377742-2.63856899 2.3390095-4.7398043 4.9775785-4.97757849zm-2.6631844 5.75h6.3263688c-.5617319-1.18247367-1.7669864-2-3.1631844-2s-2.6014525.81752633-3.1631844 2zm3.6631844-6h3v-1h-3zm-6 14h3v3h-3zm4 0h3v3h-3zm4 0h3v3h-3zm-4 5v4h3v-4z" fill="#212121"/></svg>