<svg xmlns="http://www.w3.org/2000/svg" width="32" height="32" viewBox="0 0 32 32">
  <path fill="#212121" fill-rule="evenodd" d="M8,6 L24,6 C24.5522847,6 25,6.44771525 25,7 C25,7.55228475 24.5522847,8 24,8 L8,8 C7.44771525,8 7,7.55228475 7,7 C7,6.44771525 7.44771525,6 8,6 Z M8,24 L24,24 C24.5522847,24 25,24.4477153 25,25 C25,25.5522847 24.5522847,26 24,26 L8,26 C7.44771525,26 7,25.5522847 7,25 C7,24.4477153 7.44771525,24 8,24 Z M17,19 L19,19 L16,23 L13,19 L15,19 L15,13 L13,13 L16,9 L19,13 L17,13 L17,19 Z"/>
</svg>
