<svg xmlns="http://www.w3.org/2000/svg" width="32" height="32" viewBox="0 0 32 32">
  <path fill="#212121" d="M17.0108643,15.3105267 L17.0108643,17.6894733 L26.0217285,21.980361 L26.0217285,11.019639 L17.0108643,15.3105267 Z M16.0108643,15.3208736 L7,11.0299859 L7,21.9700141 L16.0108643,17.6791264 L16.0108643,15.3208736 Z M17.0108643,26.6547716 L25.2657233,22.7279494 L17.0108643,18.7970641 L17.0108643,26.6547716 Z M16.0108643,26.6547716 L16.0108643,18.7867172 L7.74513531,22.7227786 L16.0108643,26.6547716 Z M16.0108643,6.35647476 L7.80242917,10.3045042 L16.0108643,14.2132828 L16.0108643,6.35647476 Z M17.0108643,6.38665926 L17.0108643,14.2029359 L25.2039279,10.301477 L17.0108643,6.38665926 Z M28.0217285,9.43129578 L28.0217285,23.631681 L16.5108643,29.1073793 L5,23.631681 L5,9.43308479 L16.4748976,3.91397755 L28.0217285,9.43129578 Z"/>
</svg>
