<svg xmlns="http://www.w3.org/2000/svg" width="32" height="32" viewBox="0 0 32 32">
  <path fill="#212121" d="M16,28 C9.372583,28 4,22.627417 4,16 C4,9.372583 9.372583,4 16,4 C22.627417,4 28,9.372583 28,16 C28,22.627417 22.627417,28 16,28 Z M16,26 C21.5228475,26 26,21.5228475 26,16 C26,10.4771525 21.5228475,6 16,6 C10.4771525,6 6,10.4771525 6,16 C6,21.5228475 10.4771525,26 16,26 Z M16,14.5857864 L18.1213203,12.4644661 C18.5118446,12.0739418 19.1450096,12.0739418 19.5355339,12.4644661 C19.9260582,12.8549904 19.9260582,13.4881554 19.5355339,13.8786797 L17.4142136,16 L19.5355339,18.1213203 C19.9260582,18.5118446 19.9260582,19.1450096 19.5355339,19.5355339 C19.1450096,19.9260582 18.5118446,19.9260582 18.1213203,19.5355339 L16,17.4142136 L13.8786797,19.5355339 C13.4881554,19.9260582 12.8549904,19.9260582 12.4644661,19.5355339 C12.0739418,19.1450096 12.0739418,18.5118446 12.4644661,18.1213203 L14.5857864,16 L12.4644661,13.8786797 C12.0739418,13.4881554 12.0739418,12.8549904 12.4644661,12.4644661 C12.8549904,12.0739418 13.4881554,12.0739418 13.8786797,12.4644661 L16,14.5857864 Z"/>
</svg>
