<svg xmlns="http://www.w3.org/2000/svg" width="32" height="32" viewBox="0 0 32 32">
  <path fill="#212121" d="M12,7 L13,6 L19,6 L20,7 L23,7 C23.5522847,7 24,7.44771525 24,8 C24,8.55228475 23.5522847,9 23,9 L9,9 C8.44771525,9 8,8.55228475 8,8 C8,7.44771525 8.44771525,7 9,7 L12,7 Z M9,10 L23,10 L23,24 C23,25.6568542 21.6568542,27 20,27 L12,27 C10.3431458,27 9,25.6568542 9,24 L9,10 Z M11,12 L11,24 C11,24.5522847 11.4477153,25 12,25 L20,25 C20.5522847,25 21,24.5522847 21,24 L21,12 L11,12 Z"/>
</svg>
