<svg xmlns="http://www.w3.org/2000/svg" width="32" height="32" viewBox="0 0 32 32">
  <path fill="#212121" fill-rule="evenodd" d="M7,22 L11,22 C11.5522847,22 12,22.4477153 12,23 C12,23.5522847 11.5522847,24 11,24 L7,24 C6.44771525,24 6,23.5522847 6,23 C6,22.4477153 6.44771525,22 7,22 Z M14,22 L18,22 C18.5522847,22 19,22.4477153 19,23 C19,23.5522847 18.5522847,24 18,24 L14,24 C13.4477153,24 13,23.5522847 13,23 C13,22.4477153 13.4477153,22 14,22 Z M14,18 L18,18 C18.5522847,18 19,18.4477153 19,19 C19,19.5522847 18.5522847,20 18,20 L14,20 C13.4477153,20 13,19.5522847 13,19 C13,18.4477153 13.4477153,18 14,18 Z M21,22 L25,22 C25.5522847,22 26,22.4477153 26,23 C26,23.5522847 25.5522847,24 25,24 L21,24 C20.4477153,24 20,23.5522847 20,23 C20,22.4477153 20.4477153,22 21,22 Z M21,18 L25,18 C25.5522847,18 26,18.4477153 26,19 C26,19.5522847 25.5522847,20 25,20 L21,20 C20.4477153,20 20,19.5522847 20,19 C20,18.4477153 20.4477153,18 21,18 Z M21,14 L25,14 C25.5522847,14 26,14.4477153 26,15 C26,15.5522847 25.5522847,16 25,16 L21,16 C20.4477153,16 20,15.5522847 20,15 C20,14.4477153 20.4477153,14 21,14 Z M21,10 L25,10 C25.5522847,10 26,10.4477153 26,11 C26,11.5522847 25.5522847,12 25,12 L21,12 C20.4477153,12 20,11.5522847 20,11 C20,10.4477153 20.4477153,10 21,10 Z"/>
</svg>
