<svg xmlns="http://www.w3.org/2000/svg" width="32" height="32" viewBox="0 0 32 32">
  <g fill="none" fill-rule="evenodd" transform="translate(-145 -316)">
    <path fill="#212121" fill-rule="nonzero" d="M19,15.1507533 L19,12.8 C19,12.3581722 19.4477153,12 20,12 C20.5522847,12 21,12.3581722 21,12.8 L21,19.2 C21,19.6418278 20.5522847,20 20,20 C19.4477153,20 19,19.6418278 19,19.2 L19,16.9625881 L13.1081259,19.9153425 C12.7472771,20.0961844 12.2929286,19.9777756 12.0933102,19.6508691 C12.0321067,19.5506388 12,19.4379702 12,19.3234258 L12,12.6764499 C12,12.3028569 12.3343021,12 12.7466847,12 C12.8772072,12 13.0054498,12.0309956 13.1186266,12.0898964 L19,15.1507533 Z M16,28 C9.372583,28 4,22.627417 4,16 C4,9.372583 9.372583,4 16,4 C22.627417,4 28,9.372583 28,16 C28,22.627417 22.627417,28 16,28 Z M16,26 C21.5228475,26 26,21.5228475 26,16 C26,10.4771525 21.5228475,6 16,6 C10.4771525,6 6,10.4771525 6,16 C6,21.5228475 10.4771525,26 16,26 Z" transform="translate(145 316)"/>
  </g>
</svg>
