<svg xmlns="http://www.w3.org/2000/svg" width="32" height="32" viewBox="0 0 32 32">
  <g fill="none" fill-rule="evenodd" transform="translate(-185 -139)">
    <path fill="#212121" fill-rule="nonzero" d="M4,4 L28,4 L28,28 L4,28 L4,4 Z M6,6 L6,26 L26,26 L26,6 L6,6 Z M14,12 C14.5522847,12 15,12.3581722 15,12.8 L15,19.2 C15,19.6418278 14.5522847,20 14,20 C13.4477153,20 13,19.6418278 13,19.2 L13,12.8 C13,12.3581722 13.4477153,12 14,12 Z M18,12 C18.5522847,12 19,12.3581722 19,12.8 L19,19.2 C19,19.6418278 18.5522847,20 18,20 C17.4477153,20 17,19.6418278 17,19.2 L17,12.8 C17,12.3581722 17.4477153,12 18,12 Z" transform="translate(185 139)"/>
  </g>
</svg>
