<svg xmlns="http://www.w3.org/2000/svg" width="32" height="32" viewBox="0 0 32 32">
  <g fill="none" fill-rule="evenodd" transform="translate(-145 -139)">
    <path fill="#212121" fill-rule="nonzero" d="M16,28 C9.372583,28 4,22.627417 4,16 C4,9.372583 9.372583,4 16,4 C22.627417,4 28,9.372583 28,16 C28,22.627417 22.627417,28 16,28 Z M16,26 C21.5228475,26 26,21.5228475 26,16 C26,10.4771525 21.5228475,6 16,6 C10.4771525,6 6,10.4771525 6,16 C6,21.5228475 10.4771525,26 16,26 Z M14,12 C14.5522847,12 15,12.3581722 15,12.8 L15,19.2 C15,19.6418278 14.5522847,20 14,20 C13.4477153,20 13,19.6418278 13,19.2 L13,12.8 C13,12.3581722 13.4477153,12 14,12 Z M18,12 C18.5522847,12 19,12.3581722 19,12.8 L19,19.2 C19,19.6418278 18.5522847,20 18,20 C17.4477153,20 17,19.6418278 17,19.2 L17,12.8 C17,12.3581722 17.4477153,12 18,12 Z" transform="translate(145 139)"/>
  </g>
</svg>
