<svg xmlns="http://www.w3.org/2000/svg" width="32" height="32" viewBox="0 0 32 32">
  <g fill="none" fill-rule="evenodd" transform="translate(-145 -51)">
    <path fill="#212121" fill-rule="nonzero" d="M16,28 C9.372583,28 4,22.627417 4,16 C4,9.372583 9.372583,4 16,4 C22.627417,4 28,9.372583 28,16 C28,22.627417 22.627417,28 16,28 Z M16,26 C21.5228475,26 26,21.5228475 26,16 C26,10.4771525 21.5228475,6 16,6 C10.4771525,6 6,10.4771525 6,16 C6,21.5228475 10.4771525,26 16,26 Z M14.1081259,19.9153425 C13.7472771,20.0961844 13.2929286,19.9777756 13.0933102,19.6508691 C13.0321067,19.5506388 13,19.4379702 13,19.3234258 L13,12.6764499 C13,12.3028569 13.3343021,12 13.7466847,12 C13.8772072,12 14.0054498,12.0309956 14.1186266,12.0898964 L20.625131,15.4760917 C20.9827102,15.6621875 21.1060614,16.0756569 20.9006436,16.3996014 C20.8327701,16.506638 20.7338607,16.5948086 20.6146304,16.6545618 L14.1081259,19.9153425 Z" transform="translate(145 51)"/>
  </g>
</svg>
