<svg xmlns="http://www.w3.org/2000/svg" width="32" height="32" viewBox="0 0 32 32">
  <g fill="none" fill-rule="evenodd" transform="translate(-145 -497)">
    <path fill="#212121" fill-rule="nonzero" d="M16,28 C9.372583,28 4,22.627417 4,16 C4,9.372583 9.372583,4 16,4 C22.627417,4 28,9.372583 28,16 C28,22.627417 22.627417,28 16,28 Z M16,26 C21.5228475,26 26,21.5228475 26,16 C26,10.4771525 21.5228475,6 16,6 C10.4771525,6 6,10.4771525 6,16 C6,21.5228475 10.4771525,26 16,26 Z M16,20 C13.790861,20 12,18.209139 12,16 C12,13.790861 13.790861,12 16,12 C18.209139,12 20,13.790861 20,16 C20,18.209139 18.209139,20 16,20 Z" transform="translate(145 497)"/>
  </g>
</svg>
