<svg xmlns="http://www.w3.org/2000/svg" width="32" height="32" viewBox="0 0 32 32">
  <path fill="#212121" fill-rule="evenodd" d="M7,22 L11,22 C11.5522847,22 12,22.4477153 12,23 C12,23.5522847 11.5522847,24 11,24 L7,24 C6.44771525,24 6,23.5522847 6,23 C6,22.4477153 6.44771525,22 7,22 Z M14,22 L18,22 C18.5522847,22 19,22.4477153 19,23 C19,23.5522847 18.5522847,24 18,24 L14,24 C13.4477153,24 13,23.5522847 13,23 C13,22.4477153 13.4477153,22 14,22 Z M14,18 L18,18 C18.5522847,18 19,18.4477153 19,19 C19,19.5522847 18.5522847,20 18,20 L14,20 C13.4477153,20 13,19.5522847 13,19 C13,18.4477153 13.4477153,18 14,18 Z M21,22 L25,22 C25.5522847,22 26,22.4477153 26,23 C26,23.5522847 25.5522847,24 25,24 L21,24 C20.4477153,24 20,23.5522847 20,23 C20,22.4477153 20.4477153,22 21,22 Z M7,18 L11,18 C11.5522847,18 12,18.4477153 12,19 C12,19.5522847 11.5522847,20 11,20 L7,20 C6.44771525,20 6,19.5522847 6,19 C6,18.4477153 6.44771525,18 7,18 Z M7,14 L11,14 C11.5522847,14 12,14.4477153 12,15 C12,15.5522847 11.5522847,16 11,16 L7,16 C6.44771525,16 6,15.5522847 6,15 C6,14.4477153 6.44771525,14 7,14 Z M7,10 L11,10 C11.5522847,10 12,10.4477153 12,11 C12,11.5522847 11.5522847,12 11,12 L7,12 C6.44771525,12 6,11.5522847 6,11 C6,10.4477153 6.44771525,10 7,10 Z"/>
</svg>
