<svg xmlns="http://www.w3.org/2000/svg" width="32" height="32" viewBox="0 0 32 32">
  <path fill="#212121" d="M19.5306522,18.6164386 L24.1819805,23.267767 C24.5725048,23.6582912 24.5725048,24.2914562 24.1819805,24.6819805 C23.7914562,25.0725048 23.1582912,25.0725048 22.767767,24.6819805 L18.0388807,19.9530943 C17.0205747,20.6152971 15.8052135,21 14.5,21 C10.9101491,21 8,18.0898509 8,14.5 C8,10.9101491 10.9101491,8 14.5,8 C18.0898509,8 21,10.9101491 21,14.5 C21,16.0621088 20.4489576,17.4955148 19.5306522,18.6164386 Z M14.5,19 C16.9852814,19 19,16.9852814 19,14.5 C19,12.0147186 16.9852814,10 14.5,10 C12.0147186,10 10,12.0147186 10,14.5 C10,16.9852814 12.0147186,19 14.5,19 Z"/>
</svg>
