<svg xmlns="http://www.w3.org/2000/svg" width="32" height="32" viewBox="0 0 32 32">
  <path fill="#212121" fill-rule="evenodd" d="M8,8 L10,8 C10.5522847,8 11,8.44771525 11,9 L11,17 C11,17.5522847 10.5522847,18 10,18 L8,18 L8,8 Z M19.6099504,20.0995037 L20,24 C20,24.552 19.553,25 19,25 L18.4755262,24.9999965 C17.6552882,24.9999965 16.9182022,24.4991725 16.6161121,23.7365901 C15.9085124,21.9503578 14.591475,20.5794945 12.665,19.624 C12.1103518,19.3489052 12,18.426 12,17.741 L12,10 C12,8.896 12.896,8 14,8 L21.435,8 C22.577,8 23.62,8.648 24.125,9.673 C24.4616667,10.3563333 24.7533333,12.7986667 25,17 C25,18.104 24.104,19 23,19 L20.6049876,19 C20.0527028,19 19.6049876,19.4477153 19.6049876,20 C19.6049876,20.0332298 19.6066439,20.0664389 19.6099504,20.0995037 Z"/>
</svg>
