<svg xmlns="http://www.w3.org/2000/svg" width="32" height="32" viewBox="0 0 32 32">
  <g fill="none" fill-rule="evenodd" transform="translate(-185 -436)">
    <path fill="#212121" fill-rule="nonzero" d="M13,16.9625881 L18.8918741,19.9153425 C19.2527229,20.0961844 19.7070714,19.9777756 19.9066898,19.6508691 C19.9678933,19.5506388 20,19.4379702 20,19.3234258 L20,12.6764499 C20,12.3028569 19.6656979,12 19.2533153,12 C19.1227928,12 18.9945502,12.0309956 18.8813734,12.0898964 L13,15.1507533 L13,12.8 C13,12.3581722 12.5522847,12 12,12 C11.4477153,12 11,12.3581722 11,12.8 L11,19.2 C11,19.6418278 11.4477153,20 12,20 C12.5522847,20 13,19.6418278 13,19.2 L13,16.9625881 Z M4,4 L28,4 L28,28 L4,28 L4,4 Z" transform="translate(185 436)"/>
  </g>
</svg>
