<svg xmlns="http://www.w3.org/2000/svg" width="32" height="32" viewBox="0 0 32 32">
  <path fill="#212121" fill-rule="evenodd" d="M7,4 L25,4 C26.1045695,4 27,4.8954305 27,6 L27,26 C27,27.1045695 26.1045695,28 25,28 L7,28 C5.8954305,28 5,27.1045695 5,26 L5,6 C5,4.8954305 5.8954305,4 7,4 Z M18.0355339,11.4289322 L9,20.4612427 L9,24 L12.5,24 L21.5710678,14.9644661 L18.0355339,11.4289322 Z M18.7398626,14.961688 L11.6738711,22 L11,22 L11,21.2898788 L18.0352816,14.257107 L18.7398626,14.961688 Z M22.2297663,14.3108305 L23.9419744,12.6117828 C24.3335455,12.2232214 24.3365058,11.5909619 23.9485903,11.1987508 L21.8513381,9.07827464 C21.4639475,8.68659418 20.8327391,8.68199486 20.4396819,9.06798856 L18.6573562,10.8182845 L22.2297663,14.3108305 Z"/>
</svg>
