<svg xmlns="http://www.w3.org/2000/svg" width="32" height="32" viewBox="0 0 32 32">
  <path fill="none" stroke="#212121" stroke-width="2" d="M20.8388351,18.510408 L24.8890873,22.5606602 C25.6701359,23.3417088 25.6701359,24.6080387 24.8890873,25.3890873 C24.1080387,26.1701359 22.8417088,26.1701359 22.0606602,25.3890873 L17.872293,21.2007201 C16.8379473,21.7222648 15.6887396,22 14.5,22 C10.3578644,22 7,18.6421356 7,14.5 C7,10.3578644 10.3578644,7 14.5,7 C18.6421356,7 22,10.3578644 22,14.5 C22,15.9431511 21.5902601,17.3252268 20.8388351,18.510408 Z M14.5,18 C16.4329966,18 18,16.4329966 18,14.5 C18,12.5670034 16.4329966,11 14.5,11 C12.5670034,11 11,12.5670034 11,14.5 C11,16.4329966 12.5670034,18 14.5,18 Z"/>
</svg>
