<svg xmlns="http://www.w3.org/2000/svg" width="32" height="32" viewBox="0 0 32 32">
  <path fill="#212121" fill-rule="evenodd" d="M8,24 L8,14 L10,14 C10.5522847,14 11,14.4477153 11,15 L11,23 C11,23.5522847 10.5522847,24 10,24 L8,24 Z M19.6099504,11.9004963 C19.6066439,11.9335611 19.6049876,11.9667702 19.6049876,12 C19.6049876,12.5522847 20.0527028,13 20.6049876,13 L23,13 C24.104,13 25,13.896 25,15 C24.7533333,19.2013333 24.4616667,21.6436667 24.125,22.327 C23.62,23.352 22.577,24 21.435,24 L14,24 C12.896,24 12,23.104 12,22 L12,14.259 C12,13.574 12.1103518,12.6510948 12.665,12.376 C14.591475,11.4205055 15.9085124,10.0496422 16.6161121,8.26340994 C16.9182022,7.5008275 17.6552882,7.00000351 18.4755262,7.00000351 L19,7 C19.553,7 20,7.448 20,8 L19.6099504,11.9004963 Z"/>
</svg>
