<svg xmlns="http://www.w3.org/2000/svg" width="32" height="32" viewBox="0 0 32 32">
  <g fill="none" fill-rule="evenodd" transform="translate(-145 -169)">
    <path fill="#212121" fill-rule="nonzero" d="M16,28 C9.372583,28 4,22.627417 4,16 C4,9.372583 9.372583,4 16,4 C22.627417,4 28,9.372583 28,16 C28,22.627417 22.627417,28 16,28 Z M14,12 C13.4477153,12 13,12.3581722 13,12.8 L13,19.2 C13,19.6418278 13.4477153,20 14,20 C14.5522847,20 15,19.6418278 15,19.2 L15,12.8 C15,12.3581722 14.5522847,12 14,12 Z M18,12 C17.4477153,12 17,12.3581722 17,12.8 L17,19.2 C17,19.6418278 17.4477153,20 18,20 C18.5522847,20 19,19.6418278 19,19.2 L19,12.8 C19,12.3581722 18.5522847,12 18,12 Z" transform="translate(145 169)"/>
  </g>
</svg>
