<svg xmlns="http://www.w3.org/2000/svg" width="32" height="32" viewBox="0 0 32 32">
  <g fill="none" fill-rule="evenodd" transform="translate(-145 -81)">
    <path fill="#212121" fill-rule="nonzero" d="M16,28 C9.372583,28 4,22.627417 4,16 C4,9.372583 9.372583,4 16,4 C22.627417,4 28,9.372583 28,16 C28,22.627417 22.627417,28 16,28 Z M14.1081259,19.9153425 L20.6146304,16.6545618 C20.7338607,16.5948086 20.8327701,16.506638 20.9006436,16.3996014 C21.1060614,16.0756569 20.9827102,15.6621875 20.625131,15.4760917 L14.1186266,12.0898964 C14.0054498,12.0309956 13.8772072,12 13.7466847,12 C13.3343021,12 13,12.3028569 13,12.6764499 L13,19.3234258 C13,19.4379702 13.0321067,19.5506388 13.0933102,19.6508691 C13.2929286,19.9777756 13.7472771,20.0961844 14.1081259,19.9153425 Z" transform="translate(145 81)"/>
  </g>
</svg>
