<svg xmlns="http://www.w3.org/2000/svg" width="32" height="32" viewBox="0 0 32 32">
  <path fill="#212121" fill-rule="evenodd" d="M7,4 L25,4 C26.1045695,4 27,4.8954305 27,6 L27,26 C27,27.1045695 26.1045695,28 25,28 L7,28 C5.8954305,28 5,27.1045695 5,26 L5,6 C5,4.8954305 5.8954305,4 7,4 Z M15,15 L13,15 L16,19 L19,15 L17,15 L17,10 L15,10 L15,15 Z M9,21 C8.44771525,21 8,21.4477153 8,22 C8,22.5522847 8.44771525,23 9,23 L23,23 C23.5522847,23 24,22.5522847 24,22 C24,21.4477153 23.5522847,21 23,21 L9,21 Z"/>
</svg>
