<svg xmlns="http://www.w3.org/2000/svg" width="32" height="32" viewBox="0 0 32 32">
  <g fill="none" fill-rule="evenodd" transform="translate(-145 -587)">
    <path fill="#212121" d="M23,18 L23,21 C23,21.1265081 22.9765084,21.2475295 22.9336495,21.3589398 L16.7800565,16.1045954 L22.8105524,11.4142097 C22.92974,11.5788415 23,11.7812157 23,12 L23,15 L22,15 L22,18 L23,18 L23,20 L25,20 L25,22 C25,23.1045695 24.1045695,24 23,24 L5,24 C3.8954305,24 3,23.1045695 3,22 L3,11 C3,9.8954305 3.8954305,9 5,9 L23,9 C24.1045695,9 25,9.8954305 25,11 L25,13 L23,13 L23,15 L26,15 L26,13 L30,16.5 L26,20 L26,18 L23,18 Z M22.1340081,21.9910984 L15.9741544,16.7314082 L15.2278812,17.3118429 C14.5056603,17.8735703 13.4943397,17.8735703 12.7721188,17.3118429 L12.0252571,16.7309504 L5.86585145,21.9910796 C5.90973039,21.9969626 5.95451049,22 6,22 L22,22 C22.045441,22 22.090174,21.9969691 22.1340081,21.9910984 Z M5.06631611,21.3588503 L11.2193676,16.1041475 L5.18944764,11.4142097 C5.07025998,11.5788415 5,11.7812157 5,12 L5,21 C5,21.1264742 5.02347901,21.2474646 5.06631611,21.3588503 Z M6.62882204,11 L14,16.7331384 L21.371178,11 L6.62882204,11 Z" transform="translate(145 587)"/>
  </g>
</svg>
