<svg xmlns="http://www.w3.org/2000/svg" width="32" height="32" viewBox="0 0 32 32">
  <path fill="#212121" d="M15.2233237,8.83484461 L14.220459,14.795166 L16.5141602,14.3723145 L16.5141602,16.9511719 L18.0905762,12.8587646 L15.3657227,13.4416504 L17.2165664,8.58264179 C17.9517178,8.20640643 18.7766477,8 19.6363636,8 C22.6014138,8 25,10.4301465 25,13.4210526 C25,16.5456624 23.3009391,18.9153694 20.1927706,21.2431041 C19.6185188,21.6731663 17.0808485,23.3961964 16.6451156,23.764085 L16,24.308755 L15.3548844,23.764085 C14.9191515,23.3961964 12.3814812,21.6731663 11.8072294,21.2431041 C8.69906092,18.9153694 7,16.5456624 7,13.4210526 C7,10.4301465 9.39858618,8 12.3636364,8 C13.3994148,8 14.3847004,8.29960356 15.2233237,8.83484461 Z M14.0163464,10.4413756 C13.5220209,10.1569836 12.9559414,10 12.3636364,10 C10.5090502,10 9,11.5289061 9,13.4210526 C9,15.7690411 10.3518173,17.654442 13.0061111,19.6422659 C13.3907253,19.9303069 15.0256949,21.0466038 16,21.7497082 C16.9743051,21.0466038 18.6092747,19.9303069 18.9938889,19.6422659 C21.6481827,17.654442 23,15.7690411 23,13.4210526 C23,11.5289061 21.4909498,10 19.6363636,10 C18.7226991,10 17.871438,10.3735397 17.2496915,11.0120642 L16.6142578,12.3334961 L19.6911621,11.6381836 L16,19.9494629 L15.5344238,15.5671387 L13.1379395,16 L14.0163464,10.4413756 Z"/>
</svg>
