<svg height="32" viewBox="0 0 32 32" width="32" xmlns="http://www.w3.org/2000/svg"><path d="m24.1716035 21.7573899 3.5355033 3.5355033c.3905243.3905243.3905243 1.0236893 0 1.4142136s-1.0236893.3905243-1.4142136 0l-3.5355033-3.5355033c-.790433.5235197-1.7383076.8283965-2.7573899.8283965-2.7614237 0-5-2.2385763-5-5s2.2385763-5 5-5 5 2.2385763 5 5c0 1.0190823-.3048768 1.9669569-.8283965 2.7573899zm-3.1716035-8.6744315c-.3252085-.0545596-.6592878-.0829584-1-.0829584-1.2412084 0-2.3943895.3768894-3.351345 1.0224698-.0469608-.0146031-.0968892-.0224698-.148655-.0224698h-4c-.2761424 0-.5.2238576-.5.5s.2238576.5.5.5h3.027787c-.5165148.5770959-.9229712 1.2547604-1.1863756 2h-1.8414114c-.2761424 0-.5.2238576-.5.5s.2238576.5.5.5h1.5829584c-.0545596.3252085-.0829584.6592878-.0829584 1s.0283988.6747915.0829584 1h-1.5829584c-.2761424 0-.5.2238576-.5.5s.2238576.5.5.5h1.8414114c.8236728 2.3303847 3.0461509 4 5.6585886 4 .2884349 0 .5721163-.0203526.8496862-.0597001-.394508 1.1962719-1.5212649 2.0597001-2.8496862 2.0597001h-10c-1.65685425 0-3-1.3431458-3-3v-15c0-1.65685425 1.34314575-3 3-3h10c1.6568542 0 3 1.34314575 3 3zm-11.5-2.0829584c-.27614237 0-.5.2238576-.5.5s.22385763.5.5.5h1c.2761424 0 .5-.2238576.5-.5s-.2238576-.5-.5-.5zm3 0c-.2761424 0-.5.2238576-.5.5s.2238576.5.5.5h4c.2761424 0 .5-.2238576.5-.5s-.2238576-.5-.5-.5zm-3 3c-.27614237 0-.5.2238576-.5.5s.22385763.5.5.5h1c.2761424 0 .5-.2238576.5-.5s-.2238576-.5-.5-.5zm0 3c-.27614237 0-.5.2238576-.5.5s.22385763.5.5.5h1c.2761424 0 .5-.2238576.5-.5s-.2238576-.5-.5-.5zm0 3c-.27614237 0-.5.2238576-.5.5s.22385763.5.5.5h1c.2761424 0 .5-.2238576.5-.5s-.2238576-.5-.5-.5zm10.5 2c1.6568542 0 3-1.3431458 3-3s-1.3431458-3-3-3-3 1.3431458-3 3 1.3431458 3 3 3z" fill="#212121"/></svg>