<svg height="32" viewBox="0 0 32 32" width="32" xmlns="http://www.w3.org/2000/svg"><g fill="none" fill-rule="evenodd"><path d="m25.2463513 11.6716138 3.1464877 7.4729083c.3601378.219259.5645835.6579183.4495805 1.1047364-.5642281 2.19218-2.547656 3.7507415-4.8424195 3.7507415s-4.2781914-1.5585615-4.8424195-3.7507415c-.115003-.4468181.0894427-.8854774.4495805-1.1047364l3.1249358-7.4217225-12.1508507-3.25581066 2.8115929 6.67753316c.3601378.219259.5645835.6579183.4495805 1.1047364-.5642281 2.19218-2.547656 3.7507415-4.8424195 3.7507415s-4.27819136-1.5585615-4.84241951-3.7507415c-.11500301-.4468181.08944269-.8854774.44958052-1.1047364l3.18963965-7.57539418c-.42449333-.36396902-.62748492-.9517216-.47309601-1.52790885.21441272-.80019915 1.03691815-1.27507289 1.83711731-1.06066017l15.45481324 4.14110472c.8001991.21441272 1.2750729 1.03691818 1.0606601 1.83711728-.076103.2840205-.2288138.5270563-.429944.7128329zm-.9183046.3959677c-.1602848.010762-.3250442-.0042438-.4888687-.0481404l-.1320564-.0353844-2.9540814 7.0159433h6.4939196zm-14.9698091-3.9282967-.64383704-.17251561-2.96136035 7.03323081h6.49391959zm5.6417624 16.8607152v-15.34900952l3 .80384762v14.5451619h6.5c.8284271 0 1.5.6715729 1.5 1.5s-.6715729 1.5-1.5 1.5h-16c-.82842712 0-1.5-.6715729-1.5-1.5s.67157288-1.5 1.5-1.5zm3-17.65099048-3-.80384758v-.04516194c0-.82842712.6715729-1.5 1.5-1.5s1.5.67157288 1.5 1.5z" fill="#212121"/><path d="m27.9947515 19.4875348-3.3453461-7.945197.2576895-.2380184c.1374362-.1269447.2365659-.289571.2862375-.474948.1429418-.5334661-.1736406-1.08180305-.7071067-1.22474487l-15.45481327-4.14110472c-.5334661-.14294181-1.08180306.17364068-1.22474487.70710678-.10066595.37569045.02536647.77008008.3155894 1.01892299l.27690962.2374278-3.39391809 8.06055542-.13807535.084063c-.18711337.1139183-.28122967.3360175-.22537415.5530314.50998842 1.981444 2.30207521 3.3753708 4.35820101 3.3753708s3.8482126-1.3939268 4.358201-3.3753708c.0558555-.2170139-.0382608-.4391131-.2253741-.5530314l-.1380754-.084063-3.27067915-7.76786296 13.69139305 3.66859776-3.4102169 8.0992652-.1380754.084063c-.1871133.1139183-.2812296.3360175-.2253741.5530314.5099884 1.981444 2.3020752 3.3753708 4.358201 3.3753708s3.8482126-1.3939268 4.358201-3.3753708c.0558555-.2170139-.0382608-.4391131-.2253741-.5530314zm-3.7002008-7.9188301.3558952-.0238958 3.3495541 7.9551911h-8l3.4154654-8.1117304.5531222.1482086c.1079301.0289198.2175236.0395075.3259631.0322265zm-15.87180631-4.19772264 1.30132796.34868978 3.27592765 7.78032816h-8zm9.07725561 3.46751954-2-.5358984v15.1973968h-7c-.55228475 0-1 .4477153-1 1s.44771525 1 1 1h16c.5522847 0 1-.4477153 1-1s-.4477153-1-1-1h-7zm0-4.14110477v-.19739683c0-.55228475-.4477153-1-1-1-.4388436 0-.8116637.28268015-.9463057.6758858z" stroke="#212121"/></g></svg>