<svg height="32" viewBox="0 0 32 32" width="32" xmlns="http://www.w3.org/2000/svg"><path d="m25.2463513 11.6716138 3.1464877 7.4729083c.3601378.219259.5645835.6579183.4495805 1.1047364-.5642281 2.19218-2.547656 3.7507415-4.8424195 3.7507415s-4.2781914-1.5585615-4.8424195-3.7507415c-.115003-.4468181.0894427-.8854774.4495805-1.1047364l3.1249358-7.4217225-12.1508507-3.25581066 2.8115929 6.67753316c.3601378.219259.5645835.6579183.4495805 1.1047364-.5642281 2.19218-2.547656 3.7507415-4.8424195 3.7507415s-4.27819136-1.5585615-4.84241951-3.7507415c-.11500301-.4468181.08944269-.8854774.44958052-1.1047364l3.18963965-7.57539418c-.42449333-.36396902-.62748492-.9517216-.47309601-1.52790885.21441272-.80019915 1.03691815-1.27507289 1.83711731-1.06066017l15.45481324 4.14110472c.8001991.21441272 1.2750729 1.03691818 1.0606601 1.83711728-.076103.2840205-.2288138.5270563-.429944.7128329zm-.9183046.3959677c-.1602848.010762-.3250442-.0042438-.4888687-.0481404l-.1320564-.0353844-2.9540814 7.0159433h6.4939196zm-.8125249-2.2054162-13.91695366-3.72903648.49133896 1.16693006 13.0339022 3.49242352zm-14.1572842-1.7228805-.64383704-.17251561-2.96136035 7.03323081h6.49391959zm-1.08567849-1.7000832.15751743-.37410389c-.06562661.06157667-.11544144.14162189-.14044606.23494041-.0124686.04653344-.01794433.09329318-.01707137.13916348zm6.72744089 18.5607984v-15.34900952l3 .80384762v14.5451619h6.5c.8284271 0 1.5.6715729 1.5 1.5s-.6715729 1.5-1.5 1.5h-16c-.82842712 0-1.5-.6715729-1.5-1.5s.67157288-1.5 1.5-1.5zm3-17.65099048-3-.80384758v-.04516194c0-.82842712.6715729-1.5 1.5-1.5s1.5.67157288 1.5 1.5zm-9 11.65099048c1.8638394 0 3.4299397-1.2747728 3.8739825-3h-7.74796501c.44404279 1.7252272 2.01014308 3 3.87398251 3zm15 4c1.8638394 0 3.4299397-1.2747728 3.8739825-3h-7.747965c.4440428 1.7252272 2.0101431 3 3.8739825 3z" fill="#212121"/></svg>