<svg height="32" viewBox="0 0 32 32" width="32" xmlns="http://www.w3.org/2000/svg"><path d="m26.6875 22-1.23302 3.9456641c-.0978537.3131318-.3430732.5583513-.656205.656205-.5271447.1647327-1.0880222-.1290603-1.252755-.656205l-1.23302-3.9456641h-.3125v-13c0-1.1045695.8954305-2 2-2h1c1.1045695 0 2 .8954305 2 2v13zm-18.6875-16h10c1.6568542 0 3 1.34314575 3 3v15c0 1.6568542-1.3431458 3-3 3h-10c-1.65685425 0-3-1.3431458-3-3v-15c0-1.65685425 1.34314575-3 3-3zm1.5 5c-.27614237 0-.5.2238576-.5.5s.22385763.5.5.5h7c.2761424 0 .5-.2238576.5-.5s-.2238576-.5-.5-.5zm0 3c-.27614237 0-.5.2238576-.5.5s.22385763.5.5.5h7c.2761424 0 .5-.2238576.5-.5s-.2238576-.5-.5-.5zm0 3c-.27614237 0-.5.2238576-.5.5s.22385763.5.5.5h7c.2761424 0 .5-.2238576.5-.5s-.2238576-.5-.5-.5zm3.8816253 4.4137269c-.0067303.0217181-.0067303.0217181-.0134787.0435198-.186405.6024708-.2573068.8906267-.2573068 1.1853314 0 .7319979.5715408.8122795 1.2705834.5994524.3422627-.1042036.6476224-.2349051 1.4422935-.5985237l.0252727-.011563c.9479561-.4336661 1.4340081-.6148377 1.5572757-.5929884.2719041.0481952.5313959-.1331567.5795911-.4050608s-.1331567-.5313958-.4050608-.579591c-.4372332-.0774999-.8711641.084244-2.1478155.6682799l-.0253451.0115961c-.6692638.3062359-.9723851.4379949-1.2307517.5236382.0339493-.1318541.0820259-.296344.1465825-.5049945.006652-.0214902.006652-.0214902.0133336-.0430512.2102263-.6782836.2707854-.9135357.2707854-1.1995001 0-.6697553-.5425754-.9502795-1.1965763-.6651363-1.0344647.4510249-1.8385942 1.262082-2.7378847 2.5042294-.1619371.223676-.1118877.5362773.1117883.6982144.2236761.1619371.5362773.1118878.6982145-.1117883.7105915-.9815065 1.3426527-1.649009 2.051702-2.0383289-.0352546.1297552-.0850869.2964913-.1532031.5162646zm11.1183747 4.2336622 1.1398091-3.6473891h-2.2796182z" fill="#212121"/></svg>