<svg height="32" viewBox="0 0 32 32" width="32" xmlns="http://www.w3.org/2000/svg"><path d="m13.262212 16.4457151c-.7639405-.5437925-1.262212-1.4365651-1.262212-2.4457151 0-1.6568542 1.3431458-3 3-3s3 1.3431458 3 3c0 1.00915-.4982715 1.9019226-1.262212 2.4457151 1.3387167.7275672 2.262212 2.2695983 2.262212 4.0542849 0 .1690045-.0082815.3358331-.0244128.5h-7.9511744c-.0161313-.1641669-.0244128-.3309955-.0244128-.5 0-1.7846866.9234953-3.3267177 2.262212-4.0542849zm10.737788-2.4457151h2c.5522847 0 1 .4477153 1 1v3c0 .5522847-.4477153 1-1 1h-2v5c0 1.6568542-1.3431458 3-3 3h-12c-1.65685425 0-3-1.3431458-3-3v-2h-1c-.55228475 0-1-.4477153-1-1s.44771525-1 1-1h1v-8h-1c-.55228475 0-1-.4477153-1-1s.44771525-1 1-1h1v-2c0-1.65685425 1.34314575-3 3-3h12c1.6568542 0 3 1.34314575 3 3h2c.5522847 0 1 .44771525 1 1v3c0 .5522847-.4477153 1-1 1h-2zm-15-7c-.55228475 0-1 .44771525-1 1v16c0 .5522847.44771525 1 1 1h12c.5522847 0 1-.4477153 1-1v-16c0-.55228475-.4477153-1-1-1zm15 2v3h2v-3zm0 6v3h2v-3zm-9 1c1.1045695 0 2-.8954305 2-2s-.8954305-2-2-2-2 .8954305-2 2 .8954305 2 2 2zm2.9696909 4c-.2098444-1.7138601-1.4822871-3-2.9696909-3s-2.7598465 1.2861399-2.9696909 3z" fill="#212121" fill-rule="evenodd"/></svg>