<svg height="32" viewBox="0 0 32 32" width="32" xmlns="http://www.w3.org/2000/svg"><path d="m25 23v3h-2v-3h-2l3-4 3 4zm3-5.1238422c1.5217696 1.1896753 2.5 3.0425198 2.5 5.1238422 0 3.5898509-2.9101491 6.5-6.5 6.5-2.8920408 0-5.3429436-1.888736-6.1865006-4.5h-11.8134994c-1.1045695 0-2-.8954305-2-2v-13c0-1.1045695.8954305-2 2-2h20c1.1045695 0 2 .8954305 2 2zm-22-5.8761578v3h20v-3zm1 7v1h2v-1zm3 0v1h3v-1zm14 9.5c3.0375661 0 5.5-2.4624339 5.5-5.5s-2.4624339-5.5-5.5-5.5-5.5 2.4624339-5.5 5.5 2.4624339 5.5 5.5 5.5z" fill="#212121"/></svg>