<svg height="32" viewBox="0 0 32 32" width="32" xmlns="http://www.w3.org/2000/svg"><path d="m11.3507811 23-3.101391 2.4811128c-.3546261.2837008-.79524711.4382624-1.2493901.4382624-1.1045695 0-2-.8954305-2-2v-12.9193752c0-2.209139 1.790861-4 4-4h14c2.209139 0 4 1.790861 4 4v8c0 2.209139-1.790861 4-4 4zm3.9712189-6.453h1.98c.0366669-.1100006.055-.2713323.055-.484 0-.2053344-.0183331-.3703327-.055-.495h-2.134c-.0073334-.058667-.011-.122833-.011-.1925v-.5775h2.145c.0366669-.1100006.055-.2713323.055-.484 0-.2053344-.0183331-.3703327-.055-.495h-2.002c.1026672-.3520018.2603323-.6178324.473-.7975s.5096648-.2695.891-.2695c.2346678 0 .4546656.0201665.66.0605s.4546652.1118328.748.2145c.1026672-.1906676.1979996-.4216653.286-.693s.1393333-.5573318.154-.858c-.1906676-.0733337-.3703325-.1356664-.539-.187s-.3336659-.0916665-.495-.121-.3208325-.0494999-.4785-.0605-.3244991-.0165-.5005-.0165c-.4693357 0-.8836649.0659993-1.243.198s-.6709987.3189988-.935.561-.4803325.5298317-.649.8635-.2933329.7021646-.374 1.1055h-.957c-.0366668.1246673-.055.2896656-.055.495 0 .2126677.0183332.3739994.055.484h.825v.572c0 .0660003.0036666.1319997.011.198h-.836c-.0366668.1246673-.055.2896656-.055.495 0 .2126677.0183332.3739994.055.484h.957c.0806671.3886686.2034992.7424984.3685 1.0615s.3794987.5921655.6435.8195.5774982.4014994.9405.5225.7864976.1815 1.2705.1815c.3520018 0 .6856651-.0238331 1.001-.0715s.6819979-.1484992 1.1-.3025c-.0366668-.2713347-.089833-.5316654-.1595-.781s-.1668327-.5059987-.2915-.77c-.2346678.0806671-.4711655.1448331-.7095.1925s-.4784988.0715-.7205.0715c-.396002 0-.7058322-.0751659-.9295-.2255s-.3868328-.3831651-.4895-.6985z" fill="#212121"/></svg>