<svg height="32" viewBox="0 0 32 32" width="32" xmlns="http://www.w3.org/2000/svg"><path d="m18.6400146 17.6565783v-1.0348905c-.3167929.0997124-.65136.1826811-1 .2452629v1.0287678c.3664227-.0566914.6993075-.1364465 1-.2391402zm1-.5073779c.4643769-.3397526.7935154-.7806118 1-1.3214086v-.2228973c-.2838849.2246994-.62057.434709-1 .6201303zm-3 .8406875v-1.0045268c-.164681.0096535-.3314551.0146389-.5.0146389-.1685448 0-.3353189-.0049854-.5-.0146389v1.0045268c.1616044.0067391.3282462.0101121.5.0101121.1717539 0 .3383957-.003373.5-.0101121zm-2-.0941694v-1.0287678c-.3486399-.0625818-.683207-.1455505-1-.2452629v1.0348905c.3006926.1026937.6335774.1824488 1 .2391402zm-2-.7465181v-.9241756c-.3794299-.1854213-.716115-.3954309-1-.6201303v.2228973c.2064847.5407968.5356232.981656 1 1.3214086zm-.9787818-3.0337123c.0894386.2670062.4604884.6712263 1.0915001 1.0372984.9084128.5270023 2.1236638.8472135 3.3872817.8472135 1.263618 0 2.478869-.3202112 3.3872818-.8472135.6315885-.3664067 1.0027396-.7710312 1.0917447-1.0380303-.5545561-1.4021907-1.9688951-2.1147562-4.4758526-2.1147562-2.5069369 0-3.9237386.7127977-4.4819557 2.1154881zm-.3104517 8.8845119-3.101391 2.4811128c-.3546261.2837008-.79524711.4382624-1.2493901.4382624-1.1045695 0-2-.8954305-2-2v-12.9193752c0-2.209139 1.790861-4 4-4h14c2.209139 0 4 1.790861 4 4v8c0 2.209139-1.790861 4-4 4zm11.6492189-2c1.1045695 0 2-.8954305 2-2v-8c0-1.1045695-.8954305-2-2-2h-14c-1.1045695 0-2 .8954305-2 2v12.9193752l3.6492189-2.9193752zm-12.3599854-7c.6556804-2 2.4900717-3 5.5031739-3s4.8453776 1 5.4968261 3v2c-.6640625 2-2.4973958 3-5.5 3-3.0026041 0-4.8359375-1-5.5-3z" fill="#212121"/></svg>