<svg height="32" viewBox="0 0 32 32" width="32" xmlns="http://www.w3.org/2000/svg"><path d="m11.3507811 23-3.101391 2.4811128c-.3546261.2837008-.79524711.4382624-1.2493901.4382624-1.1045695 0-2-.8954305-2-2v-12.9193752c0-2.209139 1.790861-4 4-4h14c2.209139 0 4 1.790861 4 4v8c0 2.209139-1.790861 4-4 4zm11.6492189-2c1.1045695 0 2-.8954305 2-2v-8c0-1.1045695-.8954305-2-2-2h-14c-1.1045695 0-2 .8954305-2 2v12.9193752l3.6492189-2.9193752zm-7.756-5.388h-1.65c-.0366669-.1100005-.055-.2786655-.055-.506 0-.1026672.0054999-.1998329.0165-.2915s.0238333-.166833.0385-.2255h1.199l-1.771-3.366c.1026672-.0146667.258499-.0293333.4675-.044s.4088324-.022.5995-.022c.1540008 0 .3244991.0073333.5115.022s.3354994.0293333.4455.044l1.221 2.64 1.166-2.64c.1686675-.0293335.3373325-.0476666.506-.055s.3483324-.011.539-.011c.1246673 0 .2841657.0054999.4785.0165s.3538327.0274999.4785.0495l-1.793 3.366h1.375c.0146667.058667.0274999.1338329.0385.2255s.0165.1888328.0165.2915c0 .2273345-.0183332.3959995-.055.506h-1.826v.682h1.826c.0146667.058667.0274999.1338329.0385.2255s.0165.1888328.0165.2915c0 .2273345-.0183332.3959995-.055.506h-1.826v1.661c-.1906676.0366669-.3666659.0604999-.528.0715s-.3079993.0165-.44.0165c-.1246673 0-.2713325-.0054999-.44-.0165s-.3483324-.0348331-.539-.0715v-1.661h-1.65c-.0366669-.1100005-.055-.2786655-.055-.506 0-.1026672.0054999-.1998329.0165-.2915s.0238333-.166833.0385-.2255h1.65z" fill="#212121"/></svg>