<svg height="32" viewBox="0 0 32 32" width="32" xmlns="http://www.w3.org/2000/svg"><path d="m16 15v-3c-1.6568542 0-3-1.3431458-3-3v-1c0-1.65685425 1.3431458-3 3-3h1c1.6568542 0 3 1.34314575 3 3v1c0 1.6568542-1.3431458 3-3 3v3h5c1.6568542 0 3 1.3431458 3 3v1c1.6568542 0 3 1.3431458 3 3v1c0 1.6568542-1.3431458 3-3 3h-1c-1.6568542 0-3-1.3431458-3-3v-1c0-1.6568542 1.3431458-3 3-3v-1c0-1.1045695-.8954305-2-2-2h-5v3c1.6568542 0 3 1.3431458 3 3v1c0 1.6568542-1.3431458 3-3 3h-1c-1.6568542 0-3-1.3431458-3-3v-1c0-1.6568542 1.3431458-3 3-3v-3h-5c-1.1045695 0-2 .8954305-2 2v1c1.6568542 0 3 1.3431458 3 3v1c0 1.6568542-1.3431458 3-3 3h-1c-1.65685425 0-3-1.3431458-3-3v-1c0-1.6568542 1.34314575-3 3-3v-1c0-1.6568542 1.34314575-3 3-3z" fill="#212121"/></svg>