<svg height="32" viewBox="0 0 32 32" width="32" xmlns="http://www.w3.org/2000/svg"><path d="m16.767767 2.80873164v13.04482176l9.22427 9.2242701-.8293273.7020358c-2.3299635 1.972343-5.2788487 3.0736941-8.3949427 3.0736941-7.17970179 0-13.00000005-5.8202983-13.00000005-13 0-6.77658138 5.20504293-12.40175093 11.91778105-12.95554052zm-2 2.22588102c-5.14534524.94333714-9.00000005 5.45519594-9.00000005 10.81894074 0 6.0751322 4.92486775 11 11.00000005 11 2.2650323 0 4.4222892-.6859707 6.23524-1.9363329l-8.23524-8.23524zm14 10.81894074c0 2.9537032-1.0671569 5.6581587-2.8369454 7.748841l-8.1630546-8.1630546v-11.54471263c6.1595305.5081509 11 5.66826245 11 11.95892623zm-10-.8284271 7.0636671 7.0636671c1.2503622-1.8129507 1.9363329-3.9702076 1.9363329-6.23524 0-5.3637448-3.8546549-9.8756036-9-10.81894074z" fill="#212121"/></svg>