<svg height="32" viewBox="0 0 32 32" width="32" xmlns="http://www.w3.org/2000/svg"><path d="m23 22h2.5c.2761424 0 .5.2238576.5.5s-.2238576.5-.5.5h-3c-.1380712 0-.2630712-.0559644-.3535534-.1464466s-.1464466-.2154822-.1464466-.3535534v-4c0-.2761424.2238576-.5.5-.5s.5.2238576.5.5zm2-7.6264018c-.790422-.2428757-1.6299451-.3735982-2.5-.3735982-.8755384 0-1.7201589.1323754-2.514939.3782037-.0543831-.2172771-.2509288-.3782037-.485061-.3782037h-4c-.2761424 0-.5.2238576-.5.5s.2238576.5.5.5h2.9964485c-.9472738.5067193-1.7873492 1.187656-2.4774161 2h-.5190324c-.2761424 0-.5.2238576-.5.5 0 .2091997.1284777.3883917.3108342.4629774-.8302593 1.3128363-1.3108342 2.8688073-1.3108342 4.5370226 0 2.0975025.7597345 4.0175596 2.0190324 5.5h-7.0190324c-1.1045695 0-2-.8954305-2-2v-19c0-1.1045695.8954305-2 2-2h14c1.1045695 0 2 .8954305 2 2zm-12.5-3.3735982c-.2761424 0-.5.2238576-.5.5s.2238576.5.5.5h1c.2761424 0 .5-.2238576.5-.5s-.2238576-.5-.5-.5zm3 0c-.2761424 0-.5.2238576-.5.5s.2238576.5.5.5h4c.2761424 0 .5-.2238576.5-.5s-.2238576-.5-.5-.5zm-3 3c-.2761424 0-.5.2238576-.5.5s.2238576.5.5.5h1c.2761424 0 .5-.2238576.5-.5s-.2238576-.5-.5-.5zm0 3c-.2761424 0-.5.2238576-.5.5s.2238576.5.5.5h1c.2761424 0 .5-.2238576.5-.5s-.2238576-.5-.5-.5zm0 3c-.2761424 0-.5.2238576-.5.5s.2238576.5.5.5h1c.2761424 0 .5-.2238576.5-.5s-.2238576-.5-.5-.5zm10 9.5c-3.8659932 0-7-3.1340068-7-7s3.1340068-7 7-7 7 3.1340068 7 7-3.1340068 7-7 7zm0-1c3.3137085 0 6-2.6862915 6-6s-2.6862915-6-6-6-6 2.6862915-6 6 2.6862915 6 6 6z" fill="#212121"/></svg>