<svg xmlns="http://www.w3.org/2000/svg" width="32" height="32" viewBox="0 0 32 32">
  <path fill="#212121" d="M15,21.2185229 L15,23 L13,23 L13,21 L15,21 L15,17.6797656 L24.0355339,8.64745511 L27.5710678,12.182989 L18.5,21.2185229 L15,21.2185229 Z M23.855002,6 L22.6278587,7.22670545 L21.8404132,8 L7,8 L7,25 L25,25 L25,17.5668779 L27,15.5747125 L27,25 C27,26.1045695 26.1045695,27 25,27 L7,27 C5.8954305,27 5,26.1045695 5,25 L5,8 C5,6.8954305 5.8954305,6 7,6 L10,6 L10,5 C10,4.44771525 10.4477153,4 11,4 C11.5522847,4 12,4.44771525 12,5 L12,6 L20,6 L20,5 C20,4.44771525 20.4477153,4 21,4 C21.5522847,4 22,4.44771525 22,5 L22,6 L23.855002,6 Z M19.8535745,10 L18.8532176,11 L7,11 L7,10 L19.8535745,10 Z M15,14.8518429 L14.8517901,15 L13,15 L13,13 L15,13 L15,14.8518429 Z M9,17 L11,17 L11,19 L9,19 L9,17 Z M9,21 L11,21 L11,23 L9,23 L9,21 Z M24.0352816,11.47563 L17,18.5084017 L17,19.2185229 L17.6738711,19.2185229 L24.7398626,12.1802109 L24.0352816,11.47563 Z M28.2297663,11.5293534 L24.6573562,8.03680744 L26.4396819,6.28651149 C26.8327391,5.90051778 27.4639475,5.9051171 27.8513381,6.29679757 L29.9485903,8.4172737 C30.3365058,8.80948478 30.3335455,9.44174431 29.9419744,9.83030576 L28.2297663,11.5293534 Z"/>
</svg>
