<svg xmlns="http://www.w3.org/2000/svg" width="32" height="32" viewBox="0 0 32 32">
  <path fill="#212121" fill-rule="evenodd" d="M23.5,23.0068125 L25.0654214,22.713663 L26,21 L26.9345786,22.713663 L28.8531695,23.072949 L27.5121799,24.491337 L27.7633558,26.427051 L26,25.59 L24.2366442,26.427051 L24.4878201,24.491337 L23.5,23.4465026 L22.5121799,24.491337 L22.7633558,26.427051 L21,25.59 L19.2366442,26.427051 L19.4878201,24.491337 L18.5,23.4465026 L17.5121799,24.491337 L17.7633558,26.427051 L16,25.59 L14.2366442,26.427051 L14.4878201,24.491337 L13.5,23.4465026 L12.5121799,24.491337 L12.7633558,26.427051 L11,25.59 L9.23664424,26.427051 L9.48782014,24.491337 L8.5,23.4465026 L7.51217986,24.491337 L7.76335576,26.427051 L6,25.59 L4.23664424,26.427051 L4.48782014,24.491337 L3.14683045,23.072949 L5.06542145,22.713663 L6,21 L6.93457855,22.713663 L8.5,23.0068125 L10.0654214,22.713663 L11,21 L11.9345786,22.713663 L13.5,23.0068125 L15.0654214,22.713663 L16,21 L16.9345786,22.713663 L18.5,23.0068125 L20.0654214,22.713663 L21,21 L21.9345786,22.713663 L23.5,23.0068125 Z M16,16.24 L11.297718,18.472136 L11.9675204,13.3102321 L8.39154787,9.52786405 L13.5077905,8.56976794 L16,4 L18.4922095,8.56976794 L23.6084521,9.52786405 L20.0324796,13.3102321 L20.702282,18.472136 L16,16.24 Z M16,14.0261052 L18.247009,15.0927425 L17.9269405,12.6261009 L19.6357369,10.8186775 L17.1909148,10.3608465 L16,8.17716002 L14.8090852,10.3608465 L12.3642631,10.8186775 L14.0730595,12.6261009 L13.752991,15.0927425 L16,14.0261052 Z"/>
</svg>
