<svg xmlns="http://www.w3.org/2000/svg" width="32" height="32" viewBox="0 0 32 32">
  <path fill="#212121" d="M26,14 L27.5,14 C27.7761424,14 28,14.2238576 28,14.5 C28,14.7761424 27.7761424,15 27.5,15 L4.5,15 C4.22385763,15 4,14.7761424 4,14.5 C4,14.2238576 4.22385763,14 4.5,14 L6,14 L6,9 C6,7.34314575 7.34314575,6 9,6 L23,6 C24.6568542,6 26,7.34314575 26,9 L26,14 Z M8,14 L24,14 L24,9 C24,8.44771525 23.5522847,8 23,8 L9,8 C8.44771525,8 8,8.44771525 8,9 L8,14 Z M26,18 L26,23 C26,24.6568542 24.6568542,26 23,26 L9,26 C7.34314575,26 6,24.6568542 6,23 L6,18 C6,17.4477153 6.44771525,17 7,17 L7,17 C7.55228475,17 8,17.4477153 8,18 L8,23 C8,23.5522847 8.44771525,24 9,24 L23,24 C23.5522847,24 24,23.5522847 24,23 L24,18 C24,17.4477153 24.4477153,17 25,17 L25,17 C25.5522847,17 26,17.4477153 26,18 Z"/>
</svg>
