<svg xmlns="http://www.w3.org/2000/svg" width="32" height="32" viewBox="0 0 32 32">
  <path fill="#212121" d="M22,6 L25,6 C26.1045695,6 27,6.8954305 27,8 L27,25 C27,26.1045695 26.1045695,27 25,27 L7,27 C5.8954305,27 5,26.1045695 5,25 L5,8 C5,6.8954305 5.8954305,6 7,6 L10,6 L10,5 C10,4.44771525 10.4477153,4 11,4 C11.5522847,4 12,4.44771525 12,5 L12,6 L20,6 L20,5 C20,4.44771525 20.4477153,4 21,4 C21.5522847,4 22,4.44771525 22,5 L22,6 Z M7,8 L7,25 L25,25 L25,8 L7,8 Z M7,10 L25,10 L25,11 L7,11 L7,10 Z M13,13 L15,13 L15,15 L13,15 L13,13 Z M17,13 L19,13 L19,15 L17,15 L17,13 Z M21,13 L23,13 L23,15 L21,15 L21,13 Z M9,17 L11,17 L11,19 L9,19 L9,17 Z M13,17 L15,17 L15,19 L13,19 L13,17 Z M17,17 L19,17 L19,19 L17,19 L17,17 Z M21,17 L23,17 L23,19 L21,19 L21,17 Z M9,21 L11,21 L11,23 L9,23 L9,21 Z M13,21 L15,21 L15,23 L13,23 L13,21 Z M17,21 L19,21 L19,23 L17,23 L17,21 Z"/>
</svg>
