<svg xmlns="http://www.w3.org/2000/svg" width="32" height="32" viewBox="0 0 32 32">
  <path fill="#212121" d="M15.5778413,21.3970854 C16.1968268,21.9574008 16.4556585,23.0879961 16.55802,24.6483253 C16.5809049,24.9971662 16.5950245,25.3696339 16.6029213,25.7878175 C16.6076368,26.0375306 16.6100241,26.2901383 16.611355,26.6132808 C16.6112998,26.5998649 16.6120505,26.8450602 16.6128827,27.0641312 C19.033973,25.4742117 20.8768207,20.2856775 19.3591802,18.768037 C19.3370626,18.7459194 19.3162029,18.7230333 19.2965993,18.699466 C18.1917106,19.6285752 16.759386,20.6759086 15.5778413,21.3970854 L15.5778413,21.3970854 Z M10.5735282,16.4007796 C11.2546074,15.2419956 12.3051418,13.7813118 13.2605619,12.623213 C11.2525896,11.5155965 7.74841111,12.6814745 5.71814625,15.7434497 C5.95271248,15.7255539 6.15378039,15.710057 6.17781687,15.7082791 C6.48704827,15.6854053 6.74377197,15.6685368 6.98812067,15.655739 C8.02360124,15.6015055 8.77838666,15.6245428 9.38843113,15.7693279 C9.8787706,15.8857028 10.2902315,16.0974042 10.5735282,16.4007796 L10.5735282,16.4007796 Z M16.733391,8.04591805 C21.1488859,4.62710753 25.4935739,2.62542247 28.1381061,3.05851471 C28.5731345,3.12975884 28.9101968,3.47746236 28.9678891,3.91449437 C29.3144537,6.53979477 27.1207762,11.2683505 23.9728825,15.2923969 C23.1709305,16.317556 22.2994724,17.2911755 21.3784925,18.1933016 C23.1561352,21.668747 19.8939052,28.8863854 15.8056817,29.4878959 C15.2508889,29.569524 14.7374348,29.1790741 14.6678461,28.622643 C14.6314288,28.33145 14.6184471,27.9695852 14.6142835,27.3722106 C14.6131662,27.2119114 14.6112707,26.5969192 14.611372,26.621518 C14.6100782,26.3073762 14.6077761,26.063788 14.6032778,25.8255781 C14.595926,25.4362548 14.5829425,25.0937592 14.5623099,24.7792489 C14.5134862,24.0350143 14.4215106,23.4744881 14.2895552,23.1297267 C14.287497,23.1243492 14.2854521,23.1190823 14.2834223,23.1139258 C14.0761234,23.2021844 13.8695378,23.2851678 13.6638374,23.3627729 C13.5707292,23.3979 13.4728992,23.4189325 13.3735811,23.425175 C10.4567671,23.6085084 8.23815874,21.3899 8.60305329,18.5821325 L8.63606848,18.4264053 C8.70730641,18.1864498 8.78725708,17.9455759 8.87580641,17.7039477 C8.4990552,17.6250451 7.91166069,17.6101097 7.09272767,17.6530015 C6.86470434,17.6649443 6.62144977,17.6809277 6.32535303,17.7028299 C6.2806454,17.7061369 5.37128485,17.7764198 5.11689333,17.7937839 C4.65937814,17.8250125 4.30727538,17.8404615 3.99785776,17.8394743 C3.28348275,17.8371949 2.80183623,17.10823 3.07992817,16.4502013 C5.17568991,11.4911532 10.331311,9.21452323 13.7483432,10.6415872 C14.650773,9.7537511 15.6492847,8.88531526 16.733391,8.04591805 Z M18.2522375,13.5769599 C19.2285482,14.5532706 20.8114607,14.5532706 21.7877714,13.5769599 C22.7640821,12.6006492 22.7640821,11.0177367 21.7877714,10.041426 C20.8114607,9.06511525 19.2285482,9.06511525 18.2522375,10.041426 C17.2759267,11.0177367 17.2759267,12.6006492 18.2522375,13.5769599 Z M18.9593443,12.8698531 C18.3735578,12.2840667 18.3735578,11.3343192 18.9593443,10.7485328 C19.5451307,10.1627463 20.4948782,10.1627463 21.0806646,10.7485328 C21.666451,11.3343192 21.666451,12.2840667 21.0806646,12.8698531 C20.4948782,13.4556395 19.5451307,13.4556395 18.9593443,12.8698531 Z"/>
</svg>
