<svg xmlns="http://www.w3.org/2000/svg" width="32" height="32" viewBox="0 0 32 32">
  <path fill="#212121" fill-rule="evenodd" d="M26.40768,6.98179361 L27.2952616,10.2942935 C26.9038908,10.1071875 26.465625,10.0024217 26.0028899,10.0024217 L15.1345424,10.0024217 L26.40768,6.98179361 Z M25.8878466,5.05053017 L7.40713576,10.0024217 L7.00288987,10.0024217 C6.33611695,10.0024217 5.72014985,10.2199474 5.22208215,10.5879051 L3.67594312,11.0021918 C3.45010221,9.96541896 4.0770759,8.92374365 5.1128583,8.64620659 L23.465449,3.72864473 C24.5012314,3.45110768 25.5650442,4.03973812 25.8878466,5.05053017 Z M7.00288987,11.0024217 L26.0028899,11.0024217 C27.1074594,11.0024217 28.0028899,11.8978522 28.0028899,13.0024217 L28.0028899,24.0024217 C28.0028899,25.1069912 27.1074594,26.0024217 26.0028899,26.0024217 L7.00288987,26.0024217 C5.89832038,26.0024217 5.00288987,25.1069912 5.00288987,24.0024217 L5.00288987,13.0024217 C5.00288987,11.8978522 5.89832038,11.0024217 7.00288987,11.0024217 Z M8.00288987,14.0024217 C7.45060513,14.0024217 7.00288987,14.450137 7.00288987,15.0024217 L7.00288987,16.0024217 C7.00288987,16.5547065 7.45060513,17.0024217 8.00288987,17.0024217 L10.0028899,17.0024217 C10.5551746,17.0024217 11.0028899,16.5547065 11.0028899,16.0024217 L11.0028899,15.0024217 C11.0028899,14.450137 10.5551746,14.0024217 10.0028899,14.0024217 L8.00288987,14.0024217 Z M7.50288987,22.0024217 L10.5028899,22.0024217 C10.7790322,22.0024217 11.0028899,22.2262793 11.0028899,22.5024217 L11.0028899,22.5024217 C11.0028899,22.7785641 10.7790322,23.0024217 10.5028899,23.0024217 L7.50288987,23.0024217 C7.2267475,23.0024217 7.00288987,22.7785641 7.00288987,22.5024217 L7.00288987,22.5024217 C7.00288987,22.2262793 7.2267475,22.0024217 7.50288987,22.0024217 Z M12.5028899,22.0024217 L15.5028899,22.0024217 C15.7790322,22.0024217 16.0028899,22.2262793 16.0028899,22.5024217 L16.0028899,22.5024217 C16.0028899,22.7785641 15.7790322,23.0024217 15.5028899,23.0024217 L12.5028899,23.0024217 C12.2267475,23.0024217 12.0028899,22.7785641 12.0028899,22.5024217 L12.0028899,22.5024217 C12.0028899,22.2262793 12.2267475,22.0024217 12.5028899,22.0024217 Z M17.5028899,22.0024217 L20.5028899,22.0024217 C20.7790322,22.0024217 21.0028899,22.2262793 21.0028899,22.5024217 L21.0028899,22.5024217 C21.0028899,22.7785641 20.7790322,23.0024217 20.5028899,23.0024217 L17.5028899,23.0024217 C17.2267475,23.0024217 17.0028899,22.7785641 17.0028899,22.5024217 L17.0028899,22.5024217 C17.0028899,22.2262793 17.2267475,22.0024217 17.5028899,22.0024217 Z M22.5028899,22.0024217 L25.5028899,22.0024217 C25.7790322,22.0024217 26.0028899,22.2262793 26.0028899,22.5024217 L26.0028899,22.5024217 C26.0028899,22.7785641 25.7790322,23.0024217 25.5028899,23.0024217 L22.5028899,23.0024217 C22.2267475,23.0024217 22.0028899,22.7785641 22.0028899,22.5024217 L22.0028899,22.5024217 C22.0028899,22.2262793 22.2267475,22.0024217 22.5028899,22.0024217 Z"/>
</svg>
