<svg xmlns="http://www.w3.org/2000/svg" width="32" height="32" viewBox="0 0 32 32">
  <path fill="#212121" fill-rule="evenodd" d="M23.3531695,23.0068125 L24.918591,22.713663 L25.8531695,21 L26.7877481,22.713663 L28.7063391,23.072949 L27.3653494,24.491337 L27.6165253,26.427051 L25.8531695,25.59 L24.0898138,26.427051 L24.3409897,24.491337 L23.3531695,23.4465026 L22.3653494,24.491337 L22.6165253,26.427051 L20.8531695,25.59 L19.0898138,26.427051 L19.3409897,24.491337 L18.3531695,23.4465026 L17.3653494,24.491337 L17.6165253,26.427051 L15.8531695,25.59 L14.0898138,26.427051 L14.3409897,24.491337 L13.3531695,23.4465026 L12.3653494,24.491337 L12.6165253,26.427051 L10.8531695,25.59 L9.08981379,26.427051 L9.34098969,24.491337 L8.35316955,23.4465026 L7.36534941,24.491337 L7.61652531,26.427051 L5.85316955,25.59 L4.08981379,26.427051 L4.34098969,24.491337 L3,23.072949 L4.918591,22.713663 L5.85316955,21 L6.7877481,22.713663 L8.35316955,23.0068125 L9.918591,22.713663 L10.8531695,21 L11.7877481,22.713663 L13.3531695,23.0068125 L14.918591,22.713663 L15.8531695,21 L16.7877481,22.713663 L18.3531695,23.0068125 L19.918591,22.713663 L20.8531695,21 L21.7877481,22.713663 L23.3531695,23.0068125 Z M15.8531695,16.24 L11.1508875,18.472136 L11.8206899,13.3102321 L8.24471742,9.52786405 L13.3609601,8.56976794 L15.8531695,4 L18.345379,8.56976794 L23.4616217,9.52786405 L19.8856492,13.3102321 L20.5554516,18.472136 L15.8531695,16.24 Z"/>
</svg>
