<svg xmlns="http://www.w3.org/2000/svg" width="32" height="32" viewBox="0 0 32 32">
  <path fill="#212121" d="M26.6875,22 L25.45448,25.9456641 C25.3566263,26.2587959 25.1114068,26.5040154 24.798275,26.6018691 C24.2711303,26.7666018 23.7102528,26.4728088 23.54552,25.9456641 L22.3125,22 L22,22 L22,9 C22,7.8954305 22.8954305,7 24,7 L25,7 C26.1045695,7 27,7.8954305 27,9 L27,22 L26.6875,22 Z M8,6 L18,6 C19.6568542,6 21,7.34314575 21,9 L21,24 C21,25.6568542 19.6568542,27 18,27 L8,27 C6.34314575,27 5,25.6568542 5,24 L5,9 C5,7.34314575 6.34314575,6 8,6 Z M9.5,11 C9.22385763,11 9,11.2238576 9,11.5 C9,11.7761424 9.22385763,12 9.5,12 L16.5,12 C16.7761424,12 17,11.7761424 17,11.5 C17,11.2238576 16.7761424,11 16.5,11 L9.5,11 Z M9.5,14 C9.22385763,14 9,14.2238576 9,14.5 C9,14.7761424 9.22385763,15 9.5,15 L16.5,15 C16.7761424,15 17,14.7761424 17,14.5 C17,14.2238576 16.7761424,14 16.5,14 L9.5,14 Z M9.5,17 C9.22385763,17 9,17.2238576 9,17.5 C9,17.7761424 9.22385763,18 9.5,18 L16.5,18 C16.7761424,18 17,17.7761424 17,17.5 C17,17.2238576 16.7761424,17 16.5,17 L9.5,17 Z M13.3816253,21.4137269 C13.374895,21.435445 13.374895,21.435445 13.3681466,21.4572467 C13.1817416,22.0597175 13.1108398,22.3478734 13.1108398,22.6425781 C13.1108398,23.374576 13.6823806,23.4548576 14.3814232,23.2420305 C14.7236859,23.1378269 15.0290456,23.0071254 15.8237167,22.6435068 L15.8489894,22.6319438 C16.7969455,22.1982777 17.2829975,22.0171061 17.4062651,22.0389554 C17.6781692,22.0871506 17.937661,21.9057987 17.9858562,21.6338946 C18.0340514,21.3619905 17.8526995,21.1024988 17.5807954,21.0543036 C17.1435622,20.9768037 16.7096313,21.1385476 15.4329799,21.7225835 L15.4076348,21.7341796 C14.738371,22.0404155 14.4352497,22.1721745 14.1768831,22.2578178 C14.2108324,22.1259637 14.258909,21.9614738 14.3234656,21.7528233 C14.3301176,21.7313331 14.3301176,21.7313331 14.3367992,21.7097721 C14.5470255,21.0314885 14.6075846,20.7962364 14.6075846,20.510272 C14.6075846,19.8405167 14.0650092,19.5599925 13.4110083,19.8451357 C12.3765436,20.2961606 11.5724141,21.1072177 10.6731236,22.3493651 C10.5111865,22.5730411 10.5612359,22.8856424 10.7849119,23.0475795 C11.008588,23.2095166 11.3211892,23.1594673 11.4831264,22.9357912 C12.1937179,21.9542847 12.8257791,21.2867822 13.5348284,20.8974623 C13.4995738,21.0272175 13.4497415,21.1939536 13.3816253,21.4137269 Z M24.5,25.6473891 L25.6398091,22 L23.3601909,22 L24.5,25.6473891 Z"/>
</svg>
