<svg xmlns="http://www.w3.org/2000/svg" width="32" height="32" viewBox="0 0 32 32">
  <path fill="#212121" d="M10,9 L10,8 C10,6.34314575 11.3431458,5 13,5 L18,5 C19.6568542,5 21,6.34314575 21,8 L21,9 L26,9 C27.1045695,9 28,9.8954305 28,11 L28,23 C28,24.1045695 27.1045695,25 26,25 L6,25 C4.8954305,25 4,24.1045695 4,23 L4,11 C4,9.8954305 4.8954305,9 6,9 L10,9 Z M19,9 L19,8 C19,7.44771525 18.5522847,7 18,7 L13,7 C12.4477153,7 12,7.44771525 12,8 L12,9 L19,9 Z M16,21 C18.209139,21 20,19.209139 20,17 C20,14.790861 18.209139,13 16,13 C13.790861,13 12,14.790861 12,17 C12,19.209139 13.790861,21 16,21 Z"/>
</svg>
