<svg xmlns="http://www.w3.org/2000/svg" width="32" height="32" viewBox="0 0 32 32">
  <path fill="#212121" d="M26,16 L28.5,16 C28.7761424,16 29,16.2238576 29,16.5 C29,16.7761424 28.7761424,17 28.5,17 L3.5,17 C3.22385763,17 3,16.7761424 3,16.5 C3,16.2238576 3.22385763,16 3.5,16 L6,16 L6,11 L5,11 L5,9 C5,6.790861 6.790861,5 9,5 L11,5 L11,6 L21,6 L21,5 L23,5 C25.209139,5 27,6.790861 27,9 L27,11 L26,11 L26,16 Z M6,18 L9,18 L9,21 L14,21 L14,18 L18,18 L20,18 L26,18 L26,21 L27,21 L27,23 C27,25.209139 25.209139,27 23,27 L21,27 L21,26 L11,26 L11,27 L9,27 C6.790861,27 5,25.209139 5,23 L5,21 L6,21 L6,18 Z M13,18 L13,20 L10,20 L10,18 L13,18 Z M9,10 L9,15 L14,15 L14,10 L9,10 Z M10,11 L13,11 L13,14 L10,14 L10,11 Z M15,10 L15,12 L17,12 L17,10 L15,10 Z M18,13 L18,15 L20,15 L20,13 L18,13 Z M21,13 L21,15 L23,15 L23,13 L21,13 Z M23,10 L18,10 L18,12 L23,12 L23,10 Z M15,21 L20,21 L20,19 L17,19 L15,19 L15,21 Z M15,13 L15,15 L17,15 L17,13 L15,13 Z M21,19 L21,21 L23,21 L23,19 L21,19 Z"/>
</svg>
