<svg xmlns="http://www.w3.org/2000/svg" width="32" height="32" viewBox="0 0 32 32">
  <path fill="#212121" fill-rule="evenodd" d="M11,23 L8,26 L8,23 C6.8954305,23 6,22.1045695 6,21 L6,14 C6,12.8954305 6.8954305,12 8,12 L19,12 C20.1045695,12 21,12.8954305 21,14 L21,21 C21,22.1045695 20.1045695,23 19,23 L11,23 Z M22,17 L22,13 C22,12.6357129 21.9026057,12.2941734 21.7324356,12 L24,12 L24,11 L20,11 L12,11 L12,8 C12,6.8954305 12.8954305,6 14,6 L25,6 C26.1045695,6 27,6.8954305 27,8 L27,15 C27,16.1045695 26.1045695,17 25,17 L25,20 L22,17 Z M15,9 L15,10 L24,10 L24,9 L15,9 Z M9,15 L18,15 L18,16 L9,16 L9,15 Z M9,17 L18,17 L18,18 L9,18 L9,17 Z M9,19 L15,19 L15,20 L9,20 L9,19 Z"/>
</svg>
