<svg xmlns="http://www.w3.org/2000/svg" width="32" height="32" viewBox="0 0 32 32">
  <path fill="#212121" d="M26,18 L28.5,18 C28.7761424,18 29,18.2238576 29,18.5 C29,18.7761424 28.7761424,19 28.5,19 L3.5,19 C3.22385763,19 3,18.7761424 3,18.5 C3,18.2238576 3.22385763,18 3.5,18 L6,18 L6,11 L5,11 L5,9 C5,6.790861 6.790861,5 9,5 L11,5 L11,6 L21,6 L21,5 L23,5 C25.209139,5 27,6.790861 27,9 L27,11 L26,11 L26,18 Z M23,18 L23,10 L22,10 L22,18 L23,18 Z M21,18 L21,10 L19,10 L19,18 L21,18 Z M18,18 L18,10 L16,10 L16,18 L18,18 Z M15,18 L15,10 L14,10 L14,18 L15,18 Z M13,18 L13,10 L11,10 L11,18 L13,18 Z M10,18 L10,10 L9,10 L9,18 L10,18 Z M6,20 L9,20 L9,22 L10,22 L10,20 L11,20 L11,22 L13,22 L13,20 L14,20 L14,22 L15,22 L15,20 L16,20 L16,22 L18,22 L18,20 L19,20 L19,22 L21,22 L21,20 L22,20 L22,22 L23,22 L23,20 L26,20 L26,21 L27,21 L27,23 C27,25.209139 25.209139,27 23,27 L21,27 L21,26 L11,26 L11,27 L9,27 C6.790861,27 5,25.209139 5,23 L5,21 L6,21 L6,20 Z"/>
</svg>
