<svg xmlns="http://www.w3.org/2000/svg" width="32" height="32" viewBox="0 0 32 32">
  <path fill="#212121" d="M23,3 C24.1045695,3 25,3.8954305 25,5 L25,6 L23,6 L23,7 C25.209139,7 27,8.790861 27,11 L27,20 C27.5522847,20 28,20.4477153 28,21 L28,26 C28,26.5522847 27.5522847,27 27,27 L5,27 C4.44771525,27 4,26.5522847 4,26 L4,21 C4,20.4477153 4.44771525,20 5,20 L5,11 C5,8.790861 6.790861,7 9,7 L16,7 L16,5 C16,3.8954305 16.8954305,3 18,3 L23,3 Z M22,4 L18,4 C17.4477153,4 17,4.44771525 17,5 L17,11 L22,11 L22,6 L22,4 Z M7,20 L25,20 L25,11 C25,9.8954305 24.1045695,9 23,9 L23,11 L23.5,11 C23.7761424,11 24,11.2238576 24,11.5 C24,11.7761424 23.7761424,12 23.5,12 L15.5,12 C15.2238576,12 15,11.7761424 15,11.5 C15,11.2238576 15.2238576,11 15.5,11 L16,11 L16,9 L9,9 C7.8954305,9 7,9.8954305 7,11 L7,20 Z M8,10 L14,10 L14,13 L8,13 L8,10 Z M9,11 L9,12 L13,12 L13,11 L9,11 Z M16,16 C15.4477153,16 15,15.5522847 15,15 C15,14.4477153 15.4477153,14 16,14 C16.5522847,14 17,14.4477153 17,15 C17,15.5522847 16.5522847,16 16,16 Z M19,16 C18.4477153,16 18,15.5522847 18,15 C18,14.4477153 18.4477153,14 19,14 C19.5522847,14 20,14.4477153 20,15 C20,15.5522847 19.5522847,16 19,16 Z M22,16 C21.4477153,16 21,15.5522847 21,15 C21,14.4477153 21.4477153,14 22,14 C22.5522847,14 23,14.4477153 23,15 C23,15.5522847 22.5522847,16 22,16 Z M16,19 C15.4477153,19 15,18.5522847 15,18 C15,17.4477153 15.4477153,17 16,17 C16.5522847,17 17,17.4477153 17,18 C17,18.5522847 16.5522847,19 16,19 Z M19,19 C18.4477153,19 18,18.5522847 18,18 C18,17.4477153 18.4477153,17 19,17 C19.5522847,17 20,17.4477153 20,18 C20,18.5522847 19.5522847,19 19,19 Z M22,19 C21.4477153,19 21,18.5522847 21,18 C21,17.4477153 21.4477153,17 22,17 C22.5522847,17 23,17.4477153 23,18 C23,18.5522847 22.5522847,19 22,19 Z M18,5 L21,5 L21,6 L18,6 L18,5 Z M18,7 L21,7 L21,8 L18,8 L18,7 Z M18,9 L21,9 L21,10 L18,10 L18,9 Z M6,22 L6,25 L26,25 L26,22 L6,22 Z M14.5,23 L17.5,23 C17.7761424,23 18,23.2238576 18,23.5 C18,23.7761424 17.7761424,24 17.5,24 L14.5,24 C14.2238576,24 14,23.7761424 14,23.5 C14,23.2238576 14.2238576,23 14.5,23 Z M23,4 L23,5 L24,5 C24,4.44771525 23.5522847,4 23,4 Z"/>
</svg>
