<svg xmlns="http://www.w3.org/2000/svg" width="32" height="32" viewBox="0 0 32 32">
  <path fill="#212121" d="M23.150251,8.34620325 L7.15698242,18.7390137 L11.5241974,20.476655 L23.150251,8.34620325 Z M24.7705191,8.4556815 L16.2497299,22.2739993 L22.104248,24.5490723 L24.7705191,8.4556815 Z M15.2238756,22.1133964 L15.1876888,22.0910826 L22.0896704,10.8980145 L12.1819088,21.2356258 L13.8617554,24.1541748 L15.2238756,22.1133964 Z M15.5252533,25.2644787 C14.7016499,26.4984313 12.8684445,26.4376579 12.1283743,25.1518672 L10.4245213,22.1916096 L6.41759345,20.5973204 C4.90982217,19.9974036 4.70653055,17.9461959 6.06721317,17.0619916 L23.8965589,5.47605412 C25.3545391,4.52862352 27.2436295,5.76457998 26.9594324,7.47997004 L24.0773523,24.8759661 C23.8698571,26.1283897 22.5631121,26.8730909 21.3798214,26.4132627 L16.1221823,24.3701377 L15.5252533,25.2644787 Z"/>
</svg>
