<!--?xml version="1.0" encoding="UTF-8" standalone="no"?-->
<svg viewBox="0 0 16 16" version="1.1" xmlns="http://www.w3.org/2000/svg" xmlns:xlink="http://www.w3.org/1999/xlink" class="si-glyph si-glyph-dice-3">
    <!-- Generator: Sketch 3.0.3 (7891) - http://www.bohemiancoding.com/sketch -->
    <title>1174</title>
    
    <defs></defs>
    <g stroke="none" stroke-width="0" fill="none" fill-rule="evenodd">
        <path d="M0,0 L2.135,0 C0.945,0 0,0.966 0,2.155 L0,13.845 C0,15.034 0.945,15.999 2.135,15.999 L13.72,15.999 C14.901,15.999 15.856,15.034 15.856,13.845 L15.856,2.155 C15.855,0.966 14.9,0 13.72,0 L13.72,0 Z M3.959,6.153 C2.814,6.153 1.884,5.202 1.884,4.03 C1.884,2.858 2.813,1.907 3.959,1.907 C5.103,1.907 6.035,2.858 6.035,4.03 C6.035,5.202 5.103,6.153 3.959,6.153 L3.959,6.153 Z M11.959,14.153 C10.813,14.153 9.884,13.202 9.884,12.03 C9.884,10.858 10.813,9.907 11.959,9.907 C13.103,9.907 14.035,10.858 14.035,12.03 C14.035,13.202 13.103,14.153 11.959,14.153 L11.959,14.153 Z M7.959,10.153 C6.813,10.153 5.884,9.202 5.884,8.03 C5.884,6.858 6.813,5.907 7.959,5.907 C9.103,5.907 10.035,6.858 10.035,8.03 C10.035,9.202 9.103,10.153 7.959,10.153 L7.959,10.153 Z" fill="#434343" class="si-glyph-fill"></path>
    </g>
</svg>