
<svg width="96px" height="84px" viewBox="0 0 96 84" version="1.1" xmlns="http://www.w3.org/2000/svg" xmlns:xlink="http://www.w3.org/1999/xlink">
    <g id="Page-1" stroke="none" stroke-width="1" fill="none" fill-rule="evenodd">
        <g id="3994414---arrow-interface-send-upload-uploading" fill="#434343">
            <path d="M90,48 C88.4084245,47.9990973 86.8817765,48.6309485 85.7563625,49.7563625 C84.6309485,50.8817765 83.9990973,52.4084245 84,54 L84,72 L12,72 L12,54 C12,50.6862915 9.3137085,48 6,48 C2.6862915,48 -4.33773407e-16,50.6862915 -8.39585622e-16,54 L-8.39585622e-16,78 C-0.000902660256,79.5915755 0.630948509,81.1182235 1.75636251,82.2436375 C2.88177651,83.3690515 4.40842451,84.0009027 6,84 L90,84 C91.5915755,84.0009027 93.1182235,83.3690515 94.2436375,82.2436375 C95.3690515,81.1182235 96.0009027,79.5915755 96,78 L96,54 C96.0009027,52.4084245 95.3690515,50.8817765 94.2436375,49.7563625 C93.1182235,48.6309485 91.5915755,47.9990973 90,48 Z" id="Path"></path>
            <path d="M34.2422,28.2422 L42,20.4844 L42,54 C42,57.3137085 44.6862915,60 48,60 C51.3137085,60 54,57.3137085 54,54 L54,20.4844 L61.7578,28.2422 C64.1026003,30.5739874 67.8921093,30.5687151 70.2304122,28.2304122 C72.5687151,25.8921093 72.5739874,22.1026003 70.2422,19.7578 L52.2422,1.7578 C51.1172908,0.632336618 49.5912538,1.12685872e-05 48,1.12685872e-05 C46.4087462,1.12685872e-05 44.8827092,0.632336618 43.7578,1.7578 L25.7578,19.7578 C23.4260126,22.1026003 23.4312849,25.8921093 25.7695878,28.2304122 C28.1078907,30.5687151 31.8973997,30.5739874 34.2422,28.2422 Z" id="Path"></path>
        </g>
    </g>
</svg>