
<svg width="84px" height="97px" viewBox="0 0 84 97" version="1.1" xmlns="http://www.w3.org/2000/svg" xmlns:xlink="http://www.w3.org/1999/xlink">
    <g id="Page-1" stroke="none" stroke-width="1" fill="none" fill-rule="evenodd">
        <g id="3994393---off-on-power-shutdown-switch" transform="translate(-1.000000, 0.000000)" fill="#434343">
            <path d="M43,36 C44.5915755,36.0009027 46.1182235,35.3690515 47.2436375,34.2436375 C48.3690515,33.1182235 49.0009027,31.5915755 49,30 L49,6 C48.9999998,2.68629164 46.3137084,3.57627869e-07 43,3.57627869e-07 C39.6862916,3.57627868e-07 37.0000002,2.68629164 37,6 L37,30 C36.9990973,31.5915755 37.6309485,33.1182235 38.7563625,34.2436375 C39.8817765,35.3690515 41.4084245,36.0009027 43,36 Z" id="Path"></path>
            <path d="M71.0078,22.9746 C68.5390607,20.7854394 64.7659325,21.0004744 62.561896,23.455942 C60.3578596,25.9114095 60.5500938,29.6857681 62.9922,31.9046 C69.3536,37.4854493 73.0006795,45.5375365 73,54 C73,70.5685425 59.5685425,84 43,84 C26.4314575,84 13,70.5685425 13,54 C12.9992342,45.5374318 16.6463213,37.4852183 23.0078,31.9043 C25.4499062,29.6854681 25.6421404,25.9111095 23.438104,23.455642 C21.2340675,21.0001744 17.4609393,20.7851394 14.9922,22.9743 C2.01637294,34.585606 -2.44938474,52.9992981 3.76564402,69.2648424 C9.98067278,85.5303867 25.5875184,96.2743811 43,96.2743811 C60.4124816,96.2743811 76.0193272,85.5303867 82.234356,69.2648424 C88.4493847,52.9992981 83.9836271,34.585606 71.0078,22.9743 L71.0078,22.9746 Z" id="Path"></path>
        </g>
    </g>
</svg>