
<svg width="96px" height="96px" viewBox="0 0 96 96" version="1.1" xmlns="http://www.w3.org/2000/svg" xmlns:xlink="http://www.w3.org/1999/xlink">
    <g id="Page-1" stroke="none" stroke-width="1" fill="none" fill-rule="evenodd">
        <g id="3994340---circle-chart-diagram-graph-graphic-pie-chart" fill="#434343" fill-rule="nonzero">
            <path d="M48,0 C21.490332,-1.623249e-15 3.24649801e-15,21.490332 0,48 C-3.24649801e-15,74.509668 21.490332,96 48,96 C74.509668,96 96,74.509668 96,48 C95.9738711,21.5011625 74.4988375,0.0261289176 48,0 Z M83.3936,42 L54,42 L54,12.6064 C69.0459752,15.1675888 80.8324112,26.9540248 83.3936,42 Z M48,84 C29.2941782,84.0288955 13.6929812,69.7060645 12.126443,51.0659314 C10.5599048,32.4257983 23.5517375,15.6999763 42,12.6064 L42,48 C41.9990973,49.5915755 42.6309485,51.1182235 43.7563625,52.2436375 C44.8817765,53.3690515 46.4084245,54.0009027 48,54 L83.3936,54 C80.4809883,71.2878686 65.5314588,83.9592522 48,84 Z" id="Shape"></path>
        </g>
    </g>
</svg>