
<svg width="72px" height="96px" viewBox="0 0 72 96" version="1.1" xmlns="http://www.w3.org/2000/svg" xmlns:xlink="http://www.w3.org/1999/xlink">
    <g id="Page-1" stroke="none" stroke-width="1" fill="none" fill-rule="evenodd">
        <g id="3994431---bluetooth-connection-device-signal-wireless" fill="#434343" fill-rule="nonzero">
            <path d="M47.66,47.9993 L69.087,35.1443 C70.8511224,34.086563 71.9501673,32.198601 71.998856,30.1422536 C72.0475447,28.0859061 71.039085,26.1480441 69.327,25.008 L33.328,1.0088 C31.4863916,-0.215527537 29.1208393,-0.328376999 27.1710454,0.715080427 C25.2212516,1.75853785 24.00291,3.78935455 24,6.0008 L24,33.8084 L9.0886,24.8556 C6.2492052,23.1731026 2.58404512,24.0997626 0.885497081,26.929585 C-0.813050959,29.7594074 0.09284073,33.4297558 2.913,35.1443 L24,47.8 L2.913,60.8543 C0.09284073,62.5688442 -0.813050959,66.2391926 0.885497081,69.069015 C2.58404512,71.8988374 6.2492052,72.8254974 9.0886,71.143 L24,62.19 L24,89.9978 C23.9996553,92.2096811 25.2184677,94.2416758 27.17,95.2828 C28.038849,95.7536338 29.0117795,95.9993761 30,95.9976 C31.1845014,95.9977927 32.3425287,95.6471832 33.328,94.99 L69.3267,70.9907 C71.0387824,69.8506315 72.0472365,67.9127561 71.998548,65.8563973 C71.9498595,63.8000385 70.8508205,61.9120622 69.0867,60.8543 L47.66,47.9993 Z M36,17.2153 L54.7842,29.7305 L36,41.0035 L36,17.2153 Z M36,78.7834 L36,54.9952 L54.7845,66.2682 L36,78.7834 Z" id="Shape"></path>
        </g>
    </g>
</svg>