
<svg width="96px" height="96px" viewBox="0 0 96 96" version="1.1" xmlns="http://www.w3.org/2000/svg" xmlns:xlink="http://www.w3.org/1999/xlink">
    <g id="Page-1" stroke="none" stroke-width="1" fill="none" fill-rule="evenodd">
        <g id="3994435---ban-banned-block-disabled-stop" fill="#434343" fill-rule="nonzero">
            <path d="M48,-1.7706725e-15 C21.490332,-3.3939215e-15 3.24649801e-15,21.490332 0,48 C-3.24649801e-15,74.509668 21.490332,96 48,96 C74.509668,96 96,74.509668 96,48 C95.9717806,21.5020297 74.4979703,0.0282193747 48,-1.7706725e-15 Z M48,12 C55.4652255,12.011326 62.7391942,14.3619462 68.7993,18.7214 L18.717,68.7935 C10.8686987,57.8418145 9.81564946,43.4169702 15.9902176,31.4415806 C22.1647857,19.4661909 34.5265634,11.9580956 48,12 Z M48,84 C40.5347745,83.988674 33.2608058,81.6380538 27.2007,77.2786 L77.283,27.2065 C85.1313013,38.1581855 86.1843505,52.5830298 80.0097824,64.5584194 C73.8352143,76.5338091 61.4734366,84.0419044 48,84 Z" id="Shape"></path>
        </g>
    </g>
</svg>