
<svg width="72px" height="96px" viewBox="0 0 72 96" version="1.1" xmlns="http://www.w3.org/2000/svg" xmlns:xlink="http://www.w3.org/1999/xlink">
    <g id="Page-1" stroke="none" stroke-width="1" fill="none" fill-rule="evenodd">
        <g id="3994378---location-map-navigation-pin-position" fill="#434343">
            <path d="M36,0 C16.1267276,0.0216595409 0.0216595409,16.1267276 0,36 C0,68.5078 30.9375,93.6328 32.25,94.6875 C34.4437509,96.4374973 37.5562491,96.4374973 39.75,94.6875 C41.0625,93.6328 72,68.5078 72,36 C71.9783405,16.1267276 55.8732724,0.0216595409 36,0 Z M36,81.9492 C28.418,74.707 12,56.6367 12,36 C12,22.745166 22.745166,12 36,12 C49.254834,12 60,22.745166 60,36 C60,56.6367 43.582,74.707 36,81.9492 Z" id="Shape" fill-rule="nonzero"></path>
            <path d="M36,24 C29.372583,24 24,29.372583 24,36 C24,42.627417 29.372583,48 36,48 C42.627417,48 48,42.627417 48,36 C47.9913508,29.3761689 42.6238311,24.0086492 36,24 Z" id="Path"></path>
        </g>
    </g>
</svg>