
<svg width="72px" height="96px" viewBox="0 0 72 96" version="1.1" xmlns="http://www.w3.org/2000/svg" xmlns:xlink="http://www.w3.org/1999/xlink">
    <g id="Page-1" stroke="none" stroke-width="1" fill="none" fill-rule="evenodd">
        <g id="3994430---bookmark-label-ribbon-save-web" transform="translate(0.000000, -1.000000)" fill="#434343" fill-rule="nonzero">
            <path d="M66,0.9989 L6,0.9989 C4.40841637,0.997970763 2.88175293,1.6298134 1.75633316,2.75523316 C0.630913398,3.88065293 -0.000929237102,5.40731637 1.11022324e-15,6.9989 L1.11022324e-15,90.9989 C-0.000242198895,93.3058809 1.32191129,95.4087945 3.40108342,96.4083965 C5.48025554,97.4079985 7.94836385,97.1273261 9.75,95.6864 L36,74.6805 L62.25,95.6864 C64.0516362,97.1273261 66.5197445,97.4079985 68.5989166,96.4083965 C70.6780887,95.4087945 72.0002422,93.3058809 72,90.9989 L72,6.9989 C72.0009292,5.40731637 71.3690866,3.88065293 70.2436668,2.75523316 C69.1182471,1.6298134 67.5915836,0.997970763 66,0.9989 Z M60,78.5125 L39.75,62.3114 C37.5562491,60.5614027 34.4437509,60.5614027 32.25,62.3114 L12,78.5125 L12,12.9989 L60,12.9989 L60,78.5125 Z" id="Shape"></path>
        </g>
    </g>
</svg>