
<svg width="96px" height="96px" viewBox="0 0 96 96" version="1.1" xmlns="http://www.w3.org/2000/svg" xmlns:xlink="http://www.w3.org/1999/xlink">
    <g id="Page-1" stroke="none" stroke-width="1" fill="none" fill-rule="evenodd">
        <g id="3994423---checkmark-complete-correct-done-yes" fill="#434343">
            <path d="M58.3945,32.1563 L42.9961,50.625 L37.6055,44.1621 C36.2343504,42.5167133 34.0895526,41.7278129 31.9790311,42.0925699 C29.8685096,42.457327 28.1129029,43.9203262 27.373531,45.93047 C26.6341592,47.9406137 27.0233504,50.1925133 28.3945,51.8379 L38.3906,63.8379 C39.5280339,65.206617 41.2150707,65.9988472 42.994717,65.9999872 C44.7743633,66.0011271 46.4624136,65.2110588 47.6016,63.8438 L67.6055,39.8438 C68.9888336,38.199514 69.3870318,35.9409127 68.6494086,33.9226956 C67.9117853,31.9044785 66.1510174,30.4349417 64.0334144,30.0701871 C61.9158114,29.7054326 59.7648513,30.501179 58.3945,32.1563 Z" id="Path"></path>
            <path d="M48,-1.7706725e-15 C21.490332,-3.3939215e-15 3.24649801e-15,21.490332 0,48 C-3.24649801e-15,74.509668 21.490332,96 48,96 C74.509668,96 96,74.509668 96,48 C95.9717806,21.5020297 74.4979703,0.0282193747 48,-1.7706725e-15 Z M48,84 C28.117749,84 12,67.882251 12,48 C12,28.117749 28.117749,12 48,12 C67.882251,12 84,28.117749 84,48 C83.9783405,67.8732724 67.8732724,83.9783405 48,84 Z" id="Shape" fill-rule="nonzero"></path>
        </g>
    </g>
</svg>