
<svg width="80px" height="92px" viewBox="0 0 80 92" version="1.1" xmlns="http://www.w3.org/2000/svg" xmlns:xlink="http://www.w3.org/1999/xlink">
    <g id="Page-1" stroke="none" stroke-width="1" fill="none" fill-rule="evenodd">
        <g id="3994433---attach-attachment-clip-office-paperclip" fill="#434343">
            <path d="M23.7582,91.0634 C16.4785073,91.0689755 9.91314104,86.6863149 7.12655555,79.9610715 C4.33997007,73.2358281 5.88161056,65.4940523 11.0319,60.3493 L36.4845,34.8967 C38.8273661,32.553991 42.625759,32.5540659 44.9685327,34.8968673 C47.3113065,37.2396686 47.3113366,41.0380615 44.9686,43.3809 L19.5161,68.8334 C17.9882548,70.346427 17.3870124,72.5614336 17.9401383,74.6393203 C18.4932642,76.717207 20.1161568,78.340157 22.194024,78.8933564 C24.2718911,79.4465558 26.486919,78.8453917 28,77.3176 L61.937,43.3809 C65.3133476,40.0062918 67.2103062,35.4282968 67.2103062,30.65465 C67.2103062,25.8810032 65.3133476,21.3030082 61.937,17.9284 C54.8163903,11.1258579 43.6051097,11.1258579 36.4845,17.9284 L11.0319,43.3809 C9.51635761,44.8965083 7.30736105,45.4884368 5.23704477,44.9337046 C3.16672849,44.3789724 1.54963487,42.7618597 0.994927065,40.6915369 C0.44021926,38.6212141 1.03217382,36.4122245 2.5478,34.8967 L28,9.4442 C39.3555,-1.8992 59.1128,-1.8992 70.4211,9.4442 C76.0483746,15.0685454 79.2099909,22.698553 79.2099909,30.65465 C79.2099909,38.610747 76.0483746,46.2407546 70.4211,51.8651 L36.4845,85.8018 C33.1101193,89.1770977 28.5309383,91.0703281 23.7582,91.0634 Z" id="Path"></path>
        </g>
    </g>
</svg>