
<svg width="72px" height="96px" viewBox="0 0 72 96" version="1.1" xmlns="http://www.w3.org/2000/svg" xmlns:xlink="http://www.w3.org/1999/xlink">
    <g id="Page-1" stroke="none" stroke-width="1" fill="none" fill-rule="evenodd">
        <g id="3994412---key-lock-open-password-unlock" transform="translate(0.000000, -1.000000)" fill="#434343" fill-rule="nonzero">
            <path d="M66,37 L24,37 L24,25 C23.9792895,19.1607367 28.1791393,14.1605616 33.9342648,13.1726571 C39.6893903,12.1847526 45.3163098,15.4980993 47.2441,21.01 C48.3541924,24.1327836 51.7856163,25.7643922 54.9083999,24.6542998 C58.0311835,23.5442075 59.6627922,20.1127836 58.5527,16.99 C54.6680923,5.97484475 43.4065345,-0.633776434 31.895625,1.34682587 C20.3847156,3.32742817 11.9796024,13.3199569 12,25 L12,37 L6,37 C4.40842451,36.9990973 2.88177651,37.6309485 1.75636251,38.7563625 C0.630948509,39.8817765 -0.000902660256,41.4084245 -8.42626682e-16,43 L-8.42626682e-16,91 C-0.000902660256,92.5915755 0.630948509,94.1182235 1.75636251,95.2436375 C2.88177651,96.3690515 4.40842451,97.0009027 6,97 L66,97 C67.5915755,97.0009027 69.1182235,96.3690515 70.2436375,95.2436375 C71.3690515,94.1182235 72.0009027,92.5915755 72,91 L72,43 C72.0009027,41.4084245 71.3690515,39.8817765 70.2436375,38.7563625 C69.1182235,37.6309485 67.5915755,36.9990973 66,37 Z M60,85 L12,85 L12,49 L60,49 L60,85 Z" id="Shape"></path>
        </g>
    </g>
</svg>