
<svg width="96px" height="84px" viewBox="0 0 96 84" version="1.1" xmlns="http://www.w3.org/2000/svg" xmlns:xlink="http://www.w3.org/1999/xlink">
    <g id="Page-1" stroke="none" stroke-width="1" fill="none" fill-rule="evenodd">
        <g id="3994391---alert-bell-notification-notify-reminder" fill="#434343" fill-rule="nonzero">
            <path d="M94.2409,73.7569 C83.999,63.515 83.999,53.7419 83.999,36 C83.999,16.1183013 67.8816987,0.001 48,0.001 C28.1183013,0.001 12.001,16.1183013 12.001,36 C12.001,53.7417 12.001,63.5148 1.7591,73.7567 C0.0428501076,75.4724205 -0.47072511,78.0531192 0.457900216,80.2951864 C1.38652554,82.5372537 3.57443045,83.9990462 6.0012,83.9988 L89.9988,83.9988 C92.4254817,83.9989653 94.6132767,82.5372043 95.5418839,80.2952247 C96.470491,78.0532451 95.9570068,75.4726393 94.2409,73.7569 Z M48,12.0008 C61.2489931,12.0138644 71.9861804,22.7510069 71.9993,36 C71.9993,40.21 72.0693,44.16 72.2403,48 L23.76,48 C23.9314,44.16 24,40.21 24,36 C24.0131202,22.7507339 34.7507335,12.0134786 48,12.0008 Z M18.0711,71.9992 C20.0612611,68.2313636 21.4751495,64.1863853 22.2656,59.9992 L73.7356,59.9992 C74.5258049,64.1863539 75.9394581,68.2313342 77.9294,71.9992 L18.0711,71.9992 Z" id="Shape"></path>
        </g>
    </g>
</svg>