
<svg width="48px" height="96px" viewBox="0 0 48 96" version="1.1" xmlns="http://www.w3.org/2000/svg" xmlns:xlink="http://www.w3.org/1999/xlink">
    <g id="Page-1" stroke="none" stroke-width="1" fill="none" fill-rule="evenodd">
        <g id="3994375---about-faq-help-info-information" fill="#434343">
            <path d="M42,84 L30,84 L30,42 C30.0009027,40.4084245 29.3690515,38.8817765 28.2436375,37.7563625 C27.1182235,36.6309485 25.5915755,35.9990973 24,36 L12,36 C8.6862915,36 6,38.6862915 6,42 C6,45.3137085 8.6862915,48 12,48 L18,48 L18,84 L6,84 C2.6862915,84 0,86.6862915 0,90 C0,93.3137085 2.6862915,96 6,96 L42,96 C45.3137085,96 48,93.3137085 48,90 C48,86.6862915 45.3137085,84 42,84 Z" id="Path"></path>
            <path d="M24,24 C30.627417,24 36,18.627417 36,12 C36,5.372583 30.627417,4.05812251e-16 24,0 C17.372583,-4.05812251e-16 12,5.372583 12,12 C12.0065597,18.624698 17.375302,23.9934403 24,24 Z" id="Path"></path>
        </g>
    </g>
</svg>