
<svg width="96px" height="96px" viewBox="0 0 96 96" version="1.1" xmlns="http://www.w3.org/2000/svg" xmlns:xlink="http://www.w3.org/1999/xlink">
    <g id="Page-1" stroke="none" stroke-width="1" fill="none" fill-rule="evenodd">
        <g id="3994437---add-create-new-plus-positive" fill="#434343">
            <path d="M66,42 L54,42 L54,30 C54,26.6862915 51.3137085,24 48,24 C44.6862915,24 42,26.6862915 42,30 L42,42 L30,42 C26.6862915,42 24,44.6862915 24,48 C24,51.3137085 26.6862915,54 30,54 L42,54 L42,66 C42,69.3137085 44.6862915,72 48,72 C51.3137085,72 54,69.3137085 54,66 L54,54 L66,54 C69.3137085,54 72,51.3137085 72,48 C72,44.6862915 69.3137085,42 66,42 Z" id="Path"></path>
            <path d="M48,-1.7706725e-15 C21.490332,-3.3939215e-15 3.24649801e-15,21.490332 0,48 C-3.24649801e-15,74.509668 21.490332,96 48,96 C74.509668,96 96,74.509668 96,48 C95.9717806,21.5020297 74.4979703,0.0282193747 48,-1.7706725e-15 Z M48,84 C28.117749,84 12,67.882251 12,48 C12,28.117749 28.117749,12 48,12 C67.882251,12 84,28.117749 84,48 C83.9783405,67.8732724 67.8732724,83.9783405 48,84 Z" id="Shape" fill-rule="nonzero"></path>
        </g>
    </g>
</svg>