
<svg width="96px" height="72px" viewBox="0 0 96 72" version="1.1" xmlns="http://www.w3.org/2000/svg" xmlns:xlink="http://www.w3.org/1999/xlink">
    <g id="Page-1" stroke="none" stroke-width="1" fill="none" fill-rule="evenodd">
        <g id="3994374---email-inbox-incoming-mail-mailbox-message" fill="#434343" fill-rule="nonzero">
            <path d="M95.3108,27.34 L95.3672,27.3166 L83.3672,3.3166 C82.3483482,1.28589874 80.2719592,0.00281781324 78,0 L18,0 C15.7280852,0.00277982044 13.6517074,1.28577642 12.6328,3.3164 L0.6328,27.3164 L0.6672,27.3728 C0.243264781,28.1846345 0.0147968385,29.0842613 -8.33590958e-16,30 L-8.33590958e-16,66 C-0.000902660256,67.5915755 0.630948509,69.1182235 1.75636251,70.2436375 C2.88177651,71.3690515 4.40842451,72.0009027 6,72 L90,72 C91.5915755,72.0009027 93.1182235,71.3690515 94.2436375,70.2436375 C95.3690515,69.1182235 96.0009027,67.5915755 96,66 L96,30 C95.9836715,29.071332 95.7474839,28.1597548 95.3108,27.34 Z M21.709,12 L74.291,12 L80.291,24 L64.8984,24 C62.3570611,23.9986397 60.0911138,25.6000673 59.2441,27.9961 C57.5839871,32.7870689 53.0704396,35.9999204 48,35.9999204 C42.9295604,35.9999204 38.4160129,32.7870689 36.7559,27.9961 C35.9089113,25.6000483 33.6429484,23.9986097 31.1016,24 L15.709,24 L21.709,12 Z M84,60 L12,60 L12,36 L27.293,36 C31.5459907,43.4219084 39.4458984,48.0000273 48,48.0000273 C56.5541016,48.0000273 64.4540093,43.4219084 68.707,36 L84,36 L84,60 Z" id="Shape"></path>
        </g>
    </g>
</svg>