
<svg width="96px" height="96px" viewBox="0 0 96 96" version="1.1" xmlns="http://www.w3.org/2000/svg" xmlns:xlink="http://www.w3.org/1999/xlink">
    <g id="Page-1" stroke="none" stroke-width="1" fill="none" fill-rule="evenodd">
        <g id="3994438---cloud-download-network-server-storage" fill="#434343">
            <path d="M61.7578,67.7578 L54,75.5156 L54,54 C54,50.6862915 51.3137085,48 48,48 C44.6862915,48 42,50.6862915 42,54 L42,75.5156 L34.2422,67.7578 C31.8973997,65.4260126 28.1078907,65.4312849 25.7695878,67.7695878 C23.4312849,70.1078907 23.4260126,73.8973997 25.7578,76.2422 L43.7578,94.2422 C44.8827092,95.3676634 46.4087462,95.9999887 48,95.9999887 C49.5912538,95.9999887 51.1172908,95.3676634 52.2422,94.2422 L70.2422,76.2422 C72.5739874,73.8973997 72.5687151,70.1078907 70.2304122,67.7695878 C67.8921093,65.4312849 64.1026003,65.4260126 61.7578,67.7578 Z" id="Path"></path>
            <path d="M78,24 L77.3965,24 C74.7830008,11.1832062 64.1644,1.53851259 51.1560394,0.166238215 C38.1476788,-1.20603616 25.7503403,6.01066631 20.52,18 C9.11806577,18.2796495 0.0159814431,27.5946481 0,39 C0.0304935383,48.8912009 7.05321875,57.3793241 16.7637,59.2617 C19.9876879,59.9023061 23.1269373,57.8296018 23.804271,54.6131296 C24.4816047,51.3966574 22.4448381,48.2339732 19.2363,47.52 C15.098065,46.7742418 12.0660675,43.2043762 12,39 C12.0074894,34.0325428 16.0325428,30.0074894 21,30 C21.7207605,30.1383035 22.4328903,30.3183059 23.1328,30.5391 C24.7038091,30.9455029 26.372527,30.6959405 27.7559,29.8477 C29.1367738,28.9947254 30.1165347,27.6221879 30.4746,26.0391 C32.4845917,17.0954053 40.9006849,11.0953696 50.011008,12.1111239 C59.121331,13.1268782 66.0092321,20.8332308 66,30 C65.9990973,31.5915755 66.6309485,33.1182235 67.7563625,34.2436375 C68.8817765,35.3690515 70.4084245,36.0009027 72,36 L78,36 C81.3137085,36 84,38.6862915 84,42 C84,45.3137085 81.3137085,48 78,48 C74.6862915,48 72,50.6862915 72,54 C72,57.3137085 74.6862915,60 78,60 C87.9411254,59.9999999 95.9999997,51.9411254 95.9999997,42 C95.9999997,32.0588746 87.9411254,24.0000001 78,24 Z" id="Path"></path>
        </g>
    </g>
</svg>