
<svg width="96px" height="85px" viewBox="0 0 96 85" version="1.1" xmlns="http://www.w3.org/2000/svg" xmlns:xlink="http://www.w3.org/1999/xlink">
    <g id="Page-1" stroke="none" stroke-width="1" fill="none" fill-rule="evenodd">
        <g id="3994426---calendar-date-event-month-schedule" fill="#434343" fill-rule="nonzero">
            <path d="M90,12.5 L72,12.5 L72,6.5 C72,3.1862915 69.3137085,0.5 66,0.5 C62.6862915,0.5 60,3.1862915 60,6.5 L60,12.5 L36,12.5 L36,6.5 C36,3.1862915 33.3137085,0.5 30,0.5 C26.6862915,0.5 24,3.1862915 24,6.5 L24,12.5 L6,12.5 C4.40842451,12.4990973 2.88177651,13.1309485 1.75636251,14.2563625 C0.630948509,15.3817765 -0.000902660256,16.9084245 -8.39585622e-16,18.5 L-8.39585622e-16,78.5 C-0.000902660256,80.0915755 0.630948509,81.6182235 1.75636251,82.7436375 C2.88177651,83.8690515 4.40842451,84.5009027 6,84.5 L90,84.5 C91.5915755,84.5009027 93.1182235,83.8690515 94.2436375,82.7436375 C95.3690515,81.6182235 96.0009027,80.0915755 96,78.5 L96,18.5 C96.0009027,16.9084245 95.3690515,15.3817765 94.2436375,14.2563625 C93.1182235,13.1309485 91.5915755,12.4990973 90,12.5 Z M84,72.5 L12,72.5 L12,24.5 L24,24.5 L24,30.5 C24,33.8137085 26.6862915,36.5 30,36.5 C33.3137085,36.5 36,33.8137085 36,30.5 L36,24.5 L60,24.5 L60,30.5 C60,33.8137085 62.6862915,36.5 66,36.5 C69.3137085,36.5 72,33.8137085 72,30.5 L72,24.5 L84,24.5 L84,72.5 Z" id="Shape"></path>
        </g>
    </g>
</svg>