
<svg width="96px" height="72px" viewBox="0 0 96 72" version="1.1" xmlns="http://www.w3.org/2000/svg" xmlns:xlink="http://www.w3.org/1999/xlink">
    <g id="Page-1" stroke="none" stroke-width="1" fill="none" fill-rule="evenodd">
        <g id="3994346---code-coding-css-html-programming" fill="#434343">
            <path d="M24.8452,13.3957 C22.2992434,11.2812536 18.5232172,11.6216846 16.3965,14.1574 L1.3974,32.1563 C-0.4658026,34.379926 -0.4658026,37.619674 1.3974,39.8433 L16.3965,57.8422 C17.7656096,59.5010049 19.9180711,60.2997975 22.0378741,59.935751 C24.1576772,59.5717045 25.920307,58.1005497 26.6575406,56.0800098 C27.3947742,54.0594699 26.9937506,51.7988638 25.6065,50.1552 L13.8068,36 L25.6068,21.8446 C27.7287324,19.300923 27.3878141,15.5189059 24.8452,13.3957 Z" id="Path"></path>
            <path d="M55.1714,0.1192 C51.9292742,-0.494649657 48.7924727,1.60010871 48.1172,4.83 L36.1179,64.8262 C35.8035612,66.3866341 36.1238155,68.0080055 37.0078369,69.3317387 C37.8918583,70.6554719 39.2668051,71.5724938 40.8286,71.88 C41.2179405,71.9601854 41.6145945,71.9994653 42.0121,71.9972 C44.8692941,71.9927303 47.3262722,69.972473 47.8828,67.17 L59.8821,7.1735 C60.1965591,5.61299434 59.8763643,3.99150677 58.9923341,2.66766652 C58.1083039,1.34382627 56.733287,0.426724735 55.1714,0.1192 Z" id="Path"></path>
            <path d="M94.6026,32.1563 L79.6035,14.1574 C78.2343904,12.4985951 76.0819289,11.6998025 73.9621259,12.063849 C71.8423228,12.4278955 70.079693,13.8990503 69.3424594,15.9195902 C68.6052258,17.9401301 69.0062494,20.2007362 70.3935,21.8444 L82.1932,36 L70.3932,50.1554 C69.0059494,51.7990638 68.6049258,54.0596699 69.3421594,56.0802098 C70.079393,58.1007497 71.8420228,59.5719045 73.9618259,59.935951 C76.0816289,60.2999975 78.2340904,59.5012049 79.6032,57.8424 L94.6026,39.8433 C96.4658026,37.619674 96.4658026,34.379926 94.6026,32.1563 Z" id="Path"></path>
        </g>
    </g>
</svg>