
<svg width="96px" height="96px" viewBox="0 0 96 96" version="1.1" xmlns="http://www.w3.org/2000/svg" xmlns:xlink="http://www.w3.org/1999/xlink">
    <g id="Page-1" stroke="none" stroke-width="1" fill="none" fill-rule="evenodd">
        <g id="3994380---access-enter-input-login-sign-in" fill="#434343">
            <path d="M43.7578,61.7578 C42.235171,63.2719789 41.6379302,65.4844866 42.1917826,67.5591876 C42.7456351,69.6338885 44.3661115,71.2543649 46.4408124,71.8082174 C48.5155134,72.3620698 50.7280211,71.764829 52.2422,70.2422 L70.2422,52.2422 C71.3676634,51.1172908 71.9999887,49.5912538 71.9999887,48 C71.9999887,46.4087462 71.3676634,44.8827092 70.2422,43.7578 L52.2422,25.7578 C49.8973997,23.4260126 46.1078907,23.4312849 43.7695878,25.7695878 C41.4312849,28.1078907 41.4260126,31.8973997 43.7578,34.2422 L51.5156,42 L6,42 C2.6862915,42 4.05812251e-16,44.6862915 0,48 C-4.05812251e-16,51.3137085 2.6862915,54 6,54 L51.5156,54 L43.7578,61.7578 Z" id="Path"></path>
            <path d="M90,-6.66133815e-16 L30,-6.66133815e-16 C28.4084245,-0.000902660256 26.8817765,0.630948509 25.7563625,1.75636251 C24.6309485,2.88177651 23.9990973,4.40842451 24,6 L24,18 C24.0000001,21.3137084 26.6862916,23.9999999 30,23.9999999 C33.3137084,23.9999999 35.9999999,21.3137084 36,18 L36,12 L84,12 L84,84 L36,84 L36,78 C36,74.6862915 33.3137085,72 30,72 C26.6862915,72 24,74.6862915 24,78 L24,90 C23.9990973,91.5915755 24.6309485,93.1182235 25.7563625,94.2436375 C26.8817765,95.3690515 28.4084245,96.0009027 30,96 L90,96 C91.5915755,96.0009027 93.1182235,95.3690515 94.2436375,94.2436375 C95.3690515,93.1182235 96.0009027,91.5915755 96,90 L96,6 C96.0009027,4.40842451 95.3690515,2.88177651 94.2436375,1.75636251 C93.1182235,0.630948509 91.5915755,-0.000902660256 90,-6.66133815e-16 Z" id="Path"></path>
        </g>
    </g>
</svg>