
<svg width="96px" height="72px" viewBox="0 0 96 72" version="1.1" xmlns="http://www.w3.org/2000/svg" xmlns:xlink="http://www.w3.org/1999/xlink">
    <g id="Page-1" stroke="none" stroke-width="1" fill="none" fill-rule="evenodd">
        <g id="3994386---cash-dollar-finance-money-payment" fill="#434343">
            <path d="M90,8.8817842e-16 L6,8.8817842e-16 C4.40842451,-0.000902660256 2.88177651,0.630948509 1.75636251,1.75636251 C0.630948509,2.88177651 -0.000902660256,4.40842451 -6.11491508e-16,6 L-6.11491508e-16,66 C-0.000902660256,67.5915755 0.630948509,69.1182235 1.75636251,70.2436375 C2.88177651,71.3690515 4.40842451,72.0009027 6,72 L90,72 C91.5915755,72.0009027 93.1182235,71.3690515 94.2436375,70.2436375 C95.3690515,69.1182235 96.0009027,67.5915755 96,66 L96,6 C96.0009027,4.40842451 95.3690515,2.88177651 94.2436375,1.75636251 C93.1182235,0.630948509 91.5915755,-0.000902660256 90,8.8817842e-16 Z M24,60 C23.9934403,53.375302 18.624698,48.0065597 12,48 L12,24 C18.624698,23.9934403 23.9934403,18.624698 24,12 L72,12 C72.0065597,18.624698 77.375302,23.9934403 84,24 L84,48 C77.375302,48.0065597 72.0065597,53.375302 72,60 L24,60 Z" id="Shape" fill-rule="nonzero"></path>
            <path d="M48,24 C41.372583,24 36,29.372583 36,36 C36,42.627417 41.372583,48 48,48 C54.627417,48 60,42.627417 60,36 C59.9934403,29.375302 54.624698,24.0065597 48,24 Z" id="Path"></path>
        </g>
    </g>
</svg>