
<svg width="96px" height="96px" viewBox="0 0 96 96" version="1.1" xmlns="http://www.w3.org/2000/svg" xmlns:xlink="http://www.w3.org/1999/xlink">
    <g id="Page-1" stroke="none" stroke-width="1" fill="none" fill-rule="evenodd">
        <g id="3994402---interface-message-paper-plane-send-sent" transform="translate(-1.000000, -1.000000)" fill="#434343" fill-rule="nonzero">
            <path d="M95.2435,2.762 C93.6415741,1.14542742 91.2581413,0.583667597 89.1029,1.3147 L5.1029,29.3166 C2.84480651,30.0674567 1.24454547,32.0827542 1.02489856,34.4522535 C0.805251639,36.8217529 2.00780204,39.0968643 4.0894,40.25 L38.5894,59.4159 L57.7554,93.9159 C58.8130381,95.8210668 60.8204501,97.0030592 62.9995,97.0037 C63.1812,97.0037 63.3687,96.9979 63.5562,96.9803 C65.9240173,96.7579806 67.937196,95.1584747 68.689,92.9022 L96.6908,8.9022 C97.4104854,6.74655591 96.8501465,4.36930686 95.2435,2.762 Z M61.6225,76.168 L50.4425,56.047 L63.2455,43.2443 C65.5883747,40.9014252 65.5883747,37.1028748 63.2454999,34.7600001 C60.9026252,32.4171253 57.1040748,32.4171253 54.7612,34.76 L41.9585,47.5627 L21.8374,36.383 L81.515,16.4905 L61.6225,76.168 Z" id="Shape"></path>
        </g>
    </g>
</svg>