
<svg width="96px" height="96px" viewBox="0 0 96 96" version="1.1" xmlns="http://www.w3.org/2000/svg" xmlns:xlink="http://www.w3.org/1999/xlink">
    <g id="Page-1" stroke="none" stroke-width="1" fill="none" fill-rule="evenodd">
        <g id="3994398---blog-feed-media-news-rss" fill="#434343">
            <path d="M12,72 C5.372583,72 8.11624501e-16,77.372583 0,84 C-8.11624501e-16,90.627417 5.372583,96 12,96 C18.627417,96 24,90.627417 24,84 C23.9934403,77.375302 18.624698,72.0065597 12,72 Z" id="Path"></path>
            <path d="M12,36 C8.6862915,36 6,38.6862915 6,42 C6,45.3137085 8.6862915,48 12,48 C31.8732724,48.0216595 47.9783405,64.1267276 48,84 C48,87.3137085 50.6862915,90 54,90 C57.3137085,90 60,87.3137085 60,84 C59.9717806,57.5020297 38.4979703,36.0282194 12,36 Z" id="Path"></path>
            <path d="M12,0 C8.6862915,-2.02906125e-16 6,2.6862915 6,6 C6,9.3137085 8.6862915,12 12,12 C51.7464992,12.0434291 83.9565709,44.2535008 84,84 C84,87.3137085 86.6862915,90 90,90 C93.3137085,90 96,87.3137085 96,84 C95.9459417,37.6304912 58.3695088,0.0540583187 12,0 Z" id="Path"></path>
        </g>
    </g>
</svg>