
<svg width="72px" height="96px" viewBox="0 0 72 96" version="1.1" xmlns="http://www.w3.org/2000/svg" xmlns:xlink="http://www.w3.org/1999/xlink">
    <g id="Page-1" stroke="none" stroke-width="1" fill="none" fill-rule="evenodd">
        <g id="3994362---data-document-file-interface-paper" fill="#434343" fill-rule="nonzero">
            <path d="M70.2422,25.7578 L46.2422,1.7578 C45.1174359,0.632118074 43.5913057,-0.000249964395 42,-8.36859023e-16 L6,-8.36859023e-16 C4.40842451,-0.000902660256 2.88177651,0.630948509 1.75636251,1.75636251 C0.630948509,2.88177651 -0.000902660256,4.40842451 -8.42626682e-16,6 L-8.42626682e-16,90 C-0.000902660256,91.5915755 0.630948509,93.1182235 1.75636251,94.2436375 C2.88177651,95.3690515 4.40842451,96.0009027 6,96 L66,96 C67.5915755,96.0009027 69.1182235,95.3690515 70.2436375,94.2436375 C71.3690515,93.1182235 72.0009027,91.5915755 72,90 L72,30 C72.000228,28.4086986 71.3678633,26.8825765 70.2422,25.7578 Z M12,84 L12,12 L36,12 L36,30 C35.9990973,31.5915755 36.6309485,33.1182235 37.7563625,34.2436375 C38.8817765,35.3690515 40.4084245,36.0009027 42,36 L60,36 L60,84 L12,84 Z" id="Shape"></path>
        </g>
    </g>
</svg>