
<svg width="96px" height="84px" viewBox="0 0 96 84" version="1.1" xmlns="http://www.w3.org/2000/svg" xmlns:xlink="http://www.w3.org/1999/xlink">
    <g id="Page-1" stroke="none" stroke-width="1" fill="none" fill-rule="evenodd">
        <g id="3994364---archive-directory-document-folder-organize" fill="#434343" fill-rule="nonzero">
            <path d="M90,12 L56.4844,12 L46.2422,1.7578 C45.1174359,0.632118074 43.5913057,-0.000249964395 42,-8.36932926e-16 L6,-8.36932926e-16 C4.40842451,-0.000902660256 2.88177651,0.630948509 1.75636251,1.75636251 C0.630948509,2.88177651 -0.000902660256,4.40842451 -8.39585622e-16,6 L-8.39585622e-16,78 C-0.000902660256,79.5915755 0.630948509,81.1182235 1.75636251,82.2436375 C2.88177651,83.3690515 4.40842451,84.0009027 6,84 L90,84 C91.5915755,84.0009027 93.1182235,83.3690515 94.2436375,82.2436375 C95.3690515,81.1182235 96.0009027,79.5915755 96,78 L96,18 C96.0009027,16.4084245 95.3690515,14.8817765 94.2436375,13.7563625 C93.1182235,12.6309485 91.5915755,11.9990973 90,12 Z M84,72 L12,72 L12,12 L39.5156,12 L49.7578,22.2422 C50.8825765,23.3678633 52.4086986,24.000228 54,24 L84,24 L84,72 Z" id="Shape"></path>
        </g>
    </g>
</svg>