
<svg width="96px" height="96px" viewBox="0 0 96 96" version="1.1" xmlns="http://www.w3.org/2000/svg" xmlns:xlink="http://www.w3.org/1999/xlink">
    <g id="Page-1" stroke="none" stroke-width="1" fill="none" fill-rule="evenodd">
        <g id="3994390---article-headline-journal-news-newspaper" fill="#434343">
            <path d="M90,-6.66133815e-16 L30,-6.66133815e-16 C28.4084245,-0.000902660256 26.8817765,0.630948509 25.7563625,1.75636251 C24.6309485,2.88177651 23.9990973,4.40842451 24,6 L24,24 L6,24 C4.40842451,23.9990973 2.88177651,24.6309485 1.75636251,25.7563625 C0.630948509,26.8817765 -0.000902660256,28.4084245 -8.8817842e-16,30 L-8.8817842e-16,78 C0.0110222579,87.9365563 8.06344365,95.9889777 18,96 L78,96 C87.9365563,95.9889777 95.9889777,87.9365563 96,78 L96,6 C96.0009027,4.40842451 95.3690515,2.88177651 94.2436375,1.75636251 C93.1182235,0.630948509 91.5915755,-0.000902660256 90,-6.66133815e-16 Z M12,36 L24,36 L24,78 C24,81.3137085 21.3137085,84 18,84 C14.6862915,84 12,81.3137085 12,78 L12,36 Z M84,78 C83.9936171,81.311061 81.311061,83.9936171 78,84 L34.8948,84 C35.6059172,82.078553 35.9798131,80.0487164 36,78 L36,12 L84,12 L84,78 Z" id="Shape" fill-rule="nonzero"></path>
            <path d="M54,36 L66,36 C69.3137085,36 72,33.3137085 72,30 C72,26.6862915 69.3137085,24 66,24 L54,24 C50.6862915,24 48,26.6862915 48,30 C48,33.3137085 50.6862915,36 54,36 Z" id="Path"></path>
            <path d="M66,48 L54,48 C50.6862915,48 48,50.6862915 48,54 C48,57.3137085 50.6862915,60 54,60 L66,60 C69.3137085,60 72,57.3137085 72,54 C72,50.6862915 69.3137085,48 66,48 Z" id="Path"></path>
        </g>
    </g>
</svg>