
<svg width="60px" height="96px" viewBox="0 0 60 96" version="1.1" xmlns="http://www.w3.org/2000/svg" xmlns:xlink="http://www.w3.org/1999/xlink">
    <g id="Page-1" stroke="none" stroke-width="1" fill="none" fill-rule="evenodd">
        <g id="3994372---brainstroming-business-creativity-idea-light-bulb" transform="translate(-1.000000, 0.000000)" fill="#434343">
            <path d="M31,-2.94233496e-15 C18.10034,-0.0371069861 6.62976781,8.19913144 2.54173888,20.4339434 C-1.54629004,32.6687553 2.66908486,46.1461536 13,53.8711 L13,66 C12.9990973,67.5915755 13.6309485,69.1182235 14.7563625,70.2436375 C15.8817765,71.3690515 17.4084245,72.0009027 19,72 L43,72 C44.5915755,72.0009027 46.1182235,71.3690515 47.2436375,70.2436375 C48.3690515,69.1182235 49.0009027,67.5915755 49,66 L49,53.8711 C59.3309151,46.1461536 63.54629,32.6687553 59.4582611,20.4339434 C55.3702322,8.19913144 43.89966,-0.0371069861 31,-2.94233496e-15 Z M39.9766,45.4805 C38.1346062,46.5612797 37.0022175,48.5362452 37,50.6719 L37,60 L25,60 L25,50.6719 C24.9977825,48.5362452 23.8653938,46.5612797 22.0234,45.4805 C16.4464899,42.3226336 12.9994468,36.4089037 13,30 C13,20.0588745 21.0588745,12 31,12 C40.9411255,12 49,20.0588745 49,30 C49.0005532,36.4089037 45.5535101,42.3226336 39.9766,45.4805 Z" id="Shape" fill-rule="nonzero"></path>
            <path d="M43,84 L19,84 C15.6862915,84 13,86.6862915 13,90 C13,93.3137085 15.6862915,96 19,96 L43,96 C46.3137085,96 49,93.3137085 49,90 C49,86.6862915 46.3137085,84 43,84 Z" id="Path"></path>
        </g>
    </g>
</svg>