
<svg width="96px" height="96px" viewBox="0 0 96 96" version="1.1" xmlns="http://www.w3.org/2000/svg" xmlns:xlink="http://www.w3.org/1999/xlink">
    <g id="Page-1" stroke="none" stroke-width="1" fill="none" fill-rule="evenodd">
        <g id="3994369---business-goal-profit-success-target" fill="#434343" fill-rule="nonzero">
            <path d="M48,0 C21.490332,-1.623249e-15 3.24649801e-15,21.490332 0,48 C-3.24649801e-15,74.509668 21.490332,96 48,96 C74.509668,96 96,74.509668 96,48 C95.9738711,21.5011625 74.4988375,0.0261289176 48,0 Z M48,84 C28.117749,84 12,67.882251 12,48 C12,28.117749 28.117749,12 48,12 C67.882251,12 84,28.117749 84,48 C83.9783405,67.8732724 67.8732724,83.9783405 48,84 Z" id="Shape"></path>
            <path d="M48,24 C34.745166,24 24,34.745166 24,48 C24,61.254834 34.745166,72 48,72 C61.254834,72 72,61.254834 72,48 C71.9828115,34.7522923 61.2477077,24.0171885 48,24 Z M48,60 C41.372583,60 36,54.627417 36,48 C36,41.372583 41.372583,36 48,36 C54.627417,36 60,41.372583 60,48 C59.9955323,54.6255655 54.6255655,59.9955323 48,60 Z" id="Shape"></path>
        </g>
    </g>
</svg>