
<svg width="72px" height="96px" viewBox="0 0 72 96" version="1.1" xmlns="http://www.w3.org/2000/svg" xmlns:xlink="http://www.w3.org/1999/xlink">
    <g id="Page-1" stroke="none" stroke-width="1" fill="none" fill-rule="evenodd">
        <g id="3994365---banner-flag-label-mark-pin" transform="translate(0.000000, -1.000000)" fill="#434343" fill-rule="nonzero">
            <path d="M50.4861,30.9994 L70.2446,11.2408 C71.9604564,9.52482981 72.4737422,6.94424654 71.5451307,4.70228366 C70.6165192,2.46032078 68.4288678,0.998454238 66.0022,0.9983 L6,0.9983 C4.40844078,0.997450489 2.88182367,1.62931873 1.7564212,2.7547212 C0.631018726,3.88012367 -0.000849511372,5.40674078 -2.22044605e-16,6.9983 L-2.22044605e-16,91.0013 C-2.22044605e-16,94.3150085 2.6862915,97.0013 6,97.0013 C9.3137085,97.0013 12,94.3150085 12,91.0013 L12,61 L66.0022,61 C68.4288678,60.9998458 70.6165192,59.5379792 71.5451307,57.2960163 C72.4737422,55.0540535 71.9604564,52.4734702 70.2446,50.7575 L50.4861,30.9994 Z M12,49 L12,12.9987 L51.5174,12.9987 L37.7591,26.757 C36.6335448,27.8819214 36.0011612,29.4080227 36.0011612,30.99935 C36.0011612,32.5906773 36.6335448,34.1167786 37.7591,35.2417 L51.5174,49 L12,49 Z" id="Shape"></path>
        </g>
    </g>
</svg>