
<svg width="96px" height="96px" viewBox="0 0 96 96" version="1.1" xmlns="http://www.w3.org/2000/svg" xmlns:xlink="http://www.w3.org/1999/xlink">
    <g id="Page-1" stroke="none" stroke-width="1" fill="none" fill-rule="evenodd">
        <g id="3994404---network-publish-send-share-social-media" fill="#434343">
            <path d="M90,60 C88.4084245,59.9990973 86.8817765,60.6309485 85.7563625,61.7563625 C84.6309485,62.8817765 83.9990973,64.4084245 84,66 L84,84 L12,84 L12,12 L30,12 C33.3137085,12 36,9.3137085 36,6 C36,2.6862915 33.3137085,-6.36134025e-16 30,-8.39040133e-16 L6,-8.39040133e-16 C4.40842451,-0.000902660256 2.88177651,0.630948509 1.75636251,1.75636251 C0.630948509,2.88177651 -0.000902660256,4.40842451 -8.39585622e-16,6 L-8.39585622e-16,90 C-0.000902660256,91.5915755 0.630948509,93.1182235 1.75636251,94.2436375 C2.88177651,95.3690515 4.40842451,96.0009027 6,96 L90,96 C91.5915755,96.0009027 93.1182235,95.3690515 94.2436375,94.2436375 C95.3690515,93.1182235 96.0009027,91.5915755 96,90 L96,66 C96.0009027,64.4084245 95.3690515,62.8817765 94.2436375,61.7563625 C93.1182235,60.6309485 91.5915755,59.9990973 90,60 Z" id="Path"></path>
            <path d="M90,-6.66133815e-16 L66,-6.66133815e-16 C62.6862915,-8.69039922e-16 60,2.6862915 60,6 C60,9.3137085 62.6862915,12 66,12 L75.5156,12 L37.7578,49.7578 C36.235171,51.2719789 35.6379302,53.4844866 36.1917826,55.5591876 C36.7456351,57.6338885 38.3661115,59.2543649 40.4408124,59.8082174 C42.5155134,60.3620698 44.7280211,59.764829 46.2422,58.2422 L84,20.4844 L84,30 C84,33.3137085 86.6862915,36 90,36 C93.3137085,36 96,33.3137085 96,30 L96,6 C96.0009027,4.40842451 95.3690515,2.88177651 94.2436375,1.75636251 C93.1182235,0.630948509 91.5915755,-0.000902660256 90,-6.66133815e-16 Z" id="Path"></path>
        </g>
    </g>
</svg>