
<svg width="96px" height="92px" viewBox="0 0 96 92" version="1.1" xmlns="http://www.w3.org/2000/svg" xmlns:xlink="http://www.w3.org/1999/xlink">
    <g id="Page-1" stroke="none" stroke-width="1" fill="none" fill-rule="evenodd">
        <g id="3994361---bookmark-favorite-like-rate-star" fill="#434343" fill-rule="nonzero">
            <path d="M95.7073,34.5936 C95.0008647,32.4210531 93.122407,30.8378719 90.8616,30.5096 L64.963,26.742 L53.3789,3.2751 C51.3633,-0.8265 44.6367,-0.8265 42.6211,3.2751 L31.037,26.742 L5.1384,30.51 C2.8785838,30.8371217 1.00052508,32.4189873 0.294066585,34.590322 C-0.412391905,36.7616567 0.175307521,39.1457734 1.81,40.74 L20.5545,59.01 L16.1307,84.8029 C15.7450131,87.0539638 16.6708865,89.3287669 18.518954,90.6706645 C20.3670215,92.0125621 22.8166989,92.1887755 24.8378,91.1252 L48,78.9493 L71.1622,91.1252 C73.1833011,92.1887755 75.6329785,92.0125621 77.481046,90.6706645 C79.3291135,89.3287669 80.2549869,87.0539638 79.8693,84.8029 L75.4455,59.01 L94.19,40.74 C95.8231848,39.1462916 96.4112167,36.7642451 95.7073,34.5936 Z M64.8106,52.6171 C63.398051,53.9955403 62.7539251,55.9806043 63.088,57.9258 L65.988,74.8477 L50.7949,66.8614 C49.0456363,65.9393377 46.9541637,65.9393377 45.2049,66.8614 L30.0116,74.8477 L32.9116,57.9258 C33.2456749,55.9806043 32.601549,53.9955403 31.189,52.6171 L18.8963,40.6347 L35.8827,38.162 C37.8373763,37.8799297 39.5273421,36.6523635 40.4,34.8807 L48,19.4881 L55.6,34.8807 C56.4727161,36.6524429 58.1628123,37.8800223 60.1176,38.162 L77.104,40.6347 L64.8106,52.6171 Z" id="Shape"></path>
        </g>
    </g>
</svg>