
<svg width="96px" height="96px" viewBox="0 0 96 96" version="1.1" xmlns="http://www.w3.org/2000/svg" xmlns:xlink="http://www.w3.org/1999/xlink">
    <g id="Page-1" stroke="none" stroke-width="1" fill="none" fill-rule="evenodd">
        <g id="3994352---bad-dislike-thumbs-down-unlike-vote" fill="#434343" fill-rule="nonzero">
            <path d="M78,-8.39040133e-16 L6,-8.39040133e-16 C4.40842451,-0.000902660256 2.88177651,0.630948509 1.75636251,1.75636251 C0.630948509,2.88177651 -0.000902660256,4.40842451 -8.33536113e-16,6 L-8.33536113e-16,54 C-0.000902660256,55.5915755 0.630948509,57.1182235 1.75636251,58.2436375 C2.88177651,59.3690515 4.40842451,60.0009027 6,60 L27.3083,60 C35.8872,69.6313 36,79.1191 36,90 C35.9990973,91.5915755 36.6309485,93.1182235 37.7563625,94.2436375 C38.8817765,95.3690515 40.4084245,96.0009027 42,96 C67.2773,96 71.2559,83.18 71.8828,72 L78,72 C87.9365563,71.9889777 95.9889777,63.9365563 96,54 L96,18 C95.9889777,8.06344365 87.9365563,0.0110222579 78,-8.39040133e-16 Z M12,12 L24,12 L24,48 L12,48 L12,12 Z M84,54 C83.9957029,57.3119269 81.3119269,59.9957029 78,60 L66,60 C64.4084245,59.9990973 62.8817765,60.6309485 61.7563625,61.7563625 C60.6309485,62.8817765 59.9990973,64.4084245 60,66 C60,76.4883 60,82.4063 47.9355,83.7188 C47.6426,73.5234 45.9258,62.4844 36,51.5977 L36,12 L78,12 C81.3119269,12.0042971 83.9957029,14.6880731 84,18 L84,54 Z" id="Shape"></path>
        </g>
    </g>
</svg>