
<svg width="96px" height="60px" viewBox="0 0 96 60" version="1.1" xmlns="http://www.w3.org/2000/svg" xmlns:xlink="http://www.w3.org/1999/xlink">
    <g id="Page-1" stroke="none" stroke-width="1" fill="none" fill-rule="evenodd">
        <g id="3994381---bankruptcy-down-failure-loss-statistics" fill="#434343">
            <path d="M90,24 C88.4084245,23.9990973 86.8817765,24.6309485 85.7563625,25.7563625 C84.6309485,26.8817765 83.9990973,28.4084245 84,30 L84,39.5156 L58.2422,13.7578 C56.4100188,11.9436602 53.6285934,11.4918563 51.3164,12.6328 L31.1836,22.6992 L10.2422,1.7578 C7.89739966,-0.573987387 4.10789073,-0.568715103 1.76958781,1.76958781 C-0.568715103,4.10789073 -0.573987387,7.89739966 1.7578,10.2422 L25.7578,34.2422 C27.5858173,36.0645048 30.372772,36.5172069 32.6836,35.3672 L52.8164,25.3008 L75.5156,48 L66,48 C62.6862915,48 60,50.6862915 60,54 C60,57.3137085 62.6862915,60 66,60 L90,60 C91.5915755,60.0009027 93.1182235,59.3690515 94.2436375,58.2436375 C95.3690515,57.1182235 96.0009027,55.5915755 96,54 L96,30 C96.0009027,28.4084245 95.3690515,26.8817765 94.2436375,25.7563625 C93.1182235,24.6309485 91.5915755,23.9990973 90,24 Z" id="Path"></path>
        </g>
    </g>
</svg>