
<svg width="96px" height="72px" viewBox="0 0 96 72" version="1.1" xmlns="http://www.w3.org/2000/svg" xmlns:xlink="http://www.w3.org/1999/xlink">
    <g id="Page-1" stroke="none" stroke-width="1" fill="none" fill-rule="evenodd">
        <g id="3994416---camcorder-camera-movie-record-video-camera" fill="#434343" fill-rule="nonzero">
            <path d="M93.6914,13.2715 C92.2397722,12.1270803 90.3379119,11.7241203 88.5469,12.1815 L72,16.3184 L72,6 C72.0009027,4.40842451 71.3690515,2.88177651 70.2436375,1.75636251 C69.1182235,0.630948509 67.5915755,-0.000902660256 66,-8.42626682e-16 L6,-8.42626682e-16 C4.40842451,-0.000902660256 2.88177651,0.630948509 1.75636251,1.75636251 C0.630948509,2.88177651 -0.000902660256,4.40842451 -6.11491508e-16,6 L-6.11491508e-16,66 C-0.000902660256,67.5915755 0.630948509,69.1182235 1.75636251,70.2436375 C2.88177651,71.3690515 4.40842451,72.0009027 6,72 L66,72 C67.5915755,72.0009027 69.1182235,71.3690515 70.2436375,70.2436375 C71.3690515,69.1182235 72.0009027,67.5915755 72,66 L72,55.6816 L88.5469,59.8184 C89.021738,59.9396125 89.5099355,60.0006246 90,60 C93.3129998,59.9982896 95.9982896,57.3129998 96,54 L96,18 C96.000449,16.152246 95.1486414,14.4075644 93.6914,13.2715 Z M60,60 L12,60 L12,12 L60,12 L60,60 Z M84,46.3125 L72,43.3125 L72,28.6875 L84,25.6875 L84,46.3125 Z" id="Shape"></path>
        </g>
    </g>
</svg>