
<svg width="96px" height="96px" viewBox="0 0 96 96" version="1.1" xmlns="http://www.w3.org/2000/svg" xmlns:xlink="http://www.w3.org/1999/xlink">
    <g id="Page-1" stroke="none" stroke-width="1" fill="none" fill-rule="evenodd">
        <g id="3994377---favorite-good-like-thumbs-up-vote" fill="#434343" fill-rule="nonzero">
            <path d="M78,24 L71.8828,24 C71.2559,12.82 67.2773,-8.39794839e-16 42,-8.39794839e-16 C40.4084245,-0.000902660256 38.8817765,0.630948509 37.7563625,1.75636251 C36.6309485,2.88177651 35.9990973,4.40842451 36,6 C36,16.8809 35.8872,26.3687 27.3083,36 L6,36 C4.40842451,35.9990973 2.88177651,36.6309485 1.75636251,37.7563625 C0.630948509,38.8817765 -0.000902660256,40.4084245 -8.39585622e-16,42 L-8.39585622e-16,90 C-0.000902660256,91.5915755 0.630948509,93.1182235 1.75636251,94.2436375 C2.88177651,95.3690515 4.40842451,96.0009027 6,96 L78,96 C87.9365563,95.9889777 95.9889777,87.9365563 96,78 L96,42 C95.9889777,32.0634437 87.9365563,24.0110223 78,24 Z M12,48 L24,48 L24,84 L12,84 L12,48 Z M84,78 C83.9957029,81.3119269 81.3119269,83.9957029 78,84 L36,84 L36,44.4023 C45.9258,33.5156 47.6426,22.4766 47.9355,12.2813 C60,13.5938 60,19.5117 60,30 C59.9990973,31.5915755 60.6309485,33.1182235 61.7563625,34.2436375 C62.8817765,35.3690515 64.4084245,36.0009027 66,36 L78,36 C81.3119269,36.0042971 83.9957029,38.6880731 84,42 L84,78 Z" id="Shape"></path>
        </g>
    </g>
</svg>