
<svg width="96px" height="96px" viewBox="0 0 96 96" version="1.1" xmlns="http://www.w3.org/2000/svg" xmlns:xlink="http://www.w3.org/1999/xlink">
    <g id="Page-1" stroke="none" stroke-width="1" fill="none" fill-rule="evenodd">
        <g id="3994360---exit-fullscreen-fullscreen-interface-minimize-shrink" fill="#434343">
            <path d="M30,60 L6,60 C2.6862915,60 4.05812251e-16,62.6862915 0,66 C-4.05812251e-16,69.3137085 2.6862915,72 6,72 L24,72 L24,90 C24,93.3137085 26.6862915,96 30,96 C33.3137085,96 36,93.3137085 36,90 L36,66 C36.0009027,64.4084245 35.3690515,62.8817765 34.2436375,61.7563625 C33.1182235,60.6309485 31.5915755,59.9990973 30,60 Z" id="Path"></path>
            <path d="M90,60 L66,60 C64.4084245,59.9990973 62.8817765,60.6309485 61.7563625,61.7563625 C60.6309485,62.8817765 59.9990973,64.4084245 60,66 L60,90 C60,93.3137085 62.6862915,96 66,96 C69.3137085,96 72,93.3137085 72,90 L72,72 L90,72 C93.3137085,72 96,69.3137085 96,66 C96,62.6862915 93.3137085,60 90,60 Z" id="Path"></path>
            <path d="M66,36 L90,36 C93.3137085,36 96,33.3137085 96,30 C96,26.6862915 93.3137085,24 90,24 L72,24 L72,6 C72,2.6862915 69.3137085,2.02906125e-16 66,0 C62.6862915,-2.02906125e-16 60,2.6862915 60,6 L60,30 C59.9990973,31.5915755 60.6309485,33.1182235 61.7563625,34.2436375 C62.8817765,35.3690515 64.4084245,36.0009027 66,36 Z" id="Path"></path>
            <path d="M30,-6.66133815e-16 C28.4084245,-0.000902660256 26.8817765,0.630948509 25.7563625,1.75636251 C24.6309485,2.88177651 23.9990973,4.40842451 24,6 L24,24 L6,24 C2.6862915,24 4.05812251e-16,26.6862915 0,30 C-4.05812251e-16,33.3137085 2.6862915,36 6,36 L30,36 C31.5915755,36.0009027 33.1182235,35.3690515 34.2436375,34.2436375 C35.3690515,33.1182235 36.0009027,31.5915755 36,30 L36,6 C36.0009027,4.40842451 35.3690515,2.88177651 34.2436375,1.75636251 C33.1182235,0.630948509 31.5915755,-0.000902660256 30,-6.66133815e-16 Z" id="Path"></path>
        </g>
    </g>
</svg>