
<svg width="96px" height="72px" viewBox="0 0 96 72" version="1.1" xmlns="http://www.w3.org/2000/svg" xmlns:xlink="http://www.w3.org/1999/xlink">
    <g id="Page-1" stroke="none" stroke-width="1" fill="none" fill-rule="evenodd">
        <g id="3994348---banking-card-credit-finance-payment" fill="#434343" fill-rule="nonzero">
            <path d="M78,0 L18,0 C8.06344365,0.0110222579 0.0110222579,8.06344365 0,18 L0,54 C0.0110222579,63.9365563 8.06344365,71.9889777 18,72 L78,72 C87.9365563,71.9889777 95.9889777,63.9365563 96,54 L96,18 C95.9889777,8.06344365 87.9365563,0.0110222579 78,0 Z M18,12 L78,12 C81.311061,12.0063829 83.9936171,14.688939 84,18 L84,24 L12,24 L12,18 C12.0063829,14.688939 14.688939,12.0063829 18,12 Z M78,60 L18,60 C14.688939,59.9936171 12.0063829,57.311061 12,54 L12,36 L84,36 L84,54 C83.9936171,57.311061 81.311061,59.9936171 78,60 Z" id="Shape"></path>
        </g>
    </g>
</svg>