
<svg width="96px" height="84px" viewBox="0 0 96 84" version="1.1" xmlns="http://www.w3.org/2000/svg" xmlns:xlink="http://www.w3.org/1999/xlink">
    <g id="Page-1" stroke="none" stroke-width="1" fill="none" fill-rule="evenodd">
        <g id="3994417---cash-money-purchase-purse-wallet" fill="#434343" fill-rule="nonzero">
            <path d="M90,24 L84,24 L84,6 C84.0009027,4.40842451 83.3690515,2.88177651 82.2436375,1.75636251 C81.1182235,0.630948509 79.5915755,-0.000902660256 78,-8.8817842e-16 L18,-8.8817842e-16 C8.06344365,0.0110222579 0.0110222579,8.06344365 0,18 L0,66 C0.0110222579,75.9365563 8.06344365,83.9889777 18,84 L90,84 C91.5915755,84.0009027 93.1182235,83.3690515 94.2436375,82.2436375 C95.3690515,81.1182235 96.0009027,79.5915755 96,78 L96,30 C96.0009027,28.4084245 95.3690515,26.8817765 94.2436375,25.7563625 C93.1182235,24.6309485 91.5915755,23.9990973 90,24 Z M18,12 L72,12 L72,24 L18,24 C14.6862915,24 12,21.3137085 12,18 C12,14.6862915 14.6862915,12 18,12 Z M18,72 C14.6880731,71.9957029 12.0042971,69.3119269 12,66 L12,34.8948 C13.921447,35.6059172 15.9512836,35.9798131 18,36 L84,36 L84,72 L18,72 Z" id="Shape"></path>
        </g>
    </g>
</svg>