
<svg width="96px" height="96px" viewBox="0 0 96 96" version="1.1" xmlns="http://www.w3.org/2000/svg" xmlns:xlink="http://www.w3.org/1999/xlink">
    <g id="Page-1" stroke="none" stroke-width="1" fill="none" fill-rule="evenodd">
        <g id="3994408---business-management-plan-strategy-teamwork" transform="translate(-1.000000, -1.000000)" fill="#434343">
            <path d="M79,61 C69.0588745,61 61,69.0588745 61,79 C61,88.9411255 69.0588745,97 79,97 C88.9411255,97 97,88.9411255 97,79 C96.9889777,69.0634437 88.9365563,61.0110223 79,61 Z M79,85 C75.6862915,85 73,82.3137085 73,79 C73,75.6862915 75.6862915,73 79,73 C82.3137085,73 85,75.6862915 85,79 C84.9936171,82.311061 82.311061,84.9936171 79,85 Z" id="Shape" fill-rule="nonzero"></path>
            <path d="M26.7578,35.2422 C28.2719789,36.764829 30.4844866,37.3620698 32.5591876,36.8082174 C34.6338885,36.2543649 36.2543649,34.6338885 36.8082174,32.5591876 C37.3620698,30.4844866 36.764829,28.2719789 35.2422,26.7578 L27.4844,19 L35.2422,11.2422 C36.764829,9.72802115 37.3620698,7.51551339 36.8082174,5.44081242 C36.2543649,3.36611145 34.6338885,1.7456351 32.5591876,1.19178264 C30.4844866,0.637930167 28.2719789,1.235171 26.7578,2.7578 L19,10.5156 L11.2422,2.7578 C8.89739966,0.426012613 5.10789073,0.431284897 2.76958781,2.76958781 C0.431284897,5.10789073 0.426012613,8.89739966 2.7578,11.2422 L10.5156,19 L2.7578,26.7578 C1.235171,28.2719789 0.637930167,30.4844866 1.19178264,32.5591876 C1.7456351,34.6338885 3.36611145,36.2543649 5.44081242,36.8082174 C7.51551339,37.3620698 9.72802115,36.764829 11.2422,35.2422 L19,27.4844 L26.7578,35.2422 Z" id="Path"></path>
            <path d="M84.8044,21.2888 L86.7578,23.2422 C89.1026003,25.5739874 92.8921093,25.5687151 95.2304122,23.2304122 C97.5687151,20.8921093 97.5739874,17.1026003 95.2422,14.7578 L83.2422,2.7578 C82.1172908,1.63233662 80.5912538,1.00001127 79,1.00001127 C77.4087462,1.00001127 75.8827092,1.63233662 74.7578,2.7578 L62.7578,14.7578 C60.4260126,17.1026003 60.4312849,20.8921093 62.7695878,23.2304122 C65.1078907,25.5687151 68.8973997,25.5739874 71.2422,23.2422 L72.8154,21.6689 C71.8779,37.3098 63.0164,40.1189 49.8086,44.0078 C33.4141,48.8359 13,54.8359 13,91 C13,94.3137085 15.6862915,97 19,97 C22.3137085,97 25,94.3137085 25,91 C25,63.8125 37.4453,60.1563 53.1953,55.5156 C66.9224,51.4734 83.7607,46.2908 84.8044,21.2888 Z" id="Path"></path>
        </g>
    </g>
</svg>