
<svg width="96px" height="84px" viewBox="0 0 96 84" version="1.1" xmlns="http://www.w3.org/2000/svg" xmlns:xlink="http://www.w3.org/1999/xlink">
    <g id="Page-1" stroke="none" stroke-width="1" fill="none" fill-rule="evenodd">
        <g id="3994356---dj-earphone-headphone-headset-listen" fill="#434343">
            <path d="M84,37.1052 L84,36 C83.9999997,16.1177492 67.8822508,5.36441797e-07 48,5.36441796e-07 C28.1177492,5.36441795e-07 12.0000003,16.1177492 12,36 L12,37.1052 C4.82885047,39.6313438 0.0233851187,46.3969584 0,54 L0,66 C0.0110222579,75.9365563 8.06344365,83.9889777 18,84 C19.5915755,84.0009027 21.1182235,83.3690515 22.2436375,82.2436375 C23.3690515,81.1182235 24.0009027,79.5915755 24,78 L24,36 C24,22.745166 34.745166,12 48,12 C61.254834,12 72,22.745166 72,36 L72,78 C71.9990973,79.5915755 72.6309485,81.1182235 73.7563625,82.2436375 C74.8817765,83.3690515 76.4084245,84.0009027 78,84 C87.9365563,83.9889777 95.9889777,75.9365563 96,66 L96,54 C95.9766149,46.3969584 91.1711495,39.6313438 84,37.1052 Z" id="Path"></path>
        </g>
    </g>
</svg>