
<svg width="72px" height="72px" viewBox="0 0 72 72" version="1.1" xmlns="http://www.w3.org/2000/svg" xmlns:xlink="http://www.w3.org/1999/xlink">
    <g id="Page-1" stroke="none" stroke-width="1" fill="none" fill-rule="evenodd">
        <g id="3994388---detail-interface-list-menu-more" fill="#434343">
            <path d="M6,12 L66,12 C69.3137085,12 72,9.3137085 72,6 C72,2.6862915 69.3137085,0 66,0 L6,0 C2.6862915,0 0,2.6862915 0,6 C0,9.3137085 2.6862915,12 6,12 Z" id="Path"></path>
            <path d="M66,30 L6,30 C2.6862915,30 0,32.6862915 0,36 C0,39.3137085 2.6862915,42 6,42 L66,42 C69.3137085,42 72,39.3137085 72,36 C72,32.6862915 69.3137085,30 66,30 Z" id="Path"></path>
            <path d="M66,60 L6,60 C2.6862915,60 0,62.6862915 0,66 C0,69.3137085 2.6862915,72 6,72 L66,72 C69.3137085,72 72,69.3137085 72,66 C72,62.6862915 69.3137085,60 66,60 Z" id="Path"></path>
        </g>
    </g>
</svg>