
<svg width="96px" height="72px" viewBox="0 0 96 72" version="1.1" xmlns="http://www.w3.org/2000/svg" xmlns:xlink="http://www.w3.org/1999/xlink">
    <g id="Page-1" stroke="none" stroke-width="1" fill="none" fill-rule="evenodd">
        <g id="3994399---refresh-reload-repeat-rotate-sync" fill="#434343">
            <path d="M94.2422,25.7578 C93.1172908,24.6323366 91.5912538,24.0000113 90,24.0000113 C88.4087462,24.0000113 86.8827092,24.6323366 85.7578,25.7578 L83.1478,28.3678 C79.5470327,11.8314405 64.9238255,0.0290455091 48,-3.55271368e-15 C40.1796802,0.00824284298 32.5802917,2.5949262 26.3789,7.3594 C23.7382885,9.35927831 23.2188717,13.1211385 25.21875,15.76175 C27.2186283,18.4023615 30.9804885,18.9217783 33.6211,16.9219 C37.7426552,13.745158 42.7962828,12.0153004 48,12 C58.3170433,12.0371899 67.4515239,18.6752989 70.6729,28.4766 L66.7029,25.3125 C65.0284772,23.9739237 62.7667814,23.63118 60.7709438,24.4135547 C58.7751061,25.1959294 57.3488398,26.9843661 57.0301448,29.1042509 C56.7114498,31.2241357 57.548823,33.3528789 59.2264,34.6875 L74.2615,46.6875 C76.6461636,48.5947868 80.0838414,48.4029574 82.2415,46.2422 L94.2415,34.2422 C95.3670562,33.1173836 95.9995075,31.5913988 95.9996387,30.000145 C95.99977,28.4088912 95.3675706,26.8828021 94.2422,25.7578 Z" id="Path"></path>
            <path d="M62.3789,55.0781 C58.257352,58.2548553 53.2037197,59.9847145 48,60 C37.6829567,59.9628101 28.5484761,53.3247011 25.3271,43.5234 L29.2971,46.6875 C30.9715228,48.0260763 33.2332186,48.36882 35.2290562,47.5864453 C37.2248939,46.8040706 38.6511602,45.0156339 38.9698552,42.8957491 C39.2885502,40.7758643 38.451177,38.6471211 36.7736,37.3125 L21.7385,25.3125 C19.3513081,23.4131386 15.9195529,23.6046374 13.7585,25.7578 L1.7585,37.7578 C-0.573287387,40.1026003 -0.568015103,43.8921093 1.77028781,46.2304122 C4.10859073,48.5687151 7.89809966,48.5739874 10.2429,46.2422 L12.8529,43.6322 C16.453611,60.1683037 31.076437,71.9706261 48,72 C55.8203198,71.9917572 63.4197083,69.4050738 69.6211,64.6406 C71.3292762,63.3469056 72.2175183,61.2401815 71.9512341,59.1140104 C71.68495,56.9878392 70.3045944,55.1652369 68.3301341,54.3327603 C66.3556737,53.5002836 64.0870761,53.7844055 62.3789,55.0781 Z" id="Path"></path>
        </g>
    </g>
</svg>