
<svg width="96px" height="96px" viewBox="0 0 96 96" version="1.1" xmlns="http://www.w3.org/2000/svg" xmlns:xlink="http://www.w3.org/1999/xlink">
    <g id="Page-1" stroke="none" stroke-width="1" fill="none" fill-rule="evenodd">
        <g id="3994420---draw-edit-new-pen-write" fill="#434343">
            <path d="M78,60 C76.4084245,59.9990973 74.8817765,60.6309485 73.7563625,61.7563625 C72.6309485,62.8817765 71.9990973,64.4084245 72,66 L72,84 L12,84 L12,24 L30,24 C33.3137085,24 36,21.3137085 36,18 C36,14.6862915 33.3137085,12 30,12 L6,12 C4.40842451,11.9990973 2.88177651,12.6309485 1.75636251,13.7563625 C0.630948509,14.8817765 -0.000902660256,16.4084245 -8.39585622e-16,18 L-8.39585622e-16,90 C-0.000902660256,91.5915755 0.630948509,93.1182235 1.75636251,94.2436375 C2.88177651,95.3690515 4.40842451,96.0009027 6,96 L78,96 C79.5915755,96.0009027 81.1182235,95.3690515 82.2436375,94.2436375 C83.3690515,93.1182235 84.0009027,91.5915755 84,90 L84,66 C84.0009027,64.4084245 83.3690515,62.8817765 82.2436375,61.7563625 C81.1182235,60.6309485 79.5915755,59.9990973 78,60 Z" id="Path"></path>
            <path d="M94.2422,13.7578 L82.2422,1.7578 C81.1172908,0.632336618 79.5912538,1.12685872e-05 78,1.12685872e-05 C76.4087462,1.12685872e-05 74.8827092,0.632336618 73.7578,1.7578 L37.7578,37.7578 C36.6321367,38.8825765 35.999772,40.4086986 36,42 L36,54 C35.9990973,55.5915755 36.6309485,57.1182235 37.7563625,58.2436375 C38.8817765,59.3690515 40.4084245,60.0009027 42,60 L54,60 C55.5913057,60.00025 57.1174359,59.3678819 58.2422,58.2422 L94.2422,22.2422 C95.3676634,21.1172908 95.9999887,19.5912538 95.9999887,18 C95.9999887,16.4087462 95.3676634,14.8827092 94.2422,13.7578 Z M51.5156,48 L48,48 L48,44.4844 L78,14.4844 L81.5156,18 L51.5156,48 Z" id="Shape" fill-rule="nonzero"></path>
        </g>
    </g>
</svg>