
<svg width="72px" height="96px" viewBox="0 0 72 96" version="1.1" xmlns="http://www.w3.org/2000/svg" xmlns:xlink="http://www.w3.org/1999/xlink">
    <g id="Page-1" stroke="none" stroke-width="1" fill="none" fill-rule="evenodd">
        <g id="3994409---audio-music-sound-speaker-volume" fill="#434343" fill-rule="nonzero">
            <path d="M68.83,0.7073 C66.8781035,-0.331380669 64.5139297,-0.216630975 62.6718,1.0062 L28.1836,23.9984 L6,23.9984 C4.40842451,23.9974973 2.88177651,24.6293485 1.75636251,25.7547625 C0.630948509,26.8801765 -0.000902660256,28.4068245 -8.42626682e-16,29.9984 L-8.42626682e-16,65.9984 C-0.000902660256,67.5899755 0.630948509,69.1166235 1.75636251,70.2420375 C2.88177651,71.3674515 4.40842451,71.9993027 6,71.9984 L28.1836,71.9984 L62.6719,94.9905 C64.5129386,96.2182193 66.8803176,96.3328349 68.8313466,95.2887067 C70.7823756,94.2445786 72.0002453,92.2112528 72,89.9984 L72,5.9984 C72.0005377,3.78489961 70.7819909,1.75100287 68.83,0.7073 Z M12,35.9984 L24,35.9984 L24,59.9984 L12,59.9984 L12,35.9984 Z M60,78.7894 L36,62.7874 L36,33.2093 L60,17.2073 L60,78.7894 Z" id="Shape"></path>
        </g>
    </g>
</svg>