
<svg width="72px" height="48px" viewBox="0 0 72 48" version="1.1" xmlns="http://www.w3.org/2000/svg" xmlns:xlink="http://www.w3.org/1999/xlink">
    <g id="Page-1" stroke="none" stroke-width="1" fill="none" fill-rule="evenodd">
        <g id="3994413---above-arrow-navigation-top-up" transform="translate(-1.000000, 0.000000)" fill="#434343">
            <path d="M71.6074,38.1072 L41.6057,2.1052 C40.429549,0.801403006 38.7559094,0.0571870403 37,0.0571870403 C35.2440906,0.0571870403 33.570451,0.801403006 32.3943,2.1052 L2.3926,38.1072 C1.01928888,39.7526581 0.62813855,42.0057769 1.36649155,44.0178283 C2.10484456,46.0298796 3.86052751,47.4951851 5.97219161,47.8617783 C8.08385571,48.2283715 10.230689,47.4405582 11.604,45.7951 L37,15.3246 L62.396,45.7951 C63.769311,47.4405582 65.9161443,48.2283716 68.0278084,47.8617784 C70.1394725,47.4951852 71.8951555,46.0298797 72.6335085,44.0178283 C73.3718615,42.0057769 72.9807111,39.7526581 71.6074,38.1072 Z" id="Path"></path>
        </g>
    </g>
</svg>