
<svg width="84px" height="96px" viewBox="0 0 84 96" version="1.1" xmlns="http://www.w3.org/2000/svg" xmlns:xlink="http://www.w3.org/1999/xlink">
    <g id="Page-1" stroke="none" stroke-width="1" fill="none" fill-rule="evenodd">
        <g id="3994392---article-document-journal-news-paper" fill="#434343">
            <path d="M78,-8.39794839e-16 L6,-8.39794839e-16 C4.40842451,-0.000902660256 2.88177651,0.630948509 1.75636251,1.75636251 C0.630948509,2.88177651 -0.000902660256,4.40842451 -8.38830704e-16,6 L-8.38830704e-16,90 C-0.000902660256,91.5915755 0.630948509,93.1182235 1.75636251,94.2436375 C2.88177651,95.3690515 4.40842451,96.0009027 6,96 L78,96 C79.5915755,96.0009027 81.1182235,95.3690515 82.2436375,94.2436375 C83.3690515,93.1182235 84.0009027,91.5915755 84,90 L84,6 C84.0009027,4.40842451 83.3690515,2.88177651 82.2436375,1.75636251 C81.1182235,0.630948509 79.5915755,-0.000902660256 78,-8.39794839e-16 Z M72,84 L12,84 L12,12 L72,12 L72,84 Z" id="Shape" fill-rule="nonzero"></path>
            <path d="M30,36 L54,36 C57.3137085,36 60,33.3137085 60,30 C60,26.6862915 57.3137085,24 54,24 L30,24 C26.6862915,24 24,26.6862915 24,30 C24,33.3137085 26.6862915,36 30,36 Z" id="Path"></path>
            <path d="M30,60 L54,60 C57.3137085,60 60,57.3137085 60,54 C60,50.6862915 57.3137085,48 54,48 L30,48 C26.6862915,48 24,50.6862915 24,54 C24,57.3137085 26.6862915,60 30,60 Z" id="Path"></path>
        </g>
    </g>
</svg>