
<svg width="96px" height="96px" viewBox="0 0 96 96" version="1.1" xmlns="http://www.w3.org/2000/svg" xmlns:xlink="http://www.w3.org/1999/xlink">
    <g id="Page-1" stroke="none" stroke-width="1" fill="none" fill-rule="evenodd">
        <g id="3994341---circle-chart-diagram-graph-graphic-pie-chart" fill="#434343" fill-rule="nonzero">
            <path d="M48,0 C21.490332,-1.623249e-15 3.24649801e-15,21.490332 0,48 C-3.24649801e-15,74.509668 21.490332,96 48,96 C74.509668,96 96,74.509668 96,48 C95.9738711,21.5011625 74.4988375,0.0261289176 48,0 Z M77.2808,68.7964 L62.4844,54 L83.3936,54 C82.5032485,59.3315337 80.4130248,64.3910459 77.2808,68.7964 Z M83.3936,42 L54,42 L54,12.6064 C69.0459752,15.1675888 80.8324112,26.9540248 83.3936,42 Z M12,48 C12.0407478,30.4685412 24.7121314,15.5190117 42,12.6064 L42,48 C41.9977923,49.5954208 42.6332856,51.1255586 43.7651,52.25 L68.7964,77.2808 C57.845007,85.1306297 43.4194528,86.1848638 31.4431657,80.0106122 C19.4668787,73.8363605 11.9580659,61.474089 12,48 Z" id="Shape"></path>
        </g>
    </g>
</svg>