
<svg width="96px" height="96px" viewBox="0 0 96 96" version="1.1" xmlns="http://www.w3.org/2000/svg" xmlns:xlink="http://www.w3.org/1999/xlink">
    <g id="Page-1" stroke="none" stroke-width="1" fill="none" fill-rule="evenodd">
        <g id="3994349---data-center-database-hosting-server-storage" fill="#434343" fill-rule="nonzero">
            <path d="M0,23.8362 L0,71.8362 C0,87.5979 24.1465,95.8362 48,95.8362 C71.8535,95.8362 96,87.5979 96,71.8362 L96,23.8362 C96,-7.6873 0,-7.6873 0,23.8362 Z M84,47.8362 C84,52.0662 70.33,59.8362 48,59.8362 C25.67,59.8362 12,52.0662 12,47.8362 L12,40.0645 C21.2527,45.1423 34.5938,47.8362 48,47.8362 C61.4062,47.8362 74.7473,45.1423 84,40.0645 L84,47.8362 Z M48,11.8362 C70.33,11.8362 84,19.6057 84,23.8362 C84,28.0667 70.33,35.8362 48,35.8362 C25.67,35.8362 12,28.0667 12,23.8362 C12,19.6057 25.67,11.8362 48,11.8362 Z M48,83.8362 C25.67,83.8362 12,76.0662 12,71.8362 L12,64.0645 C21.2527,69.1423 34.5938,71.8362 48,71.8362 C61.4062,71.8362 74.7473,69.1423 84,64.0645 L84,71.8362 C84,76.0667 70.33,83.8362 48,83.8362 Z" id="Shape"></path>
        </g>
    </g>
</svg>