
<svg width="84px" height="84px" viewBox="0 0 84 84" version="1.1" xmlns="http://www.w3.org/2000/svg" xmlns:xlink="http://www.w3.org/1999/xlink">
    <g id="Page-1" stroke="none" stroke-width="1" fill="none" fill-rule="evenodd">
        <g id="3994395---edit-pen-pencil-stationery-write" fill="#434343" fill-rule="nonzero">
            <path d="M78.4373,5.577 C75.0613202,2.200368 70.4821176,0.30334106 65.7073,0.30334106 C60.9324824,0.30334106 56.3532798,2.200368 52.9773,5.577 L2.0639,56.4848 C0.938147553,57.6095659 0.305739002,59.1357431 0.306,60.7271 L0.306,77.6964 C0.305150489,79.2879592 0.937018726,80.8145763 2.0624212,81.9399788 C3.18782367,83.0653813 4.71444078,83.6972495 6.306,83.6964 L23.2813,83.6964 C24.8726482,83.696617 26.3988091,83.0642151 27.5236,81.9385 L78.4436,31.0307 C85.4468235,23.9902466 85.4440078,12.6139858 78.4373,5.577 Z M69.9473,14.0617 C72.283897,16.4063548 72.2864892,20.1984528 69.9531,22.5463 L65.7101,26.7893 L57.221,18.3032 L61.4626,14.0617 C62.5875141,12.9363223 64.1135034,12.3040528 65.7047,12.3040528 C67.2958966,12.3040528 68.8218859,12.9363223 69.9468,14.0617 L69.9473,14.0617 Z M20.7973,71.6962 L12.3073,71.6962 L12.3073,63.2116 L48.7352,26.7871 L57.2242,35.2732 L20.7973,71.6962 Z" id="Shape"></path>
        </g>
    </g>
</svg>