
<svg width="96px" height="96px" viewBox="0 0 96 96" version="1.1" xmlns="http://www.w3.org/2000/svg" xmlns:xlink="http://www.w3.org/1999/xlink">
    <g id="Page-1" stroke="none" stroke-width="1" fill="none" fill-rule="evenodd">
        <g id="3994363---arrange-filter-funnel-sort-sorting" fill="#434343" fill-rule="nonzero">
            <path d="M60,95.9994 L36,95.9994 C34.4084245,96.0003027 32.8817765,95.3684515 31.7563625,94.2430375 C30.6309485,93.1176235 29.9990973,91.5909755 30,89.9994 L30,55.7226 L0.9147,9.1763 C-0.24206227,7.32770257 -0.303865425,4.99679002 0.753310849,3.08949096 C1.81048712,1.18219189 3.8199098,-0.000683182579 6.0006,0.0006 L89.9994,0.0006 C92.1800902,-0.000683182579 94.1895129,1.18219189 95.2466892,3.08949096 C96.3038654,4.99679002 96.2420623,7.32770257 95.0853,9.1763 L66,55.7226 L66,89.9994 C66.0009027,91.5909755 65.3690515,93.1176235 64.2436375,94.2430375 C63.1182235,95.3684515 61.5915755,96.0003027 60,95.9994 Z M42,84 L54,84 L54,54 C53.9992704,52.8764327 54.3161528,51.775543 54.9141,50.8243 L79.1715,12.0005 L16.8285,12.0005 L41.086,50.8242 C41.6839302,51.7754823 42.0007784,52.8764085 42,54 L42,84 Z" id="Shape"></path>
        </g>
    </g>
</svg>