
<svg width="72px" height="96px" viewBox="0 0 72 96" version="1.1" xmlns="http://www.w3.org/2000/svg" xmlns:xlink="http://www.w3.org/1999/xlink">
    <g id="Page-1" stroke="none" stroke-width="1" fill="none" fill-rule="evenodd">
        <g id="3994379---lock-padlock-privacy-protection-security" fill="#434343" fill-rule="nonzero">
            <path d="M66,36 L60,36 L60,24 C60,10.745166 49.254834,8.11624501e-16 36,0 C22.745166,-8.11624501e-16 12,10.745166 12,24 L12,36 L6,36 C4.40842451,35.9990973 2.88177651,36.6309485 1.75636251,37.7563625 C0.630948509,38.8817765 -0.000902660256,40.4084245 -8.42626682e-16,42 L-8.42626682e-16,90 C-0.000902660256,91.5915755 0.630948509,93.1182235 1.75636251,94.2436375 C2.88177651,95.3690515 4.40842451,96.0009027 6,96 L66,96 C67.5915755,96.0009027 69.1182235,95.3690515 70.2436375,94.2436375 C71.3690515,93.1182235 72.0009027,91.5915755 72,90 L72,42 C72.0009027,40.4084245 71.3690515,38.8817765 70.2436375,37.7563625 C69.1182235,36.6309485 67.5915755,35.9990973 66,36 Z M24,24 C24,17.372583 29.372583,12 36,12 C42.627417,12 48,17.372583 48,24 L48,36 L24,36 L24,24 Z M60,84 L12,84 L12,48 L60,48 L60,84 Z" id="Shape"></path>
        </g>
    </g>
</svg>