
<svg width="96px" height="96px" viewBox="0 0 96 96" version="1.1" xmlns="http://www.w3.org/2000/svg" xmlns:xlink="http://www.w3.org/1999/xlink">
    <g id="Page-1" stroke="none" stroke-width="1" fill="none" fill-rule="evenodd">
        <g id="3994436---advertising-bullhorn-marketing-megaphone-promotion" transform="translate(-1.000000, 0.000000)" fill="#434343" fill-rule="nonzero">
            <path d="M94.6914,1.2644 C93.232336,0.135946377 91.3382341,-0.265369784 89.5469,0.1744 L42.25,11.9988 L25,11.9988 C14.0037921,11.9611323 4.39869625,19.4259327 1.72037651,30.0910445 C-0.957943228,40.7561563 3.98068394,51.8733085 13.69,57.0354 L25.3105,91.8973 C26.1255397,94.3472723 28.4180138,95.9998925 31,95.9988 L55,95.9988 C56.9287924,95.9986802 58.7398898,95.0711769 59.867266,93.5061648 C60.9946422,91.9411526 61.3007795,89.9295324 60.69,88.1 L52.1472,62.4729 L89.5472,71.8229 C90.0226923,71.9394067 90.5104424,71.9984617 91,71.9988 C92.5919826,72.0010335 94.1194041,71.3696097 95.2451069,70.2439069 C96.3708097,69.1182041 97.0022335,67.5907826 97,65.9988 L97,5.9988 C97.0017864,4.14908589 96.1498921,2.40204941 94.6914,1.2644 Z M25,23.9988 L37,23.9988 L37,47.9988 L25,47.9988 C18.372583,47.9988 13,42.626217 13,35.9988 C13,29.371383 18.372583,23.9988 25,23.9988 Z M35.3242,83.9988 L27.3262,59.9988 L38.6762,59.9988 L46.6742,83.9988 L35.3242,83.9988 Z M85,58.3113 L49,49.3113 L49,22.6863 L85,13.6863 L85,58.3113 Z" id="Shape"></path>
        </g>
    </g>
</svg>