
<svg width="96px" height="84px" viewBox="0 0 96 84" version="1.1" xmlns="http://www.w3.org/2000/svg" xmlns:xlink="http://www.w3.org/1999/xlink">
    <g id="Page-1" stroke="none" stroke-width="1" fill="none" fill-rule="evenodd">
        <g id="3994428---browser-internet-web-website-window" fill="#434343" fill-rule="nonzero">
            <path d="M78,8.8817842e-16 L18,8.8817842e-16 C8.06344365,0.0110222579 0.0110222579,8.06344365 0,18 L0,66 C0.0110222579,75.9365563 8.06344365,83.9889777 18,84 L78,84 C87.9365563,83.9889777 95.9889777,75.9365563 96,66 L96,18 C95.9889777,8.06344365 87.9365563,0.0110222579 78,8.8817842e-16 Z M84,66 C83.9936171,69.311061 81.311061,71.9936171 78,72 L18,72 C14.688939,71.9936171 12.0063829,69.311061 12,66 L12,30 L84,30 L84,66 Z" id="Shape"></path>
        </g>
    </g>
</svg>