<svg height="32" viewBox="0 0 32 32" width="32" xmlns="http://www.w3.org/2000/svg"><path d="m26 26.5659275v-.9442397c-.3167929.0997124-.65136.1826811-1 .2452629v.9818577c.3489363-.0713626.6844887-.16663 1-.2828809zm1-.4806109c.6571463-.4058858 1-.8447741 1-1.0853166v-.3951055c-.283885.2246994-.62057.434709-1 .6201303zm-3 .8980248v-.9979803c-.164681.0096535-.3314552.0146389-.5.0146389s-.335319-.0049854-.5-.0146389v.9979803c.1654116.0110173.3322798.0166586.5.0166586s.3345884-.0056413.5-.0166586zm-2-.134533v-.9818577c-.34864-.0625818-.6832071-.1455505-1-.2452629v.9442397c.3155113.1162509.6510637.2115183 1 .2828809zm-2-.7634918v-.8602918c-.37943-.1854213-.716115-.3954309-1-.6201303v.3951055c0 .2405425.3428537.6794308 1 1.0853166zm6 2.5712617v-1.0348905c-.3167929.0997124-.65136.1826811-1 .2452629v1.0287678c.3664227-.0566914.6993074-.1364465 1-.2391402zm1-.5073779c.4643768-.3397526.7935153-.7806118 1-1.3214086v-.2228973c-.283885.2246994-.62057.434709-1 .6201303zm-3 .8406875v-1.0045268c-.164681.0096535-.3314552.0146389-.5.0146389s-.335319-.0049854-.5-.0146389v1.0045268c.1616043.0067391.3282462.0101121.5.0101121s.3383957-.003373.5-.0101121zm-2-.0941694v-1.0287678c-.34864-.0625818-.6832071-.1455505-1-.2452629v1.0348905c.3006926.1026937.6335773.1824488 1 .2391402zm-2-.7465181v-.9241756c-.37943-.1854213-.716115-.3954309-1-.6201303v.2228973c.2064847.5407968.5356232.981656 1 1.3214086zm7.9790264-5.0344442c-.554556-1.4021907-1.968895-2.1147562-4.4758526-2.1147562-2.5069369 0-3.9237385.7127977-4.4819557 2.1154881.0894386.2670062.4604884.6712263 1.0915002 1.0372984.9084128.5270023 2.1236637.8472135 3.3872817.8472135s2.4788689-.3202112 3.3872817-.8472135c.6315885-.3664067 1.0027397-.7710312 1.0917447-1.0380303zm-3.0593813-3.8011024c-.6027159-.2033957-1.2483044-.3136538-1.9196451-.3136538-.0554294 0-.1106832.0007516-.1657519.0022453-.0809056-.2522604-.2563719-.4626142-.4736842-.5717952l-2.0426341-.9358025c-.5021004-.2300298-.7226571-.8235385-.4926273-1.3256388.2300298-.5021004.8235386-.7226571 1.3256389-.4926273l2.0733419.9505084c.8971638.4485819 1.5107787 1.3158636 1.6305281 2.2783032zm-7.8366867 6.6863462h-8.0829584c-1.65685425 0-3-1.3431458-3-3 0-.1243951.00773706-.2486697.02718697-.4008686l.64858934-4.1921151c.08294282-.6635426.4920194-1.2417304 1.11622488-1.5533639l2.52131711-1.1706317c.5009257-.2325767 1.0955468-.0150368 1.3281235.4858889.2325766.5009257.0150367 1.0955468-.485889 1.3281234l-2.49924134 1.1868171-.64858934 4.1921152c-.0051431.0411448-.00772212.0825697-.00772212.1240347 0 .5522847.44771525 1 1 1h8.0829584c-.0545596.3252085-.0829584.6592878-.0829584 1s.0283988.6747915.0829584 1zm-1.3485228-10c-3.3137085 0-6.00000004-2.6862915-6.00000004-6s2.68629154-6 6.00000004-6 6 2.6862915 6 6-2.6862915 6-6 6zm0-2c2.209139 0 4-1.790861 4-4s-1.790861-4-4-4-4 1.790861-4 4 1.790861 4 4 4zm2.2655644 9c.6556803-2 2.4900716-3 5.5031738-3s4.8453776 1 5.4968262 3v4c-.6640625 2-2.4973958 3-5.5 3s-4.8359375-1-5.5-3z" fill="#212121"/></svg>