<svg height="32" viewBox="0 0 32 32" width="32" xmlns="http://www.w3.org/2000/svg"><path d="m27.0152375 17.980099c1.2202648 1.3677553 1.9847625 3.2568054 1.9847625 5.019901v2h-12v-2c0-1.7630956.7644977-3.6521457 1.9847625-5.019901-.6186882-.8322248-.9847625-1.8634113-.9847625-2.980099 0-2.7614237 2.2385763-5 5-5s5 2.2385763 5 5c0 1.1166877-.3660743 2.1478742-.9847625 2.980099zm-6.5418377 1.335493c-.6633059.7449425-1.1532657 2.7164085-1.3620818 3.684408h7.777364c-.2088161-.9679995-.6987759-2.9394655-1.3620818-3.684408-.3707078.2175029-.7719296.3886053-1.1956898.5053318-.4365856.1188022-.8792631.1790762-1.3309104.1790762s-.8943248-.060274-1.3185728-.1759664c-.4360978-.1198363-.8373196-.2909387-1.2080274-.5084416zm-5.4733998 3.684408v2h-12v-2c0-1.4346031.50616017-2.9525984 1.3521594-4.2052961 1.10028336 1.3460436 2.77371739 2.2052961 4.6478406 2.2052961 1.8741232 0 3.5475572-.8592525 4.6478406-2.2052961.8459992 1.2526977 1.3521594 2.770693 1.3521594 4.2052961zm-6-3c-2.76142375 0-5-2.2385763-5-5s2.23857625-5 5-5c2.7614237 0 5 2.2385763 5 5s-2.2385763 5-5 5z" fill="#212121"/></svg>