<svg height="32" viewBox="0 0 32 32" width="32" xmlns="http://www.w3.org/2000/svg"><g fill="#212121"><path d="m5.45179448 11.3515527-.09871582.0174063c-1.20454881.2123945-2.00884883 1.3610539-1.79645437 2.5656027l2.08425063 11.8203728c.18913562 1.0726414 1.12070735 1.8278949 2.17304724 1.830464-.67339604-.4671699-1.1418597-1.2190896-1.21887007-2.099322l-1.13302465-13.9505311c-.00539268-.0616385-.00878575-.1229908-.01023296-.1839927zm6.92701832 15.5840556-1.6880542.1476856c-1.57213298.1375438-2.95817412-1.025215-3.09570651-2.5972174l-1.13302465-12.9505311c-.13753239-1.57200241 1.0255407-2.95777987 2.59767367-3.09532369l.94029889-.08226549v15.64204378c0 1.4438797 1.0200384 2.6495166 2.3788128 2.9356083z"/><path d="m14 6h6.1636023c.8027144 0 1.5719473.32169234 2.1356829.89314012l3.8332239 3.88566448c.5538157.5613923.8643171 1.3182706.8643171 2.1068599v10.1143355c0 1.6568542-1.3431458 3-3 3h-9.9968262c-1.6568542 0-3-1.3431458-3-3v-14c0-1.65685425 1.3431458-3 3-3zm5.5 2.91000366v3.58578644c0 .5522847.4477153 1 1 1h3.5857864c.2652165 0 .5195704-.1053568.7071068-.2928932.3905243-.3905243.3905243-1.0236893 0-1.4142136l-3.5857864-3.58578642c-.1875364-.18753638-.4418903-.29289322-.7071068-.29289322-.5522847 0-1 .44771525-1 1z"/></g></svg>