<svg height="32" viewBox="0 0 32 32" width="32" xmlns="http://www.w3.org/2000/svg"><path d="m7.91368135 10.9174557 1.17566279 13.4378872c.06532357.7466518.72374674 1.2990072 1.47068086 1.233659l6.0025839-.5251581.1435921.9879924c-.0295417.0058936-.0295417.0058936-.0592797.0112747l-8.44044364 1.488278c-1.20454881.2123944-2.35320828-.5919056-2.56560274-1.7964544l-2.08425063-11.8203728c-.21239446-1.2045488.59190556-2.3532082 1.79645437-2.5656027zm-.9010809 1.1743115-1.48587361.2619996c-.66065451.1164912-1.10178601.7464923-.9852948 1.4071468l2.08425064 11.8203727c.11649121.6606545.74649229 1.101786 1.4071468.9852948l1.32832296-.2342192c-.69403966-.3586135-1.19488704-1.0541441-1.268003-1.8898633zm5.98739955-3.99627697v14.90450977c0 .5522847.4477153 1 1 1h10.1431163l-2.929272 1.8460166c-.3814517.2403895-.8160082.3880181-1.2735454.4280474l-9.2495403.8092299c-1.57213298.1375438-2.95817412-1.025215-3.09570651-2.5972174l-1.13302465-12.9505311c-.13753239-1.57200241 1.0255407-2.95777987 2.59767367-3.09532369zm-3.76598741 2.33712087c-.47186779.0412831-.82084972.4570878-.77959576.9286228l1.13302466 12.9505311c.04125396.471535.45713781.8204226.92900561.7791395l1.2324182-.1078226c-.4660968-.5286898-.7488653-1.2228638-.7488653-1.9830819v-12.7218928zm4.76598741-4.4326111h6.1636023c.8027144 0 1.5719473.32169234 2.1356829.89314012l3.8332239 3.88566448c.5538157.5613923.8643171 1.3182706.8643171 2.1068599v10.1143355c0 1.6568542-1.3431458 3-3 3h-9.9968262c-1.6568542 0-3-1.3431458-3-3v-14c0-1.65685425 1.3431458-3 3-3zm0 2c-.5522847 0-1 .44771525-1 1v14c0 .5522847.4477153 1 1 1h9.9968262c.5522847 0 1-.4477153 1-1v-10.1143355c0-.2628631-.1035005-.5151559-.2881057-.7022866l-3.8332239-3.88566453c-.1879118-.19048259-.4443228-.29771337-.7118943-.29771337zm7-1.58578644c.530433 0 1.0391408.21071368 1.4142136.58578644l3.5857864 3.5857864c.7810486.7810486.7810486 2.0473786 0 2.8284272-.3750728.3750727-.8837806.5857864-1.4142136.5857864h-3.5857864c-1.1045695 0-2-.8954305-2-2v-3.58578644c0-1.1045695.8954305-2 2-2zm-1 2v3.58578644c0 .5522847.4477153 1 1 1h3.5857864c.2652165 0 .5195704-.1053568.7071068-.2928932.3905243-.3905243.3905243-1.0236893 0-1.4142136l-3.5857864-3.58578642c-.1875364-.18753638-.4418903-.29289322-.7071068-.29289322-.5522847 0-1 .44771525-1 1z" fill="#212121"/></svg>