<svg height="32" viewBox="0 0 32 32" width="32" xmlns="http://www.w3.org/2000/svg"><path d="m19.7748781 18.3035439c.0133873-.0453472.0301569-.090296.0504244-.1345351.2300298-.5021004.8235386-.7226571 1.3256389-.4926273l2.0733419.9505084c.8971638.4485819 1.5107787 1.3158636 1.6305281 2.2783032l.5908934 3.7227027c.2055074 1.6440598-.9606697 3.1434304-2.6047295 3.3489378-.1234344.0154293-.2477091.0231664-.3721042.0231664h-13.4688711c-1.65685425 0-3-1.3431458-3-3 0-.1243951.00773706-.2486697.02718697-.4008686l.64858934-4.1921151c.08294282-.6635426.4920194-1.2417304 1.11622488-1.5533639l2.52131711-1.1706317c.4881524-.2266462 1.065283-.0258383 1.3096332.4481248l.0351624-.1054871 2.9230249.9743416h3.0314353c.1824932 0 .3535689.0488843.5008468.1342726zm.2540182.9910249-1.4163259.708163c-.0002911.1065593-.0176121.2123934-.051313.313496l-.3612574 1.0837722.8 1.6-.6 3h4.0688711c.0414651 0 .0828899-.002579.1240348-.0077221.5480199-.0685025.9367456-.5682927.8729079-1.0834385l-.5908934-3.7227027c-.0414714-.3317712-.2460097-.6208651-.5143565-.7556866l-2.0426341-.9358025c-.1106102-.0506744-.2075571-.1189884-.2890335-.2000788zm-8.4144898-.229387c-.0987921.1832993-.2554635.3374185-.4588537.4318512l-2.49924134 1.1868171-.64858934 4.1921152c-.0051431.0411448-.00772212.0825697-.00772212.1240347 0 .5522847.44771525 1 1 1h4.6l-.6-3 .8-1.6-.3612574-1.0837722c-.0723233-.2169698-.0661387-.4412065.0031419-.6418867zm4.1200291-1.0651818c-3.3137085 0-6.00000004-2.6862915-6.00000004-6s2.68629154-6 6.00000004-6 6 2.6862915 6 6-2.6862915 6-6 6zm0-2c2.209139 0 4-1.790861 4-4s-1.790861-4-4-4-4 1.790861-4 4 1.790861 4 4 4zm.3138001 7.1180687-1.5975646-.783343-.4028015.805603.7719343 3.8596713h2.3603922l.7719343-3.8596713-.3957474-.7914948zm1.1315602-1.819734.4327782-1.2983347h-3.2251482l.4278809 1.2836428 1.2359696.5982256z" fill="#212121"/></svg>