<svg height="32" viewBox="0 0 32 32" width="32" xmlns="http://www.w3.org/2000/svg"><path d="m24.1049876 20-.0199008.1990074c-.1022403 1.0224036-.9625715 1.8009926-1.9900744 1.8009926h-13.99002484c-.06645952 0-.13287774-.0033126-.19900744-.0099256-1.09908773-.1099088-1.90097571-1.0899941-1.79106694-2.1890818l.8-8c.10224036-1.0224036.96257149-1.8009926 1.99007438-1.8009926h7.04251864 8.2326899c.476681 0 .8870958.3364597.9805807.8038839l1.6 8c.0129146.0645731.0194193.1302641.0194193.1961161 0 .5522847-.4477153 1-1 1zm.6158376-6.2459717-.505127 5.2330322h1.5893555zm-11.5137184 1.5591744c-.3905243-.3905243-1.0236893-.3905243-1.4142136 0s-.3905243 1.0236892 0 1.4142135l2 2c.4321531.4321531 1.1474477.3789929 1.5109713-.1122943l3.1967773-4.3203125c.3285059-.4439621.2349101-1.0701711-.209052-1.3986769-.4439621-.3285059-1.0701711-.2349101-1.3986769.209052l-2.5064546 3.3873697z" fill="#212121"/></svg>