<svg height="32" viewBox="0 0 32 32" width="32" xmlns="http://www.w3.org/2000/svg"><path d="m3 11c0-1.65685425 1.34314575-3 3-3h20c1.6568542 0 3 1.34314575 3 3v3h-1c-1.1045695 0-2 .8954305-2 2s.8954305 2 2 2h1v3c0 1.6568542-1.3431458 3-3 3h-20c-1.65685425 0-3-1.3431458-3-3v-3h1c1.1045695 0 2-.8954305 2-2s-.8954305-2-2-2h-1zm2 1.1260175c1.72522721.4440428 3 2.0101431 3 3.8739825s-1.27477279 3.4299397-3 3.8739825v1.1260175c0 .5522847.44771525 1 1 1h20c.5522847 0 1-.4477153 1-1v-1.1260175c-1.7252272-.4440428-3-2.0101431-3-3.8739825s1.2747728-3.4299397 3-3.8739825v-1.1260175c0-.5522847-.4477153-1-1-1h-20c-.55228475 0-1 .4477153-1 1zm4-1.1260175h14v10h-14zm1 9h12v-8h-12zm4.2071068-4.6867973 1.1793515 1.1793515 2.5064546-3.3873697c.3285058-.4439621.9547148-.5375579 1.3986769-.209052.4439621.3285058.5375579.9547148.209052 1.3986769l-3.1967773 4.3203125c-.3635236.4912872-1.0788182.5444474-1.5109713.1122943l-2-2c-.3905243-.3905243-.3905243-1.0236892 0-1.4142135s1.0236893-.3905243 1.4142136 0z" fill="#212121"/></svg>