<svg height="32" viewBox="0 0 32 32" width="32" xmlns="http://www.w3.org/2000/svg"><path d="m11.3507811 23-3.101391 2.4811128c-.3546261.2837008-.79524711.4382624-1.2493901.4382624-1.1045695 0-2-.8954305-2-2v-12.9193752c0-2.209139 1.790861-4 4-4h14c2.209139 0 4 1.790861 4 4v8c0 2.209139-1.790861 4-4 4zm7.3568479-6.7065845c.0455292-.0951391.0861918-.1930517.1216653-.2934155h1.1707057c.5522847 0 1-.4477153 1-1s-.4477153-1-1-1h-1.1707057c-.0354735-.1003638-.0761361-.1982764-.1216653-.2934155l.8279049-.8279048c.3905243-.3905243.3905243-1.0236893 0-1.4142136s-1.0236893-.3905243-1.4142136 0l-.8279048.8279049c-.0951391-.0455292-.1930517-.0861918-.2934155-.1216653v-1.1707057c0-.5522847-.4477153-1-1-1s-1 .4477153-1 1v1.1707057c-.1003638.0354735-.1982764.0761361-.2934155.1216653l-.8279048-.8279049c-.3905243-.3905243-1.0236893-.3905243-1.4142136 0s-.3905243 1.0236893 0 1.4142136l.8279049.8279048c-.0455292.0951391-.0861918.1930517-.1216653.2934155h-1.1707057c-.5522847 0-1 .4477153-1 1s.4477153 1 1 1h1.1707057c.0354735.1003638.0761361.1982764.1216653.2934155l-.8279049.8279048c-.3905243.3905243-.3905243 1.0236893 0 1.4142136s1.0236893.3905243 1.4142136 0l.8279048-.8279049c.0951391.0455292.1930517.0861918.2934155.1216653v1.1707057c0 .5522847.4477153 1 1 1s1-.4477153 1-1v-1.1707057c.1003638-.0354735.1982764-.0761361.2934155-.1216653l.8279048.8279049c.3905243.3905243 1.0236893.3905243 1.4142136 0s.3905243-1.0236893 0-1.4142136zm-2.707629.7065845c-1.1045695 0-2-.8954305-2-2s.8954305-2 2-2 2 .8954305 2 2-.8954305 2-2 2z" fill="#212121"/></svg>