<svg height="32" viewBox="0 0 32 32" width="32" xmlns="http://www.w3.org/2000/svg"><path d="m7.89646512 22.264669c-.28396383-.5575885-.50504408-1.1486607-.65660856-1.7624856l-2.78721234-.2651732c-.27490104-.0261539-.47655047-.2702071-.4503966-.5451082.02615387-.274901.27020711-.4765504.54510816-.4503966l2.50771545.2385821c-.03644812-.3137179-.05507123-.6315561-.05507123-.9522235v-6.527864l.02158406-.2066452 1.16162109-5.5c.18092453-.8566347 1.29739494-1.08362961 1.79846106-.36565368l3.45477629 4.95033718c1.1665195-.2510837 2.0066232-.3780383 2.5635575-.3780383.558275 0 1.4012397.1275834 2.5723716.3798819l3.5556769-4.96232773c.5114755-.71382245 1.6287832-.46895066 1.7948299.39335917l1.059082 5.49999996.0180396.1890867v6.527864c0 .3205393-.0186082.6382518-.0550276.9518478l2.5037656-.2382064c.274901-.0261538.5189543.1754956.5451081.4503966.0261539.2749011-.1754955.5189543-.4503966.5451082l-2.7832121.2647926c-.1560811.6322466-.3859124 1.2403575-.6822466 1.8126065l2.7093261.1867746c.2754885.0189915.4834204.2577148.4644289.5332033-.0189915.2754886-.2577148.4834205-.5332033.4644289l-3.2252792-.2223432c-.7695129 1.090691-1.8063455 1.9981022-3.0460497 2.6179543-.1388554.0694277-.2919685.1055728-.4472136.1055728h-8c-.1552451 0-.3083582-.0361451-.4472136-.1055728-1.2582717-.6291359-2.3075494-1.5545092-3.08044545-2.6670844l-3.93795373.2714733c-.27548854.0189916-.5142118-.1889403-.53320334-.4644289-.01899153-.2754885.18894037-.5142118.4644289-.5332033zm2.23539058-.1541026 1.5866868-.1093825c.2754885-.0189916.5142118.1889403.5332033.4644289.0189915.2754885-.1889404.5142118-.4644289.5332033l-.8385812.0578098c.3849771.364526.8194732.682702 1.2965948.9433741h7.509339c.4560744-.2491731.8732011-.5508887 1.2453591-.8954048l-1.5344158-.1057791c-.2754886-.0189915-.4834205-.2577148-.4644289-.5332033.0189915-.2754886.2577148-.4834205.5332033-.4644289l2.2989441.1584838c.3202788-.4471471.5808382-.9357282.773816-1.4530215l-3.0597915.2911062c-.2749011.0261539-.5189543-.1754956-.5451082-.4503966-.0261539-.2749011.1754956-.5189543.4503966-.5451082l3.4411599-.3273893c.0699677-.3741436.1061959-.7578172.1061959-1.1469943v-6.4324601l-.6011667-3.12196508-2.2007048 3.07133418c-.4640123.6475821-1.2681052.9580204-2.0469297.7902594-1.041209-.2243091-1.7727767-.3350324-2.1511988-.3350324-.3773419 0-1.1060569.1101218-2.1428488.3332346-.787566.1694805-1.5999386-.1500899-2.0608572-.8106821l-2.13336867-3.05689666-.66292533 3.13879396v6.4234142c0 .3893083.03625259.7731094.10626667 1.1473727l3.43718283.3270109c.2749011.0261539.4765505.2702071.4503966.5451082-.0261538.274901-.2702071.4765505-.5451081.4503966l-3.0557415-.2907209c.18592223.49828.43455111.9699152.7388592 1.4035349zm2.8681443-3.1105664c-.5522847 0-1-.4477153-1-1s.4477153-1 1-1 1 .4477153 1 1-.4477153 1-1 1zm6 0c-.5522847 0-1-.4477153-1-1s.4477153-1 1-1 1 .4477153 1 1-.4477153 1-1 1zm-2.2928932 3.2928932c-.3905243.3905243-1.0236893.3905243-1.4142136 0l-.7928932-.7928932c-.1647844-.1647844-.2573593-.38828-.2573593-.6213203 0-.4852814.3933983-.8786797.8786796-.8786797h1.7573594c.2330403 0 .4565359.0925749.6213203.2573593.3431458.3431458.3431458.8994949 0 1.2426407z" fill="#212121"/></svg>