<svg height="32" viewBox="0 0 32 32" width="32" xmlns="http://www.w3.org/2000/svg"><path d="m13.5471781 19.1599287-2.4613764 2.4613764c.2617599.3952165.4141983.8691537.4141983 1.3786949 0 1.3807119-1.1192881 2.5-2.5 2.5-1.38071187 0-2.5-1.1192881-2.5-2.5s1.11928813-2.5 2.5-2.5c.50954117 0 .98347844.1524384 1.3786949.4141983l2.4613764-2.4613764c-.5265305-.6773418-.8400713-1.5284662-.8400713-2.4528219 0-1.8638394 1.2747728-3.4299397 3-3.8739825v-3.29672321c-1.1651924-.41183641-2-1.52307546-2-2.82929429 0-1.65685425 1.3431458-3 3-3s3 1.34314575 3 3c0 1.30621883-.8348076 2.41745788-2 2.82929429v3.29672321c1.7252272.4440428 3 2.0101431 3 3.8739825 0 1.0594818-.4119104 2.0227567-1.0843229 2.7384164l1.7364971 2.3649715c.2714655-.0675401.5554593-.1033879.8478258-.1033879 1.9329966 0 3.5 1.5670034 3.5 3.5s-1.5670034 3.5-3.5 3.5-3.5-1.5670034-3.5-3.5c0-.9142922.3505724-1.7467037.9246281-2.3701456l-1.7032884-2.3197439c-.3850047.1233135-.7953974.1898895-1.2213397.1898895-.9243557 0-1.7754801-.3135408-2.4528219-.8400713zm2.4528219-1.1599287c1.1045695 0 2-.8954305 2-2s-.8954305-2-2-2-2 .8954305-2 2 .8954305 2 2 2zm-7 6.5c.82842712 0 1.5-.6715729 1.5-1.5s-.67157288-1.5-1.5-1.5-1.5.6715729-1.5 1.5.67157288 1.5 1.5 1.5zm7-17.5c.5522847 0 1-.44771525 1-1s-.4477153-1-1-1-1 .44771525-1 1 .4477153 1 1 1zm5.5 19c.8284271 0 1.5-.6715729 1.5-1.5s-.6715729-1.5-1.5-1.5-1.5.6715729-1.5 1.5.6715729 1.5 1.5 1.5z" fill="#212121"/></svg>