<svg height="32" viewBox="0 0 32 32" width="32" xmlns="http://www.w3.org/2000/svg"><path d="m17 14v-2c0-.5522847-.4477153-1-1-1s-1 .4477153-1 1v2h-2c-.5522847 0-1 .4477153-1 1s.4477153 1 1 1h2v2c0 .5522847.4477153 1 1 1s1-.4477153 1-1v-2h2c.5522847 0 1-.4477153 1-1s-.4477153-1-1-1zm-5.6492189 9-3.101391 2.4811128c-.3546261.2837008-.79524711.4382624-1.2493901.4382624-1.1045695 0-2-.8954305-2-2v-12.9193752c0-2.209139 1.790861-4 4-4h14c2.209139 0 4 1.790861 4 4v8c0 2.209139-1.790861 4-4 4z" fill="#212121"/></svg>