<svg height="32" viewBox="0 0 32 32" width="32" xmlns="http://www.w3.org/2000/svg"><path d="m9.50187837 9.81407508c.81112323-1.66599855 2.52054863-2.81407508 4.49812163-2.81407508h4c1.9897097 0 3.7079704 1.16221167 4.512954 2.84480704.2000588-.76201409.5255515-1.24784618.9566615-1.32386251 1.0877886-.19180648 2.4360851 2.29818437 3.0115046 5.56155017.5754194 3.2633658.1600621 6.0643364-.9277265 6.2561429-.85975.1515971-1.8822334-1.3720626-2.5572443-3.6287475-.0301429.4851473-.2362213.9443954-.5819357 1.2901099l-.464493.464493-.4613038 3.6904302c-.345992 2.7679363-2.6989398 4.8450768-5.4884168 4.8450768s-5.1424248-2.0771405-5.4884168-4.8450768l-.4613038-3.6904302-.46449296-.464493c-.33125312-.3312531-.53430784-.7667402-.57723215-1.2293706-.67509309 2.2232302-1.68692486 3.7182412-2.53893878 3.5680082-1.08778861-.1918065-1.50314589-2.9927771-.92772644-6.2561429.57541944-3.2633658 1.92371596-5.75335665 3.01150457-5.56155017.42528591.07498938.74778891.54879643.94848473 1.29313055zm6.49812163 13.18592492c1.1045695 0 2-.6715729 2-1.5s-.8954305-1.5-2-1.5-2 .6715729-2 1.5.8954305 1.5 2 1.5zm-2.5-6c.8284271 0 1.5-.6715729 1.5-1.5s-.6715729-1.5-1.5-1.5-1.5.6715729-1.5 1.5.6715729 1.5 1.5 1.5zm5 0c.8284271 0 1.5-.6715729 1.5-1.5s-.6715729-1.5-1.5-1.5-1.5.6715729-1.5 1.5.6715729 1.5 1.5 1.5z" fill="#212121"/></svg>