<svg height="32" viewBox="0 0 32 32" width="32" xmlns="http://www.w3.org/2000/svg"><path d="m26.8628963 17h-3.0750549l-1.8207148-6.466565c-.1308138-.4646065-.778881-.4925097-.9491449-.0408664l-2.547381 6.7572032-1.0587593-1.1706137c-.2299549-.2542489-.6417519-.2069364-.8080533.0928395l-1.262017 2.2749179-2.8143632-4.7952159c-.1827558-.3113862-.6251993-.3323474-.836575-.0396336l-2.44650888 3.387934h-4.11716719c-1.93831182-2.7198074-1.68742007-6.5200995.75267524-8.96019478 2.71974029-2.71974029 7.12931053-2.71974029 9.84905083 0l.2661437.26614367.2661437-.26614367c2.7197403-2.71974029 7.1293105-2.71974029 9.8490508 0 2.4400953 2.44009528 2.6909871 6.24038738.7526752 8.96019478zm-.8638191 1-8.6481102 8.6481102c-.3638884.3638884-.8515638.5616489-1.3559404.5616489s-.992052-.1977605-1.3559404-.5616489l-8.64811019-8.6481102h3.50902399c.16056343 0 .31135851-.0771094.40535849-.2072809l2.14753001-2.9739069 2.8698989 4.8898398c.1959488.3338648.6806499.3279864.8684441-.0105324l1.3478867-2.4297072 1.1394701 1.2598514c.2509937.2775103.7066911.1911093.8386839-.159016l2.2996703-6.1001239 1.5109504 5.3663864c.060696.2155716.2573334.3644897.4812868.3644897z" fill="#212121"/></svg>