<svg height="32" viewBox="0 0 32 32" width="32" xmlns="http://www.w3.org/2000/svg"><path d="m19 27h3v-14.5-3.5h-12v4h-1v-2h1v16h-1v-14h-4v14h8v-5h6zm4 0h4v-14h-4zm-15-16v-2c0-1.1045695.8954305-2 2-2h12c1.1045695 0 2 .8954305 2 2v2h3c1.1045695 0 2 .8954305 2 2v14c0 1.1045695-.8954305 2-2 2h-22c-1.1045695 0-2-.8954305-2-2v-14c0-1.1045695.8954305-2 2-2zm16 8h2v2h-2zm0-4h2v2h-2zm0 8h2v2h-2zm-18-4h2v2h-2zm0 4h2v2h-2zm0-8h2v2h-2zm7-2h2v7h-2zm4 0h2v7h-2zm-2 2h2v2h-2zm-1 12h4v-4h-4z" fill="#212121"/></svg>