<svg height="32" viewBox="0 0 32 32" width="32" xmlns="http://www.w3.org/2000/svg"><path d="m26.292979 23.5777005c.2353751.4371252.3585867.9258321.3585867 1.4222995 0 1.6568542-1.3431458 3-3 3h-14.30313138c-.49646742 0-.98517426-.1232116-1.42229947-.3585867-1.45881229-.7855143-2.00462814-2.6049005-1.21911383-4.0637128l5.29297898-9.8298181v-3.7478824h-1c-.5522847 0-1-.44771525-1-1v-3c0-.55228475.4477153-1 1-1h11c.5522847 0 1 .44771525 1 1v3c0 .55228475-.4477153 1-1 1h-1v3.7478824zm-14.292979-15.5777005h1c.5522847 0 1 .44771525 1 1v5c0 .1654891-.0410705.3283914-.1195289.4740998l-1.3909722 2.5832341 8.0334354.0230903-1.4034054-2.6063244c-.0784584-.1457084-.1195289-.3086107-.1195289-.4740998v-5c0-.55228475.4477153-1 1-1h1v-1h-9zm3 15c1.1045695 0 2-.8954305 2-2s-.8954305-2-2-2-2 .8954305-2 2 .8954305 2 2 2zm4.5 2c.8284271 0 1.5-.6715729 1.5-1.5s-.6715729-1.5-1.5-1.5-1.5.6715729-1.5 1.5.6715729 1.5 1.5 1.5z" fill="#212121"/></svg>