<svg height="32" viewBox="0 0 32 32" width="32" xmlns="http://www.w3.org/2000/svg"><path d="m20.479629 17-1.3601001-2.5259002c-.0784584-.1457084-.1195289-.3086107-.1195289-.4740998v-5c0-.55228475.4477153-1 1-1h1v-1h-9v1h1c.5522847 0 1 .44771525 1 1v5c0 .1654891-.0410705.3283914-.1195289.4740998l-1.3601001 2.5259002zm.5384615 1h-9.0180905v-.0335967l-3.53203678 6.5594969c-.26183811.4862707-.07989949 1.0927328.40637127 1.3545709.14570841.0784584.30861069.1195289.47409983.1195289h14.30313138c.5522847 0 1-.4477153 1-1 0-.1654891-.0410705-.3283914-.1195289-.4740998zm5.2748885 5.5777005c.2353751.4371252.3585867.9258321.3585867 1.4222995 0 1.6568542-1.3431458 3-3 3h-14.30313138c-.49646742 0-.98517426-.1232116-1.42229947-.3585867-1.45881229-.7855143-2.00462814-2.6049005-1.21911383-4.0637128l5.29297898-9.8298181v-3.7478824h-1c-.5522847 0-1-.44771525-1-1v-3c0-.55228475.4477153-1 1-1h11c.5522847 0 1 .44771525 1 1v3c0 .55228475-.4477153 1-1 1h-1v3.7478824zm-10.292979-.5777005c-1.1045695 0-2-.8954305-2-2s.8954305-2 2-2 2 .8954305 2 2-.8954305 2-2 2zm3.5 2c-.8284271 0-1.5-.6715729-1.5-1.5s.6715729-1.5 1.5-1.5 1.5.6715729 1.5 1.5-.6715729 1.5-1.5 1.5z" fill="#212121"/></svg>