<svg height="32" viewBox="0 0 32 32" width="32" xmlns="http://www.w3.org/2000/svg"><path d="m22.2266349 22.5195281 4.6269185 4.6269185c.1952621.1952622.1952621.5118446 0 .7071068-.1952622.1952621-.5118446.1952621-.7071068 0l-4.6269185-4.6269185c-.9537469.7950534-2.1807797 1.2733651-3.5195281 1.2733651-3.0375661 0-5.5-2.4624339-5.5-5.5s2.4624339-5.5 5.5-5.5 5.5 2.4624339 5.5 5.5c0 1.3387484-.4783117 2.5657812-1.2733651 3.5195281zm-.9005704-.4884286c.7292499-.7997571 1.1739355-1.8634973 1.1739355-3.0310995 0-2.4852814-2.0147186-4.5-4.5-4.5s-4.5 2.0147186-4.5 4.5 2.0147186 4.5 4.5 4.5c1.1676022 0 2.2313424-.4446856 3.0310995-1.1739355.024258-.0655205.062707-.1269778.1153471-.1796179s.1140974-.0910891.1796179-.1153471zm-7.4682888-10.3244216c-.6203527-1.0474571-1.0568478-1.78612272-1.371559-2.33640341-.3064028.5329048-.7304157 1.25264321-1.3317679 2.27266951-.1872213.3175689-.3457599.589817-.4939835.8491418-1.10668641 1.936204-1.6604653 3.2386724-1.6604653 4.0079142 0 1.5615038 1.031935 2.9216731 2.5062936 3.3572.5296586.1564617.8321944.712672.6757328 1.2423306-.1564617.5296586-.712672.8321944-1.2423306.6757328-2.31878626-.6849718-3.9396958-2.8214544-3.9396958-5.2752634 0-1.2505338.63670404-2.7480392 1.92408872-5.0003841.15319114-.2680157.31604936-.5476817.50747918-.872389 1.7944523-3.04378808 1.9168081-3.26312902 2.1099447-3.91236196.2882045-.96880522 1.6676775-.9472183 1.9254272.03013038.1681485.63759389.371199 1.00373975 2.1116802 3.94251878.1814224.3063293.3353325.5690942.4804038.8209704.071737.1245515.1405711.2451781.2070465.3629044.2715523.4809135.1018315 1.0909076-.3790819 1.3624599-.4809135.2715523-1.0909076.1018316-1.3624599-.3790819-.0635903-.1126171-.1296167-.2283232-.1985961-.3480869-.1405509-.2440279-.2905466-.5001098-.4681567-.8000021zm2.2640128 8.932564c-.415519.3638164-1.0472952.3219032-1.4111117-.0936157-.3638164-.415519-.3219032-1.0472952.0936157-1.4111117.7553764-.6613858 1.1957075-1.6111771 1.1957075-2.6345145 0-.5522847.4477153-1 1-1s1 .4477153 1 1c0 1.6059906-.69356 3.1019951-1.8782115 4.1392419z" fill="#212121"/></svg>