<svg height="32" viewBox="0 0 32 32" width="32" xmlns="http://www.w3.org/2000/svg"><path d="m18.1287205 6.65967165c-.7341737-.42004463-1.5583111-.65967165-2.3942849-.65967165-2.3753362 0-4.4612559 1.71808476-4.9290906 3.97344076zm.9336733.67513085-7.7654285 3.5137946c.2780864-.0461794.5810108-.0962591.9136908-.1510811.3305194-.0544659 2.4359486-.4002386 3.0613988-.5034791.2198366-.0363031.2198366-.0363031.4394019-.0726312 2.0985563-.34740268 3.6448182-.61196685 4.7501945-.81684389-.3122761-.75964061-.800357-1.43264359-1.3992575-1.96975931zm-6.5380161 21.5724241h-1.9218346c-.0750477.0184231-.1534397.0283798-.2341121.0287953l-1.02459172.0052765c-.99559328.0051271-1.92887275-.4840027-2.49117216-1.3056179l-.32478937-.4745726c-.30011082-.4385131-.47673393-.9463526-.51593444-1.4706925-.00789187-.0768974-.01194331-.1536999-.01194331-.2302181 0-.1243951.00773706-.2486698.02718697-.4008686l.00034676-.0022412.38170538-4.5149808c.08789797-1.0396963.70969333-1.9590449 1.64193975-2.4276717l2.99968904-1.5079004c.4934473-.2480488 1.0945486-.049114 1.3425975.4443333.0389793.0775422.0669208.1577428.084416.2388141.1622175.1106484.306171.2041386.4540342.2937886.8925347.5411465 1.7781996 1.4077777 2.8026253 1.4077777 1.1021406 0 2.124514-.3119853 3.0727003-.8448362.3325861-.1869029.4394722-.6974802.7312524-.9221709.0277534-.0966788.0706814-.1907794.1294561-.2789414.3063525-.4595287.9272218-.5837026 1.3867505-.2773501l2.3127849 1.5418566c.660176.4401173 1.1191162 1.1238391 1.27638 1.9015304l.9592679 4.7437119c.160673.7945504-.0070358 1.6203045-.4649364 2.2892239l-.2172864.3174207c-.0736711.1076218-.1537122.2095425-.2394296.3053966h-9.9226915c-.8891136 0-1.5313672-.8769961-1.5505933-2.1327403-.0192764-1.2590271.5895455-2.1021229 1.5505933-2.1021229h6.7250976c.5522848 0 1-.4477153 1-1 0-.5522848-.4477152-1-1-1h-6.7250976c-2.2357499 0-3.585026 1.868476-3.5503589 4.1327403.0199959 1.3060226.4953941 2.486585 1.3159475 3.2422597zm3.2100579-11.9072266c-3.3137085 0-6.00000004-2.6862915-6.00000004-6s2.68629154-6 6.00000004-6 6 2.6862915 6 6-2.6862915 6-6 6z" fill="#212121"/></svg>