<svg height="32" viewBox="0 0 32 32" width="32" xmlns="http://www.w3.org/2000/svg"><path d="m20.4556016 9.28990923c-.3125119-.75364306-.7981608-1.421447-1.3932078-1.95510673l-7.7206363 3.4935265 9.1138441-1.53841978zm-.7611095 1.14262227-7.8871977 1.3313614c.3565385 1.8437515 1.9792388 3.2361071 3.9271412 3.2361071 2.209139 0 4-1.790861 4-4 0-.1926402-.0136179-.3820997-.0399435-.5674685zm-1.5657716-3.77285985c-.7341737-.42004463-1.5583111-.65967165-2.3942849-.65967165-2.3753362 0-4.4612559 1.71808476-4.9290906 3.97344076zm-7.0778526 9.94686295c.4934473-.2480488 1.0945486-.049114 1.3425975.4443333.2480488.4934473.049114 1.0945486-.4443333 1.3425975l-2.999689 1.5079003c-.31074881.1562089-.51801393.4626584-.54731325.8092239l-.39497455 4.6719345c-.0194112.2296042.04106572.4588674.1712044.6490222l.32478937.4745726c.18743313.2738718.49852629.436915.83039072.435206l1.02459171-.0052765c.5522774-.0028441 1.0022924.4425596 1.0051365.994837s-.4425596 1.0022924-.994837 1.0051365l-1.02459172.0052765c-.99559328.0051271-1.92887275-.4840027-2.49117216-1.3056179l-.32478937-.4745726c-.39041604-.5704644-.57184679-1.2582539-.51361319-1.9470668l.39497455-4.6719344c.08789797-1.0396963.70969333-1.9590449 1.64193975-2.4276717zm8.8944319 1.7255157c-.4595287-.3063525-.5837026-.9272218-.2773501-1.3867505s.9272218-.5837026 1.3867505-.2773501l2.3127849 1.5418566c.660176.4401173 1.1191162 1.1238391 1.27638 1.9015304l.9592679 4.7437119c.160673.7945504-.0070358 1.6203045-.4649364 2.2892239l-.2172864.3174207c-.5592346.8169523-1.4855167 1.3053966-2.4755443 1.3053966h-7.6865768c-2.10122 0-3.5142185-1.6199856-3.5503099-3.5991994-.03667-2.0109443 1.360706-3.6356638 3.5503099-3.6356638h6.7250976c.5522848 0 1 .4477152 1 1 0 .5522847-.4477152 1-1 1h-6.7250976c-1.0071938 0-1.5679157.6519475-1.5506423 1.5991994.0173494.9514244.6141629 1.6356638 1.5506423 1.6356638h7.6865768c.3300092 0 .6387699-.1628147.8251815-.4351322l.2172864-.3174206c.1526335-.2229732.2085364-.4982246.1549788-.7630747l-.9592679-4.743712c-.0524213-.2592304-.2054013-.4871376-.42546-.6338434zm-4.2108642-1.3320503c-3.3137085 0-6.00000004-2.6862915-6.00000004-6s2.68629154-6 6.00000004-6 6 2.6862915 6 6-2.6862915 6-6 6z" fill="#212121"/></svg>