<svg height="32" viewBox="0 0 32 32" width="32" xmlns="http://www.w3.org/2000/svg"><path d="m22.5 21.5986534c-.8967021-.5187141-1.5-1.4882299-1.5-2.5986534 0-1.6568542 1.3431458-3 3-3s3 1.3431458 3 3c0 1.1104235-.6032979 2.0799393-1.5 2.5986534v2.4013466c0 3.8659932-2.6340068 6.5-6.5 6.5s-6.5-2.6340068-6.5-6.5v-3.2223672c-1.5725155-.4776348-2.85846577-1.6907525-3.3973666-3.3074549l-1.76263706-6.2801755c-.60823443-1.82470323-.47872125-3.33595872 1.06000366-4.4900024l.93333333-.7c.22928926-.17196694.4477769-.32300283.66666667-.45212834v-.04787166c0-.55228475.4477153-1 1-1s1 .44771525 1 1v1c0 .55228475-.4477153 1-1 1-.3991303 0-.743646-.23383261-.9040282-.57197886l-.4959718.37197886c-.85003625.63752719-1.19675362 1.74746148-.86074729 2.7554805l2.26074729 6.7822418c.0242655.0727966.0510036.1442574.0801023.2143016.9860256.6319841 1.9637194.9479761 2.9330813.9479761.9687348 0 1.9374696-.3155833 2.9062044-.9467499.0292962-.0704364.0562049-.1423063.080612-.2155278l2.2607473-6.7822418c.3360063-1.00801902-.010711-2.11795331-.8607473-2.7554805l-.4959718-.37197886c-.1603822.33814625-.5048979.57197886-.9040282.57197886-.5522847 0-1-.44771525-1-1v-1c0-.55228475.4477153-1 1-1s1 .44771525 1 1v.0444647c.2174476.12987341.4353578.28205365.6666667.4555353l.9333333.7c1.5387249 1.15404368 1.6682076 2.66529917 1.0599731 4.4900024l-1.7626065 6.2801755c-.5389008 1.6167024-1.8248511 2.8298201-3.3973666 3.3074549v3.2223672c0 1.8524154 1.5260614 3.5 3.5 3.5s3.5-1.6475846 3.5-3.5zm-8-.6227887c-.164942.0159837-.3317564.0241353-.5.0241353s-.335058-.0081516-.5-.0241353v3.0241353c0 3.3137085 2.1862915 5.5 5.5 5.5s5.5-2.1862915 5.5-5.5v-2h-1v2c0 2.209139-1.789978 4.5-4.5 4.5s-4.5-2.290861-4.5-4.5zm9.5.0241353c1.1045695 0 2-.8954305 2-2s-.8954305-2-2-2-2 .8954305-2 2 .8954305 2 2 2z" fill="#212121" fill-rule="evenodd"/></svg>