<svg height="32" viewBox="0 0 32 32" width="32" xmlns="http://www.w3.org/2000/svg"><path d="m23 21.8550607c-1.4457445-.4302746-2.5-1.7695504-2.5-3.3550607 0-1.9329966 1.5670034-3.5 3.5-3.5s3.5 1.5670034 3.5 3.5c0 1.5855103-1.0542555 2.9247861-2.5 3.3550607v2.1449393c0 3.3137085-2.6862915 6-6 6s-6-2.6862915-6-6v-3.0974662c-1.7966255-.3542871-3.30235444-1.6473195-3.8973666-3.4323559l-1.76263706-6.2801755c-.60823443-1.82470323-.47872125-3.33595872 1.06000366-4.4900024l.93333333-.7c.22928926-.17196694.4477769-.32300283.66666667-.45212834v-.04787166c0-.55228475.4477153-1 1-1 .5522847 0 1 .44771525 1 1v1c0 .55228475-.4477153 1-1 1-.3991303 0-.743646-.23383261-.9040282-.57197886l-.4959718.37197886c-.85003625.63752719-1.19675362 1.74746148-.86074729 2.7554805l2.26074729 6.7822418c.0242655.0727966.0510036.1442574.0801023.2143016.9860256.6319841 1.9637194.9479761 2.9330813.9479761.9687348 0 1.9374696-.3155833 2.9062044-.9467499.0292962-.0704364.0562049-.1423063.080612-.2155278l2.2607473-6.7822418c.3360063-1.00801902-.010711-2.11795331-.8607473-2.7554805l-.4959718-.37197886c-.1603822.33814625-.5048979.57197886-.9040282.57197886-.5522847 0-1-.44771525-1-1v-1c0-.55228475.4477153-1 1-1s1 .44771525 1 1v.0444647c.2174476.12987341.4353578.28205365.6666667.4555353l.9333333.7c1.5387249 1.15404368 1.6682076 2.66529917 1.0599731 4.4900024l-1.7626065 6.2801755c-.5950122 1.7850364-2.1007411 3.0780688-3.8973666 3.4323559v3.0974662c0 2.209139 1.790861 4 4 4s4-1.790861 4-4zm1-1.8550607c.8284271 0 1.5-.6715729 1.5-1.5s-.6715729-1.5-1.5-1.5-1.5.6715729-1.5 1.5.6715729 1.5 1.5 1.5z" fill="#212121" fill-rule="evenodd"/></svg>