<svg height="32" viewBox="0 0 32 32" width="32" xmlns="http://www.w3.org/2000/svg"><path d="m18.5712561 25c-1.2647244-.6055714-2.3738672-1.4894044-3.5898547-2.7053918-1.5213799-1.52138-3.0333295-4.1954111-3.2328324-5.8196407l-.0594643-.4841216.0620556-.0620555-7.82878428-7.8287843 4.24264069-4.24264068 8.47523089 8.47523088 11.6100709 11.6100709-.7071068.7071068c-1.0923335 1.0923336-2.7580857 1.5172081-4.9507488 1.350226h-13.5924629v-1zm-2.5774551-10.4854232-2.1641077 2.1641077c.3486557 1.2120878 1.4819926 3.117781 2.5659217 4.2017101 1.8955544 1.8955544 3.3684036 2.7862756 5.8584237 3.0777558 1.2851185.1504351 2.2787259.0792607 2.99842-.1849159zm-7.82878429-7.82878426-1.41421357 1.41421356 6.29325036 6.2932504 1.4142136-1.4142136z" fill="#212121"/></svg>