<svg height="32" viewBox="0 0 32 32" width="32" xmlns="http://www.w3.org/2000/svg"><path d="m18.5712561 25c-1.2647244-.6055714-2.3738672-1.4894044-3.5898547-2.7053918-1.5213799-1.52138-3.0333295-4.1954111-3.2328324-5.8196407l-.0594643-.4841216.0620556-.0620555-7.82878428-7.8287843 4.24264069-4.24264068 8.47523089 8.47523088 11.6100709 11.6100709-.7071068.7071068c-1.0923335 1.0923336-2.7580857 1.5172081-4.9507488 1.350226h-13.5924629v-1zm-1.2860999-4.7821045c-1.3591308-1.3061523-2.2038574-3.1293945-2.7497173-4.2449566-.1568324.1568323-.3920809.3920809-.7057456.7057456.3486557 1.2120878 1.4819926 3.117781 2.5659217 4.2017101 1.8955544 1.8955544 3.3684036 2.7862756 5.8584237 3.0777558 1.2851185.1504351 2.2787259.0792607 2.99842-.1849159-1.6981694-.2452044-2.8838034-.5116163-3.5569021-.7992355-1.6920993-.7230445-3.0512695-1.4499511-4.4104004-2.7561035z" fill="#212121"/></svg>