<svg height="32" viewBox="0 0 32 32" width="32" xmlns="http://www.w3.org/2000/svg"><path d="m4.43615915 15.1047818 8.43968175 8.4755428c-1.0455365.8856135-2.3983203 1.4196754-3.8758409 1.4196754-3.3137085 0-6-2.6862915-6-6 0-1.4866651.54069309-2.8470445 1.43615915-3.8952182zm.71030008-.7039031c1.04243828-.8743681 2.38650295-1.4008787 3.85354077-1.4008787 3.3137085 0 6 2.6862915 6 6 0 1.4761816-.5330944 2.8278523-1.4172685 3.8729975zm19.81401627 1.4908302-6.7614808 1.8117333 1.4731792 5.4979794c.5002963 1.8671314 2.4194757 2.9751701 4.286607 2.4748737 1.8671314-.5002963 2.9751701-2.4194756 2.4748738-4.286607zm-6.4368945-10.4998559c2.9340635-.78617997 5.9499168.95502373 6.7360968 3.88908729l3.1058285 11.59110991c.78618 2.9340636-.9550237 5.9499168-3.8890873 6.7360968-2.9340635.78618-5.9499168-.9550237-6.7360968-3.8890873l-3.1058285-11.5911099c-.78618-2.93406358.9550237-5.94991684 3.8890873-6.7360968z" fill="#212121"/></svg>